M48
;GenerationSoftware,Autodesk,EAGLE,9.7.0*%
;CreationDate,2025-04-24T18:48:56Z*%
FMAT,2
ICI,OFF
METRIC,TZ,000.000
T7C0.350
T6C1.016
T5C1.020
T4C1.050
T3C1.200
T2C1.600
T1C3.048
%
G90
M71
T1
X210820Y5080
X5080Y5080
X5080Y236220
X210820Y236220
T2
X174650Y53950
X206350Y53950
X206350Y47650
X200050Y47650
X92050Y219050
X92050Y212750
X85750Y212750
X85750Y219050
X200050Y53950
X60300Y60300
X60300Y54000
X54000Y54000
X54000Y60300
X28550Y28550
X92050Y28550
X92050Y22250
X85750Y22250
X180950Y187350
X174650Y47650
X180950Y47650
X180950Y53950
X28550Y22250
X174650Y99670
X174650Y93370
X180950Y93370
X180950Y99670
X22250Y22250
X174650Y147930
X174650Y141630
X180950Y141630
X180950Y147930
X22250Y28550
X174650Y193650
X174650Y187350
X28550Y92050
X180950Y193650
X28550Y85750
X142900Y53950
X142900Y47650
X149200Y47650
X22250Y85750
X149200Y53950
X22250Y92050
X142900Y99670
X142900Y93370
X149200Y93370
X149200Y99670
X142900Y147930
X142900Y141630
X149200Y141630
X149200Y147930
X117500Y93370
X142900Y193650
X142900Y187350
X149200Y187350
X149200Y193650
X117500Y193650
X117500Y187350
X123800Y187350
X123800Y193650
X117500Y147930
X117500Y141630
X123800Y141630
X123800Y147930
X117500Y99670
X85750Y92050
X123800Y93370
X123800Y99670
X117500Y53950
X117500Y47650
X123800Y47650
X123800Y53950
X85750Y28550
X92050Y92050
X92050Y85750
X85750Y85750
X92050Y155550
X92050Y149250
X85750Y149250
X85750Y155550
X206350Y99670
X206350Y93370
X200050Y93370
X200050Y99670
X206350Y147930
X206350Y141630
X200050Y141630
X200050Y147930
X206350Y193650
X206350Y187350
X200050Y187350
X200050Y193650
X28550Y155550
X28550Y149250
X22250Y149250
X22250Y155550
X60300Y187300
X60300Y181000
X54000Y181000
X54000Y187300
X28550Y219050
X28550Y212750
X22250Y212750
X22250Y219050
T3
X57150Y57150
X88900Y25400
X177800Y50800
X177800Y96520
X177800Y144780
X177800Y190500
X120650Y50800
X146050Y50800
X146050Y144780
X25400Y152400
X203200Y50800
X88900Y152400
X203200Y144780
X120650Y96520
X120650Y144780
X25400Y25400
X57150Y184150
X88900Y88900
X120650Y190500
X203200Y190500
X25400Y88900
X203200Y96520
X25400Y215900
X146050Y190500
X146050Y96520
X88900Y215900
T4
X45720Y220980
X189230Y16510
X45720Y16510
X195580Y223520
T5
X138430Y228600
X140970Y12700
X138430Y12700
X140970Y15240
X138430Y15240
X140970Y17780
X138430Y17780
X140970Y20320
X138430Y20320
X140970Y22860
X138430Y22860
X140970Y25400
X138430Y25400
X6350Y121920
X8890Y119380
X8890Y121920
X11430Y119380
X11430Y121920
X13970Y119380
X13970Y121920
X16510Y119380
X16510Y121920
X19050Y119380
X19050Y121920
X6350Y119380
X31750Y119380
X31750Y121920
X34290Y119380
X34290Y121920
X36830Y119380
X36830Y121920
X39370Y119380
X39370Y121920
X41910Y119380
X41910Y121920
X44450Y119380
X44450Y121920
X81280Y127000
X83820Y127000
X81280Y124460
X83820Y124460
X81280Y121920
X83820Y121920
X81280Y119380
X83820Y119380
X81280Y116840
X83820Y116840
X81280Y114300
X83820Y114300
X140970Y215900
X138430Y215900
X140970Y218440
X138430Y218440
X140970Y220980
X138430Y220980
X140970Y223520
X138430Y223520
X140970Y226060
X138430Y226060
X140970Y228600
T6
X86360Y199390
X148590Y127000
X22860Y199390
X25400Y199390
X27940Y199390
X54610Y167640
X57150Y167640
X59690Y167640
X88900Y199390
X91440Y199390
X22860Y134620
X25400Y134620
X27940Y134620
X86360Y135890
X88900Y135890
X91440Y135890
X22860Y71120
X25400Y71120
X27940Y71120
X54610Y40640
X57150Y40640
X59690Y40640
X22860Y8890
X25400Y8890
X27940Y8890
X86360Y8890
X88900Y8890
X91440Y8890
X118110Y173990
X120650Y173990
X123190Y173990
X143510Y173990
X146050Y173990
X148590Y173990
X118110Y127000
X120650Y127000
X123190Y127000
X143510Y127000
X146050Y127000
X118110Y80010
X120650Y80010
X123190Y80010
X143510Y80010
X146050Y80010
X148590Y80010
X118110Y34290
X120650Y34290
X123190Y34290
X143510Y34290
X146050Y34290
X148590Y34290
X86360Y71120
X88900Y71120
X91440Y71120
T7
X129540Y214630
X125304Y205657
X130810Y213360
X124844Y203200
X133350Y212090
X99060Y106680
X101600Y114300
X162560Y114300
X101771Y115741
X87630Y105410
X101855Y117095
X162560Y116840
X186690Y129540
X193040Y129540
X101938Y118448
X162560Y118234
X85090Y107950
X191770Y66040
X113030Y34290
X106680Y2540
X8890Y115570
X8890Y104140
X12236Y139236
X5712Y142240
X162560Y115570
X13970Y137160
X4696Y140970
X15240Y135890
X3680Y139700
X2664Y138430
X17780Y134620
X35560Y109220
X92710Y105410
X163830Y67310
X163830Y68580
X102870Y106680
X162560Y106680
X103041Y105239
X162560Y105410
X44450Y138430
X59690Y138430
X35305Y98805
X163830Y71120
X133766Y66040
X130718Y54610
X133350Y25400
X130810Y26670
X124460Y22860
X123190Y25400
X60960Y127000
X40640Y133350
X53340Y86360
X33020Y66040
X76200Y34290
X68580Y34290
X134620Y27940
X135890Y34290
X133350Y31750
X132080Y60960
X132080Y66040
X78740Y185420
X72390Y191770
X138430Y28067
X138430Y33020
X71120Y162560
X64770Y162560
X135890Y29210
X123784Y209550
X128270Y215900
X129540Y68580
X129540Y60960
X124924Y207474
M30