G04 EAGLE Gerber RS-274X export*
G75*
%MOMM*%
%FSLAX34Y34*%
%LPD*%
%INBottom Copper*%
%IPPOS*%
%AMOC8*
5,1,8,0,0,1.08239X$1,22.5*%
G01*
G04 Define Apertures*
%ADD10R,1.530000X1.530000*%
%ADD11C,1.530000*%
%ADD12C,1.800000*%
%ADD13C,2.400000*%
%ADD14R,1.524000X1.524000*%
%ADD15C,1.524000*%
%ADD16C,2.184400*%
%ADD17C,0.508000*%
%ADD18C,0.756400*%
G36*
X2148375Y10220D02*
X2148078Y10160D01*
X10922Y10160D01*
X10647Y10211D01*
X10392Y10375D01*
X10220Y10625D01*
X10160Y10922D01*
X10160Y1132924D01*
X10207Y1133187D01*
X10366Y1133445D01*
X10614Y1133621D01*
X10910Y1133686D01*
X11208Y1133630D01*
X11461Y1133463D01*
X46484Y1098440D01*
X49284Y1097280D01*
X128516Y1097280D01*
X131316Y1098440D01*
X196960Y1164084D01*
X198120Y1166884D01*
X198120Y1183101D01*
X198176Y1183387D01*
X198343Y1183640D01*
X201292Y1186589D01*
X203230Y1191268D01*
X203230Y1196332D01*
X201292Y1201011D01*
X197711Y1204592D01*
X194804Y1205796D01*
X194579Y1205940D01*
X194401Y1206186D01*
X194334Y1206482D01*
X194387Y1206780D01*
X194553Y1207035D01*
X194804Y1207204D01*
X197711Y1208408D01*
X201292Y1211989D01*
X203230Y1216668D01*
X203230Y1221732D01*
X201292Y1226411D01*
X198343Y1229360D01*
X198180Y1229601D01*
X198120Y1229899D01*
X198120Y1335016D01*
X196960Y1337816D01*
X186662Y1348114D01*
X186497Y1348362D01*
X185313Y1351220D01*
X182820Y1353713D01*
X179563Y1355062D01*
X176037Y1355062D01*
X172780Y1353713D01*
X171111Y1352043D01*
X170880Y1351885D01*
X170584Y1351820D01*
X170286Y1351876D01*
X170033Y1352043D01*
X161262Y1360814D01*
X161097Y1361062D01*
X159913Y1363920D01*
X157420Y1366413D01*
X154163Y1367762D01*
X150637Y1367762D01*
X148794Y1366999D01*
X148533Y1366941D01*
X148234Y1366990D01*
X147977Y1367151D01*
X147803Y1367400D01*
X147741Y1367697D01*
X147799Y1367994D01*
X148562Y1369837D01*
X148562Y1373363D01*
X147213Y1376620D01*
X144720Y1379113D01*
X141463Y1380462D01*
X137937Y1380462D01*
X134680Y1379113D01*
X132187Y1376620D01*
X130838Y1373363D01*
X130838Y1369837D01*
X132022Y1366979D01*
X132080Y1366687D01*
X132080Y1229899D01*
X132024Y1229613D01*
X131857Y1229360D01*
X128908Y1226411D01*
X127704Y1223504D01*
X127560Y1223279D01*
X127314Y1223101D01*
X127018Y1223034D01*
X126720Y1223087D01*
X126466Y1223253D01*
X126296Y1223504D01*
X125092Y1226411D01*
X122143Y1229360D01*
X121980Y1229601D01*
X121920Y1229899D01*
X121920Y1380828D01*
X121976Y1381114D01*
X122143Y1381367D01*
X124277Y1383500D01*
X124524Y1383666D01*
X127382Y1384850D01*
X129875Y1387343D01*
X131224Y1390600D01*
X131224Y1394125D01*
X129875Y1397382D01*
X127382Y1399875D01*
X124125Y1401224D01*
X120600Y1401224D01*
X117343Y1399875D01*
X114850Y1397382D01*
X113666Y1394524D01*
X113500Y1394277D01*
X107840Y1388616D01*
X106680Y1385816D01*
X106680Y1229899D01*
X106624Y1229613D01*
X106457Y1229360D01*
X103508Y1226411D01*
X102304Y1223504D01*
X102160Y1223279D01*
X101914Y1223101D01*
X101618Y1223034D01*
X101320Y1223087D01*
X101066Y1223253D01*
X100896Y1223504D01*
X99692Y1226411D01*
X96111Y1229992D01*
X91432Y1231930D01*
X86368Y1231930D01*
X81689Y1229992D01*
X78108Y1226411D01*
X76170Y1221732D01*
X76170Y1216668D01*
X78108Y1211989D01*
X81689Y1208408D01*
X84596Y1207204D01*
X84821Y1207060D01*
X84999Y1206814D01*
X85066Y1206518D01*
X85013Y1206220D01*
X84847Y1205966D01*
X84596Y1205796D01*
X81689Y1204592D01*
X78108Y1201011D01*
X77696Y1200016D01*
X77556Y1199795D01*
X77311Y1199616D01*
X77016Y1199546D01*
X76717Y1199597D01*
X76462Y1199761D01*
X76290Y1200011D01*
X76230Y1200308D01*
X76230Y1203554D01*
X73254Y1206530D01*
X53746Y1206530D01*
X50770Y1203554D01*
X50770Y1184046D01*
X53746Y1181070D01*
X73254Y1181070D01*
X76230Y1184046D01*
X76230Y1187292D01*
X76275Y1187550D01*
X76432Y1187809D01*
X76678Y1187987D01*
X76974Y1188054D01*
X77272Y1188001D01*
X77527Y1187835D01*
X77696Y1187584D01*
X78108Y1186589D01*
X81689Y1183008D01*
X86368Y1181070D01*
X91432Y1181070D01*
X96111Y1183008D01*
X99692Y1186589D01*
X100896Y1189496D01*
X101040Y1189721D01*
X101286Y1189899D01*
X101582Y1189966D01*
X101880Y1189913D01*
X102135Y1189747D01*
X102304Y1189496D01*
X103508Y1186589D01*
X105722Y1184376D01*
X105880Y1184145D01*
X105945Y1183849D01*
X105889Y1183551D01*
X105722Y1183298D01*
X86986Y1164562D01*
X86739Y1164397D01*
X83880Y1163213D01*
X81387Y1160720D01*
X80038Y1157463D01*
X80038Y1153937D01*
X81387Y1150680D01*
X83880Y1148187D01*
X87137Y1146838D01*
X90663Y1146838D01*
X93920Y1148187D01*
X96413Y1150680D01*
X97597Y1153539D01*
X97762Y1153786D01*
X120760Y1176784D01*
X121920Y1179584D01*
X121920Y1183101D01*
X121976Y1183387D01*
X122143Y1183640D01*
X125092Y1186589D01*
X126296Y1189496D01*
X126440Y1189721D01*
X126686Y1189899D01*
X126982Y1189966D01*
X127280Y1189913D01*
X127535Y1189747D01*
X127704Y1189496D01*
X128908Y1186589D01*
X131857Y1183640D01*
X132020Y1183399D01*
X132080Y1183101D01*
X132080Y1149809D01*
X132024Y1149523D01*
X131857Y1149270D01*
X120730Y1138143D01*
X120488Y1137980D01*
X120191Y1137920D01*
X63547Y1137920D01*
X63261Y1137976D01*
X63008Y1138143D01*
X40863Y1160288D01*
X40700Y1160530D01*
X40640Y1160827D01*
X40640Y1308911D01*
X40696Y1309197D01*
X40863Y1309450D01*
X85144Y1353731D01*
X86304Y1356531D01*
X86304Y1393088D01*
X86360Y1393374D01*
X86527Y1393627D01*
X95304Y1402404D01*
X96464Y1405205D01*
X96464Y2081961D01*
X96520Y2082247D01*
X96687Y2082500D01*
X206659Y2192472D01*
X206879Y2192625D01*
X207174Y2192695D01*
X207473Y2192644D01*
X207728Y2192481D01*
X207900Y2192231D01*
X207960Y2191933D01*
X207960Y2187608D01*
X210174Y2182264D01*
X214264Y2178174D01*
X219452Y2176025D01*
X219452Y2193548D01*
X236975Y2193548D01*
X234826Y2198736D01*
X230736Y2202826D01*
X225392Y2205040D01*
X221067Y2205040D01*
X220803Y2205087D01*
X220545Y2205246D01*
X220370Y2205494D01*
X220305Y2205790D01*
X220360Y2206088D01*
X220528Y2206341D01*
X305044Y2290857D01*
X305285Y2291020D01*
X305583Y2291080D01*
X999828Y2291080D01*
X1000114Y2291024D01*
X1000367Y2290857D01*
X1084357Y2206867D01*
X1084520Y2206625D01*
X1084580Y2206328D01*
X1084580Y1836336D01*
X1084533Y1836073D01*
X1084374Y1835815D01*
X1084126Y1835639D01*
X1083830Y1835574D01*
X1083532Y1835630D01*
X1083279Y1835797D01*
X927323Y1991753D01*
X927160Y1991995D01*
X927100Y1992292D01*
X927100Y1996426D01*
X925167Y2001094D01*
X921594Y2004667D01*
X916926Y2006600D01*
X911874Y2006600D01*
X907206Y2004667D01*
X903633Y2001094D01*
X902404Y1998126D01*
X902260Y1997900D01*
X902014Y1997723D01*
X901718Y1997656D01*
X901420Y1997709D01*
X901166Y1997874D01*
X900996Y1998126D01*
X899767Y2001094D01*
X896843Y2004017D01*
X896680Y2004259D01*
X896620Y2004556D01*
X896620Y2146407D01*
X896673Y2146687D01*
X896839Y2146941D01*
X896884Y2146972D01*
X900936Y2151024D01*
X903080Y2156199D01*
X903080Y2161801D01*
X900936Y2166976D01*
X896976Y2170936D01*
X891801Y2173080D01*
X886199Y2173080D01*
X881024Y2170936D01*
X877064Y2166976D01*
X874920Y2161801D01*
X874920Y2156199D01*
X877064Y2151024D01*
X881105Y2146983D01*
X881148Y2146954D01*
X881320Y2146704D01*
X881380Y2146407D01*
X881380Y2004556D01*
X881324Y2004270D01*
X881157Y2004017D01*
X878233Y2001094D01*
X877766Y1999965D01*
X877626Y1999745D01*
X877381Y1999565D01*
X877086Y1999495D01*
X876787Y1999546D01*
X876532Y1999710D01*
X876360Y1999960D01*
X876300Y2000257D01*
X876300Y2003624D01*
X873324Y2006600D01*
X853876Y2006600D01*
X850900Y2003624D01*
X850900Y1992292D01*
X850844Y1992006D01*
X850677Y1991753D01*
X679340Y1820416D01*
X678180Y1817616D01*
X678180Y1425872D01*
X678124Y1425586D01*
X677957Y1425333D01*
X644767Y1392143D01*
X644525Y1391980D01*
X644228Y1391920D01*
X601813Y1391920D01*
X601521Y1391978D01*
X598663Y1393162D01*
X595137Y1393162D01*
X591880Y1391813D01*
X589387Y1389320D01*
X588038Y1386063D01*
X588038Y1382537D01*
X589387Y1379280D01*
X591880Y1376787D01*
X595137Y1375438D01*
X598663Y1375438D01*
X601521Y1376622D01*
X601813Y1376680D01*
X649216Y1376680D01*
X652016Y1377840D01*
X692260Y1418084D01*
X693420Y1420884D01*
X693420Y1812628D01*
X693476Y1812914D01*
X693643Y1813167D01*
X861453Y1980977D01*
X861695Y1981140D01*
X861992Y1981200D01*
X873324Y1981200D01*
X876300Y1984176D01*
X876300Y1987543D01*
X876345Y1987801D01*
X876502Y1988060D01*
X876748Y1988237D01*
X877044Y1988305D01*
X877342Y1988252D01*
X877597Y1988086D01*
X877766Y1987835D01*
X878233Y1986706D01*
X881806Y1983133D01*
X886474Y1981200D01*
X891526Y1981200D01*
X896194Y1983133D01*
X899767Y1986706D01*
X900996Y1989674D01*
X901140Y1989900D01*
X901386Y1990077D01*
X901682Y1990144D01*
X901980Y1990091D01*
X902235Y1989926D01*
X902404Y1989674D01*
X903633Y1986706D01*
X907206Y1983133D01*
X911874Y1981200D01*
X916008Y1981200D01*
X916294Y1981144D01*
X916547Y1980977D01*
X1074197Y1823327D01*
X1074360Y1823085D01*
X1074420Y1822788D01*
X1074420Y1655996D01*
X1074373Y1655733D01*
X1074214Y1655475D01*
X1073966Y1655299D01*
X1073670Y1655234D01*
X1073372Y1655290D01*
X1073119Y1655457D01*
X931416Y1797160D01*
X928616Y1798320D01*
X854372Y1798320D01*
X854086Y1798376D01*
X853833Y1798543D01*
X796262Y1856114D01*
X796097Y1856362D01*
X794913Y1859220D01*
X792420Y1861713D01*
X789163Y1863062D01*
X785637Y1863062D01*
X782380Y1861713D01*
X779887Y1859220D01*
X778538Y1855963D01*
X778538Y1852437D01*
X779887Y1849180D01*
X782380Y1846687D01*
X785239Y1845503D01*
X785486Y1845338D01*
X846584Y1784240D01*
X849384Y1783080D01*
X923628Y1783080D01*
X923914Y1783024D01*
X924167Y1782857D01*
X1064037Y1642987D01*
X1064200Y1642745D01*
X1064260Y1642448D01*
X1064260Y1602656D01*
X1064213Y1602393D01*
X1064054Y1602135D01*
X1063806Y1601959D01*
X1063510Y1601894D01*
X1063212Y1601950D01*
X1062959Y1602117D01*
X1033016Y1632060D01*
X1030216Y1633220D01*
X716113Y1633220D01*
X715821Y1633278D01*
X712963Y1634462D01*
X709437Y1634462D01*
X706180Y1633113D01*
X703687Y1630620D01*
X702338Y1627363D01*
X702338Y1623837D01*
X703687Y1620580D01*
X706180Y1618087D01*
X709437Y1616738D01*
X712963Y1616738D01*
X715821Y1617922D01*
X716113Y1617980D01*
X1025228Y1617980D01*
X1025514Y1617924D01*
X1025767Y1617757D01*
X1053877Y1589647D01*
X1054040Y1589405D01*
X1054100Y1589108D01*
X1054100Y1231816D01*
X1054053Y1231553D01*
X1053894Y1231295D01*
X1053646Y1231119D01*
X1053350Y1231054D01*
X1053052Y1231110D01*
X1052799Y1231277D01*
X927323Y1356753D01*
X927160Y1356995D01*
X927100Y1357292D01*
X927100Y1361426D01*
X925167Y1366094D01*
X921594Y1369667D01*
X916926Y1371600D01*
X911874Y1371600D01*
X907206Y1369667D01*
X903633Y1366094D01*
X902404Y1363126D01*
X902260Y1362900D01*
X902014Y1362723D01*
X901718Y1362656D01*
X901420Y1362709D01*
X901166Y1362874D01*
X900996Y1363126D01*
X899767Y1366094D01*
X896843Y1369017D01*
X896680Y1369259D01*
X896620Y1369556D01*
X896620Y1511407D01*
X896673Y1511687D01*
X896839Y1511941D01*
X896884Y1511972D01*
X900936Y1516024D01*
X903080Y1521199D01*
X903080Y1526801D01*
X900936Y1531976D01*
X896976Y1535936D01*
X891801Y1538080D01*
X886199Y1538080D01*
X881024Y1535936D01*
X877064Y1531976D01*
X874920Y1526801D01*
X874920Y1521199D01*
X877064Y1516024D01*
X881105Y1511983D01*
X881148Y1511954D01*
X881320Y1511704D01*
X881380Y1511407D01*
X881380Y1369556D01*
X881324Y1369270D01*
X881157Y1369017D01*
X878233Y1366094D01*
X877766Y1364965D01*
X877626Y1364745D01*
X877381Y1364565D01*
X877086Y1364495D01*
X876787Y1364546D01*
X876532Y1364710D01*
X876360Y1364960D01*
X876300Y1365257D01*
X876300Y1368624D01*
X873324Y1371600D01*
X853876Y1371600D01*
X850900Y1368624D01*
X850900Y1357292D01*
X850844Y1357006D01*
X850677Y1356753D01*
X847967Y1354043D01*
X847725Y1353880D01*
X847428Y1353820D01*
X595384Y1353820D01*
X592584Y1352660D01*
X577740Y1337816D01*
X576580Y1335016D01*
X576580Y1138682D01*
X576529Y1138407D01*
X576365Y1138152D01*
X576115Y1137980D01*
X575818Y1137920D01*
X402082Y1137920D01*
X401807Y1137971D01*
X401552Y1138135D01*
X401380Y1138385D01*
X401320Y1138682D01*
X401320Y1183101D01*
X401376Y1183387D01*
X401543Y1183640D01*
X404492Y1186589D01*
X405696Y1189496D01*
X405840Y1189721D01*
X406086Y1189899D01*
X406382Y1189966D01*
X406680Y1189913D01*
X406935Y1189747D01*
X407104Y1189496D01*
X408308Y1186589D01*
X411257Y1183640D01*
X411420Y1183399D01*
X411480Y1183101D01*
X411480Y1166884D01*
X412640Y1164084D01*
X427484Y1149240D01*
X430284Y1148080D01*
X547616Y1148080D01*
X550416Y1149240D01*
X552560Y1151384D01*
X553720Y1154184D01*
X553720Y1662938D01*
X553771Y1663213D01*
X553935Y1663468D01*
X554185Y1663640D01*
X554482Y1663700D01*
X555824Y1663700D01*
X558800Y1666676D01*
X558800Y1670043D01*
X558845Y1670301D01*
X559002Y1670560D01*
X559248Y1670737D01*
X559544Y1670805D01*
X559842Y1670752D01*
X560097Y1670586D01*
X560266Y1670335D01*
X560733Y1669206D01*
X564306Y1665633D01*
X568974Y1663700D01*
X574026Y1663700D01*
X578694Y1665633D01*
X582267Y1669206D01*
X583496Y1672174D01*
X583640Y1672400D01*
X583886Y1672577D01*
X584182Y1672644D01*
X584480Y1672591D01*
X584735Y1672426D01*
X584904Y1672174D01*
X586133Y1669206D01*
X589706Y1665633D01*
X594374Y1663700D01*
X598508Y1663700D01*
X598794Y1663644D01*
X599047Y1663477D01*
X638838Y1623686D01*
X639003Y1623439D01*
X640187Y1620580D01*
X642680Y1618087D01*
X645937Y1616738D01*
X649463Y1616738D01*
X652720Y1618087D01*
X655213Y1620580D01*
X656562Y1623837D01*
X656562Y1627363D01*
X655213Y1630620D01*
X652720Y1633113D01*
X649862Y1634297D01*
X649614Y1634462D01*
X609823Y1674253D01*
X609660Y1674495D01*
X609600Y1674792D01*
X609600Y1678926D01*
X607667Y1683594D01*
X604094Y1687167D01*
X599426Y1689100D01*
X594374Y1689100D01*
X589706Y1687167D01*
X586133Y1683594D01*
X584904Y1680626D01*
X584760Y1680400D01*
X584514Y1680223D01*
X584218Y1680156D01*
X583920Y1680209D01*
X583666Y1680374D01*
X583496Y1680626D01*
X582267Y1683594D01*
X579343Y1686517D01*
X579180Y1686759D01*
X579120Y1687056D01*
X579120Y1828907D01*
X579173Y1829187D01*
X579339Y1829441D01*
X579384Y1829472D01*
X583436Y1833524D01*
X585580Y1838699D01*
X585580Y1844301D01*
X583436Y1849476D01*
X579476Y1853436D01*
X574301Y1855580D01*
X568699Y1855580D01*
X563524Y1853436D01*
X559564Y1849476D01*
X557420Y1844301D01*
X557420Y1838699D01*
X559564Y1833524D01*
X563605Y1829483D01*
X563648Y1829454D01*
X563820Y1829204D01*
X563880Y1828907D01*
X563880Y1687056D01*
X563824Y1686770D01*
X563657Y1686517D01*
X560733Y1683594D01*
X560266Y1682465D01*
X560126Y1682245D01*
X559881Y1682065D01*
X559586Y1681995D01*
X559287Y1682046D01*
X559032Y1682210D01*
X558860Y1682460D01*
X558800Y1682757D01*
X558800Y1686124D01*
X555824Y1689100D01*
X536376Y1689100D01*
X533400Y1686124D01*
X533400Y1666676D01*
X536376Y1663700D01*
X537718Y1663700D01*
X537993Y1663649D01*
X538248Y1663485D01*
X538420Y1663235D01*
X538480Y1662938D01*
X538480Y1164082D01*
X538429Y1163807D01*
X538265Y1163552D01*
X538015Y1163380D01*
X537718Y1163320D01*
X435272Y1163320D01*
X434986Y1163376D01*
X434733Y1163543D01*
X426943Y1171333D01*
X426780Y1171575D01*
X426720Y1171872D01*
X426720Y1183101D01*
X426776Y1183387D01*
X426943Y1183640D01*
X429892Y1186589D01*
X431096Y1189496D01*
X431240Y1189721D01*
X431486Y1189899D01*
X431782Y1189966D01*
X432080Y1189913D01*
X432335Y1189747D01*
X432504Y1189496D01*
X433708Y1186589D01*
X437289Y1183008D01*
X441968Y1181070D01*
X447032Y1181070D01*
X451711Y1183008D01*
X454660Y1185957D01*
X454901Y1186120D01*
X455199Y1186180D01*
X471416Y1186180D01*
X474216Y1187340D01*
X476360Y1189484D01*
X477520Y1192284D01*
X477520Y1754116D01*
X476360Y1756916D01*
X253377Y1979899D01*
X253224Y1980119D01*
X253154Y1980414D01*
X253205Y1980713D01*
X253369Y1980968D01*
X253619Y1981140D01*
X253916Y1981200D01*
X256526Y1981200D01*
X261194Y1983133D01*
X264767Y1986706D01*
X265996Y1989674D01*
X266140Y1989900D01*
X266386Y1990077D01*
X266682Y1990144D01*
X266980Y1990091D01*
X267235Y1989926D01*
X267404Y1989674D01*
X268633Y1986706D01*
X272206Y1983133D01*
X276874Y1981200D01*
X281926Y1981200D01*
X286594Y1983133D01*
X289517Y1986057D01*
X289759Y1986220D01*
X290056Y1986280D01*
X644228Y1986280D01*
X644514Y1986224D01*
X644767Y1986057D01*
X715038Y1915786D01*
X715203Y1915539D01*
X716387Y1912680D01*
X718880Y1910187D01*
X722137Y1908838D01*
X725663Y1908838D01*
X728920Y1910187D01*
X731413Y1912680D01*
X732762Y1915937D01*
X732762Y1919463D01*
X731413Y1922720D01*
X728920Y1925213D01*
X726062Y1926397D01*
X725814Y1926562D01*
X652016Y2000360D01*
X649216Y2001520D01*
X290056Y2001520D01*
X289770Y2001576D01*
X289517Y2001743D01*
X286594Y2004667D01*
X281926Y2006600D01*
X276874Y2006600D01*
X272206Y2004667D01*
X268633Y2001094D01*
X267404Y1998126D01*
X267260Y1997900D01*
X267014Y1997723D01*
X266718Y1997656D01*
X266420Y1997709D01*
X266166Y1997874D01*
X265996Y1998126D01*
X264767Y2001094D01*
X261843Y2004017D01*
X261680Y2004259D01*
X261620Y2004556D01*
X261620Y2146407D01*
X261673Y2146687D01*
X261839Y2146941D01*
X261884Y2146972D01*
X265936Y2151024D01*
X268080Y2156199D01*
X268080Y2161801D01*
X265936Y2166976D01*
X261976Y2170936D01*
X256801Y2173080D01*
X251199Y2173080D01*
X246024Y2170936D01*
X242064Y2166976D01*
X239920Y2161801D01*
X239920Y2156199D01*
X242064Y2151024D01*
X246105Y2146983D01*
X246148Y2146954D01*
X246320Y2146704D01*
X246380Y2146407D01*
X246380Y2004556D01*
X246324Y2004270D01*
X246157Y2004017D01*
X243233Y2001094D01*
X242766Y1999965D01*
X242626Y1999745D01*
X242381Y1999565D01*
X242086Y1999495D01*
X241787Y1999546D01*
X241532Y1999710D01*
X241360Y1999960D01*
X241300Y2000257D01*
X241300Y2003624D01*
X238324Y2006600D01*
X218876Y2006600D01*
X215900Y2003624D01*
X215900Y1984176D01*
X218876Y1981200D01*
X230208Y1981200D01*
X230494Y1981144D01*
X230747Y1980977D01*
X462057Y1749667D01*
X462220Y1749425D01*
X462280Y1749128D01*
X462280Y1202182D01*
X462229Y1201907D01*
X462065Y1201652D01*
X461815Y1201480D01*
X461518Y1201420D01*
X455199Y1201420D01*
X454913Y1201476D01*
X454660Y1201643D01*
X451711Y1204592D01*
X448804Y1205796D01*
X448579Y1205940D01*
X448401Y1206186D01*
X448334Y1206482D01*
X448387Y1206780D01*
X448553Y1207035D01*
X448804Y1207204D01*
X451711Y1208408D01*
X455292Y1211989D01*
X457230Y1216668D01*
X457230Y1221732D01*
X455292Y1226411D01*
X452343Y1229360D01*
X452180Y1229601D01*
X452120Y1229899D01*
X452120Y1379387D01*
X452178Y1379679D01*
X453362Y1382537D01*
X453362Y1386063D01*
X452013Y1389320D01*
X449520Y1391813D01*
X446263Y1393162D01*
X442737Y1393162D01*
X439480Y1391813D01*
X436987Y1389320D01*
X435638Y1386063D01*
X435638Y1382537D01*
X436822Y1379679D01*
X436880Y1379387D01*
X436880Y1229899D01*
X436824Y1229613D01*
X436657Y1229360D01*
X433708Y1226411D01*
X432504Y1223504D01*
X432360Y1223279D01*
X432114Y1223101D01*
X431818Y1223034D01*
X431520Y1223087D01*
X431266Y1223253D01*
X431096Y1223504D01*
X429892Y1226411D01*
X426943Y1229360D01*
X426780Y1229601D01*
X426720Y1229899D01*
X426720Y1246116D01*
X425560Y1248916D01*
X387348Y1287128D01*
X384548Y1288288D01*
X297604Y1288288D01*
X297318Y1288344D01*
X297065Y1288511D01*
X253377Y1332199D01*
X253224Y1332419D01*
X253154Y1332714D01*
X253205Y1333013D01*
X253369Y1333268D01*
X253619Y1333440D01*
X253916Y1333500D01*
X256526Y1333500D01*
X261194Y1335433D01*
X264767Y1339006D01*
X265996Y1341974D01*
X266140Y1342200D01*
X266386Y1342377D01*
X266682Y1342444D01*
X266980Y1342391D01*
X267235Y1342226D01*
X267404Y1341974D01*
X268633Y1339006D01*
X272206Y1335433D01*
X276874Y1333500D01*
X281926Y1333500D01*
X286594Y1335433D01*
X289517Y1338357D01*
X289759Y1338520D01*
X290056Y1338580D01*
X390228Y1338580D01*
X390514Y1338524D01*
X390767Y1338357D01*
X397538Y1331586D01*
X397703Y1331339D01*
X398887Y1328480D01*
X401380Y1325987D01*
X404637Y1324638D01*
X408163Y1324638D01*
X411420Y1325987D01*
X413913Y1328480D01*
X415262Y1331737D01*
X415262Y1335263D01*
X413913Y1338520D01*
X411420Y1341013D01*
X408562Y1342197D01*
X408314Y1342362D01*
X398016Y1352660D01*
X395216Y1353820D01*
X290056Y1353820D01*
X289770Y1353876D01*
X289517Y1354043D01*
X286594Y1356967D01*
X281926Y1358900D01*
X276874Y1358900D01*
X272206Y1356967D01*
X268633Y1353394D01*
X267404Y1350426D01*
X267260Y1350200D01*
X267014Y1350023D01*
X266718Y1349956D01*
X266420Y1350009D01*
X266166Y1350174D01*
X265996Y1350426D01*
X264767Y1353394D01*
X261843Y1356317D01*
X261680Y1356559D01*
X261620Y1356856D01*
X261620Y1511407D01*
X261673Y1511687D01*
X261839Y1511941D01*
X261884Y1511972D01*
X265936Y1516024D01*
X268080Y1521199D01*
X268080Y1526801D01*
X265936Y1531976D01*
X261976Y1535936D01*
X256801Y1538080D01*
X251199Y1538080D01*
X246024Y1535936D01*
X242064Y1531976D01*
X239920Y1526801D01*
X239920Y1521199D01*
X242064Y1516024D01*
X246105Y1511983D01*
X246148Y1511954D01*
X246320Y1511704D01*
X246380Y1511407D01*
X246380Y1356856D01*
X246324Y1356570D01*
X246157Y1356317D01*
X243233Y1353394D01*
X242766Y1352265D01*
X242626Y1352045D01*
X242381Y1351865D01*
X242086Y1351795D01*
X241787Y1351846D01*
X241532Y1352010D01*
X241360Y1352260D01*
X241300Y1352557D01*
X241300Y1355924D01*
X238324Y1358900D01*
X218876Y1358900D01*
X215900Y1355924D01*
X215900Y1336476D01*
X218876Y1333500D01*
X230208Y1333500D01*
X230494Y1333444D01*
X230747Y1333277D01*
X284595Y1279429D01*
X284748Y1279209D01*
X284818Y1278914D01*
X284767Y1278615D01*
X284603Y1278360D01*
X284353Y1278188D01*
X284056Y1278128D01*
X278392Y1278128D01*
X275592Y1276968D01*
X247540Y1248916D01*
X246380Y1246116D01*
X246380Y1133772D01*
X246324Y1133486D01*
X246157Y1133233D01*
X133240Y1020316D01*
X132080Y1017516D01*
X132080Y798584D01*
X133240Y795784D01*
X215677Y713347D01*
X215840Y713105D01*
X215900Y712808D01*
X215900Y701476D01*
X218876Y698500D01*
X238324Y698500D01*
X241300Y701476D01*
X241300Y704843D01*
X241345Y705101D01*
X241502Y705360D01*
X241748Y705537D01*
X242044Y705605D01*
X242342Y705552D01*
X242597Y705386D01*
X242766Y705135D01*
X243233Y704006D01*
X246806Y700433D01*
X251474Y698500D01*
X256526Y698500D01*
X261194Y700433D01*
X264767Y704006D01*
X265996Y706974D01*
X266140Y707200D01*
X266386Y707377D01*
X266682Y707444D01*
X266980Y707391D01*
X267235Y707226D01*
X267404Y706974D01*
X268633Y704006D01*
X272206Y700433D01*
X276874Y698500D01*
X281008Y698500D01*
X281294Y698444D01*
X281547Y698277D01*
X321338Y658486D01*
X321503Y658239D01*
X322687Y655380D01*
X325180Y652887D01*
X328437Y651538D01*
X331963Y651538D01*
X335220Y652887D01*
X337713Y655380D01*
X339062Y658637D01*
X339062Y662163D01*
X337713Y665420D01*
X335220Y667913D01*
X332362Y669097D01*
X332114Y669262D01*
X292323Y709053D01*
X292160Y709295D01*
X292100Y709592D01*
X292100Y713726D01*
X290167Y718394D01*
X286594Y721967D01*
X281926Y723900D01*
X276874Y723900D01*
X272206Y721967D01*
X268633Y718394D01*
X267404Y715426D01*
X267260Y715200D01*
X267014Y715023D01*
X266718Y714956D01*
X266420Y715009D01*
X266166Y715174D01*
X265996Y715426D01*
X264767Y718394D01*
X261843Y721317D01*
X261680Y721559D01*
X261620Y721856D01*
X261620Y876407D01*
X261673Y876687D01*
X261839Y876941D01*
X261884Y876972D01*
X265936Y881024D01*
X268080Y886199D01*
X268080Y891801D01*
X265936Y896976D01*
X261976Y900936D01*
X256801Y903080D01*
X251199Y903080D01*
X246024Y900936D01*
X242064Y896976D01*
X239920Y891801D01*
X239920Y886199D01*
X242064Y881024D01*
X246105Y876983D01*
X246148Y876954D01*
X246320Y876704D01*
X246380Y876407D01*
X246380Y721856D01*
X246324Y721570D01*
X246157Y721317D01*
X243233Y718394D01*
X242766Y717265D01*
X242626Y717045D01*
X242381Y716865D01*
X242086Y716795D01*
X241787Y716846D01*
X241532Y717010D01*
X241360Y717260D01*
X241300Y717557D01*
X241300Y720924D01*
X238324Y723900D01*
X226992Y723900D01*
X226706Y723956D01*
X226453Y724123D01*
X147543Y803033D01*
X147380Y803275D01*
X147320Y803572D01*
X147320Y1012528D01*
X147376Y1012814D01*
X147543Y1013067D01*
X260460Y1125984D01*
X261620Y1128784D01*
X261620Y1241128D01*
X261676Y1241414D01*
X261843Y1241667D01*
X282841Y1262665D01*
X283083Y1262828D01*
X283380Y1262888D01*
X288433Y1262888D01*
X288696Y1262841D01*
X288954Y1262682D01*
X289129Y1262434D01*
X289194Y1262138D01*
X289139Y1261840D01*
X288971Y1261587D01*
X275480Y1248096D01*
X274320Y1245295D01*
X274320Y1073776D01*
X275480Y1070975D01*
X349246Y997209D01*
X349402Y996984D01*
X349469Y996688D01*
X349416Y996390D01*
X349251Y996136D01*
X348999Y995966D01*
X348033Y995566D01*
X345540Y993073D01*
X344191Y989816D01*
X344191Y986291D01*
X345375Y983432D01*
X345433Y983141D01*
X345433Y559725D01*
X345378Y559439D01*
X345210Y559186D01*
X145940Y359916D01*
X144780Y357116D01*
X144780Y125484D01*
X145940Y122684D01*
X186184Y82440D01*
X188984Y81280D01*
X215138Y81280D01*
X215413Y81229D01*
X215668Y81065D01*
X215840Y80815D01*
X215900Y80518D01*
X215900Y79176D01*
X218876Y76200D01*
X238324Y76200D01*
X241300Y79176D01*
X241300Y82543D01*
X241345Y82801D01*
X241502Y83060D01*
X241748Y83237D01*
X242044Y83305D01*
X242342Y83252D01*
X242597Y83086D01*
X242766Y82835D01*
X243233Y81706D01*
X246806Y78133D01*
X251474Y76200D01*
X256526Y76200D01*
X261194Y78133D01*
X264767Y81706D01*
X265996Y84674D01*
X266140Y84900D01*
X266386Y85077D01*
X266682Y85144D01*
X266980Y85091D01*
X267235Y84926D01*
X267404Y84674D01*
X268633Y81706D01*
X272206Y78133D01*
X276874Y76200D01*
X281926Y76200D01*
X286594Y78133D01*
X289517Y81057D01*
X289759Y81220D01*
X290056Y81280D01*
X771228Y81280D01*
X771514Y81224D01*
X771767Y81057D01*
X808484Y44340D01*
X811284Y43180D01*
X1436616Y43180D01*
X1439416Y44340D01*
X1441560Y46484D01*
X1442720Y49284D01*
X1442720Y153916D01*
X1441560Y156716D01*
X1439416Y158860D01*
X1436616Y160020D01*
X1420399Y160020D01*
X1420113Y160076D01*
X1419860Y160243D01*
X1416911Y163192D01*
X1414004Y164396D01*
X1413779Y164540D01*
X1413601Y164786D01*
X1413534Y165082D01*
X1413587Y165380D01*
X1413753Y165635D01*
X1414004Y165804D01*
X1416911Y167008D01*
X1419860Y169957D01*
X1420101Y170120D01*
X1420399Y170180D01*
X1452653Y170180D01*
X1455453Y171340D01*
X1506330Y222217D01*
X1507490Y225017D01*
X1507490Y244883D01*
X1506330Y247683D01*
X1442753Y311260D01*
X1439953Y312420D01*
X1342128Y312420D01*
X1341859Y312469D01*
X1341603Y312630D01*
X1341429Y312879D01*
X1341366Y313176D01*
X1341424Y313474D01*
X1342362Y315737D01*
X1342362Y319263D01*
X1341178Y322121D01*
X1341120Y322413D01*
X1341120Y395527D01*
X1341167Y395791D01*
X1341326Y396049D01*
X1341574Y396224D01*
X1341870Y396289D01*
X1342168Y396234D01*
X1342421Y396066D01*
X1351057Y387430D01*
X1351220Y387188D01*
X1351280Y386891D01*
X1351280Y347813D01*
X1351222Y347521D01*
X1350038Y344663D01*
X1350038Y341137D01*
X1351387Y337880D01*
X1353880Y335387D01*
X1357137Y334038D01*
X1360663Y334038D01*
X1363920Y335387D01*
X1366413Y337880D01*
X1367762Y341137D01*
X1367762Y344663D01*
X1366578Y347521D01*
X1366520Y347813D01*
X1366520Y384496D01*
X1366567Y384759D01*
X1366726Y385017D01*
X1366974Y385192D01*
X1367270Y385258D01*
X1367568Y385202D01*
X1367821Y385034D01*
X1376457Y376398D01*
X1376620Y376157D01*
X1376680Y375860D01*
X1376680Y335113D01*
X1376622Y334821D01*
X1375438Y331963D01*
X1375438Y328437D01*
X1376787Y325180D01*
X1379280Y322687D01*
X1382537Y321338D01*
X1386063Y321338D01*
X1389320Y322687D01*
X1391813Y325180D01*
X1393162Y328437D01*
X1393162Y331963D01*
X1391978Y334821D01*
X1391920Y335113D01*
X1391920Y373464D01*
X1391967Y373727D01*
X1392126Y373985D01*
X1392374Y374161D01*
X1392670Y374226D01*
X1392968Y374170D01*
X1393221Y374003D01*
X1422177Y345047D01*
X1422340Y344805D01*
X1422400Y344508D01*
X1422400Y333176D01*
X1425376Y330200D01*
X1444824Y330200D01*
X1447800Y333176D01*
X1447800Y336543D01*
X1447845Y336801D01*
X1448002Y337060D01*
X1448248Y337237D01*
X1448544Y337305D01*
X1448842Y337252D01*
X1449097Y337086D01*
X1449266Y336835D01*
X1449733Y335706D01*
X1453306Y332133D01*
X1457974Y330200D01*
X1463026Y330200D01*
X1467694Y332133D01*
X1471267Y335706D01*
X1472496Y338674D01*
X1472640Y338900D01*
X1472886Y339077D01*
X1473182Y339144D01*
X1473480Y339091D01*
X1473735Y338926D01*
X1473904Y338674D01*
X1475133Y335706D01*
X1478706Y332133D01*
X1483374Y330200D01*
X1488426Y330200D01*
X1493094Y332133D01*
X1496667Y335706D01*
X1498600Y340374D01*
X1498600Y344508D01*
X1498656Y344794D01*
X1498823Y345047D01*
X1599040Y445264D01*
X1600200Y448064D01*
X1600200Y2108649D01*
X1599040Y2111450D01*
X1468830Y2241660D01*
X1466029Y2242820D01*
X1420399Y2242820D01*
X1420113Y2242876D01*
X1419860Y2243043D01*
X1416911Y2245992D01*
X1414004Y2247196D01*
X1413779Y2247340D01*
X1413601Y2247586D01*
X1413534Y2247882D01*
X1413587Y2248180D01*
X1413753Y2248435D01*
X1414004Y2248604D01*
X1416911Y2249808D01*
X1420492Y2253389D01*
X1422430Y2258068D01*
X1422430Y2263132D01*
X1420492Y2267811D01*
X1416911Y2271392D01*
X1412232Y2273330D01*
X1407168Y2273330D01*
X1402489Y2271392D01*
X1398908Y2267811D01*
X1397704Y2264904D01*
X1397560Y2264679D01*
X1397314Y2264501D01*
X1397018Y2264434D01*
X1396720Y2264487D01*
X1396466Y2264653D01*
X1396296Y2264904D01*
X1395092Y2267811D01*
X1391511Y2271392D01*
X1388604Y2272596D01*
X1388379Y2272740D01*
X1388201Y2272986D01*
X1388134Y2273282D01*
X1388187Y2273580D01*
X1388353Y2273835D01*
X1388604Y2274004D01*
X1391511Y2275208D01*
X1395092Y2278789D01*
X1397030Y2283468D01*
X1397030Y2288532D01*
X1395092Y2293211D01*
X1391511Y2296792D01*
X1386832Y2298730D01*
X1381768Y2298730D01*
X1377089Y2296792D01*
X1373508Y2293211D01*
X1371570Y2288532D01*
X1371570Y2283468D01*
X1373508Y2278789D01*
X1377089Y2275208D01*
X1379996Y2274004D01*
X1380221Y2273860D01*
X1380399Y2273614D01*
X1380466Y2273318D01*
X1380413Y2273020D01*
X1380247Y2272766D01*
X1379996Y2272596D01*
X1377089Y2271392D01*
X1373508Y2267811D01*
X1371570Y2263132D01*
X1371570Y2258068D01*
X1373508Y2253389D01*
X1377089Y2249808D01*
X1379996Y2248604D01*
X1380221Y2248460D01*
X1380399Y2248214D01*
X1380466Y2247918D01*
X1380413Y2247620D01*
X1380247Y2247366D01*
X1379996Y2247196D01*
X1377089Y2245992D01*
X1374140Y2243043D01*
X1373899Y2242880D01*
X1373601Y2242820D01*
X1331984Y2242820D01*
X1329184Y2241660D01*
X1276240Y2188716D01*
X1275080Y2185916D01*
X1275080Y2163913D01*
X1275022Y2163621D01*
X1273838Y2160763D01*
X1273838Y2157237D01*
X1275200Y2153950D01*
X1275257Y2153695D01*
X1275211Y2153395D01*
X1275051Y2153137D01*
X1274804Y2152961D01*
X1274508Y2152896D01*
X1274210Y2152952D01*
X1273957Y2153119D01*
X1033016Y2394060D01*
X1030216Y2395220D01*
X303284Y2395220D01*
X300484Y2394060D01*
X18940Y2112516D01*
X17780Y2109716D01*
X17780Y1382537D01*
X19129Y1379280D01*
X21622Y1376787D01*
X24879Y1375438D01*
X28405Y1375438D01*
X31662Y1376787D01*
X34155Y1379280D01*
X35504Y1382537D01*
X35504Y1386063D01*
X35081Y1387084D01*
X35023Y1387352D01*
X35074Y1387651D01*
X35238Y1387906D01*
X35488Y1388078D01*
X35785Y1388138D01*
X38565Y1388138D01*
X41822Y1389487D01*
X44315Y1391980D01*
X45664Y1395237D01*
X45664Y1398763D01*
X45241Y1399784D01*
X45183Y1400052D01*
X45234Y1400351D01*
X45398Y1400606D01*
X45648Y1400778D01*
X45945Y1400838D01*
X48725Y1400838D01*
X49690Y1401238D01*
X49958Y1401296D01*
X50257Y1401245D01*
X50512Y1401081D01*
X50684Y1400831D01*
X50744Y1400534D01*
X50744Y1369936D01*
X50688Y1369650D01*
X50521Y1369397D01*
X11461Y1330337D01*
X11241Y1330184D01*
X10946Y1330114D01*
X10647Y1330165D01*
X10392Y1330329D01*
X10220Y1330579D01*
X10160Y1330876D01*
X10160Y2402078D01*
X10211Y2402353D01*
X10375Y2402608D01*
X10625Y2402780D01*
X10922Y2402840D01*
X2148078Y2402840D01*
X2148353Y2402789D01*
X2148608Y2402625D01*
X2148780Y2402375D01*
X2148840Y2402078D01*
X2148840Y10922D01*
X2148789Y10647D01*
X2148625Y10392D01*
X2148375Y10220D01*
G37*
%LPC*%
G36*
X2104856Y2336800D02*
X2111544Y2336800D01*
X2118004Y2338531D01*
X2123796Y2341875D01*
X2128525Y2346604D01*
X2131869Y2352396D01*
X2133600Y2358856D01*
X2133600Y2365544D01*
X2131869Y2372004D01*
X2128525Y2377796D01*
X2123796Y2382525D01*
X2118004Y2385869D01*
X2111544Y2387600D01*
X2104856Y2387600D01*
X2098396Y2385869D01*
X2092604Y2382525D01*
X2087875Y2377796D01*
X2084531Y2372004D01*
X2082800Y2365544D01*
X2082800Y2358856D01*
X2084531Y2352396D01*
X2087875Y2346604D01*
X2092604Y2341875D01*
X2098396Y2338531D01*
X2104856Y2336800D01*
G37*
G36*
X47456Y2336800D02*
X54144Y2336800D01*
X60604Y2338531D01*
X66396Y2341875D01*
X71125Y2346604D01*
X74469Y2352396D01*
X76200Y2358856D01*
X76200Y2365544D01*
X74469Y2372004D01*
X71125Y2377796D01*
X66396Y2382525D01*
X60604Y2385869D01*
X54144Y2387600D01*
X47456Y2387600D01*
X40996Y2385869D01*
X35204Y2382525D01*
X30475Y2377796D01*
X27131Y2372004D01*
X25400Y2365544D01*
X25400Y2358856D01*
X27131Y2352396D01*
X30475Y2346604D01*
X35204Y2341875D01*
X40996Y2338531D01*
X47456Y2336800D01*
G37*
G36*
X1407673Y2275810D02*
X1411727Y2275810D01*
X1415472Y2277361D01*
X1418339Y2280228D01*
X1419467Y2282952D01*
X1406652Y2282952D01*
X1406652Y2295767D01*
X1403928Y2294639D01*
X1401061Y2291772D01*
X1399510Y2288027D01*
X1399510Y2283973D01*
X1401061Y2280228D01*
X1403928Y2277361D01*
X1407673Y2275810D01*
G37*
G36*
X1412748Y2289048D02*
X1419467Y2289048D01*
X1418339Y2291772D01*
X1415472Y2294639D01*
X1412748Y2295767D01*
X1412748Y2289048D01*
G37*
G36*
X271025Y2193548D02*
X282452Y2193548D01*
X282452Y2204975D01*
X277264Y2202826D01*
X273174Y2198736D01*
X271025Y2193548D01*
G37*
G36*
X288548Y2193548D02*
X299975Y2193548D01*
X297826Y2198736D01*
X293736Y2202826D01*
X288548Y2204975D01*
X288548Y2193548D01*
G37*
G36*
X843025Y2193548D02*
X854452Y2193548D01*
X854452Y2204975D01*
X849264Y2202826D01*
X845174Y2198736D01*
X843025Y2193548D01*
G37*
G36*
X860548Y2193548D02*
X871975Y2193548D01*
X869826Y2198736D01*
X865736Y2202826D01*
X860548Y2204975D01*
X860548Y2193548D01*
G37*
G36*
X906025Y2193548D02*
X917452Y2193548D01*
X917452Y2204975D01*
X912264Y2202826D01*
X908174Y2198736D01*
X906025Y2193548D01*
G37*
G36*
X923548Y2193548D02*
X934975Y2193548D01*
X932826Y2198736D01*
X928736Y2202826D01*
X923548Y2204975D01*
X923548Y2193548D01*
G37*
G36*
X860548Y2187452D02*
X860548Y2176025D01*
X865736Y2178174D01*
X869826Y2182264D01*
X871975Y2187452D01*
X860548Y2187452D01*
G37*
G36*
X912264Y2178174D02*
X917452Y2176025D01*
X917452Y2187452D01*
X906025Y2187452D01*
X908174Y2182264D01*
X912264Y2178174D01*
G37*
G36*
X923548Y2187452D02*
X923548Y2176025D01*
X928736Y2178174D01*
X932826Y2182264D01*
X934975Y2187452D01*
X923548Y2187452D01*
G37*
G36*
X277264Y2178174D02*
X282452Y2176025D01*
X282452Y2187452D01*
X271025Y2187452D01*
X273174Y2182264D01*
X277264Y2178174D01*
G37*
G36*
X288548Y2187452D02*
X288548Y2176025D01*
X293736Y2178174D01*
X297826Y2182264D01*
X299975Y2187452D01*
X288548Y2187452D01*
G37*
G36*
X849264Y2178174D02*
X854452Y2176025D01*
X854452Y2187452D01*
X843025Y2187452D01*
X845174Y2182264D01*
X849264Y2178174D01*
G37*
G36*
X225548Y2187452D02*
X225548Y2176025D01*
X230736Y2178174D01*
X234826Y2182264D01*
X236975Y2187452D01*
X225548Y2187452D01*
G37*
G36*
X923548Y2130548D02*
X934975Y2130548D01*
X932826Y2135736D01*
X928736Y2139826D01*
X923548Y2141975D01*
X923548Y2130548D01*
G37*
G36*
X906025Y2130548D02*
X917452Y2130548D01*
X917452Y2141975D01*
X912264Y2139826D01*
X908174Y2135736D01*
X906025Y2130548D01*
G37*
G36*
X860548Y2130548D02*
X871975Y2130548D01*
X869826Y2135736D01*
X865736Y2139826D01*
X860548Y2141975D01*
X860548Y2130548D01*
G37*
G36*
X843025Y2130548D02*
X854452Y2130548D01*
X854452Y2141975D01*
X849264Y2139826D01*
X845174Y2135736D01*
X843025Y2130548D01*
G37*
G36*
X271025Y2130548D02*
X282452Y2130548D01*
X282452Y2141975D01*
X277264Y2139826D01*
X273174Y2135736D01*
X271025Y2130548D01*
G37*
G36*
X225548Y2130548D02*
X236975Y2130548D01*
X234826Y2135736D01*
X230736Y2139826D01*
X225548Y2141975D01*
X225548Y2130548D01*
G37*
G36*
X288548Y2130548D02*
X299975Y2130548D01*
X297826Y2135736D01*
X293736Y2139826D01*
X288548Y2141975D01*
X288548Y2130548D01*
G37*
G36*
X208025Y2130548D02*
X219452Y2130548D01*
X219452Y2141975D01*
X214264Y2139826D01*
X210174Y2135736D01*
X208025Y2130548D01*
G37*
G36*
X225548Y2124452D02*
X225548Y2113025D01*
X230736Y2115174D01*
X234826Y2119264D01*
X236975Y2124452D01*
X225548Y2124452D01*
G37*
G36*
X214264Y2115174D02*
X219452Y2113025D01*
X219452Y2124452D01*
X208025Y2124452D01*
X210174Y2119264D01*
X214264Y2115174D01*
G37*
G36*
X288548Y2124452D02*
X288548Y2113025D01*
X293736Y2115174D01*
X297826Y2119264D01*
X299975Y2124452D01*
X288548Y2124452D01*
G37*
G36*
X923548Y2124452D02*
X923548Y2113025D01*
X928736Y2115174D01*
X932826Y2119264D01*
X934975Y2124452D01*
X923548Y2124452D01*
G37*
G36*
X912264Y2115174D02*
X917452Y2113025D01*
X917452Y2124452D01*
X906025Y2124452D01*
X908174Y2119264D01*
X912264Y2115174D01*
G37*
G36*
X860548Y2124452D02*
X860548Y2113025D01*
X865736Y2115174D01*
X869826Y2119264D01*
X871975Y2124452D01*
X860548Y2124452D01*
G37*
G36*
X849264Y2115174D02*
X854452Y2113025D01*
X854452Y2124452D01*
X843025Y2124452D01*
X845174Y2119264D01*
X849264Y2115174D01*
G37*
G36*
X277264Y2115174D02*
X282452Y2113025D01*
X282452Y2124452D01*
X271025Y2124452D01*
X273174Y2119264D01*
X277264Y2115174D01*
G37*
G36*
X1795025Y1939548D02*
X1806452Y1939548D01*
X1806452Y1950975D01*
X1801264Y1948826D01*
X1797174Y1944736D01*
X1795025Y1939548D01*
G37*
G36*
X1812548Y1939548D02*
X1823975Y1939548D01*
X1821826Y1944736D01*
X1817736Y1948826D01*
X1812548Y1950975D01*
X1812548Y1939548D01*
G37*
G36*
X1986025Y1939548D02*
X1997452Y1939548D01*
X1997452Y1950975D01*
X1992264Y1948826D01*
X1988174Y1944736D01*
X1986025Y1939548D01*
G37*
G36*
X2003548Y1939548D02*
X2014975Y1939548D01*
X2012826Y1944736D01*
X2008736Y1948826D01*
X2003548Y1950975D01*
X2003548Y1939548D01*
G37*
G36*
X2049025Y1939548D02*
X2060452Y1939548D01*
X2060452Y1950975D01*
X2055264Y1948826D01*
X2051174Y1944736D01*
X2049025Y1939548D01*
G37*
G36*
X2066548Y1939548D02*
X2077975Y1939548D01*
X2075826Y1944736D01*
X2071736Y1948826D01*
X2066548Y1950975D01*
X2066548Y1939548D01*
G37*
G36*
X1732025Y1939548D02*
X1743452Y1939548D01*
X1743452Y1950975D01*
X1738264Y1948826D01*
X1734174Y1944736D01*
X1732025Y1939548D01*
G37*
G36*
X1749548Y1939548D02*
X1760975Y1939548D01*
X1758826Y1944736D01*
X1754736Y1948826D01*
X1749548Y1950975D01*
X1749548Y1939548D01*
G37*
G36*
X2066548Y1933452D02*
X2066548Y1922025D01*
X2071736Y1924174D01*
X2075826Y1928264D01*
X2077975Y1933452D01*
X2066548Y1933452D01*
G37*
G36*
X2055264Y1924174D02*
X2060452Y1922025D01*
X2060452Y1933452D01*
X2049025Y1933452D01*
X2051174Y1928264D01*
X2055264Y1924174D01*
G37*
G36*
X1992264Y1924174D02*
X1997452Y1922025D01*
X1997452Y1933452D01*
X1986025Y1933452D01*
X1988174Y1928264D01*
X1992264Y1924174D01*
G37*
G36*
X1738264Y1924174D02*
X1743452Y1922025D01*
X1743452Y1933452D01*
X1732025Y1933452D01*
X1734174Y1928264D01*
X1738264Y1924174D01*
G37*
G36*
X1801264Y1924174D02*
X1806452Y1922025D01*
X1806452Y1933452D01*
X1795025Y1933452D01*
X1797174Y1928264D01*
X1801264Y1924174D01*
G37*
G36*
X1812548Y1933452D02*
X1812548Y1922025D01*
X1817736Y1924174D01*
X1821826Y1928264D01*
X1823975Y1933452D01*
X1812548Y1933452D01*
G37*
G36*
X1749548Y1933452D02*
X1749548Y1922025D01*
X1754736Y1924174D01*
X1758826Y1928264D01*
X1760975Y1933452D01*
X1749548Y1933452D01*
G37*
G36*
X2003548Y1933452D02*
X2003548Y1922025D01*
X2008736Y1924174D01*
X2012826Y1928264D01*
X2014975Y1933452D01*
X2003548Y1933452D01*
G37*
G36*
X1623837Y1134138D02*
X1627363Y1134138D01*
X1630221Y1135322D01*
X1630513Y1135380D01*
X1817616Y1135380D01*
X1820416Y1136540D01*
X1911460Y1227584D01*
X1912620Y1230384D01*
X1912620Y1558628D01*
X1912676Y1558914D01*
X1912843Y1559167D01*
X2038460Y1684784D01*
X2039620Y1687584D01*
X2039620Y1892407D01*
X2039673Y1892687D01*
X2039839Y1892941D01*
X2039884Y1892972D01*
X2043936Y1897024D01*
X2046080Y1902199D01*
X2046080Y1907801D01*
X2043936Y1912976D01*
X2039976Y1916936D01*
X2034801Y1919080D01*
X2029199Y1919080D01*
X2024024Y1916936D01*
X2020064Y1912976D01*
X2017920Y1907801D01*
X2017920Y1902199D01*
X2020064Y1897024D01*
X2024105Y1892983D01*
X2024148Y1892954D01*
X2024320Y1892704D01*
X2024380Y1892407D01*
X2024380Y1692572D01*
X2024324Y1692286D01*
X2024157Y1692033D01*
X1901221Y1569097D01*
X1901001Y1568944D01*
X1900706Y1568874D01*
X1900407Y1568925D01*
X1900152Y1569089D01*
X1899980Y1569339D01*
X1899920Y1569636D01*
X1899920Y1576316D01*
X1898760Y1579116D01*
X1785843Y1692033D01*
X1785680Y1692275D01*
X1785620Y1692572D01*
X1785620Y1892407D01*
X1785673Y1892687D01*
X1785839Y1892941D01*
X1785884Y1892972D01*
X1789936Y1897024D01*
X1792080Y1902199D01*
X1792080Y1907801D01*
X1789936Y1912976D01*
X1785976Y1916936D01*
X1780801Y1919080D01*
X1775199Y1919080D01*
X1770024Y1916936D01*
X1766064Y1912976D01*
X1763920Y1907801D01*
X1763920Y1902199D01*
X1766064Y1897024D01*
X1770105Y1892983D01*
X1770148Y1892954D01*
X1770320Y1892704D01*
X1770380Y1892407D01*
X1770380Y1687584D01*
X1771540Y1684784D01*
X1884457Y1571867D01*
X1884620Y1571625D01*
X1884680Y1571328D01*
X1884680Y1260772D01*
X1884624Y1260486D01*
X1884457Y1260233D01*
X1787767Y1163543D01*
X1787525Y1163380D01*
X1787228Y1163320D01*
X1787204Y1163320D01*
X1786941Y1163367D01*
X1786683Y1163526D01*
X1786508Y1163774D01*
X1786442Y1164070D01*
X1786498Y1164368D01*
X1786666Y1164621D01*
X1794620Y1172575D01*
X1795780Y1175376D01*
X1795780Y1213188D01*
X1795836Y1213474D01*
X1796003Y1213727D01*
X1868814Y1286538D01*
X1869062Y1286703D01*
X1871920Y1287887D01*
X1874413Y1290380D01*
X1875762Y1293637D01*
X1875762Y1297163D01*
X1874413Y1300420D01*
X1871920Y1302913D01*
X1868663Y1304262D01*
X1865137Y1304262D01*
X1861880Y1302913D01*
X1859387Y1300420D01*
X1858203Y1297562D01*
X1858038Y1297314D01*
X1781700Y1220976D01*
X1780540Y1218176D01*
X1780540Y1180364D01*
X1780484Y1180078D01*
X1780317Y1179825D01*
X1779275Y1178783D01*
X1779034Y1178620D01*
X1778737Y1178560D01*
X1634766Y1178560D01*
X1634497Y1178609D01*
X1634240Y1178770D01*
X1634067Y1179019D01*
X1634004Y1179316D01*
X1634062Y1179614D01*
X1634297Y1180181D01*
X1634462Y1180428D01*
X1784460Y1330426D01*
X1785620Y1333226D01*
X1785620Y1435207D01*
X1785673Y1435487D01*
X1785839Y1435741D01*
X1785884Y1435772D01*
X1789936Y1439824D01*
X1792080Y1444999D01*
X1792080Y1450601D01*
X1789936Y1455776D01*
X1785976Y1459736D01*
X1780801Y1461880D01*
X1775199Y1461880D01*
X1770024Y1459736D01*
X1766064Y1455776D01*
X1763920Y1450601D01*
X1763920Y1444999D01*
X1766064Y1439824D01*
X1770105Y1435783D01*
X1770148Y1435754D01*
X1770320Y1435504D01*
X1770380Y1435207D01*
X1770380Y1338214D01*
X1770324Y1337928D01*
X1770157Y1337675D01*
X1623686Y1191204D01*
X1623439Y1191039D01*
X1620580Y1189855D01*
X1618087Y1187362D01*
X1616738Y1184105D01*
X1616738Y1180579D01*
X1618087Y1177322D01*
X1619499Y1175910D01*
X1619657Y1175679D01*
X1619723Y1175383D01*
X1619667Y1175085D01*
X1619499Y1174832D01*
X1618087Y1173420D01*
X1616738Y1170163D01*
X1616738Y1166637D01*
X1618087Y1163380D01*
X1618878Y1162589D01*
X1619036Y1162358D01*
X1619102Y1162062D01*
X1619046Y1161764D01*
X1618878Y1161511D01*
X1618087Y1160720D01*
X1616738Y1157463D01*
X1616738Y1153937D01*
X1618087Y1150680D01*
X1618878Y1149889D01*
X1619036Y1149658D01*
X1619102Y1149362D01*
X1619046Y1149064D01*
X1618878Y1148811D01*
X1618087Y1148020D01*
X1616738Y1144763D01*
X1616738Y1141237D01*
X1618087Y1137980D01*
X1620580Y1135487D01*
X1623837Y1134138D01*
G37*
G36*
X1795025Y1876548D02*
X1806452Y1876548D01*
X1806452Y1887975D01*
X1801264Y1885826D01*
X1797174Y1881736D01*
X1795025Y1876548D01*
G37*
G36*
X1749548Y1876548D02*
X1760975Y1876548D01*
X1758826Y1881736D01*
X1754736Y1885826D01*
X1749548Y1887975D01*
X1749548Y1876548D01*
G37*
G36*
X1732025Y1876548D02*
X1743452Y1876548D01*
X1743452Y1887975D01*
X1738264Y1885826D01*
X1734174Y1881736D01*
X1732025Y1876548D01*
G37*
G36*
X2066548Y1876548D02*
X2077975Y1876548D01*
X2075826Y1881736D01*
X2071736Y1885826D01*
X2066548Y1887975D01*
X2066548Y1876548D01*
G37*
G36*
X2049025Y1876548D02*
X2060452Y1876548D01*
X2060452Y1887975D01*
X2055264Y1885826D01*
X2051174Y1881736D01*
X2049025Y1876548D01*
G37*
G36*
X2003548Y1876548D02*
X2014975Y1876548D01*
X2012826Y1881736D01*
X2008736Y1885826D01*
X2003548Y1887975D01*
X2003548Y1876548D01*
G37*
G36*
X1986025Y1876548D02*
X1997452Y1876548D01*
X1997452Y1887975D01*
X1992264Y1885826D01*
X1988174Y1881736D01*
X1986025Y1876548D01*
G37*
G36*
X1812548Y1876548D02*
X1823975Y1876548D01*
X1821826Y1881736D01*
X1817736Y1885826D01*
X1812548Y1887975D01*
X1812548Y1876548D01*
G37*
G36*
X543048Y1876048D02*
X554475Y1876048D01*
X552326Y1881236D01*
X548236Y1885326D01*
X543048Y1887475D01*
X543048Y1876048D01*
G37*
G36*
X588525Y1876048D02*
X599952Y1876048D01*
X599952Y1887475D01*
X594764Y1885326D01*
X590674Y1881236D01*
X588525Y1876048D01*
G37*
G36*
X606048Y1876048D02*
X617475Y1876048D01*
X615326Y1881236D01*
X611236Y1885326D01*
X606048Y1887475D01*
X606048Y1876048D01*
G37*
G36*
X525525Y1876048D02*
X536952Y1876048D01*
X536952Y1887475D01*
X531764Y1885326D01*
X527674Y1881236D01*
X525525Y1876048D01*
G37*
G36*
X2003548Y1870452D02*
X2003548Y1859025D01*
X2008736Y1861174D01*
X2012826Y1865264D01*
X2014975Y1870452D01*
X2003548Y1870452D01*
G37*
G36*
X1992264Y1861174D02*
X1997452Y1859025D01*
X1997452Y1870452D01*
X1986025Y1870452D01*
X1988174Y1865264D01*
X1992264Y1861174D01*
G37*
G36*
X1812548Y1870452D02*
X1812548Y1859025D01*
X1817736Y1861174D01*
X1821826Y1865264D01*
X1823975Y1870452D01*
X1812548Y1870452D01*
G37*
G36*
X1801264Y1861174D02*
X1806452Y1859025D01*
X1806452Y1870452D01*
X1795025Y1870452D01*
X1797174Y1865264D01*
X1801264Y1861174D01*
G37*
G36*
X1749548Y1870452D02*
X1749548Y1859025D01*
X1754736Y1861174D01*
X1758826Y1865264D01*
X1760975Y1870452D01*
X1749548Y1870452D01*
G37*
G36*
X1738264Y1861174D02*
X1743452Y1859025D01*
X1743452Y1870452D01*
X1732025Y1870452D01*
X1734174Y1865264D01*
X1738264Y1861174D01*
G37*
G36*
X2066548Y1870452D02*
X2066548Y1859025D01*
X2071736Y1861174D01*
X2075826Y1865264D01*
X2077975Y1870452D01*
X2066548Y1870452D01*
G37*
G36*
X2055264Y1861174D02*
X2060452Y1859025D01*
X2060452Y1870452D01*
X2049025Y1870452D01*
X2051174Y1865264D01*
X2055264Y1861174D01*
G37*
G36*
X606048Y1869952D02*
X606048Y1858525D01*
X611236Y1860674D01*
X615326Y1864764D01*
X617475Y1869952D01*
X606048Y1869952D01*
G37*
G36*
X594764Y1860674D02*
X599952Y1858525D01*
X599952Y1869952D01*
X588525Y1869952D01*
X590674Y1864764D01*
X594764Y1860674D01*
G37*
G36*
X543048Y1869952D02*
X543048Y1858525D01*
X548236Y1860674D01*
X552326Y1864764D01*
X554475Y1869952D01*
X543048Y1869952D01*
G37*
G36*
X531764Y1860674D02*
X536952Y1858525D01*
X536952Y1869952D01*
X525525Y1869952D01*
X527674Y1864764D01*
X531764Y1860674D01*
G37*
G36*
X525525Y1813048D02*
X536952Y1813048D01*
X536952Y1824475D01*
X531764Y1822326D01*
X527674Y1818236D01*
X525525Y1813048D01*
G37*
G36*
X543048Y1813048D02*
X554475Y1813048D01*
X552326Y1818236D01*
X548236Y1822326D01*
X543048Y1824475D01*
X543048Y1813048D01*
G37*
G36*
X588525Y1813048D02*
X599952Y1813048D01*
X599952Y1824475D01*
X594764Y1822326D01*
X590674Y1818236D01*
X588525Y1813048D01*
G37*
G36*
X606048Y1813048D02*
X617475Y1813048D01*
X615326Y1818236D01*
X611236Y1822326D01*
X606048Y1824475D01*
X606048Y1813048D01*
G37*
G36*
X594764Y1797674D02*
X599952Y1795525D01*
X599952Y1806952D01*
X588525Y1806952D01*
X590674Y1801764D01*
X594764Y1797674D01*
G37*
G36*
X543048Y1806952D02*
X543048Y1795525D01*
X548236Y1797674D01*
X552326Y1801764D01*
X554475Y1806952D01*
X543048Y1806952D01*
G37*
G36*
X531764Y1797674D02*
X536952Y1795525D01*
X536952Y1806952D01*
X525525Y1806952D01*
X527674Y1801764D01*
X531764Y1797674D01*
G37*
G36*
X606048Y1806952D02*
X606048Y1795525D01*
X611236Y1797674D01*
X615326Y1801764D01*
X617475Y1806952D01*
X606048Y1806952D01*
G37*
G36*
X208025Y1558548D02*
X219452Y1558548D01*
X219452Y1569975D01*
X214264Y1567826D01*
X210174Y1563736D01*
X208025Y1558548D01*
G37*
G36*
X225548Y1558548D02*
X236975Y1558548D01*
X234826Y1563736D01*
X230736Y1567826D01*
X225548Y1569975D01*
X225548Y1558548D01*
G37*
G36*
X923548Y1558548D02*
X934975Y1558548D01*
X932826Y1563736D01*
X928736Y1567826D01*
X923548Y1569975D01*
X923548Y1558548D01*
G37*
G36*
X906025Y1558548D02*
X917452Y1558548D01*
X917452Y1569975D01*
X912264Y1567826D01*
X908174Y1563736D01*
X906025Y1558548D01*
G37*
G36*
X860548Y1558548D02*
X871975Y1558548D01*
X869826Y1563736D01*
X865736Y1567826D01*
X860548Y1569975D01*
X860548Y1558548D01*
G37*
G36*
X843025Y1558548D02*
X854452Y1558548D01*
X854452Y1569975D01*
X849264Y1567826D01*
X845174Y1563736D01*
X843025Y1558548D01*
G37*
G36*
X288548Y1558548D02*
X299975Y1558548D01*
X297826Y1563736D01*
X293736Y1567826D01*
X288548Y1569975D01*
X288548Y1558548D01*
G37*
G36*
X271025Y1558548D02*
X282452Y1558548D01*
X282452Y1569975D01*
X277264Y1567826D01*
X273174Y1563736D01*
X271025Y1558548D01*
G37*
G36*
X214264Y1543174D02*
X219452Y1541025D01*
X219452Y1552452D01*
X208025Y1552452D01*
X210174Y1547264D01*
X214264Y1543174D01*
G37*
G36*
X849264Y1543174D02*
X854452Y1541025D01*
X854452Y1552452D01*
X843025Y1552452D01*
X845174Y1547264D01*
X849264Y1543174D01*
G37*
G36*
X225548Y1552452D02*
X225548Y1541025D01*
X230736Y1543174D01*
X234826Y1547264D01*
X236975Y1552452D01*
X225548Y1552452D01*
G37*
G36*
X277264Y1543174D02*
X282452Y1541025D01*
X282452Y1552452D01*
X271025Y1552452D01*
X273174Y1547264D01*
X277264Y1543174D01*
G37*
G36*
X288548Y1552452D02*
X288548Y1541025D01*
X293736Y1543174D01*
X297826Y1547264D01*
X299975Y1552452D01*
X288548Y1552452D01*
G37*
G36*
X923548Y1552452D02*
X923548Y1541025D01*
X928736Y1543174D01*
X932826Y1547264D01*
X934975Y1552452D01*
X923548Y1552452D01*
G37*
G36*
X860548Y1552452D02*
X860548Y1541025D01*
X865736Y1543174D01*
X869826Y1547264D01*
X871975Y1552452D01*
X860548Y1552452D01*
G37*
G36*
X912264Y1543174D02*
X917452Y1541025D01*
X917452Y1552452D01*
X906025Y1552452D01*
X908174Y1547264D01*
X912264Y1543174D01*
G37*
G36*
X906025Y1495548D02*
X917452Y1495548D01*
X917452Y1506975D01*
X912264Y1504826D01*
X908174Y1500736D01*
X906025Y1495548D01*
G37*
G36*
X843025Y1495548D02*
X854452Y1495548D01*
X854452Y1506975D01*
X849264Y1504826D01*
X845174Y1500736D01*
X843025Y1495548D01*
G37*
G36*
X288548Y1495548D02*
X299975Y1495548D01*
X297826Y1500736D01*
X293736Y1504826D01*
X288548Y1506975D01*
X288548Y1495548D01*
G37*
G36*
X271025Y1495548D02*
X282452Y1495548D01*
X282452Y1506975D01*
X277264Y1504826D01*
X273174Y1500736D01*
X271025Y1495548D01*
G37*
G36*
X225548Y1495548D02*
X236975Y1495548D01*
X234826Y1500736D01*
X230736Y1504826D01*
X225548Y1506975D01*
X225548Y1495548D01*
G37*
G36*
X860548Y1495548D02*
X871975Y1495548D01*
X869826Y1500736D01*
X865736Y1504826D01*
X860548Y1506975D01*
X860548Y1495548D01*
G37*
G36*
X208025Y1495548D02*
X219452Y1495548D01*
X219452Y1506975D01*
X214264Y1504826D01*
X210174Y1500736D01*
X208025Y1495548D01*
G37*
G36*
X923548Y1495548D02*
X934975Y1495548D01*
X932826Y1500736D01*
X928736Y1504826D01*
X923548Y1506975D01*
X923548Y1495548D01*
G37*
G36*
X1732025Y1482348D02*
X1743452Y1482348D01*
X1743452Y1493775D01*
X1738264Y1491626D01*
X1734174Y1487536D01*
X1732025Y1482348D01*
G37*
G36*
X1749548Y1482348D02*
X1760975Y1482348D01*
X1758826Y1487536D01*
X1754736Y1491626D01*
X1749548Y1493775D01*
X1749548Y1482348D01*
G37*
G36*
X1795025Y1482348D02*
X1806452Y1482348D01*
X1806452Y1493775D01*
X1801264Y1491626D01*
X1797174Y1487536D01*
X1795025Y1482348D01*
G37*
G36*
X1812548Y1482348D02*
X1823975Y1482348D01*
X1821826Y1487536D01*
X1817736Y1491626D01*
X1812548Y1493775D01*
X1812548Y1482348D01*
G37*
G36*
X1986025Y1482348D02*
X1997452Y1482348D01*
X1997452Y1493775D01*
X1992264Y1491626D01*
X1988174Y1487536D01*
X1986025Y1482348D01*
G37*
G36*
X2003548Y1482348D02*
X2014975Y1482348D01*
X2012826Y1487536D01*
X2008736Y1491626D01*
X2003548Y1493775D01*
X2003548Y1482348D01*
G37*
G36*
X2049025Y1482348D02*
X2060452Y1482348D01*
X2060452Y1493775D01*
X2055264Y1491626D01*
X2051174Y1487536D01*
X2049025Y1482348D01*
G37*
G36*
X2066548Y1482348D02*
X2077975Y1482348D01*
X2075826Y1487536D01*
X2071736Y1491626D01*
X2066548Y1493775D01*
X2066548Y1482348D01*
G37*
G36*
X923548Y1489452D02*
X923548Y1478025D01*
X928736Y1480174D01*
X932826Y1484264D01*
X934975Y1489452D01*
X923548Y1489452D01*
G37*
G36*
X912264Y1480174D02*
X917452Y1478025D01*
X917452Y1489452D01*
X906025Y1489452D01*
X908174Y1484264D01*
X912264Y1480174D01*
G37*
G36*
X860548Y1489452D02*
X860548Y1478025D01*
X865736Y1480174D01*
X869826Y1484264D01*
X871975Y1489452D01*
X860548Y1489452D01*
G37*
G36*
X288548Y1489452D02*
X288548Y1478025D01*
X293736Y1480174D01*
X297826Y1484264D01*
X299975Y1489452D01*
X288548Y1489452D01*
G37*
G36*
X849264Y1480174D02*
X854452Y1478025D01*
X854452Y1489452D01*
X843025Y1489452D01*
X845174Y1484264D01*
X849264Y1480174D01*
G37*
G36*
X214264Y1480174D02*
X219452Y1478025D01*
X219452Y1489452D01*
X208025Y1489452D01*
X210174Y1484264D01*
X214264Y1480174D01*
G37*
G36*
X225548Y1489452D02*
X225548Y1478025D01*
X230736Y1480174D01*
X234826Y1484264D01*
X236975Y1489452D01*
X225548Y1489452D01*
G37*
G36*
X277264Y1480174D02*
X282452Y1478025D01*
X282452Y1489452D01*
X271025Y1489452D01*
X273174Y1484264D01*
X277264Y1480174D01*
G37*
G36*
X1738264Y1466974D02*
X1743452Y1464825D01*
X1743452Y1476252D01*
X1732025Y1476252D01*
X1734174Y1471064D01*
X1738264Y1466974D01*
G37*
G36*
X1801264Y1466974D02*
X1806452Y1464825D01*
X1806452Y1476252D01*
X1795025Y1476252D01*
X1797174Y1471064D01*
X1801264Y1466974D01*
G37*
G36*
X1812548Y1476252D02*
X1812548Y1464825D01*
X1817736Y1466974D01*
X1821826Y1471064D01*
X1823975Y1476252D01*
X1812548Y1476252D01*
G37*
G36*
X1992264Y1466974D02*
X1997452Y1464825D01*
X1997452Y1476252D01*
X1986025Y1476252D01*
X1988174Y1471064D01*
X1992264Y1466974D01*
G37*
G36*
X2003548Y1476252D02*
X2003548Y1464825D01*
X2008736Y1466974D01*
X2012826Y1471064D01*
X2014975Y1476252D01*
X2003548Y1476252D01*
G37*
G36*
X2055264Y1466974D02*
X2060452Y1464825D01*
X2060452Y1476252D01*
X2049025Y1476252D01*
X2051174Y1471064D01*
X2055264Y1466974D01*
G37*
G36*
X2066548Y1476252D02*
X2066548Y1464825D01*
X2071736Y1466974D01*
X2075826Y1471064D01*
X2077975Y1476252D01*
X2066548Y1476252D01*
G37*
G36*
X1749548Y1476252D02*
X1749548Y1464825D01*
X1754736Y1466974D01*
X1758826Y1471064D01*
X1760975Y1476252D01*
X1749548Y1476252D01*
G37*
G36*
X1928637Y1286538D02*
X1932163Y1286538D01*
X1935420Y1287887D01*
X1937913Y1290380D01*
X1939097Y1293239D01*
X1939262Y1293486D01*
X2038460Y1392684D01*
X2039620Y1395484D01*
X2039620Y1435207D01*
X2039673Y1435487D01*
X2039839Y1435741D01*
X2039884Y1435772D01*
X2043936Y1439824D01*
X2046080Y1444999D01*
X2046080Y1450601D01*
X2043936Y1455776D01*
X2039976Y1459736D01*
X2034801Y1461880D01*
X2029199Y1461880D01*
X2024024Y1459736D01*
X2020064Y1455776D01*
X2017920Y1450601D01*
X2017920Y1444999D01*
X2020064Y1439824D01*
X2024105Y1435783D01*
X2024148Y1435754D01*
X2024320Y1435504D01*
X2024380Y1435207D01*
X2024380Y1400472D01*
X2024324Y1400186D01*
X2024157Y1399933D01*
X1928486Y1304262D01*
X1928239Y1304097D01*
X1925380Y1302913D01*
X1922887Y1300420D01*
X1921538Y1297163D01*
X1921538Y1293637D01*
X1922887Y1290380D01*
X1925380Y1287887D01*
X1928637Y1286538D01*
G37*
G36*
X1732025Y1419348D02*
X1743452Y1419348D01*
X1743452Y1430775D01*
X1738264Y1428626D01*
X1734174Y1424536D01*
X1732025Y1419348D01*
G37*
G36*
X1749548Y1419348D02*
X1760975Y1419348D01*
X1758826Y1424536D01*
X1754736Y1428626D01*
X1749548Y1430775D01*
X1749548Y1419348D01*
G37*
G36*
X1795025Y1419348D02*
X1806452Y1419348D01*
X1806452Y1430775D01*
X1801264Y1428626D01*
X1797174Y1424536D01*
X1795025Y1419348D01*
G37*
G36*
X1812548Y1419348D02*
X1823975Y1419348D01*
X1821826Y1424536D01*
X1817736Y1428626D01*
X1812548Y1430775D01*
X1812548Y1419348D01*
G37*
G36*
X1986025Y1419348D02*
X1997452Y1419348D01*
X1997452Y1430775D01*
X1992264Y1428626D01*
X1988174Y1424536D01*
X1986025Y1419348D01*
G37*
G36*
X2003548Y1419348D02*
X2014975Y1419348D01*
X2012826Y1424536D01*
X2008736Y1428626D01*
X2003548Y1430775D01*
X2003548Y1419348D01*
G37*
G36*
X2049025Y1419348D02*
X2060452Y1419348D01*
X2060452Y1430775D01*
X2055264Y1428626D01*
X2051174Y1424536D01*
X2049025Y1419348D01*
G37*
G36*
X2066548Y1419348D02*
X2077975Y1419348D01*
X2075826Y1424536D01*
X2071736Y1428626D01*
X2066548Y1430775D01*
X2066548Y1419348D01*
G37*
G36*
X2066548Y1413252D02*
X2066548Y1401825D01*
X2071736Y1403974D01*
X2075826Y1408064D01*
X2077975Y1413252D01*
X2066548Y1413252D01*
G37*
G36*
X2055264Y1403974D02*
X2060452Y1401825D01*
X2060452Y1413252D01*
X2049025Y1413252D01*
X2051174Y1408064D01*
X2055264Y1403974D01*
G37*
G36*
X2003548Y1413252D02*
X2003548Y1401825D01*
X2008736Y1403974D01*
X2012826Y1408064D01*
X2014975Y1413252D01*
X2003548Y1413252D01*
G37*
G36*
X1992264Y1403974D02*
X1997452Y1401825D01*
X1997452Y1413252D01*
X1986025Y1413252D01*
X1988174Y1408064D01*
X1992264Y1403974D01*
G37*
G36*
X1812548Y1413252D02*
X1812548Y1401825D01*
X1817736Y1403974D01*
X1821826Y1408064D01*
X1823975Y1413252D01*
X1812548Y1413252D01*
G37*
G36*
X1801264Y1403974D02*
X1806452Y1401825D01*
X1806452Y1413252D01*
X1795025Y1413252D01*
X1797174Y1408064D01*
X1801264Y1403974D01*
G37*
G36*
X1749548Y1413252D02*
X1749548Y1401825D01*
X1754736Y1403974D01*
X1758826Y1408064D01*
X1760975Y1413252D01*
X1749548Y1413252D01*
G37*
G36*
X1738264Y1403974D02*
X1743452Y1401825D01*
X1743452Y1413252D01*
X1732025Y1413252D01*
X1734174Y1408064D01*
X1738264Y1403974D01*
G37*
G36*
X53733Y1222248D02*
X60452Y1222248D01*
X60452Y1228967D01*
X57728Y1227839D01*
X54861Y1224972D01*
X53733Y1222248D01*
G37*
G36*
X61473Y1209010D02*
X65527Y1209010D01*
X69272Y1210561D01*
X72139Y1213428D01*
X73690Y1217173D01*
X73690Y1221227D01*
X72139Y1224972D01*
X69272Y1227839D01*
X66548Y1228967D01*
X66548Y1216152D01*
X53733Y1216152D01*
X54861Y1213428D01*
X57728Y1210561D01*
X61473Y1209010D01*
G37*
G36*
X1775199Y951120D02*
X1780801Y951120D01*
X1785976Y953264D01*
X1789936Y957224D01*
X1792080Y962399D01*
X1792080Y968001D01*
X1789936Y973176D01*
X1785895Y977217D01*
X1785852Y977246D01*
X1785680Y977496D01*
X1785620Y977793D01*
X1785620Y1055616D01*
X1784580Y1058126D01*
X1784522Y1058394D01*
X1784573Y1058693D01*
X1784737Y1058948D01*
X1784987Y1059120D01*
X1785284Y1059180D01*
X2015828Y1059180D01*
X2016114Y1059124D01*
X2016367Y1058957D01*
X2024157Y1051167D01*
X2024320Y1050925D01*
X2024380Y1050628D01*
X2024380Y977793D01*
X2024327Y977513D01*
X2024161Y977259D01*
X2024116Y977228D01*
X2020064Y973176D01*
X2017920Y968001D01*
X2017920Y962399D01*
X2020064Y957224D01*
X2024024Y953264D01*
X2029199Y951120D01*
X2034801Y951120D01*
X2039976Y953264D01*
X2043936Y957224D01*
X2046080Y962399D01*
X2046080Y968001D01*
X2043936Y973176D01*
X2039895Y977217D01*
X2039852Y977246D01*
X2039680Y977496D01*
X2039620Y977793D01*
X2039620Y1055616D01*
X2038460Y1058416D01*
X2023616Y1073260D01*
X2020816Y1074420D01*
X1630513Y1074420D01*
X1630221Y1074478D01*
X1627363Y1075662D01*
X1623837Y1075662D01*
X1620580Y1074313D01*
X1618087Y1071820D01*
X1616738Y1068563D01*
X1616738Y1065037D01*
X1618087Y1061780D01*
X1618878Y1060989D01*
X1619036Y1060758D01*
X1619102Y1060462D01*
X1619046Y1060164D01*
X1618878Y1059911D01*
X1618087Y1059120D01*
X1616738Y1055863D01*
X1616738Y1052337D01*
X1618087Y1049080D01*
X1620580Y1046587D01*
X1623837Y1045238D01*
X1627363Y1045238D01*
X1630221Y1046422D01*
X1630513Y1046480D01*
X1769618Y1046480D01*
X1769893Y1046429D01*
X1770148Y1046265D01*
X1770320Y1046015D01*
X1770380Y1045718D01*
X1770380Y977793D01*
X1770327Y977513D01*
X1770161Y977259D01*
X1770116Y977228D01*
X1766064Y973176D01*
X1763920Y968001D01*
X1763920Y962399D01*
X1766064Y957224D01*
X1770024Y953264D01*
X1775199Y951120D01*
G37*
G36*
X1065037Y16538D02*
X1068563Y16538D01*
X1071820Y17887D01*
X1074313Y20380D01*
X1075662Y23637D01*
X1075662Y27163D01*
X1074313Y30420D01*
X1071820Y32913D01*
X1068563Y34262D01*
X1065037Y34262D01*
X1062179Y33078D01*
X1061887Y33020D01*
X143172Y33020D01*
X142886Y33076D01*
X142633Y33243D01*
X96743Y79133D01*
X96580Y79375D01*
X96520Y79672D01*
X96520Y1036487D01*
X96578Y1036779D01*
X97762Y1039637D01*
X97762Y1043163D01*
X96413Y1046420D01*
X93920Y1048913D01*
X90663Y1050262D01*
X87137Y1050262D01*
X83880Y1048913D01*
X81387Y1046420D01*
X80038Y1043163D01*
X80038Y1039637D01*
X81222Y1036779D01*
X81280Y1036487D01*
X81280Y74684D01*
X82440Y71884D01*
X135384Y18940D01*
X138184Y17780D01*
X1061887Y17780D01*
X1062179Y17722D01*
X1065037Y16538D01*
G37*
G36*
X1732025Y999748D02*
X1743452Y999748D01*
X1743452Y1011175D01*
X1738264Y1009026D01*
X1734174Y1004936D01*
X1732025Y999748D01*
G37*
G36*
X1749548Y999748D02*
X1760975Y999748D01*
X1758826Y1004936D01*
X1754736Y1009026D01*
X1749548Y1011175D01*
X1749548Y999748D01*
G37*
G36*
X1795025Y999748D02*
X1806452Y999748D01*
X1806452Y1011175D01*
X1801264Y1009026D01*
X1797174Y1004936D01*
X1795025Y999748D01*
G37*
G36*
X1812548Y999748D02*
X1823975Y999748D01*
X1821826Y1004936D01*
X1817736Y1009026D01*
X1812548Y1011175D01*
X1812548Y999748D01*
G37*
G36*
X1986025Y999748D02*
X1997452Y999748D01*
X1997452Y1011175D01*
X1992264Y1009026D01*
X1988174Y1004936D01*
X1986025Y999748D01*
G37*
G36*
X2003548Y999748D02*
X2014975Y999748D01*
X2012826Y1004936D01*
X2008736Y1009026D01*
X2003548Y1011175D01*
X2003548Y999748D01*
G37*
G36*
X2049025Y999748D02*
X2060452Y999748D01*
X2060452Y1011175D01*
X2055264Y1009026D01*
X2051174Y1004936D01*
X2049025Y999748D01*
G37*
G36*
X2066548Y999748D02*
X2077975Y999748D01*
X2075826Y1004936D01*
X2071736Y1009026D01*
X2066548Y1011175D01*
X2066548Y999748D01*
G37*
G36*
X1992264Y984374D02*
X1997452Y982225D01*
X1997452Y993652D01*
X1986025Y993652D01*
X1988174Y988464D01*
X1992264Y984374D01*
G37*
G36*
X2066548Y993652D02*
X2066548Y982225D01*
X2071736Y984374D01*
X2075826Y988464D01*
X2077975Y993652D01*
X2066548Y993652D01*
G37*
G36*
X2055264Y984374D02*
X2060452Y982225D01*
X2060452Y993652D01*
X2049025Y993652D01*
X2051174Y988464D01*
X2055264Y984374D01*
G37*
G36*
X2003548Y993652D02*
X2003548Y982225D01*
X2008736Y984374D01*
X2012826Y988464D01*
X2014975Y993652D01*
X2003548Y993652D01*
G37*
G36*
X1812548Y993652D02*
X1812548Y982225D01*
X1817736Y984374D01*
X1821826Y988464D01*
X1823975Y993652D01*
X1812548Y993652D01*
G37*
G36*
X1801264Y984374D02*
X1806452Y982225D01*
X1806452Y993652D01*
X1795025Y993652D01*
X1797174Y988464D01*
X1801264Y984374D01*
G37*
G36*
X1749548Y993652D02*
X1749548Y982225D01*
X1754736Y984374D01*
X1758826Y988464D01*
X1760975Y993652D01*
X1749548Y993652D01*
G37*
G36*
X1738264Y984374D02*
X1743452Y982225D01*
X1743452Y993652D01*
X1732025Y993652D01*
X1734174Y988464D01*
X1738264Y984374D01*
G37*
G36*
X1986025Y936748D02*
X1997452Y936748D01*
X1997452Y948175D01*
X1992264Y946026D01*
X1988174Y941936D01*
X1986025Y936748D01*
G37*
G36*
X2003548Y936748D02*
X2014975Y936748D01*
X2012826Y941936D01*
X2008736Y946026D01*
X2003548Y948175D01*
X2003548Y936748D01*
G37*
G36*
X2049025Y936748D02*
X2060452Y936748D01*
X2060452Y948175D01*
X2055264Y946026D01*
X2051174Y941936D01*
X2049025Y936748D01*
G37*
G36*
X2066548Y936748D02*
X2077975Y936748D01*
X2075826Y941936D01*
X2071736Y946026D01*
X2066548Y948175D01*
X2066548Y936748D01*
G37*
G36*
X1812548Y936748D02*
X1823975Y936748D01*
X1821826Y941936D01*
X1817736Y946026D01*
X1812548Y948175D01*
X1812548Y936748D01*
G37*
G36*
X1732025Y936748D02*
X1743452Y936748D01*
X1743452Y948175D01*
X1738264Y946026D01*
X1734174Y941936D01*
X1732025Y936748D01*
G37*
G36*
X1749548Y936748D02*
X1760975Y936748D01*
X1758826Y941936D01*
X1754736Y946026D01*
X1749548Y948175D01*
X1749548Y936748D01*
G37*
G36*
X1795025Y936748D02*
X1806452Y936748D01*
X1806452Y948175D01*
X1801264Y946026D01*
X1797174Y941936D01*
X1795025Y936748D01*
G37*
G36*
X225548Y923548D02*
X236975Y923548D01*
X234826Y928736D01*
X230736Y932826D01*
X225548Y934975D01*
X225548Y923548D01*
G37*
G36*
X208025Y923548D02*
X219452Y923548D01*
X219452Y934975D01*
X214264Y932826D01*
X210174Y928736D01*
X208025Y923548D01*
G37*
G36*
X288548Y923548D02*
X299975Y923548D01*
X297826Y928736D01*
X293736Y932826D01*
X288548Y934975D01*
X288548Y923548D01*
G37*
G36*
X271025Y923548D02*
X282452Y923548D01*
X282452Y934975D01*
X277264Y932826D01*
X273174Y928736D01*
X271025Y923548D01*
G37*
G36*
X1749548Y930652D02*
X1749548Y919225D01*
X1754736Y921374D01*
X1758826Y925464D01*
X1760975Y930652D01*
X1749548Y930652D01*
G37*
G36*
X2066548Y930652D02*
X2066548Y919225D01*
X2071736Y921374D01*
X2075826Y925464D01*
X2077975Y930652D01*
X2066548Y930652D01*
G37*
G36*
X2055264Y921374D02*
X2060452Y919225D01*
X2060452Y930652D01*
X2049025Y930652D01*
X2051174Y925464D01*
X2055264Y921374D01*
G37*
G36*
X1992264Y921374D02*
X1997452Y919225D01*
X1997452Y930652D01*
X1986025Y930652D01*
X1988174Y925464D01*
X1992264Y921374D01*
G37*
G36*
X1812548Y930652D02*
X1812548Y919225D01*
X1817736Y921374D01*
X1821826Y925464D01*
X1823975Y930652D01*
X1812548Y930652D01*
G37*
G36*
X1801264Y921374D02*
X1806452Y919225D01*
X1806452Y930652D01*
X1795025Y930652D01*
X1797174Y925464D01*
X1801264Y921374D01*
G37*
G36*
X1738264Y921374D02*
X1743452Y919225D01*
X1743452Y930652D01*
X1732025Y930652D01*
X1734174Y925464D01*
X1738264Y921374D01*
G37*
G36*
X2003548Y930652D02*
X2003548Y919225D01*
X2008736Y921374D01*
X2012826Y925464D01*
X2014975Y930652D01*
X2003548Y930652D01*
G37*
G36*
X288548Y917452D02*
X288548Y906025D01*
X293736Y908174D01*
X297826Y912264D01*
X299975Y917452D01*
X288548Y917452D01*
G37*
G36*
X225548Y917452D02*
X225548Y906025D01*
X230736Y908174D01*
X234826Y912264D01*
X236975Y917452D01*
X225548Y917452D01*
G37*
G36*
X214264Y908174D02*
X219452Y906025D01*
X219452Y917452D01*
X208025Y917452D01*
X210174Y912264D01*
X214264Y908174D01*
G37*
G36*
X277264Y908174D02*
X282452Y906025D01*
X282452Y917452D01*
X271025Y917452D01*
X273174Y912264D01*
X277264Y908174D01*
G37*
G36*
X225548Y860548D02*
X236975Y860548D01*
X234826Y865736D01*
X230736Y869826D01*
X225548Y871975D01*
X225548Y860548D01*
G37*
G36*
X271025Y860548D02*
X282452Y860548D01*
X282452Y871975D01*
X277264Y869826D01*
X273174Y865736D01*
X271025Y860548D01*
G37*
G36*
X288548Y860548D02*
X299975Y860548D01*
X297826Y865736D01*
X293736Y869826D01*
X288548Y871975D01*
X288548Y860548D01*
G37*
G36*
X208025Y860548D02*
X219452Y860548D01*
X219452Y871975D01*
X214264Y869826D01*
X210174Y865736D01*
X208025Y860548D01*
G37*
G36*
X277264Y845174D02*
X282452Y843025D01*
X282452Y854452D01*
X271025Y854452D01*
X273174Y849264D01*
X277264Y845174D01*
G37*
G36*
X225548Y854452D02*
X225548Y843025D01*
X230736Y845174D01*
X234826Y849264D01*
X236975Y854452D01*
X225548Y854452D01*
G37*
G36*
X214264Y845174D02*
X219452Y843025D01*
X219452Y854452D01*
X208025Y854452D01*
X210174Y849264D01*
X214264Y845174D01*
G37*
G36*
X288548Y854452D02*
X288548Y843025D01*
X293736Y845174D01*
X297826Y849264D01*
X299975Y854452D01*
X288548Y854452D01*
G37*
G36*
X1997103Y459420D02*
X2003897Y459420D01*
X2010175Y462020D01*
X2014980Y466825D01*
X2015636Y468410D01*
X2015793Y468648D01*
X2016043Y468820D01*
X2016340Y468880D01*
X2047660Y468880D01*
X2047940Y468827D01*
X2048194Y468661D01*
X2048364Y468410D01*
X2049020Y466825D01*
X2053825Y462020D01*
X2060103Y459420D01*
X2066897Y459420D01*
X2073175Y462020D01*
X2077980Y466825D01*
X2080580Y473103D01*
X2080580Y479897D01*
X2077980Y486175D01*
X2073175Y490980D01*
X2071590Y491636D01*
X2071352Y491793D01*
X2071180Y492043D01*
X2071120Y492340D01*
X2071120Y523660D01*
X2071173Y523940D01*
X2071339Y524194D01*
X2071590Y524364D01*
X2073175Y525020D01*
X2077980Y529825D01*
X2080580Y536103D01*
X2080580Y542897D01*
X2077980Y549175D01*
X2073175Y553980D01*
X2066897Y556580D01*
X2060103Y556580D01*
X2053825Y553980D01*
X2049020Y549175D01*
X2046420Y542897D01*
X2046420Y536103D01*
X2049020Y529825D01*
X2053825Y525020D01*
X2055410Y524364D01*
X2055648Y524207D01*
X2055820Y523957D01*
X2055880Y523660D01*
X2055880Y492340D01*
X2055827Y492060D01*
X2055661Y491806D01*
X2055410Y491636D01*
X2053825Y490980D01*
X2049020Y486175D01*
X2048364Y484590D01*
X2048207Y484352D01*
X2047957Y484180D01*
X2047660Y484120D01*
X2016340Y484120D01*
X2016060Y484173D01*
X2015806Y484339D01*
X2015636Y484590D01*
X2014980Y486175D01*
X2010175Y490980D01*
X2008590Y491636D01*
X2008352Y491793D01*
X2008180Y492043D01*
X2008120Y492340D01*
X2008120Y523660D01*
X2008173Y523940D01*
X2008339Y524194D01*
X2008590Y524364D01*
X2010175Y525020D01*
X2014980Y529825D01*
X2017580Y536103D01*
X2017580Y542897D01*
X2014980Y549175D01*
X2010175Y553980D01*
X2003897Y556580D01*
X1997103Y556580D01*
X1995518Y555924D01*
X1995238Y555866D01*
X1994940Y555921D01*
X1994688Y556089D01*
X1833116Y717660D01*
X1830316Y718820D01*
X1643213Y718820D01*
X1642921Y718878D01*
X1640063Y720062D01*
X1636537Y720062D01*
X1633280Y718713D01*
X1630787Y716220D01*
X1629438Y712963D01*
X1629438Y709437D01*
X1630787Y706180D01*
X1633280Y703687D01*
X1636537Y702338D01*
X1640063Y702338D01*
X1642921Y703522D01*
X1643213Y703580D01*
X1825328Y703580D01*
X1825614Y703524D01*
X1825867Y703357D01*
X1983911Y545313D01*
X1984072Y545076D01*
X1984134Y544780D01*
X1984076Y544482D01*
X1983420Y542897D01*
X1983420Y536103D01*
X1986020Y529825D01*
X1990825Y525020D01*
X1992410Y524364D01*
X1992648Y524207D01*
X1992820Y523957D01*
X1992880Y523660D01*
X1992880Y492340D01*
X1992827Y492060D01*
X1992661Y491806D01*
X1992410Y491636D01*
X1990825Y490980D01*
X1986020Y486175D01*
X1983420Y479897D01*
X1983420Y473103D01*
X1986020Y466825D01*
X1990825Y462020D01*
X1997103Y459420D01*
G37*
G36*
X1743103Y459420D02*
X1749897Y459420D01*
X1756175Y462020D01*
X1760980Y466825D01*
X1761636Y468410D01*
X1761793Y468648D01*
X1762043Y468820D01*
X1762340Y468880D01*
X1793660Y468880D01*
X1793940Y468827D01*
X1794194Y468661D01*
X1794364Y468410D01*
X1795020Y466825D01*
X1799825Y462020D01*
X1806103Y459420D01*
X1812897Y459420D01*
X1819175Y462020D01*
X1823980Y466825D01*
X1826580Y473103D01*
X1826580Y479897D01*
X1823980Y486175D01*
X1819175Y490980D01*
X1817590Y491636D01*
X1817352Y491793D01*
X1817180Y492043D01*
X1817120Y492340D01*
X1817120Y523660D01*
X1817173Y523940D01*
X1817339Y524194D01*
X1817590Y524364D01*
X1819175Y525020D01*
X1823980Y529825D01*
X1826580Y536103D01*
X1826580Y542897D01*
X1823980Y549175D01*
X1819175Y553980D01*
X1812897Y556580D01*
X1806103Y556580D01*
X1799825Y553980D01*
X1795020Y549175D01*
X1792420Y542897D01*
X1792420Y536103D01*
X1795020Y529825D01*
X1799825Y525020D01*
X1801410Y524364D01*
X1801648Y524207D01*
X1801820Y523957D01*
X1801880Y523660D01*
X1801880Y492340D01*
X1801827Y492060D01*
X1801661Y491806D01*
X1801410Y491636D01*
X1799825Y490980D01*
X1795020Y486175D01*
X1794364Y484590D01*
X1794207Y484352D01*
X1793957Y484180D01*
X1793660Y484120D01*
X1762340Y484120D01*
X1762060Y484173D01*
X1761806Y484339D01*
X1761636Y484590D01*
X1760980Y486175D01*
X1756175Y490980D01*
X1754590Y491636D01*
X1754352Y491793D01*
X1754180Y492043D01*
X1754120Y492340D01*
X1754120Y523660D01*
X1754173Y523940D01*
X1754339Y524194D01*
X1754590Y524364D01*
X1756175Y525020D01*
X1760980Y529825D01*
X1763580Y536103D01*
X1763580Y542897D01*
X1760980Y549175D01*
X1756175Y553980D01*
X1754590Y554636D01*
X1754352Y554793D01*
X1754180Y555043D01*
X1754120Y555340D01*
X1754120Y629916D01*
X1752960Y632716D01*
X1708797Y676879D01*
X1708644Y677099D01*
X1708574Y677394D01*
X1708625Y677693D01*
X1708789Y677948D01*
X1709039Y678120D01*
X1709336Y678180D01*
X1723728Y678180D01*
X1724014Y678124D01*
X1724267Y677957D01*
X1770157Y632067D01*
X1770320Y631825D01*
X1770380Y631528D01*
X1770380Y520593D01*
X1770327Y520313D01*
X1770161Y520059D01*
X1770116Y520028D01*
X1766064Y515976D01*
X1763920Y510801D01*
X1763920Y505199D01*
X1766064Y500024D01*
X1770024Y496064D01*
X1775199Y493920D01*
X1780801Y493920D01*
X1785976Y496064D01*
X1789936Y500024D01*
X1792080Y505199D01*
X1792080Y510801D01*
X1789936Y515976D01*
X1785895Y520017D01*
X1785852Y520046D01*
X1785680Y520296D01*
X1785620Y520593D01*
X1785620Y636516D01*
X1784460Y639316D01*
X1731516Y692260D01*
X1728716Y693420D01*
X1643213Y693420D01*
X1642921Y693478D01*
X1640063Y694662D01*
X1636537Y694662D01*
X1633280Y693313D01*
X1630787Y690820D01*
X1629438Y687563D01*
X1629438Y684037D01*
X1630787Y680780D01*
X1631578Y679989D01*
X1631736Y679758D01*
X1631802Y679462D01*
X1631746Y679164D01*
X1631578Y678911D01*
X1630787Y678120D01*
X1629438Y674863D01*
X1629438Y671337D01*
X1630787Y668080D01*
X1633280Y665587D01*
X1636537Y664238D01*
X1640063Y664238D01*
X1642921Y665422D01*
X1643213Y665480D01*
X1698328Y665480D01*
X1698614Y665424D01*
X1698867Y665257D01*
X1738657Y625467D01*
X1738820Y625225D01*
X1738880Y624928D01*
X1738880Y555340D01*
X1738827Y555060D01*
X1738661Y554806D01*
X1738410Y554636D01*
X1736825Y553980D01*
X1732020Y549175D01*
X1729420Y542897D01*
X1729420Y536103D01*
X1732020Y529825D01*
X1736825Y525020D01*
X1738410Y524364D01*
X1738648Y524207D01*
X1738820Y523957D01*
X1738880Y523660D01*
X1738880Y492340D01*
X1738827Y492060D01*
X1738661Y491806D01*
X1738410Y491636D01*
X1736825Y490980D01*
X1732020Y486175D01*
X1729420Y479897D01*
X1729420Y473103D01*
X1732020Y466825D01*
X1736825Y462020D01*
X1743103Y459420D01*
G37*
G36*
X2029199Y493920D02*
X2034801Y493920D01*
X2039976Y496064D01*
X2043936Y500024D01*
X2046080Y505199D01*
X2046080Y510801D01*
X2043936Y515976D01*
X2039895Y520017D01*
X2039852Y520046D01*
X2039680Y520296D01*
X2039620Y520593D01*
X2039620Y611116D01*
X2038460Y613916D01*
X1985516Y666860D01*
X1982716Y668020D01*
X1922613Y668020D01*
X1922321Y668078D01*
X1919463Y669262D01*
X1915937Y669262D01*
X1912680Y667913D01*
X1910187Y665420D01*
X1908838Y662163D01*
X1908838Y658637D01*
X1910187Y655380D01*
X1912680Y652887D01*
X1915937Y651538D01*
X1919463Y651538D01*
X1922321Y652722D01*
X1922613Y652780D01*
X1977728Y652780D01*
X1978014Y652724D01*
X1978267Y652557D01*
X2024157Y606667D01*
X2024320Y606425D01*
X2024380Y606128D01*
X2024380Y520593D01*
X2024327Y520313D01*
X2024161Y520059D01*
X2024116Y520028D01*
X2020064Y515976D01*
X2017920Y510801D01*
X2017920Y505199D01*
X2020064Y500024D01*
X2024024Y496064D01*
X2029199Y493920D01*
G37*
G36*
X2104856Y25400D02*
X2111544Y25400D01*
X2118004Y27131D01*
X2123796Y30475D01*
X2128525Y35204D01*
X2131869Y40996D01*
X2133600Y47456D01*
X2133600Y54144D01*
X2131869Y60604D01*
X2128525Y66396D01*
X2123796Y71125D01*
X2118004Y74469D01*
X2111544Y76200D01*
X2104856Y76200D01*
X2098396Y74469D01*
X2092604Y71125D01*
X2087875Y66396D01*
X2084531Y60604D01*
X2082800Y54144D01*
X2082800Y47456D01*
X2084531Y40996D01*
X2087875Y35204D01*
X2092604Y30475D01*
X2098396Y27131D01*
X2104856Y25400D01*
G37*
G36*
X47456Y25400D02*
X54144Y25400D01*
X60604Y27131D01*
X66396Y30475D01*
X71125Y35204D01*
X74469Y40996D01*
X76200Y47456D01*
X76200Y54144D01*
X74469Y60604D01*
X71125Y66396D01*
X66396Y71125D01*
X60604Y74469D01*
X54144Y76200D01*
X47456Y76200D01*
X40996Y74469D01*
X35204Y71125D01*
X30475Y66396D01*
X27131Y60604D01*
X25400Y54144D01*
X25400Y47456D01*
X27131Y40996D01*
X30475Y35204D01*
X35204Y30475D01*
X40996Y27131D01*
X47456Y25400D01*
G37*
%LPD*%
G36*
X1473514Y1743723D02*
X1473218Y1743656D01*
X1472920Y1743709D01*
X1472666Y1743874D01*
X1472496Y1744126D01*
X1471267Y1747094D01*
X1468343Y1750017D01*
X1468180Y1750259D01*
X1468120Y1750556D01*
X1468120Y1892407D01*
X1468173Y1892687D01*
X1468339Y1892941D01*
X1468384Y1892972D01*
X1472436Y1897024D01*
X1474580Y1902199D01*
X1474580Y1907801D01*
X1472436Y1912976D01*
X1468476Y1916936D01*
X1463301Y1919080D01*
X1457699Y1919080D01*
X1452524Y1916936D01*
X1448564Y1912976D01*
X1446420Y1907801D01*
X1446420Y1902199D01*
X1448564Y1897024D01*
X1452605Y1892983D01*
X1452648Y1892954D01*
X1452820Y1892704D01*
X1452880Y1892407D01*
X1452880Y1750556D01*
X1452824Y1750270D01*
X1452657Y1750017D01*
X1449733Y1747094D01*
X1449266Y1745965D01*
X1449126Y1745745D01*
X1448881Y1745565D01*
X1448586Y1745495D01*
X1448287Y1745546D01*
X1448032Y1745710D01*
X1447860Y1745960D01*
X1447800Y1746257D01*
X1447800Y1749624D01*
X1444824Y1752600D01*
X1433492Y1752600D01*
X1433206Y1752656D01*
X1432953Y1752823D01*
X1387383Y1798393D01*
X1387220Y1798635D01*
X1387160Y1798932D01*
X1387160Y2002993D01*
X1386000Y2005793D01*
X1374683Y2017110D01*
X1374520Y2017352D01*
X1374460Y2017649D01*
X1374460Y2050976D01*
X1373300Y2053776D01*
X1302219Y2124857D01*
X1302069Y2125071D01*
X1301997Y2125365D01*
X1302045Y2125665D01*
X1302207Y2125921D01*
X1302456Y2126095D01*
X1302752Y2126158D01*
X1303050Y2126100D01*
X1306337Y2124738D01*
X1309863Y2124738D01*
X1313120Y2126087D01*
X1315613Y2128580D01*
X1316962Y2131837D01*
X1316962Y2135363D01*
X1315778Y2138221D01*
X1315720Y2138513D01*
X1315720Y2152191D01*
X1315776Y2152477D01*
X1315943Y2152730D01*
X1339770Y2176557D01*
X1340012Y2176720D01*
X1340309Y2176780D01*
X1373601Y2176780D01*
X1373887Y2176724D01*
X1374140Y2176557D01*
X1377089Y2173608D01*
X1379996Y2172404D01*
X1380221Y2172260D01*
X1380399Y2172014D01*
X1380466Y2171718D01*
X1380413Y2171420D01*
X1380247Y2171166D01*
X1379996Y2170996D01*
X1377089Y2169792D01*
X1373508Y2166211D01*
X1371547Y2161477D01*
X1371535Y2161396D01*
X1371388Y2161131D01*
X1371149Y2160944D01*
X1355758Y2153248D01*
X1355709Y2153226D01*
X1354584Y2152760D01*
X1354474Y2152650D01*
X1354276Y2152507D01*
X1354137Y2152438D01*
X1353338Y2151517D01*
X1353301Y2151478D01*
X1331586Y2129762D01*
X1331339Y2129597D01*
X1328480Y2128413D01*
X1325987Y2125920D01*
X1324638Y2122663D01*
X1324638Y2119137D01*
X1325987Y2115880D01*
X1328480Y2113387D01*
X1331737Y2112038D01*
X1335263Y2112038D01*
X1338520Y2113387D01*
X1341013Y2115880D01*
X1342197Y2118739D01*
X1342362Y2118986D01*
X1363326Y2139950D01*
X1363524Y2140093D01*
X1378236Y2147449D01*
X1378571Y2147529D01*
X1378868Y2147471D01*
X1381768Y2146270D01*
X1386832Y2146270D01*
X1391511Y2148208D01*
X1395092Y2151789D01*
X1395504Y2152784D01*
X1395644Y2153005D01*
X1395889Y2153184D01*
X1396184Y2153254D01*
X1396483Y2153203D01*
X1396738Y2153040D01*
X1396910Y2152789D01*
X1396970Y2152492D01*
X1396970Y2149246D01*
X1399946Y2146270D01*
X1419454Y2146270D01*
X1422430Y2149246D01*
X1422430Y2150618D01*
X1422481Y2150893D01*
X1422645Y2151148D01*
X1422895Y2151320D01*
X1423192Y2151380D01*
X1482428Y2151380D01*
X1482714Y2151324D01*
X1482967Y2151157D01*
X1554257Y2079867D01*
X1554420Y2079625D01*
X1554480Y2079328D01*
X1554480Y1819572D01*
X1554424Y1819286D01*
X1554257Y1819033D01*
X1488047Y1752823D01*
X1487805Y1752660D01*
X1487508Y1752600D01*
X1483374Y1752600D01*
X1478706Y1750667D01*
X1475133Y1747094D01*
X1473904Y1744126D01*
X1473760Y1743900D01*
X1473514Y1743723D01*
G37*
%LPC*%
G36*
X1414525Y1939548D02*
X1425952Y1939548D01*
X1425952Y1950975D01*
X1420764Y1948826D01*
X1416674Y1944736D01*
X1414525Y1939548D01*
G37*
G36*
X1432048Y1939548D02*
X1443475Y1939548D01*
X1441326Y1944736D01*
X1437236Y1948826D01*
X1432048Y1950975D01*
X1432048Y1939548D01*
G37*
G36*
X1477525Y1939548D02*
X1488952Y1939548D01*
X1488952Y1950975D01*
X1483764Y1948826D01*
X1479674Y1944736D01*
X1477525Y1939548D01*
G37*
G36*
X1495048Y1939548D02*
X1506475Y1939548D01*
X1504326Y1944736D01*
X1500236Y1948826D01*
X1495048Y1950975D01*
X1495048Y1939548D01*
G37*
G36*
X1483764Y1924174D02*
X1488952Y1922025D01*
X1488952Y1933452D01*
X1477525Y1933452D01*
X1479674Y1928264D01*
X1483764Y1924174D01*
G37*
G36*
X1420764Y1924174D02*
X1425952Y1922025D01*
X1425952Y1933452D01*
X1414525Y1933452D01*
X1416674Y1928264D01*
X1420764Y1924174D01*
G37*
G36*
X1432048Y1933452D02*
X1432048Y1922025D01*
X1437236Y1924174D01*
X1441326Y1928264D01*
X1443475Y1933452D01*
X1432048Y1933452D01*
G37*
G36*
X1495048Y1933452D02*
X1495048Y1922025D01*
X1500236Y1924174D01*
X1504326Y1928264D01*
X1506475Y1933452D01*
X1495048Y1933452D01*
G37*
G36*
X1495048Y1876548D02*
X1506475Y1876548D01*
X1504326Y1881736D01*
X1500236Y1885826D01*
X1495048Y1887975D01*
X1495048Y1876548D01*
G37*
G36*
X1477525Y1876548D02*
X1488952Y1876548D01*
X1488952Y1887975D01*
X1483764Y1885826D01*
X1479674Y1881736D01*
X1477525Y1876548D01*
G37*
G36*
X1432048Y1876548D02*
X1443475Y1876548D01*
X1441326Y1881736D01*
X1437236Y1885826D01*
X1432048Y1887975D01*
X1432048Y1876548D01*
G37*
G36*
X1414525Y1876548D02*
X1425952Y1876548D01*
X1425952Y1887975D01*
X1420764Y1885826D01*
X1416674Y1881736D01*
X1414525Y1876548D01*
G37*
G36*
X1495048Y1870452D02*
X1495048Y1859025D01*
X1500236Y1861174D01*
X1504326Y1865264D01*
X1506475Y1870452D01*
X1495048Y1870452D01*
G37*
G36*
X1483764Y1861174D02*
X1488952Y1859025D01*
X1488952Y1870452D01*
X1477525Y1870452D01*
X1479674Y1865264D01*
X1483764Y1861174D01*
G37*
G36*
X1432048Y1870452D02*
X1432048Y1859025D01*
X1437236Y1861174D01*
X1441326Y1865264D01*
X1443475Y1870452D01*
X1432048Y1870452D01*
G37*
G36*
X1420764Y1861174D02*
X1425952Y1859025D01*
X1425952Y1870452D01*
X1414525Y1870452D01*
X1416674Y1865264D01*
X1420764Y1861174D01*
G37*
%LPD*%
G36*
X1219514Y1743723D02*
X1219218Y1743656D01*
X1218920Y1743709D01*
X1218666Y1743874D01*
X1218496Y1744126D01*
X1217267Y1747094D01*
X1214343Y1750017D01*
X1214180Y1750259D01*
X1214120Y1750556D01*
X1214120Y1892407D01*
X1214173Y1892687D01*
X1214339Y1892941D01*
X1214384Y1892972D01*
X1218436Y1897024D01*
X1220580Y1902199D01*
X1220580Y1907801D01*
X1218436Y1912976D01*
X1214476Y1916936D01*
X1209301Y1919080D01*
X1203699Y1919080D01*
X1198524Y1916936D01*
X1194564Y1912976D01*
X1192420Y1907801D01*
X1192420Y1902199D01*
X1194564Y1897024D01*
X1198605Y1892983D01*
X1198648Y1892954D01*
X1198820Y1892704D01*
X1198880Y1892407D01*
X1198880Y1750556D01*
X1198824Y1750270D01*
X1198657Y1750017D01*
X1195733Y1747094D01*
X1195266Y1745965D01*
X1195126Y1745745D01*
X1194881Y1745565D01*
X1194586Y1745495D01*
X1194287Y1745546D01*
X1194032Y1745710D01*
X1193860Y1745960D01*
X1193800Y1746257D01*
X1193800Y1749624D01*
X1190824Y1752600D01*
X1179492Y1752600D01*
X1179206Y1752656D01*
X1178953Y1752823D01*
X1125443Y1806333D01*
X1125280Y1806575D01*
X1125220Y1806872D01*
X1125220Y2164164D01*
X1125267Y2164427D01*
X1125426Y2164685D01*
X1125674Y2164861D01*
X1125970Y2164926D01*
X1126268Y2164870D01*
X1126521Y2164703D01*
X1138684Y2152540D01*
X1141484Y2151380D01*
X1193753Y2151380D01*
X1194039Y2151324D01*
X1194292Y2151157D01*
X1239786Y2105663D01*
X1239939Y2105443D01*
X1240009Y2105148D01*
X1239958Y2104849D01*
X1239794Y2104594D01*
X1239544Y2104422D01*
X1239247Y2104362D01*
X1236073Y2104362D01*
X1232816Y2103013D01*
X1230323Y2100520D01*
X1228974Y2097263D01*
X1228974Y2093737D01*
X1230323Y2090480D01*
X1232816Y2087987D01*
X1236073Y2086638D01*
X1239598Y2086638D01*
X1241311Y2087347D01*
X1241590Y2087405D01*
X1241889Y2087350D01*
X1242141Y2087182D01*
X1245431Y2083893D01*
X1245586Y2083668D01*
X1245653Y2083373D01*
X1245600Y2083074D01*
X1245435Y2082820D01*
X1245183Y2082650D01*
X1244218Y2082250D01*
X1241725Y2079758D01*
X1240376Y2076500D01*
X1240376Y2072975D01*
X1241725Y2069718D01*
X1244218Y2067225D01*
X1247475Y2065876D01*
X1248528Y2065876D01*
X1248786Y2065831D01*
X1249045Y2065673D01*
X1249223Y2065427D01*
X1249290Y2065132D01*
X1249237Y2064833D01*
X1249071Y2064579D01*
X1248820Y2064410D01*
X1248021Y2064079D01*
X1245528Y2061586D01*
X1244179Y2058329D01*
X1244179Y2054803D01*
X1245528Y2051546D01*
X1248021Y2049053D01*
X1250879Y2047869D01*
X1251127Y2047704D01*
X1259937Y2038894D01*
X1260100Y2038652D01*
X1260160Y2038355D01*
X1260160Y2032894D01*
X1260113Y2032631D01*
X1259954Y2032373D01*
X1259706Y2032197D01*
X1259410Y2032132D01*
X1259112Y2032188D01*
X1258859Y2032355D01*
X1257300Y2033914D01*
X1257135Y2034162D01*
X1255951Y2037020D01*
X1253458Y2039513D01*
X1250201Y2040862D01*
X1246675Y2040862D01*
X1243418Y2039513D01*
X1240925Y2037020D01*
X1239576Y2033763D01*
X1239576Y2030237D01*
X1240925Y2026980D01*
X1243418Y2024487D01*
X1246277Y2023303D01*
X1246524Y2023138D01*
X1287877Y1981785D01*
X1288040Y1981543D01*
X1288100Y1981246D01*
X1288100Y1807192D01*
X1288044Y1806906D01*
X1287877Y1806653D01*
X1234047Y1752823D01*
X1233805Y1752660D01*
X1233508Y1752600D01*
X1229374Y1752600D01*
X1224706Y1750667D01*
X1221133Y1747094D01*
X1219904Y1744126D01*
X1219760Y1743900D01*
X1219514Y1743723D01*
G37*
%LPC*%
G36*
X1178048Y1939548D02*
X1189475Y1939548D01*
X1187326Y1944736D01*
X1183236Y1948826D01*
X1178048Y1950975D01*
X1178048Y1939548D01*
G37*
G36*
X1160525Y1939548D02*
X1171952Y1939548D01*
X1171952Y1950975D01*
X1166764Y1948826D01*
X1162674Y1944736D01*
X1160525Y1939548D01*
G37*
G36*
X1223525Y1939548D02*
X1234952Y1939548D01*
X1234952Y1950975D01*
X1229764Y1948826D01*
X1225674Y1944736D01*
X1223525Y1939548D01*
G37*
G36*
X1241048Y1939548D02*
X1252475Y1939548D01*
X1250326Y1944736D01*
X1246236Y1948826D01*
X1241048Y1950975D01*
X1241048Y1939548D01*
G37*
G36*
X1178048Y1933452D02*
X1178048Y1922025D01*
X1183236Y1924174D01*
X1187326Y1928264D01*
X1189475Y1933452D01*
X1178048Y1933452D01*
G37*
G36*
X1166764Y1924174D02*
X1171952Y1922025D01*
X1171952Y1933452D01*
X1160525Y1933452D01*
X1162674Y1928264D01*
X1166764Y1924174D01*
G37*
G36*
X1229764Y1924174D02*
X1234952Y1922025D01*
X1234952Y1933452D01*
X1223525Y1933452D01*
X1225674Y1928264D01*
X1229764Y1924174D01*
G37*
G36*
X1241048Y1933452D02*
X1241048Y1922025D01*
X1246236Y1924174D01*
X1250326Y1928264D01*
X1252475Y1933452D01*
X1241048Y1933452D01*
G37*
G36*
X1241048Y1876548D02*
X1252475Y1876548D01*
X1250326Y1881736D01*
X1246236Y1885826D01*
X1241048Y1887975D01*
X1241048Y1876548D01*
G37*
G36*
X1223525Y1876548D02*
X1234952Y1876548D01*
X1234952Y1887975D01*
X1229764Y1885826D01*
X1225674Y1881736D01*
X1223525Y1876548D01*
G37*
G36*
X1178048Y1876548D02*
X1189475Y1876548D01*
X1187326Y1881736D01*
X1183236Y1885826D01*
X1178048Y1887975D01*
X1178048Y1876548D01*
G37*
G36*
X1160525Y1876548D02*
X1171952Y1876548D01*
X1171952Y1887975D01*
X1166764Y1885826D01*
X1162674Y1881736D01*
X1160525Y1876548D01*
G37*
G36*
X1241048Y1870452D02*
X1241048Y1859025D01*
X1246236Y1861174D01*
X1250326Y1865264D01*
X1252475Y1870452D01*
X1241048Y1870452D01*
G37*
G36*
X1229764Y1861174D02*
X1234952Y1859025D01*
X1234952Y1870452D01*
X1223525Y1870452D01*
X1225674Y1865264D01*
X1229764Y1861174D01*
G37*
G36*
X1178048Y1870452D02*
X1178048Y1859025D01*
X1183236Y1861174D01*
X1187326Y1865264D01*
X1189475Y1870452D01*
X1178048Y1870452D01*
G37*
G36*
X1166764Y1861174D02*
X1171952Y1859025D01*
X1171952Y1870452D01*
X1160525Y1870452D01*
X1162674Y1865264D01*
X1166764Y1861174D01*
G37*
%LPD*%
G36*
X1473514Y1273823D02*
X1473218Y1273756D01*
X1472920Y1273809D01*
X1472666Y1273974D01*
X1472496Y1274226D01*
X1471267Y1277194D01*
X1468343Y1280117D01*
X1468180Y1280359D01*
X1468120Y1280656D01*
X1468120Y1435207D01*
X1468173Y1435487D01*
X1468339Y1435741D01*
X1468384Y1435772D01*
X1472436Y1439824D01*
X1474580Y1444999D01*
X1474580Y1450601D01*
X1472436Y1455776D01*
X1468476Y1459736D01*
X1463301Y1461880D01*
X1457699Y1461880D01*
X1452524Y1459736D01*
X1448564Y1455776D01*
X1446420Y1450601D01*
X1446420Y1444999D01*
X1448564Y1439824D01*
X1452605Y1435783D01*
X1452648Y1435754D01*
X1452820Y1435504D01*
X1452880Y1435207D01*
X1452880Y1280656D01*
X1452824Y1280370D01*
X1452657Y1280117D01*
X1449733Y1277194D01*
X1449266Y1276065D01*
X1449126Y1275845D01*
X1448881Y1275665D01*
X1448586Y1275595D01*
X1448287Y1275646D01*
X1448032Y1275810D01*
X1447860Y1276060D01*
X1447800Y1276357D01*
X1447800Y1279724D01*
X1444824Y1282700D01*
X1433492Y1282700D01*
X1433206Y1282756D01*
X1432953Y1282923D01*
X1377223Y1338653D01*
X1377060Y1338895D01*
X1377000Y1339192D01*
X1377000Y1785384D01*
X1377047Y1785647D01*
X1377206Y1785905D01*
X1377454Y1786081D01*
X1377750Y1786146D01*
X1378048Y1786090D01*
X1378301Y1785923D01*
X1422177Y1742047D01*
X1422340Y1741805D01*
X1422400Y1741508D01*
X1422400Y1730176D01*
X1425376Y1727200D01*
X1444824Y1727200D01*
X1447800Y1730176D01*
X1447800Y1733543D01*
X1447845Y1733801D01*
X1448002Y1734060D01*
X1448248Y1734237D01*
X1448544Y1734305D01*
X1448842Y1734252D01*
X1449097Y1734086D01*
X1449266Y1733835D01*
X1449733Y1732706D01*
X1453306Y1729133D01*
X1457974Y1727200D01*
X1463026Y1727200D01*
X1467694Y1729133D01*
X1471267Y1732706D01*
X1472496Y1735674D01*
X1472640Y1735900D01*
X1472886Y1736077D01*
X1473182Y1736144D01*
X1473480Y1736091D01*
X1473735Y1735926D01*
X1473904Y1735674D01*
X1475133Y1732706D01*
X1478706Y1729133D01*
X1483374Y1727200D01*
X1488426Y1727200D01*
X1493094Y1729133D01*
X1496667Y1732706D01*
X1498600Y1737374D01*
X1498600Y1741508D01*
X1498656Y1741794D01*
X1498823Y1742047D01*
X1563339Y1806563D01*
X1563559Y1806716D01*
X1563854Y1806786D01*
X1564153Y1806735D01*
X1564408Y1806571D01*
X1564580Y1806321D01*
X1564640Y1806024D01*
X1564640Y1410632D01*
X1564584Y1410346D01*
X1564417Y1410093D01*
X1479440Y1325116D01*
X1478280Y1322316D01*
X1478280Y1280656D01*
X1478224Y1280370D01*
X1478057Y1280117D01*
X1475133Y1277194D01*
X1473904Y1274226D01*
X1473760Y1274000D01*
X1473514Y1273823D01*
G37*
%LPC*%
G36*
X1414525Y1482348D02*
X1425952Y1482348D01*
X1425952Y1493775D01*
X1420764Y1491626D01*
X1416674Y1487536D01*
X1414525Y1482348D01*
G37*
G36*
X1432048Y1482348D02*
X1443475Y1482348D01*
X1441326Y1487536D01*
X1437236Y1491626D01*
X1432048Y1493775D01*
X1432048Y1482348D01*
G37*
G36*
X1477525Y1482348D02*
X1488952Y1482348D01*
X1488952Y1493775D01*
X1483764Y1491626D01*
X1479674Y1487536D01*
X1477525Y1482348D01*
G37*
G36*
X1495048Y1482348D02*
X1506475Y1482348D01*
X1504326Y1487536D01*
X1500236Y1491626D01*
X1495048Y1493775D01*
X1495048Y1482348D01*
G37*
G36*
X1420764Y1466974D02*
X1425952Y1464825D01*
X1425952Y1476252D01*
X1414525Y1476252D01*
X1416674Y1471064D01*
X1420764Y1466974D01*
G37*
G36*
X1432048Y1476252D02*
X1432048Y1464825D01*
X1437236Y1466974D01*
X1441326Y1471064D01*
X1443475Y1476252D01*
X1432048Y1476252D01*
G37*
G36*
X1483764Y1466974D02*
X1488952Y1464825D01*
X1488952Y1476252D01*
X1477525Y1476252D01*
X1479674Y1471064D01*
X1483764Y1466974D01*
G37*
G36*
X1495048Y1476252D02*
X1495048Y1464825D01*
X1500236Y1466974D01*
X1504326Y1471064D01*
X1506475Y1476252D01*
X1495048Y1476252D01*
G37*
G36*
X1414525Y1419348D02*
X1425952Y1419348D01*
X1425952Y1430775D01*
X1420764Y1428626D01*
X1416674Y1424536D01*
X1414525Y1419348D01*
G37*
G36*
X1432048Y1419348D02*
X1443475Y1419348D01*
X1441326Y1424536D01*
X1437236Y1428626D01*
X1432048Y1430775D01*
X1432048Y1419348D01*
G37*
G36*
X1477525Y1419348D02*
X1488952Y1419348D01*
X1488952Y1430775D01*
X1483764Y1428626D01*
X1479674Y1424536D01*
X1477525Y1419348D01*
G37*
G36*
X1495048Y1419348D02*
X1506475Y1419348D01*
X1504326Y1424536D01*
X1500236Y1428626D01*
X1495048Y1430775D01*
X1495048Y1419348D01*
G37*
G36*
X1495048Y1413252D02*
X1495048Y1401825D01*
X1500236Y1403974D01*
X1504326Y1408064D01*
X1506475Y1413252D01*
X1495048Y1413252D01*
G37*
G36*
X1483764Y1403974D02*
X1488952Y1401825D01*
X1488952Y1413252D01*
X1477525Y1413252D01*
X1479674Y1408064D01*
X1483764Y1403974D01*
G37*
G36*
X1432048Y1413252D02*
X1432048Y1401825D01*
X1437236Y1403974D01*
X1441326Y1408064D01*
X1443475Y1413252D01*
X1432048Y1413252D01*
G37*
G36*
X1420764Y1403974D02*
X1425952Y1401825D01*
X1425952Y1413252D01*
X1414525Y1413252D01*
X1416674Y1408064D01*
X1420764Y1403974D01*
G37*
%LPD*%
G36*
X1219514Y1273823D02*
X1219218Y1273756D01*
X1218920Y1273809D01*
X1218666Y1273974D01*
X1218496Y1274226D01*
X1217267Y1277194D01*
X1214343Y1280117D01*
X1214180Y1280359D01*
X1214120Y1280656D01*
X1214120Y1435207D01*
X1214173Y1435487D01*
X1214339Y1435741D01*
X1214384Y1435772D01*
X1218436Y1439824D01*
X1220580Y1444999D01*
X1220580Y1450601D01*
X1218436Y1455776D01*
X1214476Y1459736D01*
X1209301Y1461880D01*
X1203699Y1461880D01*
X1198524Y1459736D01*
X1194564Y1455776D01*
X1192420Y1450601D01*
X1192420Y1444999D01*
X1194564Y1439824D01*
X1198605Y1435783D01*
X1198648Y1435754D01*
X1198820Y1435504D01*
X1198880Y1435207D01*
X1198880Y1280656D01*
X1198824Y1280370D01*
X1198657Y1280117D01*
X1195733Y1277194D01*
X1195266Y1276065D01*
X1195126Y1275845D01*
X1194881Y1275665D01*
X1194586Y1275595D01*
X1194287Y1275646D01*
X1194032Y1275810D01*
X1193860Y1276060D01*
X1193800Y1276357D01*
X1193800Y1279724D01*
X1190824Y1282700D01*
X1179492Y1282700D01*
X1179206Y1282756D01*
X1178953Y1282923D01*
X1112743Y1349133D01*
X1112580Y1349375D01*
X1112520Y1349672D01*
X1112520Y1795864D01*
X1112567Y1796127D01*
X1112726Y1796385D01*
X1112974Y1796561D01*
X1113270Y1796626D01*
X1113568Y1796570D01*
X1113821Y1796403D01*
X1168177Y1742047D01*
X1168340Y1741805D01*
X1168400Y1741508D01*
X1168400Y1730176D01*
X1171376Y1727200D01*
X1190824Y1727200D01*
X1193800Y1730176D01*
X1193800Y1733543D01*
X1193845Y1733801D01*
X1194002Y1734060D01*
X1194248Y1734237D01*
X1194544Y1734305D01*
X1194842Y1734252D01*
X1195097Y1734086D01*
X1195266Y1733835D01*
X1195733Y1732706D01*
X1199306Y1729133D01*
X1203974Y1727200D01*
X1209026Y1727200D01*
X1213694Y1729133D01*
X1217267Y1732706D01*
X1218496Y1735674D01*
X1218640Y1735900D01*
X1218886Y1736077D01*
X1219182Y1736144D01*
X1219480Y1736091D01*
X1219735Y1735926D01*
X1219904Y1735674D01*
X1221133Y1732706D01*
X1224706Y1729133D01*
X1229374Y1727200D01*
X1234426Y1727200D01*
X1239094Y1729133D01*
X1242667Y1732706D01*
X1244600Y1737374D01*
X1244600Y1741508D01*
X1244656Y1741794D01*
X1244823Y1742047D01*
X1296959Y1794183D01*
X1297179Y1794336D01*
X1297474Y1794406D01*
X1297773Y1794355D01*
X1298028Y1794191D01*
X1298200Y1793941D01*
X1298260Y1793644D01*
X1298260Y1347452D01*
X1298204Y1347166D01*
X1298037Y1346913D01*
X1234047Y1282923D01*
X1233805Y1282760D01*
X1233508Y1282700D01*
X1229374Y1282700D01*
X1224706Y1280767D01*
X1221133Y1277194D01*
X1219904Y1274226D01*
X1219760Y1274000D01*
X1219514Y1273823D01*
G37*
%LPC*%
G36*
X1160525Y1482348D02*
X1171952Y1482348D01*
X1171952Y1493775D01*
X1166764Y1491626D01*
X1162674Y1487536D01*
X1160525Y1482348D01*
G37*
G36*
X1178048Y1482348D02*
X1189475Y1482348D01*
X1187326Y1487536D01*
X1183236Y1491626D01*
X1178048Y1493775D01*
X1178048Y1482348D01*
G37*
G36*
X1223525Y1482348D02*
X1234952Y1482348D01*
X1234952Y1493775D01*
X1229764Y1491626D01*
X1225674Y1487536D01*
X1223525Y1482348D01*
G37*
G36*
X1241048Y1482348D02*
X1252475Y1482348D01*
X1250326Y1487536D01*
X1246236Y1491626D01*
X1241048Y1493775D01*
X1241048Y1482348D01*
G37*
G36*
X1166764Y1466974D02*
X1171952Y1464825D01*
X1171952Y1476252D01*
X1160525Y1476252D01*
X1162674Y1471064D01*
X1166764Y1466974D01*
G37*
G36*
X1178048Y1476252D02*
X1178048Y1464825D01*
X1183236Y1466974D01*
X1187326Y1471064D01*
X1189475Y1476252D01*
X1178048Y1476252D01*
G37*
G36*
X1241048Y1476252D02*
X1241048Y1464825D01*
X1246236Y1466974D01*
X1250326Y1471064D01*
X1252475Y1476252D01*
X1241048Y1476252D01*
G37*
G36*
X1229764Y1466974D02*
X1234952Y1464825D01*
X1234952Y1476252D01*
X1223525Y1476252D01*
X1225674Y1471064D01*
X1229764Y1466974D01*
G37*
G36*
X1160525Y1419348D02*
X1171952Y1419348D01*
X1171952Y1430775D01*
X1166764Y1428626D01*
X1162674Y1424536D01*
X1160525Y1419348D01*
G37*
G36*
X1178048Y1419348D02*
X1189475Y1419348D01*
X1187326Y1424536D01*
X1183236Y1428626D01*
X1178048Y1430775D01*
X1178048Y1419348D01*
G37*
G36*
X1223525Y1419348D02*
X1234952Y1419348D01*
X1234952Y1430775D01*
X1229764Y1428626D01*
X1225674Y1424536D01*
X1223525Y1419348D01*
G37*
G36*
X1241048Y1419348D02*
X1252475Y1419348D01*
X1250326Y1424536D01*
X1246236Y1428626D01*
X1241048Y1430775D01*
X1241048Y1419348D01*
G37*
G36*
X1241048Y1413252D02*
X1241048Y1401825D01*
X1246236Y1403974D01*
X1250326Y1408064D01*
X1252475Y1413252D01*
X1241048Y1413252D01*
G37*
G36*
X1229764Y1403974D02*
X1234952Y1401825D01*
X1234952Y1413252D01*
X1223525Y1413252D01*
X1225674Y1408064D01*
X1229764Y1403974D01*
G37*
G36*
X1178048Y1413252D02*
X1178048Y1401825D01*
X1183236Y1403974D01*
X1187326Y1408064D01*
X1189475Y1413252D01*
X1178048Y1413252D01*
G37*
G36*
X1166764Y1403974D02*
X1171952Y1401825D01*
X1171952Y1413252D01*
X1160525Y1413252D01*
X1162674Y1408064D01*
X1166764Y1403974D01*
G37*
%LPD*%
G36*
X1473514Y803923D02*
X1473218Y803856D01*
X1472920Y803909D01*
X1472666Y804074D01*
X1472496Y804326D01*
X1471267Y807294D01*
X1468343Y810217D01*
X1468180Y810459D01*
X1468120Y810756D01*
X1468120Y952607D01*
X1468173Y952887D01*
X1468339Y953141D01*
X1468384Y953172D01*
X1472436Y957224D01*
X1474580Y962399D01*
X1474580Y968001D01*
X1472436Y973176D01*
X1468476Y977136D01*
X1463301Y979280D01*
X1457699Y979280D01*
X1452524Y977136D01*
X1448564Y973176D01*
X1446420Y968001D01*
X1446420Y962399D01*
X1448564Y957224D01*
X1452605Y953183D01*
X1452648Y953154D01*
X1452820Y952904D01*
X1452880Y952607D01*
X1452880Y810756D01*
X1452824Y810470D01*
X1452657Y810217D01*
X1449733Y807294D01*
X1449266Y806165D01*
X1449126Y805945D01*
X1448881Y805765D01*
X1448586Y805695D01*
X1448287Y805746D01*
X1448032Y805910D01*
X1447860Y806160D01*
X1447800Y806457D01*
X1447800Y809824D01*
X1444824Y812800D01*
X1433492Y812800D01*
X1433206Y812856D01*
X1432953Y813023D01*
X1367063Y878913D01*
X1366900Y879155D01*
X1366840Y879452D01*
X1366840Y1325644D01*
X1366887Y1325907D01*
X1367046Y1326165D01*
X1367294Y1326341D01*
X1367590Y1326406D01*
X1367888Y1326350D01*
X1368141Y1326183D01*
X1422177Y1272147D01*
X1422340Y1271905D01*
X1422400Y1271608D01*
X1422400Y1260276D01*
X1425376Y1257300D01*
X1444824Y1257300D01*
X1447800Y1260276D01*
X1447800Y1263643D01*
X1447845Y1263901D01*
X1448002Y1264160D01*
X1448248Y1264337D01*
X1448544Y1264405D01*
X1448842Y1264352D01*
X1449097Y1264186D01*
X1449266Y1263935D01*
X1449733Y1262806D01*
X1453306Y1259233D01*
X1457974Y1257300D01*
X1463026Y1257300D01*
X1467694Y1259233D01*
X1471267Y1262806D01*
X1472496Y1265774D01*
X1472640Y1266000D01*
X1472886Y1266177D01*
X1473182Y1266244D01*
X1473480Y1266191D01*
X1473735Y1266026D01*
X1473904Y1265774D01*
X1475133Y1262806D01*
X1478706Y1259233D01*
X1483374Y1257300D01*
X1488426Y1257300D01*
X1493094Y1259233D01*
X1496667Y1262806D01*
X1498600Y1267474D01*
X1498600Y1272526D01*
X1496667Y1277194D01*
X1493743Y1280117D01*
X1493580Y1280359D01*
X1493520Y1280656D01*
X1493520Y1317328D01*
X1493576Y1317614D01*
X1493743Y1317867D01*
X1573499Y1397623D01*
X1573719Y1397776D01*
X1574014Y1397846D01*
X1574313Y1397795D01*
X1574568Y1397631D01*
X1574740Y1397381D01*
X1574800Y1397084D01*
X1574800Y900092D01*
X1574744Y899806D01*
X1574577Y899553D01*
X1488047Y813023D01*
X1487805Y812860D01*
X1487508Y812800D01*
X1483374Y812800D01*
X1478706Y810867D01*
X1475133Y807294D01*
X1473904Y804326D01*
X1473760Y804100D01*
X1473514Y803923D01*
G37*
%LPC*%
G36*
X1414525Y999748D02*
X1425952Y999748D01*
X1425952Y1011175D01*
X1420764Y1009026D01*
X1416674Y1004936D01*
X1414525Y999748D01*
G37*
G36*
X1432048Y999748D02*
X1443475Y999748D01*
X1441326Y1004936D01*
X1437236Y1009026D01*
X1432048Y1011175D01*
X1432048Y999748D01*
G37*
G36*
X1477525Y999748D02*
X1488952Y999748D01*
X1488952Y1011175D01*
X1483764Y1009026D01*
X1479674Y1004936D01*
X1477525Y999748D01*
G37*
G36*
X1495048Y999748D02*
X1506475Y999748D01*
X1504326Y1004936D01*
X1500236Y1009026D01*
X1495048Y1011175D01*
X1495048Y999748D01*
G37*
G36*
X1483764Y984374D02*
X1488952Y982225D01*
X1488952Y993652D01*
X1477525Y993652D01*
X1479674Y988464D01*
X1483764Y984374D01*
G37*
G36*
X1432048Y993652D02*
X1432048Y982225D01*
X1437236Y984374D01*
X1441326Y988464D01*
X1443475Y993652D01*
X1432048Y993652D01*
G37*
G36*
X1420764Y984374D02*
X1425952Y982225D01*
X1425952Y993652D01*
X1414525Y993652D01*
X1416674Y988464D01*
X1420764Y984374D01*
G37*
G36*
X1495048Y993652D02*
X1495048Y982225D01*
X1500236Y984374D01*
X1504326Y988464D01*
X1506475Y993652D01*
X1495048Y993652D01*
G37*
G36*
X1414525Y936748D02*
X1425952Y936748D01*
X1425952Y948175D01*
X1420764Y946026D01*
X1416674Y941936D01*
X1414525Y936748D01*
G37*
G36*
X1432048Y936748D02*
X1443475Y936748D01*
X1441326Y941936D01*
X1437236Y946026D01*
X1432048Y948175D01*
X1432048Y936748D01*
G37*
G36*
X1477525Y936748D02*
X1488952Y936748D01*
X1488952Y948175D01*
X1483764Y946026D01*
X1479674Y941936D01*
X1477525Y936748D01*
G37*
G36*
X1495048Y936748D02*
X1506475Y936748D01*
X1504326Y941936D01*
X1500236Y946026D01*
X1495048Y948175D01*
X1495048Y936748D01*
G37*
G36*
X1495048Y930652D02*
X1495048Y919225D01*
X1500236Y921374D01*
X1504326Y925464D01*
X1506475Y930652D01*
X1495048Y930652D01*
G37*
G36*
X1483764Y921374D02*
X1488952Y919225D01*
X1488952Y930652D01*
X1477525Y930652D01*
X1479674Y925464D01*
X1483764Y921374D01*
G37*
G36*
X1432048Y930652D02*
X1432048Y919225D01*
X1437236Y921374D01*
X1441326Y925464D01*
X1443475Y930652D01*
X1432048Y930652D01*
G37*
G36*
X1420764Y921374D02*
X1425952Y919225D01*
X1425952Y930652D01*
X1414525Y930652D01*
X1416674Y925464D01*
X1420764Y921374D01*
G37*
%LPD*%
G36*
X1300202Y247682D02*
X1299905Y247622D01*
X1239894Y247622D01*
X1239631Y247669D01*
X1239373Y247828D01*
X1239198Y248076D01*
X1239133Y248372D01*
X1239188Y248670D01*
X1239356Y248923D01*
X1239413Y248980D01*
X1240762Y252237D01*
X1240762Y255763D01*
X1239413Y259020D01*
X1236920Y261513D01*
X1233663Y262862D01*
X1230137Y262862D01*
X1227279Y261678D01*
X1226987Y261620D01*
X1171872Y261620D01*
X1171586Y261676D01*
X1171333Y261843D01*
X1036543Y396633D01*
X1036380Y396875D01*
X1036320Y397172D01*
X1036320Y903216D01*
X1035160Y906016D01*
X918857Y1022319D01*
X918704Y1022539D01*
X918634Y1022834D01*
X918685Y1023133D01*
X918849Y1023388D01*
X919099Y1023560D01*
X919396Y1023620D01*
X1009024Y1023620D01*
X1011825Y1024780D01*
X1030347Y1043302D01*
X1030589Y1043465D01*
X1030886Y1043526D01*
X1032175Y1043526D01*
X1035432Y1044875D01*
X1037925Y1047368D01*
X1039274Y1050625D01*
X1039274Y1054150D01*
X1037925Y1057408D01*
X1035422Y1059911D01*
X1035264Y1060142D01*
X1035199Y1060438D01*
X1035254Y1060736D01*
X1035422Y1060989D01*
X1036213Y1061780D01*
X1037562Y1065037D01*
X1037562Y1068563D01*
X1036213Y1071820D01*
X1033720Y1074313D01*
X1030463Y1075662D01*
X1026937Y1075662D01*
X1023680Y1074313D01*
X1021187Y1071820D01*
X1020003Y1068962D01*
X1019838Y1068714D01*
X1000367Y1049243D01*
X1000125Y1049080D01*
X999828Y1049020D01*
X935728Y1049020D01*
X935459Y1049069D01*
X935203Y1049230D01*
X935029Y1049479D01*
X934966Y1049776D01*
X935024Y1050074D01*
X935962Y1052337D01*
X935962Y1055863D01*
X934613Y1059120D01*
X932120Y1061613D01*
X928863Y1062962D01*
X925337Y1062962D01*
X922479Y1061778D01*
X922187Y1061720D01*
X895897Y1061720D01*
X895611Y1061776D01*
X895358Y1061943D01*
X885339Y1071962D01*
X882539Y1073122D01*
X858894Y1073122D01*
X858631Y1073169D01*
X858373Y1073328D01*
X858198Y1073576D01*
X858133Y1073872D01*
X858188Y1074170D01*
X858356Y1074423D01*
X858413Y1074480D01*
X859762Y1077737D01*
X859762Y1081263D01*
X858413Y1084520D01*
X855920Y1087013D01*
X852663Y1088362D01*
X849137Y1088362D01*
X846279Y1087178D01*
X845987Y1087120D01*
X778172Y1087120D01*
X777886Y1087176D01*
X777633Y1087343D01*
X757143Y1107833D01*
X756980Y1108075D01*
X756920Y1108372D01*
X756920Y1152228D01*
X756976Y1152514D01*
X757143Y1152767D01*
X764933Y1160557D01*
X765175Y1160720D01*
X765472Y1160780D01*
X802101Y1160780D01*
X802387Y1160724D01*
X802640Y1160557D01*
X805589Y1157608D01*
X810268Y1155670D01*
X815332Y1155670D01*
X820011Y1157608D01*
X823592Y1161189D01*
X824796Y1164096D01*
X824940Y1164321D01*
X825186Y1164499D01*
X825482Y1164566D01*
X825780Y1164513D01*
X826035Y1164347D01*
X826204Y1164096D01*
X827408Y1161189D01*
X830989Y1157608D01*
X833896Y1156404D01*
X834121Y1156260D01*
X834299Y1156014D01*
X834366Y1155718D01*
X834313Y1155420D01*
X834147Y1155166D01*
X833896Y1154996D01*
X830989Y1153792D01*
X827408Y1150211D01*
X825470Y1145532D01*
X825470Y1140468D01*
X827408Y1135789D01*
X830989Y1132208D01*
X835668Y1130270D01*
X840732Y1130270D01*
X845411Y1132208D01*
X848992Y1135789D01*
X850930Y1140468D01*
X850930Y1145532D01*
X848992Y1150211D01*
X845411Y1153792D01*
X842504Y1154996D01*
X842279Y1155140D01*
X842101Y1155386D01*
X842034Y1155682D01*
X842087Y1155980D01*
X842253Y1156235D01*
X842504Y1156404D01*
X845411Y1157608D01*
X848360Y1160557D01*
X848601Y1160720D01*
X848899Y1160780D01*
X885528Y1160780D01*
X885814Y1160724D01*
X886067Y1160557D01*
X981738Y1064886D01*
X981903Y1064639D01*
X983087Y1061780D01*
X985580Y1059287D01*
X988837Y1057938D01*
X992363Y1057938D01*
X995620Y1059287D01*
X998113Y1061780D01*
X999462Y1065037D01*
X999462Y1068563D01*
X998113Y1071820D01*
X995620Y1074313D01*
X992762Y1075497D01*
X992514Y1075662D01*
X893316Y1174860D01*
X890516Y1176020D01*
X848899Y1176020D01*
X848613Y1176076D01*
X848360Y1176243D01*
X845411Y1179192D01*
X842504Y1180396D01*
X842279Y1180540D01*
X842101Y1180786D01*
X842034Y1181082D01*
X842087Y1181380D01*
X842253Y1181635D01*
X842504Y1181804D01*
X845411Y1183008D01*
X848360Y1185957D01*
X848601Y1186120D01*
X848899Y1186180D01*
X961728Y1186180D01*
X962014Y1186124D01*
X962267Y1185957D01*
X1007138Y1141086D01*
X1007303Y1140839D01*
X1008487Y1137980D01*
X1010980Y1135487D01*
X1014237Y1134138D01*
X1017763Y1134138D01*
X1021020Y1135487D01*
X1023513Y1137980D01*
X1024862Y1141237D01*
X1024862Y1144763D01*
X1023513Y1148020D01*
X1022722Y1148811D01*
X1022564Y1149042D01*
X1022499Y1149338D01*
X1022554Y1149636D01*
X1022722Y1149889D01*
X1025225Y1152393D01*
X1026574Y1155650D01*
X1026574Y1159175D01*
X1025225Y1162432D01*
X1024434Y1163224D01*
X1024276Y1163454D01*
X1024211Y1163750D01*
X1024267Y1164048D01*
X1024434Y1164301D01*
X1026060Y1165927D01*
X1027409Y1169184D01*
X1027409Y1172709D01*
X1026060Y1175967D01*
X1025268Y1176758D01*
X1025110Y1176988D01*
X1025045Y1177285D01*
X1025101Y1177583D01*
X1025268Y1177836D01*
X1026894Y1179461D01*
X1028243Y1182718D01*
X1028243Y1186244D01*
X1026894Y1189501D01*
X1024401Y1191994D01*
X1021144Y1193343D01*
X1019854Y1193343D01*
X1019568Y1193399D01*
X1019316Y1193566D01*
X936422Y1276460D01*
X933621Y1277620D01*
X848899Y1277620D01*
X848613Y1277676D01*
X848360Y1277843D01*
X845411Y1280792D01*
X840732Y1282730D01*
X835668Y1282730D01*
X830989Y1280792D01*
X827408Y1277211D01*
X826996Y1276216D01*
X826856Y1275995D01*
X826611Y1275816D01*
X826316Y1275746D01*
X826017Y1275797D01*
X825762Y1275961D01*
X825590Y1276211D01*
X825530Y1276508D01*
X825530Y1279754D01*
X822554Y1282730D01*
X803046Y1282730D01*
X800070Y1279754D01*
X800070Y1278382D01*
X800019Y1278107D01*
X799855Y1277852D01*
X799605Y1277680D01*
X799308Y1277620D01*
X760484Y1277620D01*
X757684Y1276460D01*
X694580Y1213356D01*
X693420Y1210556D01*
X693420Y1146328D01*
X693373Y1146064D01*
X693214Y1145806D01*
X692966Y1145631D01*
X692670Y1145566D01*
X692372Y1145621D01*
X692119Y1145789D01*
X617443Y1220465D01*
X617280Y1220706D01*
X617220Y1221004D01*
X617220Y1265087D01*
X617278Y1265379D01*
X618462Y1268237D01*
X618462Y1271763D01*
X617113Y1275020D01*
X614620Y1277513D01*
X611363Y1278862D01*
X607837Y1278862D01*
X604580Y1277513D01*
X602087Y1275020D01*
X600738Y1271763D01*
X600738Y1268237D01*
X601922Y1265379D01*
X601980Y1265087D01*
X601980Y1216016D01*
X603140Y1213215D01*
X683037Y1133318D01*
X683200Y1133077D01*
X683260Y1132780D01*
X683260Y1067899D01*
X684420Y1065098D01*
X734898Y1014620D01*
X737699Y1013460D01*
X905848Y1013460D01*
X906134Y1013404D01*
X906387Y1013237D01*
X1020857Y898767D01*
X1021020Y898525D01*
X1021080Y898228D01*
X1021080Y617136D01*
X1021033Y616873D01*
X1020874Y616615D01*
X1020626Y616439D01*
X1020330Y616374D01*
X1020032Y616430D01*
X1019779Y616597D01*
X927323Y709053D01*
X927160Y709295D01*
X927100Y709592D01*
X927100Y713726D01*
X925167Y718394D01*
X921594Y721967D01*
X916926Y723900D01*
X911874Y723900D01*
X907206Y721967D01*
X903633Y718394D01*
X902404Y715426D01*
X902260Y715200D01*
X902014Y715023D01*
X901718Y714956D01*
X901420Y715009D01*
X901166Y715174D01*
X900996Y715426D01*
X899767Y718394D01*
X896843Y721317D01*
X896680Y721559D01*
X896620Y721856D01*
X896620Y876407D01*
X896673Y876687D01*
X896839Y876941D01*
X896884Y876972D01*
X900936Y881024D01*
X903080Y886199D01*
X903080Y891801D01*
X900936Y896976D01*
X896976Y900936D01*
X891801Y903080D01*
X886199Y903080D01*
X881024Y900936D01*
X877064Y896976D01*
X874920Y891801D01*
X874920Y886199D01*
X877064Y881024D01*
X881105Y876983D01*
X881148Y876954D01*
X881320Y876704D01*
X881380Y876407D01*
X881380Y721856D01*
X881324Y721570D01*
X881157Y721317D01*
X878233Y718394D01*
X877766Y717265D01*
X877626Y717045D01*
X877381Y716865D01*
X877086Y716795D01*
X876787Y716846D01*
X876532Y717010D01*
X876360Y717260D01*
X876300Y717557D01*
X876300Y720924D01*
X873324Y723900D01*
X853876Y723900D01*
X850900Y720924D01*
X850900Y719582D01*
X850849Y719307D01*
X850685Y719052D01*
X850435Y718880D01*
X850138Y718820D01*
X790872Y718820D01*
X790586Y718876D01*
X790333Y719043D01*
X376143Y1133233D01*
X375980Y1133475D01*
X375920Y1133772D01*
X375920Y1183101D01*
X375976Y1183387D01*
X376143Y1183640D01*
X379092Y1186589D01*
X380296Y1189496D01*
X380440Y1189721D01*
X380686Y1189899D01*
X380982Y1189966D01*
X381280Y1189913D01*
X381535Y1189747D01*
X381704Y1189496D01*
X382908Y1186589D01*
X385857Y1183640D01*
X386020Y1183399D01*
X386080Y1183101D01*
X386080Y1128784D01*
X387240Y1125984D01*
X389384Y1123840D01*
X392184Y1122680D01*
X585716Y1122680D01*
X588516Y1123840D01*
X590660Y1125984D01*
X591820Y1128784D01*
X591820Y1330028D01*
X591876Y1330314D01*
X592043Y1330567D01*
X599833Y1338357D01*
X600075Y1338520D01*
X600372Y1338580D01*
X852416Y1338580D01*
X855216Y1339740D01*
X861453Y1345977D01*
X861695Y1346140D01*
X861992Y1346200D01*
X873324Y1346200D01*
X876300Y1349176D01*
X876300Y1352543D01*
X876345Y1352801D01*
X876502Y1353060D01*
X876748Y1353237D01*
X877044Y1353305D01*
X877342Y1353252D01*
X877597Y1353086D01*
X877766Y1352835D01*
X878233Y1351706D01*
X881806Y1348133D01*
X886474Y1346200D01*
X891526Y1346200D01*
X896194Y1348133D01*
X899767Y1351706D01*
X900996Y1354674D01*
X901140Y1354900D01*
X901386Y1355077D01*
X901682Y1355144D01*
X901980Y1355091D01*
X902235Y1354926D01*
X902404Y1354674D01*
X903633Y1351706D01*
X907206Y1348133D01*
X911874Y1346200D01*
X916008Y1346200D01*
X916294Y1346144D01*
X916547Y1345977D01*
X1043717Y1218807D01*
X1043880Y1218565D01*
X1043940Y1218268D01*
X1043940Y870651D01*
X1045100Y867850D01*
X1061497Y851453D01*
X1061660Y851212D01*
X1061720Y850914D01*
X1061720Y681744D01*
X1062880Y678944D01*
X1125984Y615840D01*
X1128784Y614680D01*
X1286772Y614680D01*
X1287041Y614631D01*
X1287297Y614470D01*
X1287471Y614221D01*
X1287534Y613924D01*
X1287476Y613626D01*
X1286538Y611363D01*
X1286538Y607837D01*
X1287722Y604979D01*
X1287780Y604687D01*
X1287780Y409872D01*
X1287724Y409586D01*
X1287557Y409333D01*
X1234047Y355823D01*
X1233805Y355660D01*
X1233508Y355600D01*
X1229374Y355600D01*
X1224706Y353667D01*
X1221133Y350094D01*
X1219904Y347126D01*
X1219760Y346900D01*
X1219514Y346723D01*
X1219218Y346656D01*
X1218920Y346709D01*
X1218666Y346874D01*
X1218496Y347126D01*
X1217267Y350094D01*
X1214343Y353017D01*
X1214180Y353259D01*
X1214120Y353556D01*
X1214120Y495407D01*
X1214173Y495687D01*
X1214339Y495941D01*
X1214384Y495972D01*
X1218436Y500024D01*
X1220580Y505199D01*
X1220580Y510801D01*
X1218436Y515976D01*
X1214476Y519936D01*
X1209301Y522080D01*
X1203699Y522080D01*
X1198524Y519936D01*
X1194564Y515976D01*
X1192420Y510801D01*
X1192420Y505199D01*
X1194564Y500024D01*
X1198605Y495983D01*
X1198648Y495954D01*
X1198820Y495704D01*
X1198880Y495407D01*
X1198880Y353556D01*
X1198824Y353270D01*
X1198657Y353017D01*
X1195733Y350094D01*
X1195266Y348965D01*
X1195126Y348745D01*
X1194881Y348565D01*
X1194586Y348495D01*
X1194287Y348546D01*
X1194032Y348710D01*
X1193860Y348960D01*
X1193800Y349257D01*
X1193800Y352624D01*
X1190824Y355600D01*
X1171376Y355600D01*
X1168400Y352624D01*
X1168400Y351282D01*
X1168349Y351007D01*
X1168185Y350752D01*
X1167935Y350580D01*
X1167638Y350520D01*
X1135213Y350520D01*
X1134921Y350578D01*
X1132063Y351762D01*
X1128537Y351762D01*
X1125280Y350413D01*
X1122787Y347920D01*
X1121438Y344663D01*
X1121438Y341137D01*
X1122787Y337880D01*
X1125280Y335387D01*
X1128537Y334038D01*
X1132063Y334038D01*
X1134921Y335222D01*
X1135213Y335280D01*
X1167638Y335280D01*
X1167913Y335229D01*
X1168168Y335065D01*
X1168340Y334815D01*
X1168400Y334518D01*
X1168400Y333176D01*
X1171376Y330200D01*
X1190824Y330200D01*
X1193800Y333176D01*
X1193800Y336543D01*
X1193845Y336801D01*
X1194002Y337060D01*
X1194248Y337237D01*
X1194544Y337305D01*
X1194842Y337252D01*
X1195097Y337086D01*
X1195266Y336835D01*
X1195733Y335706D01*
X1199306Y332133D01*
X1203974Y330200D01*
X1209026Y330200D01*
X1213694Y332133D01*
X1217267Y335706D01*
X1218496Y338674D01*
X1218640Y338900D01*
X1218886Y339077D01*
X1219182Y339144D01*
X1219480Y339091D01*
X1219735Y338926D01*
X1219904Y338674D01*
X1221133Y335706D01*
X1224706Y332133D01*
X1229374Y330200D01*
X1234426Y330200D01*
X1239094Y332133D01*
X1242667Y335706D01*
X1244600Y340374D01*
X1244600Y344508D01*
X1244656Y344794D01*
X1244823Y345047D01*
X1299179Y399403D01*
X1299399Y399556D01*
X1299694Y399626D01*
X1299993Y399575D01*
X1300248Y399411D01*
X1300420Y399161D01*
X1300480Y398864D01*
X1300480Y271613D01*
X1300422Y271321D01*
X1299238Y268463D01*
X1299238Y264937D01*
X1300587Y261680D01*
X1303080Y259187D01*
X1306337Y257838D01*
X1308597Y257838D01*
X1308861Y257791D01*
X1309119Y257632D01*
X1309294Y257384D01*
X1309359Y257088D01*
X1309304Y256790D01*
X1309136Y256537D01*
X1300444Y247845D01*
X1300202Y247682D01*
G37*
%LPC*%
G36*
X815848Y1146048D02*
X815848Y1133233D01*
X818572Y1134361D01*
X821439Y1137228D01*
X822990Y1140973D01*
X822990Y1145027D01*
X821439Y1148772D01*
X818572Y1151639D01*
X814827Y1153190D01*
X810773Y1153190D01*
X807028Y1151639D01*
X804161Y1148772D01*
X803033Y1146048D01*
X815848Y1146048D01*
G37*
G36*
X807028Y1134361D02*
X809752Y1133233D01*
X809752Y1139952D01*
X803033Y1139952D01*
X804161Y1137228D01*
X807028Y1134361D01*
G37*
G36*
X906025Y923548D02*
X917452Y923548D01*
X917452Y934975D01*
X912264Y932826D01*
X908174Y928736D01*
X906025Y923548D01*
G37*
G36*
X923548Y923548D02*
X934975Y923548D01*
X932826Y928736D01*
X928736Y932826D01*
X923548Y934975D01*
X923548Y923548D01*
G37*
G36*
X843025Y923548D02*
X854452Y923548D01*
X854452Y934975D01*
X849264Y932826D01*
X845174Y928736D01*
X843025Y923548D01*
G37*
G36*
X860548Y923548D02*
X871975Y923548D01*
X869826Y928736D01*
X865736Y932826D01*
X860548Y934975D01*
X860548Y923548D01*
G37*
G36*
X849264Y908174D02*
X854452Y906025D01*
X854452Y917452D01*
X843025Y917452D01*
X845174Y912264D01*
X849264Y908174D01*
G37*
G36*
X860548Y917452D02*
X860548Y906025D01*
X865736Y908174D01*
X869826Y912264D01*
X871975Y917452D01*
X860548Y917452D01*
G37*
G36*
X912264Y908174D02*
X917452Y906025D01*
X917452Y917452D01*
X906025Y917452D01*
X908174Y912264D01*
X912264Y908174D01*
G37*
G36*
X923548Y917452D02*
X923548Y906025D01*
X928736Y908174D01*
X932826Y912264D01*
X934975Y917452D01*
X923548Y917452D01*
G37*
G36*
X843025Y860548D02*
X854452Y860548D01*
X854452Y871975D01*
X849264Y869826D01*
X845174Y865736D01*
X843025Y860548D01*
G37*
G36*
X860548Y860548D02*
X871975Y860548D01*
X869826Y865736D01*
X865736Y869826D01*
X860548Y871975D01*
X860548Y860548D01*
G37*
G36*
X906025Y860548D02*
X917452Y860548D01*
X917452Y871975D01*
X912264Y869826D01*
X908174Y865736D01*
X906025Y860548D01*
G37*
G36*
X923548Y860548D02*
X934975Y860548D01*
X932826Y865736D01*
X928736Y869826D01*
X923548Y871975D01*
X923548Y860548D01*
G37*
G36*
X923548Y854452D02*
X923548Y843025D01*
X928736Y845174D01*
X932826Y849264D01*
X934975Y854452D01*
X923548Y854452D01*
G37*
G36*
X912264Y845174D02*
X917452Y843025D01*
X917452Y854452D01*
X906025Y854452D01*
X908174Y849264D01*
X912264Y845174D01*
G37*
G36*
X860548Y854452D02*
X860548Y843025D01*
X865736Y845174D01*
X869826Y849264D01*
X871975Y854452D01*
X860548Y854452D01*
G37*
G36*
X849264Y845174D02*
X854452Y843025D01*
X854452Y854452D01*
X843025Y854452D01*
X845174Y849264D01*
X849264Y845174D01*
G37*
G36*
X1160525Y542548D02*
X1171952Y542548D01*
X1171952Y553975D01*
X1166764Y551826D01*
X1162674Y547736D01*
X1160525Y542548D01*
G37*
G36*
X1178048Y542548D02*
X1189475Y542548D01*
X1187326Y547736D01*
X1183236Y551826D01*
X1178048Y553975D01*
X1178048Y542548D01*
G37*
G36*
X1223525Y542548D02*
X1234952Y542548D01*
X1234952Y553975D01*
X1229764Y551826D01*
X1225674Y547736D01*
X1223525Y542548D01*
G37*
G36*
X1241048Y542548D02*
X1252475Y542548D01*
X1250326Y547736D01*
X1246236Y551826D01*
X1241048Y553975D01*
X1241048Y542548D01*
G37*
G36*
X1229764Y527174D02*
X1234952Y525025D01*
X1234952Y536452D01*
X1223525Y536452D01*
X1225674Y531264D01*
X1229764Y527174D01*
G37*
G36*
X1166764Y527174D02*
X1171952Y525025D01*
X1171952Y536452D01*
X1160525Y536452D01*
X1162674Y531264D01*
X1166764Y527174D01*
G37*
G36*
X1241048Y536452D02*
X1241048Y525025D01*
X1246236Y527174D01*
X1250326Y531264D01*
X1252475Y536452D01*
X1241048Y536452D01*
G37*
G36*
X1178048Y536452D02*
X1178048Y525025D01*
X1183236Y527174D01*
X1187326Y531264D01*
X1189475Y536452D01*
X1178048Y536452D01*
G37*
G36*
X1241048Y479548D02*
X1252475Y479548D01*
X1250326Y484736D01*
X1246236Y488826D01*
X1241048Y490975D01*
X1241048Y479548D01*
G37*
G36*
X1160525Y479548D02*
X1171952Y479548D01*
X1171952Y490975D01*
X1166764Y488826D01*
X1162674Y484736D01*
X1160525Y479548D01*
G37*
G36*
X1223525Y479548D02*
X1234952Y479548D01*
X1234952Y490975D01*
X1229764Y488826D01*
X1225674Y484736D01*
X1223525Y479548D01*
G37*
G36*
X1178048Y479548D02*
X1189475Y479548D01*
X1187326Y484736D01*
X1183236Y488826D01*
X1178048Y490975D01*
X1178048Y479548D01*
G37*
G36*
X1229764Y464174D02*
X1234952Y462025D01*
X1234952Y473452D01*
X1223525Y473452D01*
X1225674Y468264D01*
X1229764Y464174D01*
G37*
G36*
X1241048Y473452D02*
X1241048Y462025D01*
X1246236Y464174D01*
X1250326Y468264D01*
X1252475Y473452D01*
X1241048Y473452D01*
G37*
G36*
X1166764Y464174D02*
X1171952Y462025D01*
X1171952Y473452D01*
X1160525Y473452D01*
X1162674Y468264D01*
X1166764Y464174D01*
G37*
G36*
X1178048Y473452D02*
X1178048Y462025D01*
X1183236Y464174D01*
X1187326Y468264D01*
X1189475Y473452D01*
X1178048Y473452D01*
G37*
%LPD*%
G36*
X1219514Y803923D02*
X1219218Y803856D01*
X1218920Y803909D01*
X1218666Y804074D01*
X1218496Y804326D01*
X1217267Y807294D01*
X1214343Y810217D01*
X1214180Y810459D01*
X1214120Y810756D01*
X1214120Y952607D01*
X1214173Y952887D01*
X1214339Y953141D01*
X1214384Y953172D01*
X1218436Y957224D01*
X1220580Y962399D01*
X1220580Y968001D01*
X1218436Y973176D01*
X1214476Y977136D01*
X1209301Y979280D01*
X1203699Y979280D01*
X1198524Y977136D01*
X1194564Y973176D01*
X1192420Y968001D01*
X1192420Y962399D01*
X1194564Y957224D01*
X1198605Y953183D01*
X1198648Y953154D01*
X1198820Y952904D01*
X1198880Y952607D01*
X1198880Y810756D01*
X1198824Y810470D01*
X1198657Y810217D01*
X1195733Y807294D01*
X1195266Y806165D01*
X1195126Y805945D01*
X1194881Y805765D01*
X1194586Y805695D01*
X1194287Y805746D01*
X1194032Y805910D01*
X1193860Y806160D01*
X1193800Y806457D01*
X1193800Y809824D01*
X1190824Y812800D01*
X1179492Y812800D01*
X1179206Y812856D01*
X1178953Y813023D01*
X1100043Y891933D01*
X1099880Y892175D01*
X1099820Y892472D01*
X1099820Y1338664D01*
X1099867Y1338927D01*
X1100026Y1339185D01*
X1100274Y1339361D01*
X1100570Y1339426D01*
X1100868Y1339370D01*
X1101121Y1339203D01*
X1168177Y1272147D01*
X1168340Y1271905D01*
X1168400Y1271608D01*
X1168400Y1260276D01*
X1171376Y1257300D01*
X1190824Y1257300D01*
X1193800Y1260276D01*
X1193800Y1263643D01*
X1193845Y1263901D01*
X1194002Y1264160D01*
X1194248Y1264337D01*
X1194544Y1264405D01*
X1194842Y1264352D01*
X1195097Y1264186D01*
X1195266Y1263935D01*
X1195733Y1262806D01*
X1199306Y1259233D01*
X1203974Y1257300D01*
X1209026Y1257300D01*
X1213694Y1259233D01*
X1217267Y1262806D01*
X1218496Y1265774D01*
X1218640Y1266000D01*
X1218886Y1266177D01*
X1219182Y1266244D01*
X1219480Y1266191D01*
X1219735Y1266026D01*
X1219904Y1265774D01*
X1221133Y1262806D01*
X1224706Y1259233D01*
X1229374Y1257300D01*
X1234426Y1257300D01*
X1239094Y1259233D01*
X1242667Y1262806D01*
X1244600Y1267474D01*
X1244600Y1271608D01*
X1244656Y1271894D01*
X1244823Y1272147D01*
X1307119Y1334443D01*
X1307339Y1334596D01*
X1307634Y1334666D01*
X1307933Y1334615D01*
X1308188Y1334451D01*
X1308360Y1334201D01*
X1308420Y1333904D01*
X1308420Y887712D01*
X1308364Y887426D01*
X1308197Y887173D01*
X1234047Y813023D01*
X1233805Y812860D01*
X1233508Y812800D01*
X1229374Y812800D01*
X1224706Y810867D01*
X1221133Y807294D01*
X1219904Y804326D01*
X1219760Y804100D01*
X1219514Y803923D01*
G37*
%LPC*%
G36*
X1160525Y999748D02*
X1171952Y999748D01*
X1171952Y1011175D01*
X1166764Y1009026D01*
X1162674Y1004936D01*
X1160525Y999748D01*
G37*
G36*
X1178048Y999748D02*
X1189475Y999748D01*
X1187326Y1004936D01*
X1183236Y1009026D01*
X1178048Y1011175D01*
X1178048Y999748D01*
G37*
G36*
X1223525Y999748D02*
X1234952Y999748D01*
X1234952Y1011175D01*
X1229764Y1009026D01*
X1225674Y1004936D01*
X1223525Y999748D01*
G37*
G36*
X1241048Y999748D02*
X1252475Y999748D01*
X1250326Y1004936D01*
X1246236Y1009026D01*
X1241048Y1011175D01*
X1241048Y999748D01*
G37*
G36*
X1166764Y984374D02*
X1171952Y982225D01*
X1171952Y993652D01*
X1160525Y993652D01*
X1162674Y988464D01*
X1166764Y984374D01*
G37*
G36*
X1178048Y993652D02*
X1178048Y982225D01*
X1183236Y984374D01*
X1187326Y988464D01*
X1189475Y993652D01*
X1178048Y993652D01*
G37*
G36*
X1229764Y984374D02*
X1234952Y982225D01*
X1234952Y993652D01*
X1223525Y993652D01*
X1225674Y988464D01*
X1229764Y984374D01*
G37*
G36*
X1241048Y993652D02*
X1241048Y982225D01*
X1246236Y984374D01*
X1250326Y988464D01*
X1252475Y993652D01*
X1241048Y993652D01*
G37*
G36*
X1160525Y936748D02*
X1171952Y936748D01*
X1171952Y948175D01*
X1166764Y946026D01*
X1162674Y941936D01*
X1160525Y936748D01*
G37*
G36*
X1178048Y936748D02*
X1189475Y936748D01*
X1187326Y941936D01*
X1183236Y946026D01*
X1178048Y948175D01*
X1178048Y936748D01*
G37*
G36*
X1223525Y936748D02*
X1234952Y936748D01*
X1234952Y948175D01*
X1229764Y946026D01*
X1225674Y941936D01*
X1223525Y936748D01*
G37*
G36*
X1241048Y936748D02*
X1252475Y936748D01*
X1250326Y941936D01*
X1246236Y946026D01*
X1241048Y948175D01*
X1241048Y936748D01*
G37*
G36*
X1241048Y930652D02*
X1241048Y919225D01*
X1246236Y921374D01*
X1250326Y925464D01*
X1252475Y930652D01*
X1241048Y930652D01*
G37*
G36*
X1229764Y921374D02*
X1234952Y919225D01*
X1234952Y930652D01*
X1223525Y930652D01*
X1225674Y925464D01*
X1229764Y921374D01*
G37*
G36*
X1178048Y930652D02*
X1178048Y919225D01*
X1183236Y921374D01*
X1187326Y925464D01*
X1189475Y930652D01*
X1178048Y930652D01*
G37*
G36*
X1166764Y921374D02*
X1171952Y919225D01*
X1171952Y930652D01*
X1160525Y930652D01*
X1162674Y925464D01*
X1166764Y921374D01*
G37*
%LPD*%
G36*
X1010466Y394662D02*
X1010170Y394597D01*
X1009872Y394653D01*
X1009619Y394820D01*
X542485Y861954D01*
X542322Y862196D01*
X542262Y862493D01*
X542262Y865363D01*
X540913Y868620D01*
X538420Y871113D01*
X535163Y872462D01*
X531637Y872462D01*
X528380Y871113D01*
X525887Y868620D01*
X524538Y865363D01*
X524538Y861837D01*
X525722Y858979D01*
X525757Y858803D01*
X525835Y858614D01*
X525892Y858359D01*
X525846Y858060D01*
X525687Y857802D01*
X525439Y857626D01*
X525143Y857561D01*
X524845Y857617D01*
X524592Y857784D01*
X299943Y1082433D01*
X299780Y1082675D01*
X299720Y1082972D01*
X299720Y1224623D01*
X299776Y1224909D01*
X299943Y1225162D01*
X314108Y1239327D01*
X314350Y1239490D01*
X314647Y1239550D01*
X324158Y1239550D01*
X324444Y1239494D01*
X324697Y1239327D01*
X334322Y1229702D01*
X334480Y1229472D01*
X334545Y1229175D01*
X334489Y1228877D01*
X334322Y1228625D01*
X332108Y1226411D01*
X330170Y1221732D01*
X330170Y1216668D01*
X332108Y1211989D01*
X335689Y1208408D01*
X338596Y1207204D01*
X338821Y1207060D01*
X338999Y1206814D01*
X339066Y1206518D01*
X339013Y1206220D01*
X338847Y1205966D01*
X338596Y1205796D01*
X335689Y1204592D01*
X332108Y1201011D01*
X331696Y1200016D01*
X331556Y1199795D01*
X331311Y1199616D01*
X331016Y1199546D01*
X330717Y1199597D01*
X330462Y1199761D01*
X330290Y1200011D01*
X330230Y1200308D01*
X330230Y1203554D01*
X327254Y1206530D01*
X307746Y1206530D01*
X304770Y1203554D01*
X304770Y1184046D01*
X307746Y1181070D01*
X327254Y1181070D01*
X330230Y1184046D01*
X330230Y1187292D01*
X330275Y1187550D01*
X330432Y1187809D01*
X330678Y1187987D01*
X330974Y1188054D01*
X331272Y1188001D01*
X331527Y1187835D01*
X331696Y1187584D01*
X332108Y1186589D01*
X335057Y1183640D01*
X335220Y1183399D01*
X335280Y1183101D01*
X335280Y1103384D01*
X336440Y1100584D01*
X346738Y1090286D01*
X346903Y1090039D01*
X348087Y1087180D01*
X350580Y1084687D01*
X353837Y1083338D01*
X357363Y1083338D01*
X360620Y1084687D01*
X363113Y1087180D01*
X364462Y1090437D01*
X364462Y1093963D01*
X363113Y1097220D01*
X360620Y1099713D01*
X357762Y1100897D01*
X357514Y1101062D01*
X350743Y1107833D01*
X350580Y1108075D01*
X350520Y1108372D01*
X350520Y1183101D01*
X350576Y1183387D01*
X350743Y1183640D01*
X353692Y1186589D01*
X354896Y1189496D01*
X355040Y1189721D01*
X355286Y1189899D01*
X355582Y1189966D01*
X355880Y1189913D01*
X356135Y1189747D01*
X356304Y1189496D01*
X357508Y1186589D01*
X360457Y1183640D01*
X360620Y1183399D01*
X360680Y1183101D01*
X360680Y1128784D01*
X361840Y1125984D01*
X783084Y704740D01*
X785884Y703580D01*
X850138Y703580D01*
X850413Y703529D01*
X850668Y703365D01*
X850840Y703115D01*
X850900Y702818D01*
X850900Y701476D01*
X853876Y698500D01*
X873324Y698500D01*
X876300Y701476D01*
X876300Y704843D01*
X876345Y705101D01*
X876502Y705360D01*
X876748Y705537D01*
X877044Y705605D01*
X877342Y705552D01*
X877597Y705386D01*
X877766Y705135D01*
X878233Y704006D01*
X881806Y700433D01*
X886474Y698500D01*
X891526Y698500D01*
X896194Y700433D01*
X899767Y704006D01*
X900996Y706974D01*
X901140Y707200D01*
X901386Y707377D01*
X901682Y707444D01*
X901980Y707391D01*
X902235Y707226D01*
X902404Y706974D01*
X903633Y704006D01*
X907206Y700433D01*
X911874Y698500D01*
X916008Y698500D01*
X916294Y698444D01*
X916547Y698277D01*
X1010697Y604127D01*
X1010860Y603885D01*
X1010920Y603588D01*
X1010920Y395359D01*
X1010873Y395096D01*
X1010714Y394838D01*
X1010466Y394662D01*
G37*
%LPC*%
G36*
X307733Y1222248D02*
X314452Y1222248D01*
X314452Y1228967D01*
X311728Y1227839D01*
X308861Y1224972D01*
X307733Y1222248D01*
G37*
G36*
X315473Y1209010D02*
X319527Y1209010D01*
X323272Y1210561D01*
X326139Y1213428D01*
X327690Y1217173D01*
X327690Y1221227D01*
X326139Y1224972D01*
X323272Y1227839D01*
X320548Y1228967D01*
X320548Y1216152D01*
X307733Y1216152D01*
X308861Y1213428D01*
X311728Y1210561D01*
X315473Y1209010D01*
G37*
%LPD*%
G36*
X1427015Y58480D02*
X1426718Y58420D01*
X816272Y58420D01*
X815986Y58476D01*
X815733Y58643D01*
X779016Y95360D01*
X776216Y96520D01*
X290056Y96520D01*
X289770Y96576D01*
X289517Y96743D01*
X286594Y99667D01*
X281926Y101600D01*
X276874Y101600D01*
X272206Y99667D01*
X268633Y96094D01*
X267404Y93126D01*
X267260Y92900D01*
X267014Y92723D01*
X266718Y92656D01*
X266420Y92709D01*
X266166Y92874D01*
X265996Y93126D01*
X264767Y96094D01*
X261843Y99017D01*
X261680Y99259D01*
X261620Y99556D01*
X261620Y241407D01*
X261673Y241687D01*
X261839Y241941D01*
X261884Y241972D01*
X265936Y246024D01*
X268080Y251199D01*
X268080Y256801D01*
X265936Y261976D01*
X261976Y265936D01*
X256801Y268080D01*
X251199Y268080D01*
X246024Y265936D01*
X242064Y261976D01*
X239920Y256801D01*
X239920Y251199D01*
X242064Y246024D01*
X246105Y241983D01*
X246148Y241954D01*
X246320Y241704D01*
X246380Y241407D01*
X246380Y99556D01*
X246324Y99270D01*
X246157Y99017D01*
X243233Y96094D01*
X242766Y94965D01*
X242626Y94745D01*
X242381Y94565D01*
X242086Y94495D01*
X241787Y94546D01*
X241532Y94710D01*
X241360Y94960D01*
X241300Y95257D01*
X241300Y98624D01*
X238324Y101600D01*
X218876Y101600D01*
X215900Y98624D01*
X215900Y97282D01*
X215849Y97007D01*
X215685Y96752D01*
X215435Y96580D01*
X215138Y96520D01*
X193972Y96520D01*
X193686Y96576D01*
X193433Y96743D01*
X160243Y129933D01*
X160080Y130175D01*
X160020Y130472D01*
X160020Y352128D01*
X160076Y352414D01*
X160243Y352667D01*
X359513Y551937D01*
X360673Y554738D01*
X360673Y983141D01*
X360731Y983432D01*
X360966Y983999D01*
X361114Y984229D01*
X361362Y984404D01*
X361658Y984469D01*
X361956Y984414D01*
X362209Y984246D01*
X385857Y960598D01*
X386020Y960357D01*
X386080Y960060D01*
X386080Y557284D01*
X387240Y554484D01*
X533177Y408547D01*
X533340Y408305D01*
X533400Y408008D01*
X533400Y396676D01*
X536376Y393700D01*
X555824Y393700D01*
X558800Y396676D01*
X558800Y400043D01*
X558845Y400301D01*
X559002Y400560D01*
X559248Y400737D01*
X559544Y400805D01*
X559842Y400752D01*
X560097Y400586D01*
X560266Y400335D01*
X560733Y399206D01*
X564306Y395633D01*
X568974Y393700D01*
X574026Y393700D01*
X578694Y395633D01*
X582267Y399206D01*
X583496Y402174D01*
X583640Y402400D01*
X583886Y402577D01*
X584182Y402644D01*
X584480Y402591D01*
X584735Y402426D01*
X584904Y402174D01*
X586133Y399206D01*
X589706Y395633D01*
X594374Y393700D01*
X598508Y393700D01*
X598794Y393644D01*
X599047Y393477D01*
X656084Y336440D01*
X658884Y335280D01*
X680887Y335280D01*
X681179Y335222D01*
X684037Y334038D01*
X687563Y334038D01*
X690820Y335387D01*
X693313Y337880D01*
X694662Y341137D01*
X694662Y344663D01*
X693313Y347920D01*
X690820Y350413D01*
X687563Y351762D01*
X684037Y351762D01*
X681179Y350578D01*
X680887Y350520D01*
X663872Y350520D01*
X663586Y350576D01*
X663333Y350743D01*
X609823Y404253D01*
X609660Y404495D01*
X609600Y404792D01*
X609600Y408926D01*
X607667Y413594D01*
X604094Y417167D01*
X599426Y419100D01*
X594374Y419100D01*
X589706Y417167D01*
X586133Y413594D01*
X584904Y410626D01*
X584760Y410400D01*
X584514Y410223D01*
X584218Y410156D01*
X583920Y410209D01*
X583666Y410374D01*
X583496Y410626D01*
X582267Y413594D01*
X579343Y416517D01*
X579180Y416759D01*
X579120Y417056D01*
X579120Y558907D01*
X579173Y559187D01*
X579339Y559441D01*
X579384Y559472D01*
X583436Y563524D01*
X585580Y568699D01*
X585580Y574301D01*
X583436Y579476D01*
X579476Y583436D01*
X574301Y585580D01*
X568699Y585580D01*
X563524Y583436D01*
X559564Y579476D01*
X557420Y574301D01*
X557420Y568699D01*
X559564Y563524D01*
X563605Y559483D01*
X563648Y559454D01*
X563820Y559204D01*
X563880Y558907D01*
X563880Y417056D01*
X563824Y416770D01*
X563657Y416517D01*
X560733Y413594D01*
X560266Y412465D01*
X560126Y412245D01*
X559881Y412065D01*
X559586Y411995D01*
X559287Y412046D01*
X559032Y412210D01*
X558860Y412460D01*
X558800Y412757D01*
X558800Y416124D01*
X555824Y419100D01*
X544492Y419100D01*
X544206Y419156D01*
X543953Y419323D01*
X401543Y561733D01*
X401380Y561975D01*
X401320Y562272D01*
X401320Y957664D01*
X401367Y957927D01*
X401526Y958185D01*
X401774Y958361D01*
X402070Y958426D01*
X402368Y958370D01*
X402621Y958203D01*
X716057Y644767D01*
X716220Y644525D01*
X716280Y644228D01*
X716280Y227084D01*
X717440Y224284D01*
X850677Y91047D01*
X850840Y90805D01*
X850900Y90508D01*
X850900Y79176D01*
X853876Y76200D01*
X873324Y76200D01*
X876300Y79176D01*
X876300Y82543D01*
X876345Y82801D01*
X876502Y83060D01*
X876748Y83237D01*
X877044Y83305D01*
X877342Y83252D01*
X877597Y83086D01*
X877766Y82835D01*
X878233Y81706D01*
X881806Y78133D01*
X886474Y76200D01*
X891526Y76200D01*
X896194Y78133D01*
X899767Y81706D01*
X900996Y84674D01*
X901140Y84900D01*
X901386Y85077D01*
X901682Y85144D01*
X901980Y85091D01*
X902235Y84926D01*
X902404Y84674D01*
X903633Y81706D01*
X907206Y78133D01*
X911874Y76200D01*
X916926Y76200D01*
X921594Y78133D01*
X924517Y81057D01*
X924759Y81220D01*
X925056Y81280D01*
X1208016Y81280D01*
X1210816Y82440D01*
X1272933Y144557D01*
X1273175Y144720D01*
X1273472Y144780D01*
X1373601Y144780D01*
X1373887Y144724D01*
X1374140Y144557D01*
X1377089Y141608D01*
X1381768Y139670D01*
X1386832Y139670D01*
X1391511Y141608D01*
X1395092Y145189D01*
X1396296Y148096D01*
X1396440Y148321D01*
X1396686Y148499D01*
X1396982Y148566D01*
X1397280Y148513D01*
X1397535Y148347D01*
X1397704Y148096D01*
X1398908Y145189D01*
X1402489Y141608D01*
X1403484Y141196D01*
X1403705Y141056D01*
X1403884Y140811D01*
X1403954Y140516D01*
X1403903Y140217D01*
X1403740Y139962D01*
X1403489Y139790D01*
X1403192Y139730D01*
X1399946Y139730D01*
X1396970Y136754D01*
X1396970Y117246D01*
X1399946Y114270D01*
X1419454Y114270D01*
X1422430Y117246D01*
X1422430Y136754D01*
X1419454Y139730D01*
X1416208Y139730D01*
X1415950Y139775D01*
X1415691Y139932D01*
X1415514Y140178D01*
X1415446Y140474D01*
X1415499Y140772D01*
X1415665Y141027D01*
X1415916Y141196D01*
X1416911Y141608D01*
X1419860Y144557D01*
X1420101Y144720D01*
X1420399Y144780D01*
X1426718Y144780D01*
X1426993Y144729D01*
X1427248Y144565D01*
X1427420Y144315D01*
X1427480Y144018D01*
X1427480Y59182D01*
X1427429Y58907D01*
X1427265Y58652D01*
X1427015Y58480D01*
G37*
%LPC*%
G36*
X525525Y606048D02*
X536952Y606048D01*
X536952Y617475D01*
X531764Y615326D01*
X527674Y611236D01*
X525525Y606048D01*
G37*
G36*
X543048Y606048D02*
X554475Y606048D01*
X552326Y611236D01*
X548236Y615326D01*
X543048Y617475D01*
X543048Y606048D01*
G37*
G36*
X606048Y606048D02*
X617475Y606048D01*
X615326Y611236D01*
X611236Y615326D01*
X606048Y617475D01*
X606048Y606048D01*
G37*
G36*
X588525Y606048D02*
X599952Y606048D01*
X599952Y617475D01*
X594764Y615326D01*
X590674Y611236D01*
X588525Y606048D01*
G37*
G36*
X543048Y599952D02*
X543048Y588525D01*
X548236Y590674D01*
X552326Y594764D01*
X554475Y599952D01*
X543048Y599952D01*
G37*
G36*
X606048Y599952D02*
X606048Y588525D01*
X611236Y590674D01*
X615326Y594764D01*
X617475Y599952D01*
X606048Y599952D01*
G37*
G36*
X594764Y590674D02*
X599952Y588525D01*
X599952Y599952D01*
X588525Y599952D01*
X590674Y594764D01*
X594764Y590674D01*
G37*
G36*
X531764Y590674D02*
X536952Y588525D01*
X536952Y599952D01*
X525525Y599952D01*
X527674Y594764D01*
X531764Y590674D01*
G37*
G36*
X525525Y543048D02*
X536952Y543048D01*
X536952Y554475D01*
X531764Y552326D01*
X527674Y548236D01*
X525525Y543048D01*
G37*
G36*
X543048Y543048D02*
X554475Y543048D01*
X552326Y548236D01*
X548236Y552326D01*
X543048Y554475D01*
X543048Y543048D01*
G37*
G36*
X588525Y543048D02*
X599952Y543048D01*
X599952Y554475D01*
X594764Y552326D01*
X590674Y548236D01*
X588525Y543048D01*
G37*
G36*
X606048Y543048D02*
X617475Y543048D01*
X615326Y548236D01*
X611236Y552326D01*
X606048Y554475D01*
X606048Y543048D01*
G37*
G36*
X606048Y536952D02*
X606048Y525525D01*
X611236Y527674D01*
X615326Y531764D01*
X617475Y536952D01*
X606048Y536952D01*
G37*
G36*
X594764Y527674D02*
X599952Y525525D01*
X599952Y536952D01*
X588525Y536952D01*
X590674Y531764D01*
X594764Y527674D01*
G37*
G36*
X543048Y536952D02*
X543048Y525525D01*
X548236Y527674D01*
X552326Y531764D01*
X554475Y536952D01*
X543048Y536952D01*
G37*
G36*
X531764Y527674D02*
X536952Y525525D01*
X536952Y536952D01*
X525525Y536952D01*
X527674Y531764D01*
X531764Y527674D01*
G37*
G36*
X288548Y288548D02*
X299975Y288548D01*
X297826Y293736D01*
X293736Y297826D01*
X288548Y299975D01*
X288548Y288548D01*
G37*
G36*
X271025Y288548D02*
X282452Y288548D01*
X282452Y299975D01*
X277264Y297826D01*
X273174Y293736D01*
X271025Y288548D01*
G37*
G36*
X208025Y288548D02*
X219452Y288548D01*
X219452Y299975D01*
X214264Y297826D01*
X210174Y293736D01*
X208025Y288548D01*
G37*
G36*
X225548Y288548D02*
X236975Y288548D01*
X234826Y293736D01*
X230736Y297826D01*
X225548Y299975D01*
X225548Y288548D01*
G37*
G36*
X277264Y273174D02*
X282452Y271025D01*
X282452Y282452D01*
X271025Y282452D01*
X273174Y277264D01*
X277264Y273174D01*
G37*
G36*
X225548Y282452D02*
X225548Y271025D01*
X230736Y273174D01*
X234826Y277264D01*
X236975Y282452D01*
X225548Y282452D01*
G37*
G36*
X214264Y273174D02*
X219452Y271025D01*
X219452Y282452D01*
X208025Y282452D01*
X210174Y277264D01*
X214264Y273174D01*
G37*
G36*
X288548Y282452D02*
X288548Y271025D01*
X293736Y273174D01*
X297826Y277264D01*
X299975Y282452D01*
X288548Y282452D01*
G37*
G36*
X208025Y225548D02*
X219452Y225548D01*
X219452Y236975D01*
X214264Y234826D01*
X210174Y230736D01*
X208025Y225548D01*
G37*
G36*
X225548Y225548D02*
X236975Y225548D01*
X234826Y230736D01*
X230736Y234826D01*
X225548Y236975D01*
X225548Y225548D01*
G37*
G36*
X271025Y225548D02*
X282452Y225548D01*
X282452Y236975D01*
X277264Y234826D01*
X273174Y230736D01*
X271025Y225548D01*
G37*
G36*
X288548Y225548D02*
X299975Y225548D01*
X297826Y230736D01*
X293736Y234826D01*
X288548Y236975D01*
X288548Y225548D01*
G37*
G36*
X288548Y219452D02*
X288548Y208025D01*
X293736Y210174D01*
X297826Y214264D01*
X299975Y219452D01*
X288548Y219452D01*
G37*
G36*
X277264Y210174D02*
X282452Y208025D01*
X282452Y219452D01*
X271025Y219452D01*
X273174Y214264D01*
X277264Y210174D01*
G37*
G36*
X225548Y219452D02*
X225548Y208025D01*
X230736Y210174D01*
X234826Y214264D01*
X236975Y219452D01*
X225548Y219452D01*
G37*
G36*
X214264Y210174D02*
X219452Y208025D01*
X219452Y219452D01*
X208025Y219452D01*
X210174Y214264D01*
X214264Y210174D01*
G37*
G36*
X1387348Y130048D02*
X1387348Y117233D01*
X1390072Y118361D01*
X1392939Y121228D01*
X1394490Y124973D01*
X1394490Y129027D01*
X1392939Y132772D01*
X1390072Y135639D01*
X1386327Y137190D01*
X1382273Y137190D01*
X1378528Y135639D01*
X1375661Y132772D01*
X1374533Y130048D01*
X1387348Y130048D01*
G37*
G36*
X1378528Y118361D02*
X1381252Y117233D01*
X1381252Y123952D01*
X1374533Y123952D01*
X1375661Y121228D01*
X1378528Y118361D01*
G37*
%LPD*%
G36*
X1473514Y346723D02*
X1473218Y346656D01*
X1472920Y346709D01*
X1472666Y346874D01*
X1472496Y347126D01*
X1471267Y350094D01*
X1468343Y353017D01*
X1468180Y353259D01*
X1468120Y353556D01*
X1468120Y495407D01*
X1468173Y495687D01*
X1468339Y495941D01*
X1468384Y495972D01*
X1472436Y500024D01*
X1474580Y505199D01*
X1474580Y510801D01*
X1472436Y515976D01*
X1468476Y519936D01*
X1463301Y522080D01*
X1457699Y522080D01*
X1452524Y519936D01*
X1448564Y515976D01*
X1446420Y510801D01*
X1446420Y505199D01*
X1448564Y500024D01*
X1452605Y495983D01*
X1452648Y495954D01*
X1452820Y495704D01*
X1452880Y495407D01*
X1452880Y353556D01*
X1452824Y353270D01*
X1452657Y353017D01*
X1449733Y350094D01*
X1449266Y348965D01*
X1449126Y348745D01*
X1448881Y348565D01*
X1448586Y348495D01*
X1448287Y348546D01*
X1448032Y348710D01*
X1447860Y348960D01*
X1447800Y349257D01*
X1447800Y352624D01*
X1444824Y355600D01*
X1433492Y355600D01*
X1433206Y355656D01*
X1432953Y355823D01*
X1360365Y428411D01*
X1360202Y428653D01*
X1360142Y428950D01*
X1360142Y624255D01*
X1358982Y627056D01*
X1356903Y629135D01*
X1356740Y629376D01*
X1356680Y629674D01*
X1356680Y865904D01*
X1356727Y866167D01*
X1356886Y866425D01*
X1357134Y866601D01*
X1357430Y866666D01*
X1357728Y866610D01*
X1357981Y866443D01*
X1422177Y802247D01*
X1422340Y802005D01*
X1422400Y801708D01*
X1422400Y790376D01*
X1425376Y787400D01*
X1444824Y787400D01*
X1447800Y790376D01*
X1447800Y793743D01*
X1447845Y794001D01*
X1448002Y794260D01*
X1448248Y794437D01*
X1448544Y794505D01*
X1448842Y794452D01*
X1449097Y794286D01*
X1449266Y794035D01*
X1449733Y792906D01*
X1453306Y789333D01*
X1457974Y787400D01*
X1463026Y787400D01*
X1467694Y789333D01*
X1471267Y792906D01*
X1472496Y795874D01*
X1472640Y796100D01*
X1472886Y796277D01*
X1473182Y796344D01*
X1473480Y796291D01*
X1473735Y796126D01*
X1473904Y795874D01*
X1475133Y792906D01*
X1478706Y789333D01*
X1483374Y787400D01*
X1488426Y787400D01*
X1493094Y789333D01*
X1496667Y792906D01*
X1498600Y797574D01*
X1498600Y801708D01*
X1498656Y801994D01*
X1498823Y802247D01*
X1583659Y887083D01*
X1583879Y887236D01*
X1584174Y887306D01*
X1584473Y887255D01*
X1584728Y887091D01*
X1584900Y886841D01*
X1584960Y886544D01*
X1584960Y453052D01*
X1584904Y452766D01*
X1584737Y452513D01*
X1488047Y355823D01*
X1487805Y355660D01*
X1487508Y355600D01*
X1483374Y355600D01*
X1478706Y353667D01*
X1475133Y350094D01*
X1473904Y347126D01*
X1473760Y346900D01*
X1473514Y346723D01*
G37*
%LPC*%
G36*
X1414525Y542548D02*
X1425952Y542548D01*
X1425952Y553975D01*
X1420764Y551826D01*
X1416674Y547736D01*
X1414525Y542548D01*
G37*
G36*
X1432048Y542548D02*
X1443475Y542548D01*
X1441326Y547736D01*
X1437236Y551826D01*
X1432048Y553975D01*
X1432048Y542548D01*
G37*
G36*
X1477525Y542548D02*
X1488952Y542548D01*
X1488952Y553975D01*
X1483764Y551826D01*
X1479674Y547736D01*
X1477525Y542548D01*
G37*
G36*
X1495048Y542548D02*
X1506475Y542548D01*
X1504326Y547736D01*
X1500236Y551826D01*
X1495048Y553975D01*
X1495048Y542548D01*
G37*
G36*
X1495048Y536452D02*
X1495048Y525025D01*
X1500236Y527174D01*
X1504326Y531264D01*
X1506475Y536452D01*
X1495048Y536452D01*
G37*
G36*
X1483764Y527174D02*
X1488952Y525025D01*
X1488952Y536452D01*
X1477525Y536452D01*
X1479674Y531264D01*
X1483764Y527174D01*
G37*
G36*
X1432048Y536452D02*
X1432048Y525025D01*
X1437236Y527174D01*
X1441326Y531264D01*
X1443475Y536452D01*
X1432048Y536452D01*
G37*
G36*
X1420764Y527174D02*
X1425952Y525025D01*
X1425952Y536452D01*
X1414525Y536452D01*
X1416674Y531264D01*
X1420764Y527174D01*
G37*
G36*
X1495048Y479548D02*
X1506475Y479548D01*
X1504326Y484736D01*
X1500236Y488826D01*
X1495048Y490975D01*
X1495048Y479548D01*
G37*
G36*
X1477525Y479548D02*
X1488952Y479548D01*
X1488952Y490975D01*
X1483764Y488826D01*
X1479674Y484736D01*
X1477525Y479548D01*
G37*
G36*
X1432048Y479548D02*
X1443475Y479548D01*
X1441326Y484736D01*
X1437236Y488826D01*
X1432048Y490975D01*
X1432048Y479548D01*
G37*
G36*
X1414525Y479548D02*
X1425952Y479548D01*
X1425952Y490975D01*
X1420764Y488826D01*
X1416674Y484736D01*
X1414525Y479548D01*
G37*
G36*
X1420764Y464174D02*
X1425952Y462025D01*
X1425952Y473452D01*
X1414525Y473452D01*
X1416674Y468264D01*
X1420764Y464174D01*
G37*
G36*
X1483764Y464174D02*
X1488952Y462025D01*
X1488952Y473452D01*
X1477525Y473452D01*
X1479674Y468264D01*
X1483764Y464174D01*
G37*
G36*
X1495048Y473452D02*
X1495048Y462025D01*
X1500236Y464174D01*
X1504326Y468264D01*
X1506475Y473452D01*
X1495048Y473452D01*
G37*
G36*
X1432048Y473452D02*
X1432048Y462025D01*
X1437236Y464174D01*
X1441326Y468264D01*
X1443475Y473452D01*
X1432048Y473452D01*
G37*
%LPD*%
G36*
X902014Y92723D02*
X901718Y92656D01*
X901420Y92709D01*
X901166Y92874D01*
X900996Y93126D01*
X899767Y96094D01*
X896843Y99017D01*
X896680Y99259D01*
X896620Y99556D01*
X896620Y241407D01*
X896673Y241687D01*
X896839Y241941D01*
X896884Y241972D01*
X900936Y246024D01*
X903080Y251199D01*
X903080Y256801D01*
X900936Y261976D01*
X896976Y265936D01*
X891801Y268080D01*
X886199Y268080D01*
X881024Y265936D01*
X877064Y261976D01*
X874920Y256801D01*
X874920Y251199D01*
X877064Y246024D01*
X881105Y241983D01*
X881148Y241954D01*
X881320Y241704D01*
X881380Y241407D01*
X881380Y99556D01*
X881324Y99270D01*
X881157Y99017D01*
X878233Y96094D01*
X877766Y94965D01*
X877626Y94745D01*
X877381Y94565D01*
X877086Y94495D01*
X876787Y94546D01*
X876532Y94710D01*
X876360Y94960D01*
X876300Y95257D01*
X876300Y98624D01*
X873324Y101600D01*
X861992Y101600D01*
X861706Y101656D01*
X861453Y101823D01*
X731743Y231533D01*
X731580Y231775D01*
X731520Y232072D01*
X731520Y649216D01*
X731465Y649349D01*
X731408Y649604D01*
X731454Y649904D01*
X731613Y650162D01*
X731861Y650337D01*
X732157Y650402D01*
X732455Y650347D01*
X732708Y650179D01*
X1186147Y196740D01*
X1188947Y195580D01*
X1373601Y195580D01*
X1373887Y195524D01*
X1374140Y195357D01*
X1377089Y192408D01*
X1379996Y191204D01*
X1380221Y191060D01*
X1380399Y190814D01*
X1380466Y190518D01*
X1380413Y190220D01*
X1380247Y189966D01*
X1379996Y189796D01*
X1377089Y188592D01*
X1374140Y185643D01*
X1373899Y185480D01*
X1373601Y185420D01*
X1146472Y185420D01*
X1146186Y185476D01*
X1145933Y185643D01*
X982216Y349360D01*
X979416Y350520D01*
X766913Y350520D01*
X766621Y350578D01*
X763763Y351762D01*
X760237Y351762D01*
X756980Y350413D01*
X754487Y347920D01*
X753138Y344663D01*
X753138Y341137D01*
X754487Y337880D01*
X756980Y335387D01*
X760237Y334038D01*
X763763Y334038D01*
X766621Y335222D01*
X766913Y335280D01*
X974428Y335280D01*
X974714Y335224D01*
X974967Y335057D01*
X1138684Y171340D01*
X1141484Y170180D01*
X1373601Y170180D01*
X1373887Y170124D01*
X1374140Y169957D01*
X1377089Y167008D01*
X1379996Y165804D01*
X1380221Y165660D01*
X1380399Y165414D01*
X1380466Y165118D01*
X1380413Y164820D01*
X1380247Y164566D01*
X1379996Y164396D01*
X1377089Y163192D01*
X1374140Y160243D01*
X1373899Y160080D01*
X1373601Y160020D01*
X1268484Y160020D01*
X1265684Y158860D01*
X1203567Y96743D01*
X1203325Y96580D01*
X1203028Y96520D01*
X925056Y96520D01*
X924770Y96576D01*
X924517Y96743D01*
X921594Y99667D01*
X916926Y101600D01*
X911874Y101600D01*
X907206Y99667D01*
X903633Y96094D01*
X902404Y93126D01*
X902260Y92900D01*
X902014Y92723D01*
G37*
%LPC*%
G36*
X923548Y288548D02*
X934975Y288548D01*
X932826Y293736D01*
X928736Y297826D01*
X923548Y299975D01*
X923548Y288548D01*
G37*
G36*
X843025Y288548D02*
X854452Y288548D01*
X854452Y299975D01*
X849264Y297826D01*
X845174Y293736D01*
X843025Y288548D01*
G37*
G36*
X860548Y288548D02*
X871975Y288548D01*
X869826Y293736D01*
X865736Y297826D01*
X860548Y299975D01*
X860548Y288548D01*
G37*
G36*
X906025Y288548D02*
X917452Y288548D01*
X917452Y299975D01*
X912264Y297826D01*
X908174Y293736D01*
X906025Y288548D01*
G37*
G36*
X923548Y282452D02*
X923548Y271025D01*
X928736Y273174D01*
X932826Y277264D01*
X934975Y282452D01*
X923548Y282452D01*
G37*
G36*
X912264Y273174D02*
X917452Y271025D01*
X917452Y282452D01*
X906025Y282452D01*
X908174Y277264D01*
X912264Y273174D01*
G37*
G36*
X860548Y282452D02*
X860548Y271025D01*
X865736Y273174D01*
X869826Y277264D01*
X871975Y282452D01*
X860548Y282452D01*
G37*
G36*
X849264Y273174D02*
X854452Y271025D01*
X854452Y282452D01*
X843025Y282452D01*
X845174Y277264D01*
X849264Y273174D01*
G37*
G36*
X843025Y225548D02*
X854452Y225548D01*
X854452Y236975D01*
X849264Y234826D01*
X845174Y230736D01*
X843025Y225548D01*
G37*
G36*
X860548Y225548D02*
X871975Y225548D01*
X869826Y230736D01*
X865736Y234826D01*
X860548Y236975D01*
X860548Y225548D01*
G37*
G36*
X906025Y225548D02*
X917452Y225548D01*
X917452Y236975D01*
X912264Y234826D01*
X908174Y230736D01*
X906025Y225548D01*
G37*
G36*
X923548Y225548D02*
X934975Y225548D01*
X932826Y230736D01*
X928736Y234826D01*
X923548Y236975D01*
X923548Y225548D01*
G37*
G36*
X923548Y219452D02*
X923548Y208025D01*
X928736Y210174D01*
X932826Y214264D01*
X934975Y219452D01*
X923548Y219452D01*
G37*
G36*
X912264Y210174D02*
X917452Y208025D01*
X917452Y219452D01*
X906025Y219452D01*
X908174Y214264D01*
X912264Y210174D01*
G37*
G36*
X860548Y219452D02*
X860548Y208025D01*
X865736Y210174D01*
X869826Y214264D01*
X871975Y219452D01*
X860548Y219452D01*
G37*
G36*
X849264Y210174D02*
X854452Y208025D01*
X854452Y219452D01*
X843025Y219452D01*
X845174Y214264D01*
X849264Y210174D01*
G37*
%LPD*%
D10*
X63500Y1193800D03*
D11*
X63500Y1219200D03*
X88900Y1193800D03*
X88900Y1219200D03*
X114300Y1193800D03*
X114300Y1219200D03*
X139700Y1193800D03*
X139700Y1219200D03*
X165100Y1193800D03*
X165100Y1219200D03*
X190500Y1193800D03*
X190500Y1219200D03*
D12*
X2032000Y965200D03*
D13*
X2063500Y996700D03*
X2063500Y933700D03*
X2000500Y933700D03*
X2000500Y996700D03*
D12*
X2032000Y1447800D03*
D13*
X2063500Y1479300D03*
X2063500Y1416300D03*
X2000500Y1416300D03*
X2000500Y1479300D03*
D12*
X2032000Y1905000D03*
D13*
X2063500Y1936500D03*
X2063500Y1873500D03*
X2000500Y1873500D03*
X2000500Y1936500D03*
D12*
X254000Y1524000D03*
D13*
X285500Y1555500D03*
X285500Y1492500D03*
X222500Y1492500D03*
X222500Y1555500D03*
D12*
X571500Y1841500D03*
D13*
X603000Y1873000D03*
X603000Y1810000D03*
X540000Y1810000D03*
X540000Y1873000D03*
D12*
X254000Y2159000D03*
D13*
X285500Y2190500D03*
X285500Y2127500D03*
X222500Y2127500D03*
X222500Y2190500D03*
D12*
X2032000Y508000D03*
D13*
X2063500Y539500D03*
X2063500Y476500D03*
X2000500Y476500D03*
X2000500Y539500D03*
D12*
X254000Y254000D03*
D13*
X285500Y285500D03*
X285500Y222500D03*
X222500Y222500D03*
X222500Y285500D03*
D12*
X254000Y889000D03*
D13*
X285500Y920500D03*
X285500Y857500D03*
X222500Y857500D03*
X222500Y920500D03*
D12*
X889000Y2159000D03*
D13*
X920500Y2190500D03*
X920500Y2127500D03*
X857500Y2127500D03*
X857500Y2190500D03*
D12*
X571500Y571500D03*
D13*
X603000Y603000D03*
X603000Y540000D03*
X540000Y540000D03*
X540000Y603000D03*
D12*
X889000Y254000D03*
D13*
X920500Y285500D03*
X920500Y222500D03*
X857500Y222500D03*
X857500Y285500D03*
D12*
X889000Y889000D03*
D13*
X920500Y920500D03*
X920500Y857500D03*
X857500Y857500D03*
X857500Y920500D03*
D12*
X889000Y1524000D03*
D13*
X920500Y1555500D03*
X920500Y1492500D03*
X857500Y1492500D03*
X857500Y1555500D03*
D12*
X1206500Y508000D03*
D13*
X1238000Y539500D03*
X1238000Y476500D03*
X1175000Y476500D03*
X1175000Y539500D03*
D12*
X1206500Y965200D03*
D13*
X1238000Y996700D03*
X1238000Y933700D03*
X1175000Y933700D03*
X1175000Y996700D03*
D12*
X1206500Y1447800D03*
D13*
X1238000Y1479300D03*
X1238000Y1416300D03*
X1175000Y1416300D03*
X1175000Y1479300D03*
D12*
X1206500Y1905000D03*
D13*
X1238000Y1936500D03*
X1238000Y1873500D03*
X1175000Y1873500D03*
X1175000Y1936500D03*
D12*
X1460500Y1905000D03*
D13*
X1492000Y1936500D03*
X1492000Y1873500D03*
X1429000Y1873500D03*
X1429000Y1936500D03*
D12*
X1460500Y1447800D03*
D13*
X1492000Y1479300D03*
X1492000Y1416300D03*
X1429000Y1416300D03*
X1429000Y1479300D03*
D12*
X1460500Y965200D03*
D13*
X1492000Y996700D03*
X1492000Y933700D03*
X1429000Y933700D03*
X1429000Y996700D03*
D12*
X1460500Y508000D03*
D13*
X1492000Y539500D03*
X1492000Y476500D03*
X1429000Y476500D03*
X1429000Y539500D03*
D12*
X1778000Y1905000D03*
D13*
X1809500Y1936500D03*
X1809500Y1873500D03*
X1746500Y1873500D03*
X1746500Y1936500D03*
D12*
X1778000Y1447800D03*
D13*
X1809500Y1479300D03*
X1809500Y1416300D03*
X1746500Y1416300D03*
X1746500Y1479300D03*
D12*
X1778000Y965200D03*
D13*
X1809500Y996700D03*
X1809500Y933700D03*
X1746500Y933700D03*
X1746500Y996700D03*
D12*
X1778000Y508000D03*
D13*
X1809500Y539500D03*
X1809500Y476500D03*
X1746500Y476500D03*
X1746500Y539500D03*
D10*
X317500Y1193800D03*
D11*
X317500Y1219200D03*
X342900Y1193800D03*
X342900Y1219200D03*
X368300Y1193800D03*
X368300Y1219200D03*
X393700Y1193800D03*
X393700Y1219200D03*
X419100Y1193800D03*
X419100Y1219200D03*
X444500Y1193800D03*
X444500Y1219200D03*
D10*
X812800Y1270000D03*
D11*
X838200Y1270000D03*
X812800Y1244600D03*
X838200Y1244600D03*
X812800Y1219200D03*
X838200Y1219200D03*
X812800Y1193800D03*
X838200Y1193800D03*
X812800Y1168400D03*
X838200Y1168400D03*
X812800Y1143000D03*
X838200Y1143000D03*
D10*
X1409700Y2159000D03*
D11*
X1384300Y2159000D03*
X1409700Y2184400D03*
X1384300Y2184400D03*
X1409700Y2209800D03*
X1384300Y2209800D03*
X1409700Y2235200D03*
X1384300Y2235200D03*
X1409700Y2260600D03*
X1384300Y2260600D03*
X1409700Y2286000D03*
X1384300Y2286000D03*
D10*
X1409700Y127000D03*
D11*
X1384300Y127000D03*
X1409700Y152400D03*
X1384300Y152400D03*
X1409700Y177800D03*
X1384300Y177800D03*
X1409700Y203200D03*
X1384300Y203200D03*
X1409700Y228600D03*
X1384300Y228600D03*
X1409700Y254000D03*
X1384300Y254000D03*
D14*
X228600Y1993900D03*
D15*
X254000Y1993900D03*
X279400Y1993900D03*
D14*
X546100Y1676400D03*
D15*
X571500Y1676400D03*
X596900Y1676400D03*
D14*
X863600Y1993900D03*
D15*
X889000Y1993900D03*
X914400Y1993900D03*
D14*
X228600Y1346200D03*
D15*
X254000Y1346200D03*
X279400Y1346200D03*
D14*
X863600Y1358900D03*
D15*
X889000Y1358900D03*
X914400Y1358900D03*
D14*
X228600Y711200D03*
D15*
X254000Y711200D03*
X279400Y711200D03*
D14*
X546100Y406400D03*
D15*
X571500Y406400D03*
X596900Y406400D03*
D14*
X228600Y88900D03*
D15*
X254000Y88900D03*
X279400Y88900D03*
D14*
X863600Y88900D03*
D15*
X889000Y88900D03*
X914400Y88900D03*
D14*
X1181100Y1739900D03*
D15*
X1206500Y1739900D03*
X1231900Y1739900D03*
D14*
X1435100Y1739900D03*
D15*
X1460500Y1739900D03*
X1485900Y1739900D03*
D14*
X1181100Y1270000D03*
D15*
X1206500Y1270000D03*
X1231900Y1270000D03*
D14*
X1435100Y1270000D03*
D15*
X1460500Y1270000D03*
X1485900Y1270000D03*
D14*
X1181100Y800100D03*
D15*
X1206500Y800100D03*
X1231900Y800100D03*
D14*
X1435100Y800100D03*
D15*
X1460500Y800100D03*
X1485900Y800100D03*
D14*
X1181100Y342900D03*
D15*
X1206500Y342900D03*
X1231900Y342900D03*
D14*
X1435100Y342900D03*
D15*
X1460500Y342900D03*
X1485900Y342900D03*
D14*
X863600Y711200D03*
D15*
X889000Y711200D03*
X914400Y711200D03*
D16*
X1955800Y2235200D03*
X457200Y2209800D03*
X1892300Y165100D03*
X457200Y165100D03*
D17*
X1181100Y1739900D02*
X1117600Y1803400D01*
X1117600Y2235200D01*
X1016000Y2336800D01*
X311474Y2336800D01*
X190500Y1193800D02*
X190500Y1168400D01*
X127000Y1104900D01*
X50800Y1104900D01*
X12700Y1143000D01*
X12700Y1320800D01*
X68524Y2093850D02*
X311474Y2336800D01*
X58364Y1404977D02*
X58364Y1366464D01*
X58364Y1404977D02*
X68524Y1415137D01*
X58364Y1366464D02*
X12700Y1320800D01*
X68524Y1415137D02*
X68524Y2093850D01*
X1130300Y342900D02*
X1181100Y342900D01*
D18*
X1130300Y342900D03*
X1066800Y25400D03*
D17*
X139700Y25400D01*
X88900Y76200D01*
X114300Y1181100D02*
X114300Y1193800D01*
X114300Y1181100D02*
X88900Y1155700D01*
D18*
X88900Y1155700D03*
X88900Y1041400D03*
D17*
X88900Y76200D01*
X1092200Y889000D02*
X1181100Y800100D01*
X1092200Y889000D02*
X1092200Y2209800D01*
X1003300Y2298700D01*
X302111Y2298700D01*
X139700Y1193800D02*
X139700Y1146337D01*
X123663Y1130300D01*
X88844Y2085433D02*
X302111Y2298700D01*
X88844Y1406720D02*
X78684Y1396560D01*
X88844Y1406720D02*
X88844Y2085433D01*
X60075Y1130300D02*
X123663Y1130300D01*
X60075Y1130300D02*
X33020Y1157355D01*
X33020Y1312383D01*
X78684Y1358047D01*
X78684Y1396560D01*
X1104900Y1346200D02*
X1181100Y1270000D01*
X1104900Y1346200D02*
X1104900Y2222500D01*
X1016000Y2311400D01*
X300442Y2311400D01*
X165100Y1193800D02*
X165100Y1157368D01*
X125332Y1117600D01*
X52468Y1117600D01*
X78684Y2089642D02*
X300442Y2311400D01*
X78684Y1410929D02*
X68524Y1400769D01*
X78684Y1410929D02*
X78684Y2089642D01*
X22860Y1147208D02*
X52468Y1117600D01*
X22860Y1147208D02*
X22860Y1316592D01*
X68524Y1362256D01*
X68524Y1400769D01*
X1130300Y2171700D02*
X1143000Y2159000D01*
X1130300Y2171700D02*
X1130300Y2242895D01*
X1023695Y2349500D01*
X309805Y2349500D01*
X114300Y1384300D02*
X114300Y1219200D01*
D18*
X122362Y1392362D03*
D17*
X114300Y1384300D01*
X1197225Y2159000D02*
X1318260Y2037965D01*
X1197225Y2159000D02*
X1143000Y2159000D01*
X1318260Y2037965D02*
X1318260Y2019652D01*
X1349060Y1988852D01*
X1349060Y626202D02*
X1352522Y622740D01*
X1349060Y626202D02*
X1349060Y1988852D01*
X1352522Y425478D02*
X1435100Y342900D01*
X1352522Y425478D02*
X1352522Y622740D01*
D18*
X57122Y1422400D03*
D17*
X57122Y2096817D02*
X309805Y2349500D01*
X57122Y2096817D02*
X57122Y1422400D01*
X1025363Y2362200D02*
X1143000Y2244563D01*
X1025363Y2362200D02*
X308137Y2362200D01*
D18*
X139700Y1371600D03*
D17*
X139700Y1219200D01*
X1143000Y2227593D02*
X1143000Y2244563D01*
X1143000Y2227593D02*
X1333500Y2037093D01*
X1333500Y2018780D01*
X1359220Y875980D02*
X1435100Y800100D01*
X1359220Y875980D02*
X1359220Y1993060D01*
X1333500Y2018780D01*
D18*
X46962Y1409700D03*
D17*
X45720Y2099783D02*
X308137Y2362200D01*
X45720Y2099783D02*
X45720Y1410942D01*
X46962Y1409700D01*
X306468Y2374900D02*
X1027032Y2374900D01*
D18*
X152400Y1358900D03*
D17*
X165100Y1346200D01*
X165100Y1219200D01*
X1027032Y2374900D02*
X1356680Y2045252D01*
X1369380Y1335720D02*
X1435100Y1270000D01*
X1369380Y1335720D02*
X1369380Y1997269D01*
X1356680Y2009969D01*
X1356680Y2045252D01*
D18*
X36802Y1397000D03*
D17*
X35560Y2103992D02*
X306468Y2374900D01*
X35560Y2103992D02*
X35560Y1398242D01*
X36802Y1397000D01*
X304800Y2387600D02*
X1028700Y2387600D01*
X304800Y2387600D02*
X25400Y2108200D01*
X25400Y1385542D01*
X26642Y1384300D01*
D18*
X26642Y1384300D03*
X177800Y1346200D03*
D17*
X190500Y1333500D01*
X190500Y1219200D01*
X1028700Y2387600D02*
X1366840Y2049460D01*
X1379540Y1795460D02*
X1435100Y1739900D01*
X1379540Y1795460D02*
X1379540Y2001477D01*
X1366840Y2014177D01*
X1366840Y2049460D01*
X228600Y88900D02*
X190500Y88900D01*
X152400Y127000D01*
X152400Y355600D01*
D18*
X355600Y1092200D03*
D17*
X342900Y1104900D01*
X342900Y1193800D01*
D18*
X353053Y988053D03*
D17*
X353053Y556253D02*
X152400Y355600D01*
X353053Y556253D02*
X353053Y988053D01*
X787400Y711200D02*
X863600Y711200D01*
X787400Y711200D02*
X368300Y1130300D01*
X368300Y1193800D01*
X850900Y1346200D02*
X863600Y1358900D01*
X850900Y1346200D02*
X596900Y1346200D01*
X584200Y1333500D01*
X584200Y1130300D01*
X393700Y1130300D01*
X393700Y1193800D01*
X546100Y1155700D02*
X546100Y1676400D01*
X546100Y1155700D02*
X431800Y1155700D01*
X419100Y1168400D01*
X419100Y1193800D01*
X469900Y1752600D02*
X228600Y1993900D01*
X469900Y1752600D02*
X469900Y1193800D01*
X444500Y1193800D01*
X723900Y228600D02*
X863600Y88900D01*
X723900Y228600D02*
X723900Y647700D01*
X292100Y1079500D01*
X292100Y1228095D01*
X311175Y1247170D01*
X327630Y1247170D01*
X342900Y1231900D02*
X342900Y1219200D01*
X342900Y1231900D02*
X327630Y1247170D01*
X393700Y558800D02*
X546100Y406400D01*
X368300Y1219200D02*
X368300Y1231900D01*
X393700Y963532D02*
X393700Y558800D01*
X393700Y963532D02*
X281940Y1075292D01*
X281940Y1243780D01*
X295491Y1257330D01*
X342870Y1257330D01*
X368300Y1231900D01*
X139700Y800100D02*
X228600Y711200D01*
X139700Y800100D02*
X139700Y1016000D01*
X254000Y1130300D01*
X254000Y1244600D01*
X393700Y1231900D02*
X393700Y1219200D01*
X279908Y1270508D02*
X254000Y1244600D01*
X279908Y1270508D02*
X355092Y1270508D01*
X393700Y1231900D01*
X419100Y1244600D02*
X383032Y1280668D01*
X419100Y1244600D02*
X419100Y1219200D01*
X294132Y1280668D02*
X228600Y1346200D01*
X294132Y1280668D02*
X383032Y1280668D01*
X685800Y1816100D02*
X863600Y1993900D01*
X685800Y1816100D02*
X685800Y1422400D01*
X647700Y1384300D01*
X596900Y1384300D01*
D18*
X596900Y1384300D03*
X444500Y1384300D03*
D17*
X444500Y1219200D01*
X1778000Y1054100D02*
X1778000Y965200D01*
X1778000Y1054100D02*
X1625600Y1054100D01*
D18*
X1625600Y1054100D03*
D17*
X812800Y1270000D02*
X762000Y1270000D01*
D18*
X1030412Y1052388D03*
D17*
X1028656Y1052388D02*
X1007508Y1031240D01*
X1028656Y1052388D02*
X1030412Y1052388D01*
X762000Y1270000D02*
X701040Y1209040D01*
X701040Y1073623D01*
X743423Y1031240D01*
X1007508Y1031240D01*
X2032000Y1054100D02*
X2032000Y965200D01*
X2032000Y1054100D02*
X2019300Y1066800D01*
X1625600Y1066800D01*
D18*
X1625600Y1066800D03*
X1028700Y1066800D03*
D17*
X1003300Y1041400D01*
X750968Y1244600D02*
X711200Y1204832D01*
X750968Y1244600D02*
X812800Y1244600D01*
X747632Y1041400D02*
X1003300Y1041400D01*
X747632Y1041400D02*
X711200Y1077832D01*
X711200Y1204832D01*
X1778000Y635000D02*
X1778000Y508000D01*
X1778000Y635000D02*
X1727200Y685800D01*
X1638300Y685800D01*
D18*
X1638300Y685800D03*
X876300Y1054100D03*
D17*
X749300Y1054100D01*
X723900Y1079500D01*
X723900Y1193800D01*
X749300Y1219200D01*
X812800Y1219200D01*
X1746500Y628400D02*
X1746500Y539500D01*
X1746500Y628400D02*
X1701800Y673100D01*
X1638300Y673100D01*
D18*
X1638300Y673100D03*
X927100Y1054100D03*
D17*
X812800Y1193800D02*
X749300Y1193800D01*
X892425Y1054100D02*
X927100Y1054100D01*
X892425Y1054100D02*
X881023Y1065502D01*
X752266Y1065502D01*
X734060Y1083708D01*
X734060Y1178560D01*
X749300Y1193800D01*
X1746500Y539500D02*
X1746500Y476500D01*
X1809500Y476500D01*
X1809500Y539500D01*
X2032000Y508000D02*
X2032000Y609600D01*
X1981200Y660400D01*
X1917700Y660400D01*
D18*
X1917700Y660400D03*
X850900Y1079500D03*
D17*
X774700Y1079500D01*
X749300Y1104900D01*
X749300Y1155700D01*
X762000Y1168400D01*
X812800Y1168400D01*
D18*
X1625600Y1182342D03*
D17*
X1778000Y1334742D02*
X1778000Y1447800D01*
X1778000Y1334742D02*
X1625600Y1182342D01*
D18*
X1019381Y1184481D03*
D17*
X1017624Y1184481D01*
X932105Y1270000D02*
X838200Y1270000D01*
X932105Y1270000D02*
X1017624Y1184481D01*
X2032000Y1397000D02*
X2032000Y1447800D01*
X2032000Y1397000D02*
X1930400Y1295400D01*
D18*
X1930400Y1295400D03*
X1866900Y1295400D03*
D17*
X1788160Y1216660D01*
X1788160Y1176892D02*
X1782208Y1170940D01*
X1638300Y1170940D01*
X1634092Y1170940D01*
X1788160Y1176892D02*
X1788160Y1216660D01*
X1634092Y1170940D02*
X1628140Y1170940D01*
X1625600Y1168400D01*
D18*
X1625600Y1168400D03*
X1018547Y1170947D03*
D17*
X1016790Y1170947D01*
X943137Y1244600D02*
X838200Y1244600D01*
X943137Y1244600D02*
X1016790Y1170947D01*
X1778000Y1689100D02*
X1778000Y1905000D01*
X1778000Y1689100D02*
X1892300Y1574800D01*
X1892300Y1257300D01*
X1790700Y1155700D01*
X1625600Y1155700D01*
D18*
X1625600Y1155700D03*
X1017712Y1157412D03*
D17*
X1015956Y1157412D01*
X944008Y1229360D01*
X848360Y1229360D02*
X838200Y1219200D01*
X848360Y1229360D02*
X944008Y1229360D01*
X2032000Y1689100D02*
X2032000Y1905000D01*
X2032000Y1689100D02*
X1905000Y1562100D01*
X1905000Y1231900D01*
X1816100Y1143000D01*
X1625600Y1143000D01*
D18*
X1625600Y1143000D03*
X1016000Y1143000D03*
D17*
X965200Y1193800D01*
X838200Y1193800D01*
X1828800Y711200D02*
X2000500Y539500D01*
X1828800Y711200D02*
X1638300Y711200D01*
D18*
X1638300Y711200D03*
X990600Y1066800D03*
D17*
X889000Y1168400D01*
X838200Y1168400D01*
X2000500Y539500D02*
X2000500Y476500D01*
X2063500Y476500D01*
X2063500Y539500D01*
D18*
X1333500Y2120900D03*
D17*
X1358900Y2146300D01*
X1384300Y2159000D01*
D18*
X1248438Y2032000D03*
D17*
X1295720Y1803720D02*
X1231900Y1739900D01*
X1295720Y1803720D02*
X1295720Y1984718D01*
X1248438Y2032000D01*
D18*
X1308100Y2133600D03*
D17*
X1308100Y2155663D02*
X1336837Y2184400D01*
X1308100Y2155663D02*
X1308100Y2133600D01*
X1305880Y1343980D02*
X1231900Y1270000D01*
X1336837Y2184400D02*
X1384300Y2184400D01*
D18*
X1253041Y2056566D03*
D17*
X1267780Y2041827D01*
X1267780Y2027026D01*
X1305880Y1988926D02*
X1305880Y1343980D01*
X1305880Y1988926D02*
X1267780Y2027026D01*
D18*
X1295400Y2146300D03*
D17*
X1333500Y2209800D02*
X1384300Y2209800D01*
X1316040Y884240D02*
X1231900Y800100D01*
D18*
X1249238Y2074738D03*
D17*
X1250994Y2074738D02*
X1277940Y2047792D01*
X1250994Y2074738D02*
X1249238Y2074738D01*
X1295400Y2171700D02*
X1333500Y2209800D01*
X1295400Y2171700D02*
X1295400Y2146300D01*
X1277940Y2047792D02*
X1277940Y2031235D01*
X1316040Y1993135D01*
X1316040Y884240D01*
X1295400Y406400D02*
X1231900Y342900D01*
X1295400Y406400D02*
X1295400Y609600D01*
D18*
X1295400Y609600D03*
X1295400Y685800D03*
D17*
X1295400Y2044700D02*
X1244600Y2095500D01*
D18*
X1282700Y2159000D03*
D17*
X1282700Y2184400D02*
X1333500Y2235200D01*
X1282700Y2184400D02*
X1282700Y2159000D01*
X1333500Y2235200D02*
X1384300Y2235200D01*
D18*
X1237836Y2095500D03*
D17*
X1244600Y2095500D01*
X1295400Y2044700D02*
X1295400Y2028143D01*
X1326200Y1997343D01*
X1326200Y716600D01*
X1295400Y685800D01*
X774700Y88900D02*
X279400Y88900D01*
X774700Y88900D02*
X812800Y50800D01*
X1435100Y50800D01*
X1435100Y152400D01*
X1409700Y152400D01*
X1018540Y607060D02*
X914400Y711200D01*
X1333500Y304800D02*
X1333500Y270125D01*
X1303377Y240002D01*
X1168030Y240002D01*
X1018540Y389492D01*
X1018540Y607060D01*
X1333500Y304800D02*
X1438437Y304800D01*
X1499870Y243367D02*
X1499870Y226533D01*
X1499870Y243367D02*
X1438437Y304800D01*
X1451137Y177800D02*
X1409700Y177800D01*
X1451137Y177800D02*
X1499870Y226533D01*
D18*
X1358900Y342900D03*
X1358900Y292100D03*
D17*
X1130300Y622300D02*
X1069340Y683260D01*
X1051560Y1221740D02*
X914400Y1358900D01*
X1051560Y1221740D02*
X1051560Y872166D01*
X1069340Y854386D01*
X1069340Y683260D01*
X1358900Y390363D02*
X1358900Y342900D01*
X1324225Y622300D02*
X1130300Y622300D01*
X1324225Y622300D02*
X1332202Y614323D01*
X1332202Y417061D02*
X1358900Y390363D01*
X1332202Y417061D02*
X1332202Y614323D01*
X1358900Y292100D02*
X1436768Y292100D01*
X1489710Y239158D02*
X1489710Y230742D01*
X1489710Y239158D02*
X1436768Y292100D01*
X1462168Y203200D02*
X1409700Y203200D01*
X1462168Y203200D02*
X1489710Y230742D01*
X647700Y1625600D02*
X596900Y1676400D01*
D18*
X647700Y1625600D03*
X711200Y1625600D03*
D17*
X1028700Y1625600D01*
D18*
X1384300Y330200D03*
D17*
X1479550Y234950D02*
X1473200Y228600D01*
X1409700Y228600D01*
X1061720Y1592580D02*
X1028700Y1625600D01*
X1061720Y1592580D02*
X1061720Y876375D01*
X1092200Y845895D01*
X1092200Y685800D01*
X1384300Y379332D02*
X1384300Y330200D01*
X1338900Y626508D02*
X1332948Y632460D01*
X1145540Y632460D02*
X1092200Y685800D01*
X1145540Y632460D02*
X1332948Y632460D01*
X1338900Y626508D02*
X1338900Y621993D01*
X1342362Y618531D01*
X1342362Y421270D02*
X1384300Y379332D01*
X1342362Y421270D02*
X1342362Y618531D01*
D18*
X1384300Y280672D03*
D17*
X1385542Y279430D01*
X1435070Y279430D02*
X1479550Y234950D01*
X1435070Y279430D02*
X1385542Y279430D01*
X647700Y1993900D02*
X279400Y1993900D01*
X647700Y1993900D02*
X723900Y1917700D01*
D18*
X723900Y1917700D03*
X787400Y1854200D03*
D17*
X850900Y1790700D01*
X927100Y1790700D01*
D18*
X1320800Y660400D03*
X1320800Y609600D03*
X1333500Y317500D03*
X1346200Y279400D03*
D17*
X1141332Y660400D02*
X1107440Y694292D01*
X1141332Y660400D02*
X1320800Y660400D01*
X1071880Y1645920D02*
X927100Y1790700D01*
X1071880Y1645920D02*
X1071880Y880583D01*
X1107440Y845023D01*
X1107440Y694292D01*
X1333500Y401395D02*
X1333500Y317500D01*
X1333500Y401395D02*
X1318580Y416315D01*
X1318580Y607380D02*
X1320800Y609600D01*
X1318580Y607380D02*
X1318580Y416315D01*
X1379160Y269270D02*
X1390625Y269270D01*
X1369030Y279400D02*
X1346200Y279400D01*
X1369030Y279400D02*
X1379160Y269270D01*
X1405895Y254000D02*
X1409700Y254000D01*
X1405895Y254000D02*
X1390625Y269270D01*
X1206500Y88900D02*
X914400Y88900D01*
X1206500Y88900D02*
X1270000Y152400D01*
X1384300Y152400D01*
X660400Y342900D02*
X596900Y406400D01*
X660400Y342900D02*
X685800Y342900D01*
D18*
X685800Y342900D03*
X762000Y342900D03*
D17*
X977900Y342900D01*
X1143000Y177800D01*
X1384300Y177800D01*
X330200Y660400D02*
X279400Y711200D01*
D18*
X330200Y660400D03*
X533400Y863600D03*
D17*
X1190463Y203200D02*
X1384300Y203200D01*
X1190463Y203200D02*
X533400Y860263D01*
X533400Y863600D01*
X393700Y1346200D02*
X279400Y1346200D01*
X393700Y1346200D02*
X406400Y1333500D01*
D18*
X406400Y1333500D03*
X609600Y1270000D03*
D17*
X609600Y1217532D01*
X1028700Y901700D02*
X1028700Y393700D01*
X1168400Y254000D01*
X1231900Y254000D01*
D18*
X1231900Y254000D03*
X1244600Y228600D03*
D17*
X1384300Y228600D01*
X1028700Y901700D02*
X909320Y1021080D01*
X690880Y1136252D02*
X609600Y1217532D01*
X739215Y1021080D02*
X909320Y1021080D01*
X739215Y1021080D02*
X690880Y1069415D01*
X690880Y1136252D01*
D18*
X1308100Y266700D03*
X1333500Y254000D03*
D17*
X1384300Y254000D01*
X1168400Y673100D02*
X1130300Y711200D01*
X1082040Y1826260D02*
X914400Y1993900D01*
X1082040Y1826260D02*
X1082040Y884792D01*
X1130300Y836532D01*
X1130300Y711200D01*
D18*
X1307178Y546100D03*
D17*
X1308100Y412426D02*
X1308100Y266700D01*
D18*
X1337658Y660400D03*
D17*
X1324958Y673100D02*
X1168400Y673100D01*
X1324958Y673100D02*
X1337658Y660400D01*
X1307178Y413348D02*
X1308100Y412426D01*
X1307178Y413348D02*
X1307178Y546100D01*
X1485900Y1739900D02*
X1562100Y1816100D01*
X1562100Y2082800D01*
X1485900Y2159000D01*
X1409700Y2159000D01*
X1485900Y1320800D02*
X1485900Y1270000D01*
X1486576Y2184400D02*
X1409700Y2184400D01*
X1572260Y1407160D02*
X1485900Y1320800D01*
X1572260Y1407160D02*
X1572260Y2098716D01*
X1486576Y2184400D01*
X1447800Y2209800D02*
X1409700Y2209800D01*
X1582420Y896620D02*
X1485900Y800100D01*
X1582420Y2102925D02*
X1478085Y2207260D01*
X1450340Y2207260D01*
X1447800Y2209800D01*
X1582420Y2102925D02*
X1582420Y896620D01*
X1592580Y449580D02*
X1485900Y342900D01*
X1592580Y449580D02*
X1592580Y2107133D01*
X1464513Y2235200D01*
X1409700Y2235200D01*
X254000Y2159000D02*
X254000Y1993900D01*
X889000Y1993900D02*
X889000Y2159000D01*
X571500Y1841500D02*
X571500Y1676400D01*
X254000Y1524000D02*
X254000Y1346200D01*
X889000Y1358900D02*
X889000Y1524000D01*
X254000Y889000D02*
X254000Y711200D01*
X571500Y571500D02*
X571500Y406400D01*
X254000Y254000D02*
X254000Y88900D01*
X889000Y88900D02*
X889000Y254000D01*
X1206500Y1739900D02*
X1206500Y1905000D01*
X1460500Y1905000D02*
X1460500Y1739900D01*
X1206500Y1447800D02*
X1206500Y1270000D01*
X1460500Y1270000D02*
X1460500Y1447800D01*
X1206500Y965200D02*
X1206500Y800100D01*
X1460500Y800100D02*
X1460500Y965200D01*
X1206500Y508000D02*
X1206500Y342900D01*
X1460500Y342900D02*
X1460500Y508000D01*
X889000Y711200D02*
X889000Y889000D01*
M02*
