G04 EAGLE Gerber RS-274X export*
G75*
%MOMM*%
%FSLAX34Y34*%
%LPD*%
%INTop Copper*%
%IPPOS*%
%AMOC8*
5,1,8,0,0,1.08239X$1,22.5*%
G01*
G04 Define Apertures*
%ADD10R,1.530000X1.530000*%
%ADD11C,1.530000*%
%ADD12C,1.800000*%
%ADD13C,2.400000*%
%ADD14R,1.524000X1.524000*%
%ADD15C,1.524000*%
%ADD16C,2.184400*%
%ADD17C,0.756400*%
%ADD18C,0.508000*%
G36*
X2148375Y10220D02*
X2148078Y10160D01*
X10922Y10160D01*
X10647Y10211D01*
X10392Y10375D01*
X10220Y10625D01*
X10160Y10922D01*
X10160Y2402078D01*
X10211Y2402353D01*
X10375Y2402608D01*
X10625Y2402780D01*
X10922Y2402840D01*
X2148078Y2402840D01*
X2148353Y2402789D01*
X2148608Y2402625D01*
X2148780Y2402375D01*
X2148840Y2402078D01*
X2148840Y10922D01*
X2148789Y10647D01*
X2148625Y10392D01*
X2148375Y10220D01*
G37*
%LPC*%
G36*
X2104856Y2336800D02*
X2111544Y2336800D01*
X2118004Y2338531D01*
X2123796Y2341875D01*
X2128525Y2346604D01*
X2131869Y2352396D01*
X2133600Y2358856D01*
X2133600Y2365544D01*
X2131869Y2372004D01*
X2128525Y2377796D01*
X2123796Y2382525D01*
X2118004Y2385869D01*
X2111544Y2387600D01*
X2104856Y2387600D01*
X2098396Y2385869D01*
X2092604Y2382525D01*
X2087875Y2377796D01*
X2084531Y2372004D01*
X2082800Y2365544D01*
X2082800Y2358856D01*
X2084531Y2352396D01*
X2087875Y2346604D01*
X2092604Y2341875D01*
X2098396Y2338531D01*
X2104856Y2336800D01*
G37*
G36*
X47456Y2336800D02*
X54144Y2336800D01*
X60604Y2338531D01*
X66396Y2341875D01*
X71125Y2346604D01*
X74469Y2352396D01*
X76200Y2358856D01*
X76200Y2365544D01*
X74469Y2372004D01*
X71125Y2377796D01*
X66396Y2382525D01*
X60604Y2385869D01*
X54144Y2387600D01*
X47456Y2387600D01*
X40996Y2385869D01*
X35204Y2382525D01*
X30475Y2377796D01*
X27131Y2372004D01*
X25400Y2365544D01*
X25400Y2358856D01*
X27131Y2352396D01*
X30475Y2346604D01*
X35204Y2341875D01*
X40996Y2338531D01*
X47456Y2336800D01*
G37*
G36*
X1381768Y2146270D02*
X1386832Y2146270D01*
X1391511Y2148208D01*
X1395092Y2151789D01*
X1395504Y2152784D01*
X1395644Y2153005D01*
X1395889Y2153184D01*
X1396184Y2153254D01*
X1396483Y2153203D01*
X1396738Y2153040D01*
X1396910Y2152789D01*
X1396970Y2152492D01*
X1396970Y2149246D01*
X1399946Y2146270D01*
X1419454Y2146270D01*
X1422430Y2149246D01*
X1422430Y2168754D01*
X1419454Y2171730D01*
X1416208Y2171730D01*
X1415950Y2171775D01*
X1415691Y2171932D01*
X1415514Y2172178D01*
X1415446Y2172474D01*
X1415499Y2172772D01*
X1415665Y2173027D01*
X1415916Y2173196D01*
X1416911Y2173608D01*
X1420492Y2177189D01*
X1422430Y2181868D01*
X1422430Y2186932D01*
X1420492Y2191611D01*
X1416911Y2195192D01*
X1414004Y2196396D01*
X1413779Y2196540D01*
X1413601Y2196786D01*
X1413534Y2197082D01*
X1413587Y2197380D01*
X1413753Y2197635D01*
X1414004Y2197804D01*
X1416911Y2199008D01*
X1420492Y2202589D01*
X1422430Y2207268D01*
X1422430Y2212332D01*
X1420492Y2217011D01*
X1416911Y2220592D01*
X1414004Y2221796D01*
X1413779Y2221940D01*
X1413601Y2222186D01*
X1413534Y2222482D01*
X1413587Y2222780D01*
X1413753Y2223035D01*
X1414004Y2223204D01*
X1416911Y2224408D01*
X1420492Y2227989D01*
X1422430Y2232668D01*
X1422430Y2237732D01*
X1420492Y2242411D01*
X1416911Y2245992D01*
X1414004Y2247196D01*
X1413779Y2247340D01*
X1413601Y2247586D01*
X1413534Y2247882D01*
X1413587Y2248180D01*
X1413753Y2248435D01*
X1414004Y2248604D01*
X1416911Y2249808D01*
X1420492Y2253389D01*
X1422430Y2258068D01*
X1422430Y2263132D01*
X1420492Y2267811D01*
X1416911Y2271392D01*
X1412232Y2273330D01*
X1407168Y2273330D01*
X1402489Y2271392D01*
X1398908Y2267811D01*
X1397704Y2264904D01*
X1397560Y2264679D01*
X1397314Y2264501D01*
X1397018Y2264434D01*
X1396720Y2264487D01*
X1396466Y2264653D01*
X1396296Y2264904D01*
X1395092Y2267811D01*
X1391511Y2271392D01*
X1388604Y2272596D01*
X1388379Y2272740D01*
X1388201Y2272986D01*
X1388134Y2273282D01*
X1388187Y2273580D01*
X1388353Y2273835D01*
X1388604Y2274004D01*
X1391511Y2275208D01*
X1395092Y2278789D01*
X1397030Y2283468D01*
X1397030Y2288532D01*
X1395092Y2293211D01*
X1391511Y2296792D01*
X1386832Y2298730D01*
X1381768Y2298730D01*
X1377089Y2296792D01*
X1373508Y2293211D01*
X1371570Y2288532D01*
X1371570Y2283468D01*
X1373508Y2278789D01*
X1377089Y2275208D01*
X1379996Y2274004D01*
X1380221Y2273860D01*
X1380399Y2273614D01*
X1380466Y2273318D01*
X1380413Y2273020D01*
X1380247Y2272766D01*
X1379996Y2272596D01*
X1377089Y2271392D01*
X1373508Y2267811D01*
X1371570Y2263132D01*
X1371570Y2258068D01*
X1373508Y2253389D01*
X1377089Y2249808D01*
X1379996Y2248604D01*
X1380221Y2248460D01*
X1380399Y2248214D01*
X1380466Y2247918D01*
X1380413Y2247620D01*
X1380247Y2247366D01*
X1379996Y2247196D01*
X1377089Y2245992D01*
X1373508Y2242411D01*
X1371570Y2237732D01*
X1371570Y2232668D01*
X1373508Y2227989D01*
X1377089Y2224408D01*
X1379996Y2223204D01*
X1380221Y2223060D01*
X1380399Y2222814D01*
X1380466Y2222518D01*
X1380413Y2222220D01*
X1380247Y2221966D01*
X1379996Y2221796D01*
X1377089Y2220592D01*
X1373508Y2217011D01*
X1371570Y2212332D01*
X1371570Y2207268D01*
X1373508Y2202589D01*
X1377089Y2199008D01*
X1379996Y2197804D01*
X1380221Y2197660D01*
X1380399Y2197414D01*
X1380466Y2197118D01*
X1380413Y2196820D01*
X1380247Y2196566D01*
X1379996Y2196396D01*
X1377089Y2195192D01*
X1373508Y2191611D01*
X1371570Y2186932D01*
X1371570Y2181868D01*
X1373508Y2177189D01*
X1377089Y2173608D01*
X1379996Y2172404D01*
X1380221Y2172260D01*
X1380399Y2172014D01*
X1380466Y2171718D01*
X1380413Y2171420D01*
X1380247Y2171166D01*
X1379996Y2170996D01*
X1377089Y2169792D01*
X1373508Y2166211D01*
X1371570Y2161532D01*
X1371570Y2156468D01*
X1373508Y2151789D01*
X1377089Y2148208D01*
X1381768Y2146270D01*
G37*
G36*
X1407673Y2275810D02*
X1411727Y2275810D01*
X1415472Y2277361D01*
X1418339Y2280228D01*
X1419467Y2282952D01*
X1406652Y2282952D01*
X1406652Y2295767D01*
X1403928Y2294639D01*
X1401061Y2291772D01*
X1399510Y2288027D01*
X1399510Y2283973D01*
X1401061Y2280228D01*
X1403928Y2277361D01*
X1407673Y2275810D01*
G37*
G36*
X1412748Y2289048D02*
X1419467Y2289048D01*
X1418339Y2291772D01*
X1415472Y2294639D01*
X1412748Y2295767D01*
X1412748Y2289048D01*
G37*
G36*
X923548Y2193548D02*
X934975Y2193548D01*
X932826Y2198736D01*
X928736Y2202826D01*
X923548Y2204975D01*
X923548Y2193548D01*
G37*
G36*
X208025Y2193548D02*
X219452Y2193548D01*
X219452Y2204975D01*
X214264Y2202826D01*
X210174Y2198736D01*
X208025Y2193548D01*
G37*
G36*
X225548Y2193548D02*
X236975Y2193548D01*
X234826Y2198736D01*
X230736Y2202826D01*
X225548Y2204975D01*
X225548Y2193548D01*
G37*
G36*
X271025Y2193548D02*
X282452Y2193548D01*
X282452Y2204975D01*
X277264Y2202826D01*
X273174Y2198736D01*
X271025Y2193548D01*
G37*
G36*
X288548Y2193548D02*
X299975Y2193548D01*
X297826Y2198736D01*
X293736Y2202826D01*
X288548Y2204975D01*
X288548Y2193548D01*
G37*
G36*
X843025Y2193548D02*
X854452Y2193548D01*
X854452Y2204975D01*
X849264Y2202826D01*
X845174Y2198736D01*
X843025Y2193548D01*
G37*
G36*
X860548Y2193548D02*
X871975Y2193548D01*
X869826Y2198736D01*
X865736Y2202826D01*
X860548Y2204975D01*
X860548Y2193548D01*
G37*
G36*
X906025Y2193548D02*
X917452Y2193548D01*
X917452Y2204975D01*
X912264Y2202826D01*
X908174Y2198736D01*
X906025Y2193548D01*
G37*
G36*
X214264Y2178174D02*
X219452Y2176025D01*
X219452Y2187452D01*
X208025Y2187452D01*
X210174Y2182264D01*
X214264Y2178174D01*
G37*
G36*
X923548Y2187452D02*
X923548Y2176025D01*
X928736Y2178174D01*
X932826Y2182264D01*
X934975Y2187452D01*
X923548Y2187452D01*
G37*
G36*
X912264Y2178174D02*
X917452Y2176025D01*
X917452Y2187452D01*
X906025Y2187452D01*
X908174Y2182264D01*
X912264Y2178174D01*
G37*
G36*
X860548Y2187452D02*
X860548Y2176025D01*
X865736Y2178174D01*
X869826Y2182264D01*
X871975Y2187452D01*
X860548Y2187452D01*
G37*
G36*
X849264Y2178174D02*
X854452Y2176025D01*
X854452Y2187452D01*
X843025Y2187452D01*
X845174Y2182264D01*
X849264Y2178174D01*
G37*
G36*
X288548Y2187452D02*
X288548Y2176025D01*
X293736Y2178174D01*
X297826Y2182264D01*
X299975Y2187452D01*
X288548Y2187452D01*
G37*
G36*
X277264Y2178174D02*
X282452Y2176025D01*
X282452Y2187452D01*
X271025Y2187452D01*
X273174Y2182264D01*
X277264Y2178174D01*
G37*
G36*
X225548Y2187452D02*
X225548Y2176025D01*
X230736Y2178174D01*
X234826Y2182264D01*
X236975Y2187452D01*
X225548Y2187452D01*
G37*
G36*
X886199Y2144920D02*
X891801Y2144920D01*
X896976Y2147064D01*
X900936Y2151024D01*
X903080Y2156199D01*
X903080Y2161801D01*
X900936Y2166976D01*
X896976Y2170936D01*
X891801Y2173080D01*
X886199Y2173080D01*
X881024Y2170936D01*
X877064Y2166976D01*
X874920Y2161801D01*
X874920Y2156199D01*
X877064Y2151024D01*
X881024Y2147064D01*
X886199Y2144920D01*
G37*
G36*
X251199Y2144920D02*
X256801Y2144920D01*
X261976Y2147064D01*
X265936Y2151024D01*
X268080Y2156199D01*
X268080Y2161801D01*
X265936Y2166976D01*
X261976Y2170936D01*
X256801Y2173080D01*
X251199Y2173080D01*
X246024Y2170936D01*
X242064Y2166976D01*
X239920Y2161801D01*
X239920Y2156199D01*
X242064Y2151024D01*
X246024Y2147064D01*
X251199Y2144920D01*
G37*
G36*
X1246675Y2023138D02*
X1250201Y2023138D01*
X1253458Y2024487D01*
X1255951Y2026980D01*
X1257300Y2030237D01*
X1257300Y2033608D01*
X1257356Y2033894D01*
X1257523Y2034147D01*
X1335414Y2112038D01*
X1335662Y2112203D01*
X1338520Y2113387D01*
X1341013Y2115880D01*
X1342362Y2119137D01*
X1342362Y2122663D01*
X1341013Y2125920D01*
X1338520Y2128413D01*
X1335263Y2129762D01*
X1331737Y2129762D01*
X1328480Y2128413D01*
X1325987Y2125920D01*
X1324803Y2123062D01*
X1324638Y2122814D01*
X1278921Y2077097D01*
X1278701Y2076944D01*
X1278406Y2076874D01*
X1278107Y2076925D01*
X1277852Y2077089D01*
X1277680Y2077339D01*
X1277620Y2077636D01*
X1277620Y2092028D01*
X1277676Y2092314D01*
X1277843Y2092567D01*
X1310014Y2124738D01*
X1310262Y2124903D01*
X1313120Y2126087D01*
X1315613Y2128580D01*
X1316962Y2131837D01*
X1316962Y2135363D01*
X1315613Y2138620D01*
X1313120Y2141113D01*
X1309863Y2142462D01*
X1306337Y2142462D01*
X1304494Y2141699D01*
X1304233Y2141641D01*
X1303934Y2141690D01*
X1303677Y2141851D01*
X1303503Y2142100D01*
X1303441Y2142397D01*
X1303499Y2142694D01*
X1304262Y2144537D01*
X1304262Y2148063D01*
X1302913Y2151320D01*
X1300420Y2153813D01*
X1297163Y2155162D01*
X1293637Y2155162D01*
X1291794Y2154399D01*
X1291533Y2154341D01*
X1291234Y2154390D01*
X1290977Y2154551D01*
X1290803Y2154800D01*
X1290741Y2155097D01*
X1290799Y2155394D01*
X1291562Y2157237D01*
X1291562Y2160763D01*
X1290213Y2164020D01*
X1287720Y2166513D01*
X1284463Y2167862D01*
X1280937Y2167862D01*
X1277680Y2166513D01*
X1275187Y2164020D01*
X1274003Y2161162D01*
X1273838Y2160914D01*
X1232618Y2119694D01*
X1231458Y2116893D01*
X1231458Y2101970D01*
X1231402Y2101684D01*
X1231234Y2101432D01*
X1230323Y2100520D01*
X1228974Y2097263D01*
X1228974Y2093737D01*
X1230323Y2090480D01*
X1232816Y2087987D01*
X1236073Y2086638D01*
X1239598Y2086638D01*
X1240564Y2087038D01*
X1240831Y2087096D01*
X1241130Y2087045D01*
X1241386Y2086881D01*
X1241557Y2086631D01*
X1241618Y2086334D01*
X1241618Y2079650D01*
X1241560Y2079359D01*
X1240376Y2076500D01*
X1240376Y2072975D01*
X1241725Y2069718D01*
X1244218Y2067225D01*
X1247475Y2065876D01*
X1248528Y2065876D01*
X1248786Y2065831D01*
X1249045Y2065673D01*
X1249223Y2065427D01*
X1249290Y2065132D01*
X1249237Y2064833D01*
X1249071Y2064579D01*
X1248820Y2064410D01*
X1248021Y2064079D01*
X1245528Y2061586D01*
X1244179Y2058329D01*
X1244179Y2054803D01*
X1245528Y2051546D01*
X1248021Y2049053D01*
X1248987Y2048653D01*
X1249216Y2048505D01*
X1249392Y2048257D01*
X1249457Y2047961D01*
X1249401Y2047663D01*
X1249234Y2047410D01*
X1241978Y2040154D01*
X1240818Y2037354D01*
X1240818Y2036913D01*
X1240760Y2036621D01*
X1239576Y2033763D01*
X1239576Y2030237D01*
X1240925Y2026980D01*
X1243418Y2024487D01*
X1246675Y2023138D01*
G37*
G36*
X288548Y2130548D02*
X299975Y2130548D01*
X297826Y2135736D01*
X293736Y2139826D01*
X288548Y2141975D01*
X288548Y2130548D01*
G37*
G36*
X208025Y2130548D02*
X219452Y2130548D01*
X219452Y2141975D01*
X214264Y2139826D01*
X210174Y2135736D01*
X208025Y2130548D01*
G37*
G36*
X225548Y2130548D02*
X236975Y2130548D01*
X234826Y2135736D01*
X230736Y2139826D01*
X225548Y2141975D01*
X225548Y2130548D01*
G37*
G36*
X271025Y2130548D02*
X282452Y2130548D01*
X282452Y2141975D01*
X277264Y2139826D01*
X273174Y2135736D01*
X271025Y2130548D01*
G37*
G36*
X843025Y2130548D02*
X854452Y2130548D01*
X854452Y2141975D01*
X849264Y2139826D01*
X845174Y2135736D01*
X843025Y2130548D01*
G37*
G36*
X860548Y2130548D02*
X871975Y2130548D01*
X869826Y2135736D01*
X865736Y2139826D01*
X860548Y2141975D01*
X860548Y2130548D01*
G37*
G36*
X906025Y2130548D02*
X917452Y2130548D01*
X917452Y2141975D01*
X912264Y2139826D01*
X908174Y2135736D01*
X906025Y2130548D01*
G37*
G36*
X923548Y2130548D02*
X934975Y2130548D01*
X932826Y2135736D01*
X928736Y2139826D01*
X923548Y2141975D01*
X923548Y2130548D01*
G37*
G36*
X849264Y2115174D02*
X854452Y2113025D01*
X854452Y2124452D01*
X843025Y2124452D01*
X845174Y2119264D01*
X849264Y2115174D01*
G37*
G36*
X923548Y2124452D02*
X923548Y2113025D01*
X928736Y2115174D01*
X932826Y2119264D01*
X934975Y2124452D01*
X923548Y2124452D01*
G37*
G36*
X912264Y2115174D02*
X917452Y2113025D01*
X917452Y2124452D01*
X906025Y2124452D01*
X908174Y2119264D01*
X912264Y2115174D01*
G37*
G36*
X860548Y2124452D02*
X860548Y2113025D01*
X865736Y2115174D01*
X869826Y2119264D01*
X871975Y2124452D01*
X860548Y2124452D01*
G37*
G36*
X288548Y2124452D02*
X288548Y2113025D01*
X293736Y2115174D01*
X297826Y2119264D01*
X299975Y2124452D01*
X288548Y2124452D01*
G37*
G36*
X277264Y2115174D02*
X282452Y2113025D01*
X282452Y2124452D01*
X271025Y2124452D01*
X273174Y2119264D01*
X277264Y2115174D01*
G37*
G36*
X225548Y2124452D02*
X225548Y2113025D01*
X230736Y2115174D01*
X234826Y2119264D01*
X236975Y2124452D01*
X225548Y2124452D01*
G37*
G36*
X214264Y2115174D02*
X219452Y2113025D01*
X219452Y2124452D01*
X208025Y2124452D01*
X210174Y2119264D01*
X214264Y2115174D01*
G37*
G36*
X853876Y1981200D02*
X873324Y1981200D01*
X876300Y1984176D01*
X876300Y1987543D01*
X876345Y1987801D01*
X876502Y1988060D01*
X876748Y1988237D01*
X877044Y1988305D01*
X877342Y1988252D01*
X877597Y1988086D01*
X877766Y1987835D01*
X878233Y1986706D01*
X881806Y1983133D01*
X886474Y1981200D01*
X891526Y1981200D01*
X896194Y1983133D01*
X899767Y1986706D01*
X900996Y1989674D01*
X901140Y1989900D01*
X901386Y1990077D01*
X901682Y1990144D01*
X901980Y1990091D01*
X902235Y1989926D01*
X902404Y1989674D01*
X903633Y1986706D01*
X907206Y1983133D01*
X911874Y1981200D01*
X916926Y1981200D01*
X921594Y1983133D01*
X925167Y1986706D01*
X927100Y1991374D01*
X927100Y1996426D01*
X925167Y2001094D01*
X921594Y2004667D01*
X916926Y2006600D01*
X911874Y2006600D01*
X907206Y2004667D01*
X903633Y2001094D01*
X902404Y1998126D01*
X902260Y1997900D01*
X902014Y1997723D01*
X901718Y1997656D01*
X901420Y1997709D01*
X901166Y1997874D01*
X900996Y1998126D01*
X899767Y2001094D01*
X896194Y2004667D01*
X891526Y2006600D01*
X886474Y2006600D01*
X881806Y2004667D01*
X878233Y2001094D01*
X877766Y1999965D01*
X877626Y1999745D01*
X877381Y1999565D01*
X877086Y1999495D01*
X876787Y1999546D01*
X876532Y1999710D01*
X876360Y1999960D01*
X876300Y2000257D01*
X876300Y2003624D01*
X873324Y2006600D01*
X853876Y2006600D01*
X850900Y2003624D01*
X850900Y1984176D01*
X853876Y1981200D01*
G37*
G36*
X218876Y1981200D02*
X238324Y1981200D01*
X241300Y1984176D01*
X241300Y1987543D01*
X241345Y1987801D01*
X241502Y1988060D01*
X241748Y1988237D01*
X242044Y1988305D01*
X242342Y1988252D01*
X242597Y1988086D01*
X242766Y1987835D01*
X243233Y1986706D01*
X246806Y1983133D01*
X251474Y1981200D01*
X256526Y1981200D01*
X261194Y1983133D01*
X264767Y1986706D01*
X265996Y1989674D01*
X266140Y1989900D01*
X266386Y1990077D01*
X266682Y1990144D01*
X266980Y1990091D01*
X267235Y1989926D01*
X267404Y1989674D01*
X268633Y1986706D01*
X272206Y1983133D01*
X276874Y1981200D01*
X281926Y1981200D01*
X286594Y1983133D01*
X290167Y1986706D01*
X292100Y1991374D01*
X292100Y1996426D01*
X290167Y2001094D01*
X286594Y2004667D01*
X281926Y2006600D01*
X276874Y2006600D01*
X272206Y2004667D01*
X268633Y2001094D01*
X267404Y1998126D01*
X267260Y1997900D01*
X267014Y1997723D01*
X266718Y1997656D01*
X266420Y1997709D01*
X266166Y1997874D01*
X265996Y1998126D01*
X264767Y2001094D01*
X261194Y2004667D01*
X256526Y2006600D01*
X251474Y2006600D01*
X246806Y2004667D01*
X243233Y2001094D01*
X242766Y1999965D01*
X242626Y1999745D01*
X242381Y1999565D01*
X242086Y1999495D01*
X241787Y1999546D01*
X241532Y1999710D01*
X241360Y1999960D01*
X241300Y2000257D01*
X241300Y2003624D01*
X238324Y2006600D01*
X218876Y2006600D01*
X215900Y2003624D01*
X215900Y1984176D01*
X218876Y1981200D01*
G37*
G36*
X1160525Y1939548D02*
X1171952Y1939548D01*
X1171952Y1950975D01*
X1166764Y1948826D01*
X1162674Y1944736D01*
X1160525Y1939548D01*
G37*
G36*
X1178048Y1939548D02*
X1189475Y1939548D01*
X1187326Y1944736D01*
X1183236Y1948826D01*
X1178048Y1950975D01*
X1178048Y1939548D01*
G37*
G36*
X1223525Y1939548D02*
X1234952Y1939548D01*
X1234952Y1950975D01*
X1229764Y1948826D01*
X1225674Y1944736D01*
X1223525Y1939548D01*
G37*
G36*
X1241048Y1939548D02*
X1252475Y1939548D01*
X1250326Y1944736D01*
X1246236Y1948826D01*
X1241048Y1950975D01*
X1241048Y1939548D01*
G37*
G36*
X1414525Y1939548D02*
X1425952Y1939548D01*
X1425952Y1950975D01*
X1420764Y1948826D01*
X1416674Y1944736D01*
X1414525Y1939548D01*
G37*
G36*
X1432048Y1939548D02*
X1443475Y1939548D01*
X1441326Y1944736D01*
X1437236Y1948826D01*
X1432048Y1950975D01*
X1432048Y1939548D01*
G37*
G36*
X1477525Y1939548D02*
X1488952Y1939548D01*
X1488952Y1950975D01*
X1483764Y1948826D01*
X1479674Y1944736D01*
X1477525Y1939548D01*
G37*
G36*
X1495048Y1939548D02*
X1506475Y1939548D01*
X1504326Y1944736D01*
X1500236Y1948826D01*
X1495048Y1950975D01*
X1495048Y1939548D01*
G37*
G36*
X1732025Y1939548D02*
X1743452Y1939548D01*
X1743452Y1950975D01*
X1738264Y1948826D01*
X1734174Y1944736D01*
X1732025Y1939548D01*
G37*
G36*
X1749548Y1939548D02*
X1760975Y1939548D01*
X1758826Y1944736D01*
X1754736Y1948826D01*
X1749548Y1950975D01*
X1749548Y1939548D01*
G37*
G36*
X1795025Y1939548D02*
X1806452Y1939548D01*
X1806452Y1950975D01*
X1801264Y1948826D01*
X1797174Y1944736D01*
X1795025Y1939548D01*
G37*
G36*
X1812548Y1939548D02*
X1823975Y1939548D01*
X1821826Y1944736D01*
X1817736Y1948826D01*
X1812548Y1950975D01*
X1812548Y1939548D01*
G37*
G36*
X1986025Y1939548D02*
X1997452Y1939548D01*
X1997452Y1950975D01*
X1992264Y1948826D01*
X1988174Y1944736D01*
X1986025Y1939548D01*
G37*
G36*
X2003548Y1939548D02*
X2014975Y1939548D01*
X2012826Y1944736D01*
X2008736Y1948826D01*
X2003548Y1950975D01*
X2003548Y1939548D01*
G37*
G36*
X2049025Y1939548D02*
X2060452Y1939548D01*
X2060452Y1950975D01*
X2055264Y1948826D01*
X2051174Y1944736D01*
X2049025Y1939548D01*
G37*
G36*
X2066548Y1939548D02*
X2077975Y1939548D01*
X2075826Y1944736D01*
X2071736Y1948826D01*
X2066548Y1950975D01*
X2066548Y1939548D01*
G37*
G36*
X2066548Y1933452D02*
X2066548Y1922025D01*
X2071736Y1924174D01*
X2075826Y1928264D01*
X2077975Y1933452D01*
X2066548Y1933452D01*
G37*
G36*
X2055264Y1924174D02*
X2060452Y1922025D01*
X2060452Y1933452D01*
X2049025Y1933452D01*
X2051174Y1928264D01*
X2055264Y1924174D01*
G37*
G36*
X2003548Y1933452D02*
X2003548Y1922025D01*
X2008736Y1924174D01*
X2012826Y1928264D01*
X2014975Y1933452D01*
X2003548Y1933452D01*
G37*
G36*
X1992264Y1924174D02*
X1997452Y1922025D01*
X1997452Y1933452D01*
X1986025Y1933452D01*
X1988174Y1928264D01*
X1992264Y1924174D01*
G37*
G36*
X1812548Y1933452D02*
X1812548Y1922025D01*
X1817736Y1924174D01*
X1821826Y1928264D01*
X1823975Y1933452D01*
X1812548Y1933452D01*
G37*
G36*
X1801264Y1924174D02*
X1806452Y1922025D01*
X1806452Y1933452D01*
X1795025Y1933452D01*
X1797174Y1928264D01*
X1801264Y1924174D01*
G37*
G36*
X1749548Y1933452D02*
X1749548Y1922025D01*
X1754736Y1924174D01*
X1758826Y1928264D01*
X1760975Y1933452D01*
X1749548Y1933452D01*
G37*
G36*
X1738264Y1924174D02*
X1743452Y1922025D01*
X1743452Y1933452D01*
X1732025Y1933452D01*
X1734174Y1928264D01*
X1738264Y1924174D01*
G37*
G36*
X1495048Y1933452D02*
X1495048Y1922025D01*
X1500236Y1924174D01*
X1504326Y1928264D01*
X1506475Y1933452D01*
X1495048Y1933452D01*
G37*
G36*
X1483764Y1924174D02*
X1488952Y1922025D01*
X1488952Y1933452D01*
X1477525Y1933452D01*
X1479674Y1928264D01*
X1483764Y1924174D01*
G37*
G36*
X1432048Y1933452D02*
X1432048Y1922025D01*
X1437236Y1924174D01*
X1441326Y1928264D01*
X1443475Y1933452D01*
X1432048Y1933452D01*
G37*
G36*
X1420764Y1924174D02*
X1425952Y1922025D01*
X1425952Y1933452D01*
X1414525Y1933452D01*
X1416674Y1928264D01*
X1420764Y1924174D01*
G37*
G36*
X1241048Y1933452D02*
X1241048Y1922025D01*
X1246236Y1924174D01*
X1250326Y1928264D01*
X1252475Y1933452D01*
X1241048Y1933452D01*
G37*
G36*
X1229764Y1924174D02*
X1234952Y1922025D01*
X1234952Y1933452D01*
X1223525Y1933452D01*
X1225674Y1928264D01*
X1229764Y1924174D01*
G37*
G36*
X1178048Y1933452D02*
X1178048Y1922025D01*
X1183236Y1924174D01*
X1187326Y1928264D01*
X1189475Y1933452D01*
X1178048Y1933452D01*
G37*
G36*
X1166764Y1924174D02*
X1171952Y1922025D01*
X1171952Y1933452D01*
X1160525Y1933452D01*
X1162674Y1928264D01*
X1166764Y1924174D01*
G37*
G36*
X785637Y1845338D02*
X789163Y1845338D01*
X792420Y1846687D01*
X794913Y1849180D01*
X796262Y1852437D01*
X796262Y1855963D01*
X794913Y1859220D01*
X792420Y1861713D01*
X789562Y1862897D01*
X789314Y1863062D01*
X732762Y1919614D01*
X732597Y1919862D01*
X731413Y1922720D01*
X728920Y1925213D01*
X725663Y1926562D01*
X722137Y1926562D01*
X718880Y1925213D01*
X716387Y1922720D01*
X715038Y1919463D01*
X715038Y1915937D01*
X716387Y1912680D01*
X718880Y1910187D01*
X721739Y1909003D01*
X721986Y1908838D01*
X778538Y1852286D01*
X778703Y1852039D01*
X779887Y1849180D01*
X782380Y1846687D01*
X785637Y1845338D01*
G37*
G36*
X2029199Y1890920D02*
X2034801Y1890920D01*
X2039976Y1893064D01*
X2043936Y1897024D01*
X2046080Y1902199D01*
X2046080Y1907801D01*
X2043936Y1912976D01*
X2039976Y1916936D01*
X2034801Y1919080D01*
X2029199Y1919080D01*
X2024024Y1916936D01*
X2020064Y1912976D01*
X2017920Y1907801D01*
X2017920Y1902199D01*
X2020064Y1897024D01*
X2024024Y1893064D01*
X2029199Y1890920D01*
G37*
G36*
X1775199Y1890920D02*
X1780801Y1890920D01*
X1785976Y1893064D01*
X1789936Y1897024D01*
X1792080Y1902199D01*
X1792080Y1907801D01*
X1789936Y1912976D01*
X1785976Y1916936D01*
X1780801Y1919080D01*
X1775199Y1919080D01*
X1770024Y1916936D01*
X1766064Y1912976D01*
X1763920Y1907801D01*
X1763920Y1902199D01*
X1766064Y1897024D01*
X1770024Y1893064D01*
X1775199Y1890920D01*
G37*
G36*
X1457699Y1890920D02*
X1463301Y1890920D01*
X1468476Y1893064D01*
X1472436Y1897024D01*
X1474580Y1902199D01*
X1474580Y1907801D01*
X1472436Y1912976D01*
X1468476Y1916936D01*
X1463301Y1919080D01*
X1457699Y1919080D01*
X1452524Y1916936D01*
X1448564Y1912976D01*
X1446420Y1907801D01*
X1446420Y1902199D01*
X1448564Y1897024D01*
X1452524Y1893064D01*
X1457699Y1890920D01*
G37*
G36*
X1203699Y1890920D02*
X1209301Y1890920D01*
X1214476Y1893064D01*
X1218436Y1897024D01*
X1220580Y1902199D01*
X1220580Y1907801D01*
X1218436Y1912976D01*
X1214476Y1916936D01*
X1209301Y1919080D01*
X1203699Y1919080D01*
X1198524Y1916936D01*
X1194564Y1912976D01*
X1192420Y1907801D01*
X1192420Y1902199D01*
X1194564Y1897024D01*
X1198524Y1893064D01*
X1203699Y1890920D01*
G37*
G36*
X1160525Y1876548D02*
X1171952Y1876548D01*
X1171952Y1887975D01*
X1166764Y1885826D01*
X1162674Y1881736D01*
X1160525Y1876548D01*
G37*
G36*
X1178048Y1876548D02*
X1189475Y1876548D01*
X1187326Y1881736D01*
X1183236Y1885826D01*
X1178048Y1887975D01*
X1178048Y1876548D01*
G37*
G36*
X1223525Y1876548D02*
X1234952Y1876548D01*
X1234952Y1887975D01*
X1229764Y1885826D01*
X1225674Y1881736D01*
X1223525Y1876548D01*
G37*
G36*
X1241048Y1876548D02*
X1252475Y1876548D01*
X1250326Y1881736D01*
X1246236Y1885826D01*
X1241048Y1887975D01*
X1241048Y1876548D01*
G37*
G36*
X1414525Y1876548D02*
X1425952Y1876548D01*
X1425952Y1887975D01*
X1420764Y1885826D01*
X1416674Y1881736D01*
X1414525Y1876548D01*
G37*
G36*
X1432048Y1876548D02*
X1443475Y1876548D01*
X1441326Y1881736D01*
X1437236Y1885826D01*
X1432048Y1887975D01*
X1432048Y1876548D01*
G37*
G36*
X1477525Y1876548D02*
X1488952Y1876548D01*
X1488952Y1887975D01*
X1483764Y1885826D01*
X1479674Y1881736D01*
X1477525Y1876548D01*
G37*
G36*
X1495048Y1876548D02*
X1506475Y1876548D01*
X1504326Y1881736D01*
X1500236Y1885826D01*
X1495048Y1887975D01*
X1495048Y1876548D01*
G37*
G36*
X1732025Y1876548D02*
X1743452Y1876548D01*
X1743452Y1887975D01*
X1738264Y1885826D01*
X1734174Y1881736D01*
X1732025Y1876548D01*
G37*
G36*
X1749548Y1876548D02*
X1760975Y1876548D01*
X1758826Y1881736D01*
X1754736Y1885826D01*
X1749548Y1887975D01*
X1749548Y1876548D01*
G37*
G36*
X1795025Y1876548D02*
X1806452Y1876548D01*
X1806452Y1887975D01*
X1801264Y1885826D01*
X1797174Y1881736D01*
X1795025Y1876548D01*
G37*
G36*
X1812548Y1876548D02*
X1823975Y1876548D01*
X1821826Y1881736D01*
X1817736Y1885826D01*
X1812548Y1887975D01*
X1812548Y1876548D01*
G37*
G36*
X1986025Y1876548D02*
X1997452Y1876548D01*
X1997452Y1887975D01*
X1992264Y1885826D01*
X1988174Y1881736D01*
X1986025Y1876548D01*
G37*
G36*
X2003548Y1876548D02*
X2014975Y1876548D01*
X2012826Y1881736D01*
X2008736Y1885826D01*
X2003548Y1887975D01*
X2003548Y1876548D01*
G37*
G36*
X2049025Y1876548D02*
X2060452Y1876548D01*
X2060452Y1887975D01*
X2055264Y1885826D01*
X2051174Y1881736D01*
X2049025Y1876548D01*
G37*
G36*
X2066548Y1876548D02*
X2077975Y1876548D01*
X2075826Y1881736D01*
X2071736Y1885826D01*
X2066548Y1887975D01*
X2066548Y1876548D01*
G37*
G36*
X525525Y1876048D02*
X536952Y1876048D01*
X536952Y1887475D01*
X531764Y1885326D01*
X527674Y1881236D01*
X525525Y1876048D01*
G37*
G36*
X543048Y1876048D02*
X554475Y1876048D01*
X552326Y1881236D01*
X548236Y1885326D01*
X543048Y1887475D01*
X543048Y1876048D01*
G37*
G36*
X588525Y1876048D02*
X599952Y1876048D01*
X599952Y1887475D01*
X594764Y1885326D01*
X590674Y1881236D01*
X588525Y1876048D01*
G37*
G36*
X606048Y1876048D02*
X617475Y1876048D01*
X615326Y1881236D01*
X611236Y1885326D01*
X606048Y1887475D01*
X606048Y1876048D01*
G37*
G36*
X2066548Y1870452D02*
X2066548Y1859025D01*
X2071736Y1861174D01*
X2075826Y1865264D01*
X2077975Y1870452D01*
X2066548Y1870452D01*
G37*
G36*
X2055264Y1861174D02*
X2060452Y1859025D01*
X2060452Y1870452D01*
X2049025Y1870452D01*
X2051174Y1865264D01*
X2055264Y1861174D01*
G37*
G36*
X2003548Y1870452D02*
X2003548Y1859025D01*
X2008736Y1861174D01*
X2012826Y1865264D01*
X2014975Y1870452D01*
X2003548Y1870452D01*
G37*
G36*
X1992264Y1861174D02*
X1997452Y1859025D01*
X1997452Y1870452D01*
X1986025Y1870452D01*
X1988174Y1865264D01*
X1992264Y1861174D01*
G37*
G36*
X1812548Y1870452D02*
X1812548Y1859025D01*
X1817736Y1861174D01*
X1821826Y1865264D01*
X1823975Y1870452D01*
X1812548Y1870452D01*
G37*
G36*
X1801264Y1861174D02*
X1806452Y1859025D01*
X1806452Y1870452D01*
X1795025Y1870452D01*
X1797174Y1865264D01*
X1801264Y1861174D01*
G37*
G36*
X1749548Y1870452D02*
X1749548Y1859025D01*
X1754736Y1861174D01*
X1758826Y1865264D01*
X1760975Y1870452D01*
X1749548Y1870452D01*
G37*
G36*
X1738264Y1861174D02*
X1743452Y1859025D01*
X1743452Y1870452D01*
X1732025Y1870452D01*
X1734174Y1865264D01*
X1738264Y1861174D01*
G37*
G36*
X1495048Y1870452D02*
X1495048Y1859025D01*
X1500236Y1861174D01*
X1504326Y1865264D01*
X1506475Y1870452D01*
X1495048Y1870452D01*
G37*
G36*
X1483764Y1861174D02*
X1488952Y1859025D01*
X1488952Y1870452D01*
X1477525Y1870452D01*
X1479674Y1865264D01*
X1483764Y1861174D01*
G37*
G36*
X1432048Y1870452D02*
X1432048Y1859025D01*
X1437236Y1861174D01*
X1441326Y1865264D01*
X1443475Y1870452D01*
X1432048Y1870452D01*
G37*
G36*
X1420764Y1861174D02*
X1425952Y1859025D01*
X1425952Y1870452D01*
X1414525Y1870452D01*
X1416674Y1865264D01*
X1420764Y1861174D01*
G37*
G36*
X1241048Y1870452D02*
X1241048Y1859025D01*
X1246236Y1861174D01*
X1250326Y1865264D01*
X1252475Y1870452D01*
X1241048Y1870452D01*
G37*
G36*
X1229764Y1861174D02*
X1234952Y1859025D01*
X1234952Y1870452D01*
X1223525Y1870452D01*
X1225674Y1865264D01*
X1229764Y1861174D01*
G37*
G36*
X1178048Y1870452D02*
X1178048Y1859025D01*
X1183236Y1861174D01*
X1187326Y1865264D01*
X1189475Y1870452D01*
X1178048Y1870452D01*
G37*
G36*
X1166764Y1861174D02*
X1171952Y1859025D01*
X1171952Y1870452D01*
X1160525Y1870452D01*
X1162674Y1865264D01*
X1166764Y1861174D01*
G37*
G36*
X606048Y1869952D02*
X606048Y1858525D01*
X611236Y1860674D01*
X615326Y1864764D01*
X617475Y1869952D01*
X606048Y1869952D01*
G37*
G36*
X594764Y1860674D02*
X599952Y1858525D01*
X599952Y1869952D01*
X588525Y1869952D01*
X590674Y1864764D01*
X594764Y1860674D01*
G37*
G36*
X543048Y1869952D02*
X543048Y1858525D01*
X548236Y1860674D01*
X552326Y1864764D01*
X554475Y1869952D01*
X543048Y1869952D01*
G37*
G36*
X531764Y1860674D02*
X536952Y1858525D01*
X536952Y1869952D01*
X525525Y1869952D01*
X527674Y1864764D01*
X531764Y1860674D01*
G37*
G36*
X568699Y1827420D02*
X574301Y1827420D01*
X579476Y1829564D01*
X583436Y1833524D01*
X585580Y1838699D01*
X585580Y1844301D01*
X583436Y1849476D01*
X579476Y1853436D01*
X574301Y1855580D01*
X568699Y1855580D01*
X563524Y1853436D01*
X559564Y1849476D01*
X557420Y1844301D01*
X557420Y1838699D01*
X559564Y1833524D01*
X563524Y1829564D01*
X568699Y1827420D01*
G37*
G36*
X525525Y1813048D02*
X536952Y1813048D01*
X536952Y1824475D01*
X531764Y1822326D01*
X527674Y1818236D01*
X525525Y1813048D01*
G37*
G36*
X543048Y1813048D02*
X554475Y1813048D01*
X552326Y1818236D01*
X548236Y1822326D01*
X543048Y1824475D01*
X543048Y1813048D01*
G37*
G36*
X588525Y1813048D02*
X599952Y1813048D01*
X599952Y1824475D01*
X594764Y1822326D01*
X590674Y1818236D01*
X588525Y1813048D01*
G37*
G36*
X606048Y1813048D02*
X617475Y1813048D01*
X615326Y1818236D01*
X611236Y1822326D01*
X606048Y1824475D01*
X606048Y1813048D01*
G37*
G36*
X606048Y1806952D02*
X606048Y1795525D01*
X611236Y1797674D01*
X615326Y1801764D01*
X617475Y1806952D01*
X606048Y1806952D01*
G37*
G36*
X594764Y1797674D02*
X599952Y1795525D01*
X599952Y1806952D01*
X588525Y1806952D01*
X590674Y1801764D01*
X594764Y1797674D01*
G37*
G36*
X543048Y1806952D02*
X543048Y1795525D01*
X548236Y1797674D01*
X552326Y1801764D01*
X554475Y1806952D01*
X543048Y1806952D01*
G37*
G36*
X531764Y1797674D02*
X536952Y1795525D01*
X536952Y1806952D01*
X525525Y1806952D01*
X527674Y1801764D01*
X531764Y1797674D01*
G37*
G36*
X1425376Y1727200D02*
X1444824Y1727200D01*
X1447800Y1730176D01*
X1447800Y1733543D01*
X1447845Y1733801D01*
X1448002Y1734060D01*
X1448248Y1734237D01*
X1448544Y1734305D01*
X1448842Y1734252D01*
X1449097Y1734086D01*
X1449266Y1733835D01*
X1449733Y1732706D01*
X1453306Y1729133D01*
X1457974Y1727200D01*
X1463026Y1727200D01*
X1467694Y1729133D01*
X1471267Y1732706D01*
X1472496Y1735674D01*
X1472640Y1735900D01*
X1472886Y1736077D01*
X1473182Y1736144D01*
X1473480Y1736091D01*
X1473735Y1735926D01*
X1473904Y1735674D01*
X1475133Y1732706D01*
X1478706Y1729133D01*
X1483374Y1727200D01*
X1488426Y1727200D01*
X1493094Y1729133D01*
X1496667Y1732706D01*
X1498600Y1737374D01*
X1498600Y1742426D01*
X1496667Y1747094D01*
X1493094Y1750667D01*
X1488426Y1752600D01*
X1483374Y1752600D01*
X1478706Y1750667D01*
X1475133Y1747094D01*
X1473904Y1744126D01*
X1473760Y1743900D01*
X1473514Y1743723D01*
X1473218Y1743656D01*
X1472920Y1743709D01*
X1472666Y1743874D01*
X1472496Y1744126D01*
X1471267Y1747094D01*
X1467694Y1750667D01*
X1463026Y1752600D01*
X1457974Y1752600D01*
X1453306Y1750667D01*
X1449733Y1747094D01*
X1449266Y1745965D01*
X1449126Y1745745D01*
X1448881Y1745565D01*
X1448586Y1745495D01*
X1448287Y1745546D01*
X1448032Y1745710D01*
X1447860Y1745960D01*
X1447800Y1746257D01*
X1447800Y1749624D01*
X1444824Y1752600D01*
X1425376Y1752600D01*
X1422400Y1749624D01*
X1422400Y1730176D01*
X1425376Y1727200D01*
G37*
G36*
X1171376Y1727200D02*
X1190824Y1727200D01*
X1193800Y1730176D01*
X1193800Y1733543D01*
X1193845Y1733801D01*
X1194002Y1734060D01*
X1194248Y1734237D01*
X1194544Y1734305D01*
X1194842Y1734252D01*
X1195097Y1734086D01*
X1195266Y1733835D01*
X1195733Y1732706D01*
X1199306Y1729133D01*
X1203974Y1727200D01*
X1209026Y1727200D01*
X1213694Y1729133D01*
X1217267Y1732706D01*
X1218496Y1735674D01*
X1218640Y1735900D01*
X1218886Y1736077D01*
X1219182Y1736144D01*
X1219480Y1736091D01*
X1219735Y1735926D01*
X1219904Y1735674D01*
X1221133Y1732706D01*
X1224706Y1729133D01*
X1229374Y1727200D01*
X1234426Y1727200D01*
X1239094Y1729133D01*
X1242667Y1732706D01*
X1244600Y1737374D01*
X1244600Y1742426D01*
X1242667Y1747094D01*
X1239094Y1750667D01*
X1234426Y1752600D01*
X1229374Y1752600D01*
X1224706Y1750667D01*
X1221133Y1747094D01*
X1219904Y1744126D01*
X1219760Y1743900D01*
X1219514Y1743723D01*
X1219218Y1743656D01*
X1218920Y1743709D01*
X1218666Y1743874D01*
X1218496Y1744126D01*
X1217267Y1747094D01*
X1213694Y1750667D01*
X1209026Y1752600D01*
X1203974Y1752600D01*
X1199306Y1750667D01*
X1195733Y1747094D01*
X1195266Y1745965D01*
X1195126Y1745745D01*
X1194881Y1745565D01*
X1194586Y1745495D01*
X1194287Y1745546D01*
X1194032Y1745710D01*
X1193860Y1745960D01*
X1193800Y1746257D01*
X1193800Y1749624D01*
X1190824Y1752600D01*
X1171376Y1752600D01*
X1168400Y1749624D01*
X1168400Y1730176D01*
X1171376Y1727200D01*
G37*
G36*
X536376Y1663700D02*
X555824Y1663700D01*
X558800Y1666676D01*
X558800Y1670043D01*
X558845Y1670301D01*
X559002Y1670560D01*
X559248Y1670737D01*
X559544Y1670805D01*
X559842Y1670752D01*
X560097Y1670586D01*
X560266Y1670335D01*
X560733Y1669206D01*
X564306Y1665633D01*
X568974Y1663700D01*
X574026Y1663700D01*
X578694Y1665633D01*
X582267Y1669206D01*
X583496Y1672174D01*
X583640Y1672400D01*
X583886Y1672577D01*
X584182Y1672644D01*
X584480Y1672591D01*
X584735Y1672426D01*
X584904Y1672174D01*
X586133Y1669206D01*
X589706Y1665633D01*
X594374Y1663700D01*
X599426Y1663700D01*
X604094Y1665633D01*
X607667Y1669206D01*
X609600Y1673874D01*
X609600Y1678926D01*
X607667Y1683594D01*
X604094Y1687167D01*
X599426Y1689100D01*
X594374Y1689100D01*
X589706Y1687167D01*
X586133Y1683594D01*
X584904Y1680626D01*
X584760Y1680400D01*
X584514Y1680223D01*
X584218Y1680156D01*
X583920Y1680209D01*
X583666Y1680374D01*
X583496Y1680626D01*
X582267Y1683594D01*
X578694Y1687167D01*
X574026Y1689100D01*
X568974Y1689100D01*
X564306Y1687167D01*
X560733Y1683594D01*
X560266Y1682465D01*
X560126Y1682245D01*
X559881Y1682065D01*
X559586Y1681995D01*
X559287Y1682046D01*
X559032Y1682210D01*
X558860Y1682460D01*
X558800Y1682757D01*
X558800Y1686124D01*
X555824Y1689100D01*
X536376Y1689100D01*
X533400Y1686124D01*
X533400Y1666676D01*
X536376Y1663700D01*
G37*
G36*
X645937Y1616738D02*
X649463Y1616738D01*
X652321Y1617922D01*
X652613Y1617980D01*
X706287Y1617980D01*
X706579Y1617922D01*
X709437Y1616738D01*
X712963Y1616738D01*
X716220Y1618087D01*
X718713Y1620580D01*
X720062Y1623837D01*
X720062Y1627363D01*
X718713Y1630620D01*
X716220Y1633113D01*
X712963Y1634462D01*
X709437Y1634462D01*
X706579Y1633278D01*
X706287Y1633220D01*
X652613Y1633220D01*
X652321Y1633278D01*
X649463Y1634462D01*
X645937Y1634462D01*
X642680Y1633113D01*
X640187Y1630620D01*
X638838Y1627363D01*
X638838Y1623837D01*
X640187Y1620580D01*
X642680Y1618087D01*
X645937Y1616738D01*
G37*
G36*
X208025Y1558548D02*
X219452Y1558548D01*
X219452Y1569975D01*
X214264Y1567826D01*
X210174Y1563736D01*
X208025Y1558548D01*
G37*
G36*
X225548Y1558548D02*
X236975Y1558548D01*
X234826Y1563736D01*
X230736Y1567826D01*
X225548Y1569975D01*
X225548Y1558548D01*
G37*
G36*
X271025Y1558548D02*
X282452Y1558548D01*
X282452Y1569975D01*
X277264Y1567826D01*
X273174Y1563736D01*
X271025Y1558548D01*
G37*
G36*
X288548Y1558548D02*
X299975Y1558548D01*
X297826Y1563736D01*
X293736Y1567826D01*
X288548Y1569975D01*
X288548Y1558548D01*
G37*
G36*
X843025Y1558548D02*
X854452Y1558548D01*
X854452Y1569975D01*
X849264Y1567826D01*
X845174Y1563736D01*
X843025Y1558548D01*
G37*
G36*
X860548Y1558548D02*
X871975Y1558548D01*
X869826Y1563736D01*
X865736Y1567826D01*
X860548Y1569975D01*
X860548Y1558548D01*
G37*
G36*
X906025Y1558548D02*
X917452Y1558548D01*
X917452Y1569975D01*
X912264Y1567826D01*
X908174Y1563736D01*
X906025Y1558548D01*
G37*
G36*
X923548Y1558548D02*
X934975Y1558548D01*
X932826Y1563736D01*
X928736Y1567826D01*
X923548Y1569975D01*
X923548Y1558548D01*
G37*
G36*
X923548Y1552452D02*
X923548Y1541025D01*
X928736Y1543174D01*
X932826Y1547264D01*
X934975Y1552452D01*
X923548Y1552452D01*
G37*
G36*
X912264Y1543174D02*
X917452Y1541025D01*
X917452Y1552452D01*
X906025Y1552452D01*
X908174Y1547264D01*
X912264Y1543174D01*
G37*
G36*
X860548Y1552452D02*
X860548Y1541025D01*
X865736Y1543174D01*
X869826Y1547264D01*
X871975Y1552452D01*
X860548Y1552452D01*
G37*
G36*
X849264Y1543174D02*
X854452Y1541025D01*
X854452Y1552452D01*
X843025Y1552452D01*
X845174Y1547264D01*
X849264Y1543174D01*
G37*
G36*
X288548Y1552452D02*
X288548Y1541025D01*
X293736Y1543174D01*
X297826Y1547264D01*
X299975Y1552452D01*
X288548Y1552452D01*
G37*
G36*
X277264Y1543174D02*
X282452Y1541025D01*
X282452Y1552452D01*
X271025Y1552452D01*
X273174Y1547264D01*
X277264Y1543174D01*
G37*
G36*
X225548Y1552452D02*
X225548Y1541025D01*
X230736Y1543174D01*
X234826Y1547264D01*
X236975Y1552452D01*
X225548Y1552452D01*
G37*
G36*
X214264Y1543174D02*
X219452Y1541025D01*
X219452Y1552452D01*
X208025Y1552452D01*
X210174Y1547264D01*
X214264Y1543174D01*
G37*
G36*
X251199Y1509920D02*
X256801Y1509920D01*
X261976Y1512064D01*
X265936Y1516024D01*
X268080Y1521199D01*
X268080Y1526801D01*
X265936Y1531976D01*
X261976Y1535936D01*
X256801Y1538080D01*
X251199Y1538080D01*
X246024Y1535936D01*
X242064Y1531976D01*
X239920Y1526801D01*
X239920Y1521199D01*
X242064Y1516024D01*
X246024Y1512064D01*
X251199Y1509920D01*
G37*
G36*
X886199Y1509920D02*
X891801Y1509920D01*
X896976Y1512064D01*
X900936Y1516024D01*
X903080Y1521199D01*
X903080Y1526801D01*
X900936Y1531976D01*
X896976Y1535936D01*
X891801Y1538080D01*
X886199Y1538080D01*
X881024Y1535936D01*
X877064Y1531976D01*
X874920Y1526801D01*
X874920Y1521199D01*
X877064Y1516024D01*
X881024Y1512064D01*
X886199Y1509920D01*
G37*
G36*
X208025Y1495548D02*
X219452Y1495548D01*
X219452Y1506975D01*
X214264Y1504826D01*
X210174Y1500736D01*
X208025Y1495548D01*
G37*
G36*
X225548Y1495548D02*
X236975Y1495548D01*
X234826Y1500736D01*
X230736Y1504826D01*
X225548Y1506975D01*
X225548Y1495548D01*
G37*
G36*
X271025Y1495548D02*
X282452Y1495548D01*
X282452Y1506975D01*
X277264Y1504826D01*
X273174Y1500736D01*
X271025Y1495548D01*
G37*
G36*
X288548Y1495548D02*
X299975Y1495548D01*
X297826Y1500736D01*
X293736Y1504826D01*
X288548Y1506975D01*
X288548Y1495548D01*
G37*
G36*
X843025Y1495548D02*
X854452Y1495548D01*
X854452Y1506975D01*
X849264Y1504826D01*
X845174Y1500736D01*
X843025Y1495548D01*
G37*
G36*
X860548Y1495548D02*
X871975Y1495548D01*
X869826Y1500736D01*
X865736Y1504826D01*
X860548Y1506975D01*
X860548Y1495548D01*
G37*
G36*
X906025Y1495548D02*
X917452Y1495548D01*
X917452Y1506975D01*
X912264Y1504826D01*
X908174Y1500736D01*
X906025Y1495548D01*
G37*
G36*
X923548Y1495548D02*
X934975Y1495548D01*
X932826Y1500736D01*
X928736Y1504826D01*
X923548Y1506975D01*
X923548Y1495548D01*
G37*
G36*
X1160525Y1482348D02*
X1171952Y1482348D01*
X1171952Y1493775D01*
X1166764Y1491626D01*
X1162674Y1487536D01*
X1160525Y1482348D01*
G37*
G36*
X1178048Y1482348D02*
X1189475Y1482348D01*
X1187326Y1487536D01*
X1183236Y1491626D01*
X1178048Y1493775D01*
X1178048Y1482348D01*
G37*
G36*
X1223525Y1482348D02*
X1234952Y1482348D01*
X1234952Y1493775D01*
X1229764Y1491626D01*
X1225674Y1487536D01*
X1223525Y1482348D01*
G37*
G36*
X1241048Y1482348D02*
X1252475Y1482348D01*
X1250326Y1487536D01*
X1246236Y1491626D01*
X1241048Y1493775D01*
X1241048Y1482348D01*
G37*
G36*
X1414525Y1482348D02*
X1425952Y1482348D01*
X1425952Y1493775D01*
X1420764Y1491626D01*
X1416674Y1487536D01*
X1414525Y1482348D01*
G37*
G36*
X1432048Y1482348D02*
X1443475Y1482348D01*
X1441326Y1487536D01*
X1437236Y1491626D01*
X1432048Y1493775D01*
X1432048Y1482348D01*
G37*
G36*
X1477525Y1482348D02*
X1488952Y1482348D01*
X1488952Y1493775D01*
X1483764Y1491626D01*
X1479674Y1487536D01*
X1477525Y1482348D01*
G37*
G36*
X1495048Y1482348D02*
X1506475Y1482348D01*
X1504326Y1487536D01*
X1500236Y1491626D01*
X1495048Y1493775D01*
X1495048Y1482348D01*
G37*
G36*
X1732025Y1482348D02*
X1743452Y1482348D01*
X1743452Y1493775D01*
X1738264Y1491626D01*
X1734174Y1487536D01*
X1732025Y1482348D01*
G37*
G36*
X1749548Y1482348D02*
X1760975Y1482348D01*
X1758826Y1487536D01*
X1754736Y1491626D01*
X1749548Y1493775D01*
X1749548Y1482348D01*
G37*
G36*
X1795025Y1482348D02*
X1806452Y1482348D01*
X1806452Y1493775D01*
X1801264Y1491626D01*
X1797174Y1487536D01*
X1795025Y1482348D01*
G37*
G36*
X1812548Y1482348D02*
X1823975Y1482348D01*
X1821826Y1487536D01*
X1817736Y1491626D01*
X1812548Y1493775D01*
X1812548Y1482348D01*
G37*
G36*
X1986025Y1482348D02*
X1997452Y1482348D01*
X1997452Y1493775D01*
X1992264Y1491626D01*
X1988174Y1487536D01*
X1986025Y1482348D01*
G37*
G36*
X2003548Y1482348D02*
X2014975Y1482348D01*
X2012826Y1487536D01*
X2008736Y1491626D01*
X2003548Y1493775D01*
X2003548Y1482348D01*
G37*
G36*
X2049025Y1482348D02*
X2060452Y1482348D01*
X2060452Y1493775D01*
X2055264Y1491626D01*
X2051174Y1487536D01*
X2049025Y1482348D01*
G37*
G36*
X2066548Y1482348D02*
X2077975Y1482348D01*
X2075826Y1487536D01*
X2071736Y1491626D01*
X2066548Y1493775D01*
X2066548Y1482348D01*
G37*
G36*
X923548Y1489452D02*
X923548Y1478025D01*
X928736Y1480174D01*
X932826Y1484264D01*
X934975Y1489452D01*
X923548Y1489452D01*
G37*
G36*
X912264Y1480174D02*
X917452Y1478025D01*
X917452Y1489452D01*
X906025Y1489452D01*
X908174Y1484264D01*
X912264Y1480174D01*
G37*
G36*
X860548Y1489452D02*
X860548Y1478025D01*
X865736Y1480174D01*
X869826Y1484264D01*
X871975Y1489452D01*
X860548Y1489452D01*
G37*
G36*
X849264Y1480174D02*
X854452Y1478025D01*
X854452Y1489452D01*
X843025Y1489452D01*
X845174Y1484264D01*
X849264Y1480174D01*
G37*
G36*
X288548Y1489452D02*
X288548Y1478025D01*
X293736Y1480174D01*
X297826Y1484264D01*
X299975Y1489452D01*
X288548Y1489452D01*
G37*
G36*
X277264Y1480174D02*
X282452Y1478025D01*
X282452Y1489452D01*
X271025Y1489452D01*
X273174Y1484264D01*
X277264Y1480174D01*
G37*
G36*
X225548Y1489452D02*
X225548Y1478025D01*
X230736Y1480174D01*
X234826Y1484264D01*
X236975Y1489452D01*
X225548Y1489452D01*
G37*
G36*
X214264Y1480174D02*
X219452Y1478025D01*
X219452Y1489452D01*
X208025Y1489452D01*
X210174Y1484264D01*
X214264Y1480174D01*
G37*
G36*
X2066548Y1476252D02*
X2066548Y1464825D01*
X2071736Y1466974D01*
X2075826Y1471064D01*
X2077975Y1476252D01*
X2066548Y1476252D01*
G37*
G36*
X2055264Y1466974D02*
X2060452Y1464825D01*
X2060452Y1476252D01*
X2049025Y1476252D01*
X2051174Y1471064D01*
X2055264Y1466974D01*
G37*
G36*
X2003548Y1476252D02*
X2003548Y1464825D01*
X2008736Y1466974D01*
X2012826Y1471064D01*
X2014975Y1476252D01*
X2003548Y1476252D01*
G37*
G36*
X1992264Y1466974D02*
X1997452Y1464825D01*
X1997452Y1476252D01*
X1986025Y1476252D01*
X1988174Y1471064D01*
X1992264Y1466974D01*
G37*
G36*
X1812548Y1476252D02*
X1812548Y1464825D01*
X1817736Y1466974D01*
X1821826Y1471064D01*
X1823975Y1476252D01*
X1812548Y1476252D01*
G37*
G36*
X1801264Y1466974D02*
X1806452Y1464825D01*
X1806452Y1476252D01*
X1795025Y1476252D01*
X1797174Y1471064D01*
X1801264Y1466974D01*
G37*
G36*
X1749548Y1476252D02*
X1749548Y1464825D01*
X1754736Y1466974D01*
X1758826Y1471064D01*
X1760975Y1476252D01*
X1749548Y1476252D01*
G37*
G36*
X1738264Y1466974D02*
X1743452Y1464825D01*
X1743452Y1476252D01*
X1732025Y1476252D01*
X1734174Y1471064D01*
X1738264Y1466974D01*
G37*
G36*
X1495048Y1476252D02*
X1495048Y1464825D01*
X1500236Y1466974D01*
X1504326Y1471064D01*
X1506475Y1476252D01*
X1495048Y1476252D01*
G37*
G36*
X1483764Y1466974D02*
X1488952Y1464825D01*
X1488952Y1476252D01*
X1477525Y1476252D01*
X1479674Y1471064D01*
X1483764Y1466974D01*
G37*
G36*
X1432048Y1476252D02*
X1432048Y1464825D01*
X1437236Y1466974D01*
X1441326Y1471064D01*
X1443475Y1476252D01*
X1432048Y1476252D01*
G37*
G36*
X1420764Y1466974D02*
X1425952Y1464825D01*
X1425952Y1476252D01*
X1414525Y1476252D01*
X1416674Y1471064D01*
X1420764Y1466974D01*
G37*
G36*
X1241048Y1476252D02*
X1241048Y1464825D01*
X1246236Y1466974D01*
X1250326Y1471064D01*
X1252475Y1476252D01*
X1241048Y1476252D01*
G37*
G36*
X1229764Y1466974D02*
X1234952Y1464825D01*
X1234952Y1476252D01*
X1223525Y1476252D01*
X1225674Y1471064D01*
X1229764Y1466974D01*
G37*
G36*
X1178048Y1476252D02*
X1178048Y1464825D01*
X1183236Y1466974D01*
X1187326Y1471064D01*
X1189475Y1476252D01*
X1178048Y1476252D01*
G37*
G36*
X1166764Y1466974D02*
X1171952Y1464825D01*
X1171952Y1476252D01*
X1160525Y1476252D01*
X1162674Y1471064D01*
X1166764Y1466974D01*
G37*
G36*
X2029199Y1433720D02*
X2034801Y1433720D01*
X2039976Y1435864D01*
X2043936Y1439824D01*
X2046080Y1444999D01*
X2046080Y1450601D01*
X2043936Y1455776D01*
X2039976Y1459736D01*
X2034801Y1461880D01*
X2029199Y1461880D01*
X2024024Y1459736D01*
X2020064Y1455776D01*
X2017920Y1450601D01*
X2017920Y1444999D01*
X2020064Y1439824D01*
X2024024Y1435864D01*
X2029199Y1433720D01*
G37*
G36*
X1775199Y1433720D02*
X1780801Y1433720D01*
X1785976Y1435864D01*
X1789936Y1439824D01*
X1792080Y1444999D01*
X1792080Y1450601D01*
X1789936Y1455776D01*
X1785976Y1459736D01*
X1780801Y1461880D01*
X1775199Y1461880D01*
X1770024Y1459736D01*
X1766064Y1455776D01*
X1763920Y1450601D01*
X1763920Y1444999D01*
X1766064Y1439824D01*
X1770024Y1435864D01*
X1775199Y1433720D01*
G37*
G36*
X1457699Y1433720D02*
X1463301Y1433720D01*
X1468476Y1435864D01*
X1472436Y1439824D01*
X1474580Y1444999D01*
X1474580Y1450601D01*
X1472436Y1455776D01*
X1468476Y1459736D01*
X1463301Y1461880D01*
X1457699Y1461880D01*
X1452524Y1459736D01*
X1448564Y1455776D01*
X1446420Y1450601D01*
X1446420Y1444999D01*
X1448564Y1439824D01*
X1452524Y1435864D01*
X1457699Y1433720D01*
G37*
G36*
X1203699Y1433720D02*
X1209301Y1433720D01*
X1214476Y1435864D01*
X1218436Y1439824D01*
X1220580Y1444999D01*
X1220580Y1450601D01*
X1218436Y1455776D01*
X1214476Y1459736D01*
X1209301Y1461880D01*
X1203699Y1461880D01*
X1198524Y1459736D01*
X1194564Y1455776D01*
X1192420Y1450601D01*
X1192420Y1444999D01*
X1194564Y1439824D01*
X1198524Y1435864D01*
X1203699Y1433720D01*
G37*
G36*
X176037Y1337338D02*
X179563Y1337338D01*
X182820Y1338687D01*
X185313Y1341180D01*
X186662Y1344437D01*
X186662Y1347963D01*
X185313Y1351220D01*
X182820Y1353713D01*
X179563Y1355062D01*
X176037Y1355062D01*
X173179Y1353878D01*
X172887Y1353820D01*
X161028Y1353820D01*
X160759Y1353869D01*
X160503Y1354030D01*
X160329Y1354279D01*
X160266Y1354576D01*
X160324Y1354874D01*
X161262Y1357137D01*
X161262Y1360663D01*
X159913Y1363920D01*
X157420Y1366413D01*
X154163Y1367762D01*
X150637Y1367762D01*
X148794Y1366999D01*
X148533Y1366941D01*
X148234Y1366990D01*
X147977Y1367151D01*
X147803Y1367400D01*
X147741Y1367697D01*
X147799Y1367994D01*
X148562Y1369837D01*
X148562Y1373363D01*
X147213Y1376620D01*
X144720Y1379113D01*
X141862Y1380297D01*
X141614Y1380462D01*
X134656Y1387420D01*
X131855Y1388580D01*
X131528Y1388580D01*
X131259Y1388630D01*
X131003Y1388791D01*
X130829Y1389040D01*
X130767Y1389336D01*
X130824Y1389634D01*
X131224Y1390600D01*
X131224Y1394125D01*
X130040Y1396984D01*
X129982Y1397275D01*
X129982Y1404822D01*
X128822Y1407622D01*
X107585Y1428860D01*
X104784Y1430020D01*
X62035Y1430020D01*
X61743Y1430078D01*
X58885Y1431262D01*
X55359Y1431262D01*
X52102Y1429913D01*
X49609Y1427420D01*
X48260Y1424163D01*
X48260Y1420637D01*
X48683Y1419616D01*
X48741Y1419348D01*
X48690Y1419049D01*
X48527Y1418794D01*
X48276Y1418622D01*
X47979Y1418562D01*
X45199Y1418562D01*
X41942Y1417213D01*
X39449Y1414720D01*
X38100Y1411463D01*
X38100Y1407937D01*
X38523Y1406916D01*
X38581Y1406648D01*
X38530Y1406349D01*
X38367Y1406094D01*
X38116Y1405922D01*
X37819Y1405862D01*
X35039Y1405862D01*
X31782Y1404513D01*
X29289Y1402020D01*
X27940Y1398763D01*
X27940Y1395237D01*
X28363Y1394216D01*
X28421Y1393948D01*
X28370Y1393649D01*
X28207Y1393394D01*
X27956Y1393222D01*
X27659Y1393162D01*
X24879Y1393162D01*
X21622Y1391813D01*
X19129Y1389320D01*
X17780Y1386063D01*
X17780Y1382537D01*
X19129Y1379280D01*
X21622Y1376787D01*
X24481Y1375603D01*
X24728Y1375438D01*
X60426Y1339740D01*
X63226Y1338580D01*
X172887Y1338580D01*
X173179Y1338522D01*
X176037Y1337338D01*
G37*
G36*
X1241048Y1419348D02*
X1252475Y1419348D01*
X1250326Y1424536D01*
X1246236Y1428626D01*
X1241048Y1430775D01*
X1241048Y1419348D01*
G37*
G36*
X2049025Y1419348D02*
X2060452Y1419348D01*
X2060452Y1430775D01*
X2055264Y1428626D01*
X2051174Y1424536D01*
X2049025Y1419348D01*
G37*
G36*
X1160525Y1419348D02*
X1171952Y1419348D01*
X1171952Y1430775D01*
X1166764Y1428626D01*
X1162674Y1424536D01*
X1160525Y1419348D01*
G37*
G36*
X1178048Y1419348D02*
X1189475Y1419348D01*
X1187326Y1424536D01*
X1183236Y1428626D01*
X1178048Y1430775D01*
X1178048Y1419348D01*
G37*
G36*
X1223525Y1419348D02*
X1234952Y1419348D01*
X1234952Y1430775D01*
X1229764Y1428626D01*
X1225674Y1424536D01*
X1223525Y1419348D01*
G37*
G36*
X2066548Y1419348D02*
X2077975Y1419348D01*
X2075826Y1424536D01*
X2071736Y1428626D01*
X2066548Y1430775D01*
X2066548Y1419348D01*
G37*
G36*
X1414525Y1419348D02*
X1425952Y1419348D01*
X1425952Y1430775D01*
X1420764Y1428626D01*
X1416674Y1424536D01*
X1414525Y1419348D01*
G37*
G36*
X1432048Y1419348D02*
X1443475Y1419348D01*
X1441326Y1424536D01*
X1437236Y1428626D01*
X1432048Y1430775D01*
X1432048Y1419348D01*
G37*
G36*
X1477525Y1419348D02*
X1488952Y1419348D01*
X1488952Y1430775D01*
X1483764Y1428626D01*
X1479674Y1424536D01*
X1477525Y1419348D01*
G37*
G36*
X1495048Y1419348D02*
X1506475Y1419348D01*
X1504326Y1424536D01*
X1500236Y1428626D01*
X1495048Y1430775D01*
X1495048Y1419348D01*
G37*
G36*
X1732025Y1419348D02*
X1743452Y1419348D01*
X1743452Y1430775D01*
X1738264Y1428626D01*
X1734174Y1424536D01*
X1732025Y1419348D01*
G37*
G36*
X1749548Y1419348D02*
X1760975Y1419348D01*
X1758826Y1424536D01*
X1754736Y1428626D01*
X1749548Y1430775D01*
X1749548Y1419348D01*
G37*
G36*
X1795025Y1419348D02*
X1806452Y1419348D01*
X1806452Y1430775D01*
X1801264Y1428626D01*
X1797174Y1424536D01*
X1795025Y1419348D01*
G37*
G36*
X1812548Y1419348D02*
X1823975Y1419348D01*
X1821826Y1424536D01*
X1817736Y1428626D01*
X1812548Y1430775D01*
X1812548Y1419348D01*
G37*
G36*
X1986025Y1419348D02*
X1997452Y1419348D01*
X1997452Y1430775D01*
X1992264Y1428626D01*
X1988174Y1424536D01*
X1986025Y1419348D01*
G37*
G36*
X2003548Y1419348D02*
X2014975Y1419348D01*
X2012826Y1424536D01*
X2008736Y1428626D01*
X2003548Y1430775D01*
X2003548Y1419348D01*
G37*
G36*
X2003548Y1413252D02*
X2003548Y1401825D01*
X2008736Y1403974D01*
X2012826Y1408064D01*
X2014975Y1413252D01*
X2003548Y1413252D01*
G37*
G36*
X2055264Y1403974D02*
X2060452Y1401825D01*
X2060452Y1413252D01*
X2049025Y1413252D01*
X2051174Y1408064D01*
X2055264Y1403974D01*
G37*
G36*
X2066548Y1413252D02*
X2066548Y1401825D01*
X2071736Y1403974D01*
X2075826Y1408064D01*
X2077975Y1413252D01*
X2066548Y1413252D01*
G37*
G36*
X1992264Y1403974D02*
X1997452Y1401825D01*
X1997452Y1413252D01*
X1986025Y1413252D01*
X1988174Y1408064D01*
X1992264Y1403974D01*
G37*
G36*
X1812548Y1413252D02*
X1812548Y1401825D01*
X1817736Y1403974D01*
X1821826Y1408064D01*
X1823975Y1413252D01*
X1812548Y1413252D01*
G37*
G36*
X1801264Y1403974D02*
X1806452Y1401825D01*
X1806452Y1413252D01*
X1795025Y1413252D01*
X1797174Y1408064D01*
X1801264Y1403974D01*
G37*
G36*
X1749548Y1413252D02*
X1749548Y1401825D01*
X1754736Y1403974D01*
X1758826Y1408064D01*
X1760975Y1413252D01*
X1749548Y1413252D01*
G37*
G36*
X1738264Y1403974D02*
X1743452Y1401825D01*
X1743452Y1413252D01*
X1732025Y1413252D01*
X1734174Y1408064D01*
X1738264Y1403974D01*
G37*
G36*
X1495048Y1413252D02*
X1495048Y1401825D01*
X1500236Y1403974D01*
X1504326Y1408064D01*
X1506475Y1413252D01*
X1495048Y1413252D01*
G37*
G36*
X1483764Y1403974D02*
X1488952Y1401825D01*
X1488952Y1413252D01*
X1477525Y1413252D01*
X1479674Y1408064D01*
X1483764Y1403974D01*
G37*
G36*
X1432048Y1413252D02*
X1432048Y1401825D01*
X1437236Y1403974D01*
X1441326Y1408064D01*
X1443475Y1413252D01*
X1432048Y1413252D01*
G37*
G36*
X1420764Y1403974D02*
X1425952Y1401825D01*
X1425952Y1413252D01*
X1414525Y1413252D01*
X1416674Y1408064D01*
X1420764Y1403974D01*
G37*
G36*
X1241048Y1413252D02*
X1241048Y1401825D01*
X1246236Y1403974D01*
X1250326Y1408064D01*
X1252475Y1413252D01*
X1241048Y1413252D01*
G37*
G36*
X1229764Y1403974D02*
X1234952Y1401825D01*
X1234952Y1413252D01*
X1223525Y1413252D01*
X1225674Y1408064D01*
X1229764Y1403974D01*
G37*
G36*
X1178048Y1413252D02*
X1178048Y1401825D01*
X1183236Y1403974D01*
X1187326Y1408064D01*
X1189475Y1413252D01*
X1178048Y1413252D01*
G37*
G36*
X1166764Y1403974D02*
X1171952Y1401825D01*
X1171952Y1413252D01*
X1160525Y1413252D01*
X1162674Y1408064D01*
X1166764Y1403974D01*
G37*
G36*
X442737Y1375438D02*
X446263Y1375438D01*
X449121Y1376622D01*
X449413Y1376680D01*
X591987Y1376680D01*
X592279Y1376622D01*
X595137Y1375438D01*
X598663Y1375438D01*
X601920Y1376787D01*
X604413Y1379280D01*
X605762Y1382537D01*
X605762Y1386063D01*
X604413Y1389320D01*
X601920Y1391813D01*
X598663Y1393162D01*
X595137Y1393162D01*
X592279Y1391978D01*
X591987Y1391920D01*
X449413Y1391920D01*
X449121Y1391978D01*
X446263Y1393162D01*
X442737Y1393162D01*
X439480Y1391813D01*
X436987Y1389320D01*
X435638Y1386063D01*
X435638Y1382537D01*
X436987Y1379280D01*
X439480Y1376787D01*
X442737Y1375438D01*
G37*
G36*
X853876Y1346200D02*
X873324Y1346200D01*
X876300Y1349176D01*
X876300Y1352543D01*
X876345Y1352801D01*
X876502Y1353060D01*
X876748Y1353237D01*
X877044Y1353305D01*
X877342Y1353252D01*
X877597Y1353086D01*
X877766Y1352835D01*
X878233Y1351706D01*
X881806Y1348133D01*
X886474Y1346200D01*
X891526Y1346200D01*
X896194Y1348133D01*
X899767Y1351706D01*
X900996Y1354674D01*
X901140Y1354900D01*
X901386Y1355077D01*
X901682Y1355144D01*
X901980Y1355091D01*
X902235Y1354926D01*
X902404Y1354674D01*
X903633Y1351706D01*
X907206Y1348133D01*
X911874Y1346200D01*
X916926Y1346200D01*
X921594Y1348133D01*
X925167Y1351706D01*
X927100Y1356374D01*
X927100Y1361426D01*
X925167Y1366094D01*
X921594Y1369667D01*
X916926Y1371600D01*
X911874Y1371600D01*
X907206Y1369667D01*
X903633Y1366094D01*
X902404Y1363126D01*
X902260Y1362900D01*
X902014Y1362723D01*
X901718Y1362656D01*
X901420Y1362709D01*
X901166Y1362874D01*
X900996Y1363126D01*
X899767Y1366094D01*
X896194Y1369667D01*
X891526Y1371600D01*
X886474Y1371600D01*
X881806Y1369667D01*
X878233Y1366094D01*
X877766Y1364965D01*
X877626Y1364745D01*
X877381Y1364565D01*
X877086Y1364495D01*
X876787Y1364546D01*
X876532Y1364710D01*
X876360Y1364960D01*
X876300Y1365257D01*
X876300Y1368624D01*
X873324Y1371600D01*
X853876Y1371600D01*
X850900Y1368624D01*
X850900Y1349176D01*
X853876Y1346200D01*
G37*
G36*
X218876Y1333500D02*
X238324Y1333500D01*
X241300Y1336476D01*
X241300Y1339843D01*
X241345Y1340101D01*
X241502Y1340360D01*
X241748Y1340537D01*
X242044Y1340605D01*
X242342Y1340552D01*
X242597Y1340386D01*
X242766Y1340135D01*
X243233Y1339006D01*
X246806Y1335433D01*
X251474Y1333500D01*
X256526Y1333500D01*
X261194Y1335433D01*
X264767Y1339006D01*
X265996Y1341974D01*
X266140Y1342200D01*
X266386Y1342377D01*
X266682Y1342444D01*
X266980Y1342391D01*
X267235Y1342226D01*
X267404Y1341974D01*
X268633Y1339006D01*
X272206Y1335433D01*
X276874Y1333500D01*
X281926Y1333500D01*
X286594Y1335433D01*
X290167Y1339006D01*
X292100Y1343674D01*
X292100Y1348726D01*
X290167Y1353394D01*
X286594Y1356967D01*
X281926Y1358900D01*
X276874Y1358900D01*
X272206Y1356967D01*
X268633Y1353394D01*
X267404Y1350426D01*
X267260Y1350200D01*
X267014Y1350023D01*
X266718Y1349956D01*
X266420Y1350009D01*
X266166Y1350174D01*
X265996Y1350426D01*
X264767Y1353394D01*
X261194Y1356967D01*
X256526Y1358900D01*
X251474Y1358900D01*
X246806Y1356967D01*
X243233Y1353394D01*
X242766Y1352265D01*
X242626Y1352045D01*
X242381Y1351865D01*
X242086Y1351795D01*
X241787Y1351846D01*
X241532Y1352010D01*
X241360Y1352260D01*
X241300Y1352557D01*
X241300Y1355924D01*
X238324Y1358900D01*
X218876Y1358900D01*
X215900Y1355924D01*
X215900Y1336476D01*
X218876Y1333500D01*
G37*
G36*
X607837Y1261138D02*
X611363Y1261138D01*
X614620Y1262487D01*
X617113Y1264980D01*
X618462Y1268237D01*
X618462Y1271763D01*
X617113Y1275020D01*
X614620Y1277513D01*
X611762Y1278697D01*
X611514Y1278862D01*
X550416Y1339960D01*
X547616Y1341120D01*
X411313Y1341120D01*
X411021Y1341178D01*
X408163Y1342362D01*
X404637Y1342362D01*
X401380Y1341013D01*
X398887Y1338520D01*
X397538Y1335263D01*
X397538Y1331737D01*
X398887Y1328480D01*
X401380Y1325987D01*
X404637Y1324638D01*
X408163Y1324638D01*
X411021Y1325822D01*
X411313Y1325880D01*
X542628Y1325880D01*
X542914Y1325824D01*
X543167Y1325657D01*
X600738Y1268086D01*
X600903Y1267839D01*
X602087Y1264980D01*
X604580Y1262487D01*
X607837Y1261138D01*
G37*
G36*
X1865137Y1286538D02*
X1868663Y1286538D01*
X1871521Y1287722D01*
X1871813Y1287780D01*
X1925487Y1287780D01*
X1925779Y1287722D01*
X1928637Y1286538D01*
X1932163Y1286538D01*
X1935420Y1287887D01*
X1937913Y1290380D01*
X1939262Y1293637D01*
X1939262Y1297163D01*
X1937913Y1300420D01*
X1935420Y1302913D01*
X1932163Y1304262D01*
X1928637Y1304262D01*
X1925779Y1303078D01*
X1925487Y1303020D01*
X1871813Y1303020D01*
X1871521Y1303078D01*
X1868663Y1304262D01*
X1865137Y1304262D01*
X1861880Y1302913D01*
X1859387Y1300420D01*
X1858038Y1297163D01*
X1858038Y1293637D01*
X1859387Y1290380D01*
X1861880Y1287887D01*
X1865137Y1286538D01*
G37*
G36*
X835668Y1130270D02*
X840732Y1130270D01*
X845411Y1132208D01*
X848992Y1135789D01*
X850930Y1140468D01*
X850930Y1145532D01*
X848992Y1150211D01*
X845411Y1153792D01*
X842504Y1154996D01*
X842279Y1155140D01*
X842101Y1155386D01*
X842034Y1155682D01*
X842087Y1155980D01*
X842253Y1156235D01*
X842504Y1156404D01*
X845411Y1157608D01*
X848992Y1161189D01*
X850930Y1165868D01*
X850930Y1170932D01*
X848992Y1175611D01*
X845411Y1179192D01*
X842504Y1180396D01*
X842279Y1180540D01*
X842101Y1180786D01*
X842034Y1181082D01*
X842087Y1181380D01*
X842253Y1181635D01*
X842504Y1181804D01*
X845411Y1183008D01*
X848992Y1186589D01*
X850930Y1191268D01*
X850930Y1196332D01*
X848992Y1201011D01*
X845411Y1204592D01*
X842504Y1205796D01*
X842279Y1205940D01*
X842101Y1206186D01*
X842034Y1206482D01*
X842087Y1206780D01*
X842253Y1207035D01*
X842504Y1207204D01*
X845411Y1208408D01*
X848992Y1211989D01*
X850930Y1216668D01*
X850930Y1221732D01*
X848992Y1226411D01*
X845411Y1229992D01*
X842504Y1231196D01*
X842279Y1231340D01*
X842101Y1231586D01*
X842034Y1231882D01*
X842087Y1232180D01*
X842253Y1232435D01*
X842504Y1232604D01*
X845411Y1233808D01*
X848992Y1237389D01*
X850930Y1242068D01*
X850930Y1247132D01*
X848992Y1251811D01*
X845411Y1255392D01*
X842504Y1256596D01*
X842279Y1256740D01*
X842101Y1256986D01*
X842034Y1257282D01*
X842087Y1257580D01*
X842253Y1257835D01*
X842504Y1258004D01*
X845411Y1259208D01*
X848992Y1262789D01*
X850930Y1267468D01*
X850930Y1272532D01*
X848992Y1277211D01*
X845411Y1280792D01*
X840732Y1282730D01*
X835668Y1282730D01*
X830989Y1280792D01*
X827408Y1277211D01*
X826996Y1276216D01*
X826856Y1275995D01*
X826611Y1275816D01*
X826316Y1275746D01*
X826017Y1275797D01*
X825762Y1275961D01*
X825590Y1276211D01*
X825530Y1276508D01*
X825530Y1279754D01*
X822554Y1282730D01*
X803046Y1282730D01*
X800070Y1279754D01*
X800070Y1260246D01*
X803046Y1257270D01*
X806292Y1257270D01*
X806550Y1257225D01*
X806809Y1257068D01*
X806987Y1256822D01*
X807054Y1256526D01*
X807001Y1256228D01*
X806835Y1255974D01*
X806584Y1255804D01*
X805589Y1255392D01*
X802008Y1251811D01*
X800070Y1247132D01*
X800070Y1242068D01*
X802008Y1237389D01*
X805589Y1233808D01*
X808496Y1232604D01*
X808721Y1232460D01*
X808899Y1232214D01*
X808966Y1231918D01*
X808913Y1231620D01*
X808747Y1231366D01*
X808496Y1231196D01*
X805589Y1229992D01*
X802008Y1226411D01*
X800070Y1221732D01*
X800070Y1216668D01*
X802008Y1211989D01*
X805589Y1208408D01*
X808496Y1207204D01*
X808721Y1207060D01*
X808899Y1206814D01*
X808966Y1206518D01*
X808913Y1206220D01*
X808747Y1205966D01*
X808496Y1205796D01*
X805589Y1204592D01*
X802008Y1201011D01*
X800070Y1196332D01*
X800070Y1191268D01*
X802008Y1186589D01*
X805589Y1183008D01*
X808496Y1181804D01*
X808721Y1181660D01*
X808899Y1181414D01*
X808966Y1181118D01*
X808913Y1180820D01*
X808747Y1180566D01*
X808496Y1180396D01*
X805589Y1179192D01*
X802008Y1175611D01*
X800070Y1170932D01*
X800070Y1165868D01*
X802008Y1161189D01*
X805589Y1157608D01*
X810268Y1155670D01*
X815332Y1155670D01*
X820011Y1157608D01*
X823592Y1161189D01*
X824796Y1164096D01*
X824940Y1164321D01*
X825186Y1164499D01*
X825482Y1164566D01*
X825780Y1164513D01*
X826035Y1164347D01*
X826204Y1164096D01*
X827408Y1161189D01*
X830989Y1157608D01*
X833896Y1156404D01*
X834121Y1156260D01*
X834299Y1156014D01*
X834366Y1155718D01*
X834313Y1155420D01*
X834147Y1155166D01*
X833896Y1154996D01*
X830989Y1153792D01*
X827408Y1150211D01*
X825470Y1145532D01*
X825470Y1140468D01*
X827408Y1135789D01*
X830989Y1132208D01*
X835668Y1130270D01*
G37*
G36*
X1171376Y1257300D02*
X1190824Y1257300D01*
X1193800Y1260276D01*
X1193800Y1263643D01*
X1193845Y1263901D01*
X1194002Y1264160D01*
X1194248Y1264337D01*
X1194544Y1264405D01*
X1194842Y1264352D01*
X1195097Y1264186D01*
X1195266Y1263935D01*
X1195733Y1262806D01*
X1199306Y1259233D01*
X1203974Y1257300D01*
X1209026Y1257300D01*
X1213694Y1259233D01*
X1217267Y1262806D01*
X1218496Y1265774D01*
X1218640Y1266000D01*
X1218886Y1266177D01*
X1219182Y1266244D01*
X1219480Y1266191D01*
X1219735Y1266026D01*
X1219904Y1265774D01*
X1221133Y1262806D01*
X1224706Y1259233D01*
X1229374Y1257300D01*
X1234426Y1257300D01*
X1239094Y1259233D01*
X1242667Y1262806D01*
X1244600Y1267474D01*
X1244600Y1272526D01*
X1242667Y1277194D01*
X1239094Y1280767D01*
X1234426Y1282700D01*
X1229374Y1282700D01*
X1224706Y1280767D01*
X1221133Y1277194D01*
X1219904Y1274226D01*
X1219760Y1274000D01*
X1219514Y1273823D01*
X1219218Y1273756D01*
X1218920Y1273809D01*
X1218666Y1273974D01*
X1218496Y1274226D01*
X1217267Y1277194D01*
X1213694Y1280767D01*
X1209026Y1282700D01*
X1203974Y1282700D01*
X1199306Y1280767D01*
X1195733Y1277194D01*
X1195266Y1276065D01*
X1195126Y1275845D01*
X1194881Y1275665D01*
X1194586Y1275595D01*
X1194287Y1275646D01*
X1194032Y1275810D01*
X1193860Y1276060D01*
X1193800Y1276357D01*
X1193800Y1279724D01*
X1190824Y1282700D01*
X1171376Y1282700D01*
X1168400Y1279724D01*
X1168400Y1260276D01*
X1171376Y1257300D01*
G37*
G36*
X1425376Y1257300D02*
X1444824Y1257300D01*
X1447800Y1260276D01*
X1447800Y1263643D01*
X1447845Y1263901D01*
X1448002Y1264160D01*
X1448248Y1264337D01*
X1448544Y1264405D01*
X1448842Y1264352D01*
X1449097Y1264186D01*
X1449266Y1263935D01*
X1449733Y1262806D01*
X1453306Y1259233D01*
X1457974Y1257300D01*
X1463026Y1257300D01*
X1467694Y1259233D01*
X1471267Y1262806D01*
X1472496Y1265774D01*
X1472640Y1266000D01*
X1472886Y1266177D01*
X1473182Y1266244D01*
X1473480Y1266191D01*
X1473735Y1266026D01*
X1473904Y1265774D01*
X1475133Y1262806D01*
X1478706Y1259233D01*
X1483374Y1257300D01*
X1488426Y1257300D01*
X1493094Y1259233D01*
X1496667Y1262806D01*
X1498600Y1267474D01*
X1498600Y1272526D01*
X1496667Y1277194D01*
X1493094Y1280767D01*
X1488426Y1282700D01*
X1483374Y1282700D01*
X1478706Y1280767D01*
X1475133Y1277194D01*
X1473904Y1274226D01*
X1473760Y1274000D01*
X1473514Y1273823D01*
X1473218Y1273756D01*
X1472920Y1273809D01*
X1472666Y1273974D01*
X1472496Y1274226D01*
X1471267Y1277194D01*
X1467694Y1280767D01*
X1463026Y1282700D01*
X1457974Y1282700D01*
X1453306Y1280767D01*
X1449733Y1277194D01*
X1449266Y1276065D01*
X1449126Y1275845D01*
X1448881Y1275665D01*
X1448586Y1275595D01*
X1448287Y1275646D01*
X1448032Y1275810D01*
X1447860Y1276060D01*
X1447800Y1276357D01*
X1447800Y1279724D01*
X1444824Y1282700D01*
X1425376Y1282700D01*
X1422400Y1279724D01*
X1422400Y1260276D01*
X1425376Y1257300D01*
G37*
G36*
X307746Y1181070D02*
X327254Y1181070D01*
X330230Y1184046D01*
X330230Y1187292D01*
X330275Y1187550D01*
X330432Y1187809D01*
X330678Y1187987D01*
X330974Y1188054D01*
X331272Y1188001D01*
X331527Y1187835D01*
X331696Y1187584D01*
X332108Y1186589D01*
X335689Y1183008D01*
X340368Y1181070D01*
X345432Y1181070D01*
X350111Y1183008D01*
X353692Y1186589D01*
X354896Y1189496D01*
X355040Y1189721D01*
X355286Y1189899D01*
X355582Y1189966D01*
X355880Y1189913D01*
X356135Y1189747D01*
X356304Y1189496D01*
X357508Y1186589D01*
X361089Y1183008D01*
X365768Y1181070D01*
X370832Y1181070D01*
X375511Y1183008D01*
X379092Y1186589D01*
X380296Y1189496D01*
X380440Y1189721D01*
X380686Y1189899D01*
X380982Y1189966D01*
X381280Y1189913D01*
X381535Y1189747D01*
X381704Y1189496D01*
X382908Y1186589D01*
X386489Y1183008D01*
X391168Y1181070D01*
X396232Y1181070D01*
X400911Y1183008D01*
X404492Y1186589D01*
X405696Y1189496D01*
X405840Y1189721D01*
X406086Y1189899D01*
X406382Y1189966D01*
X406680Y1189913D01*
X406935Y1189747D01*
X407104Y1189496D01*
X408308Y1186589D01*
X411889Y1183008D01*
X416568Y1181070D01*
X421632Y1181070D01*
X426311Y1183008D01*
X429892Y1186589D01*
X431096Y1189496D01*
X431240Y1189721D01*
X431486Y1189899D01*
X431782Y1189966D01*
X432080Y1189913D01*
X432335Y1189747D01*
X432504Y1189496D01*
X433708Y1186589D01*
X437289Y1183008D01*
X441968Y1181070D01*
X447032Y1181070D01*
X451711Y1183008D01*
X455292Y1186589D01*
X457230Y1191268D01*
X457230Y1196332D01*
X455292Y1201011D01*
X451711Y1204592D01*
X448804Y1205796D01*
X448579Y1205940D01*
X448401Y1206186D01*
X448334Y1206482D01*
X448387Y1206780D01*
X448553Y1207035D01*
X448804Y1207204D01*
X451711Y1208408D01*
X455292Y1211989D01*
X457230Y1216668D01*
X457230Y1221732D01*
X455292Y1226411D01*
X451711Y1229992D01*
X447032Y1231930D01*
X441968Y1231930D01*
X437289Y1229992D01*
X433708Y1226411D01*
X432504Y1223504D01*
X432360Y1223279D01*
X432114Y1223101D01*
X431818Y1223034D01*
X431520Y1223087D01*
X431266Y1223253D01*
X431096Y1223504D01*
X429892Y1226411D01*
X426311Y1229992D01*
X421632Y1231930D01*
X416568Y1231930D01*
X411889Y1229992D01*
X408308Y1226411D01*
X407104Y1223504D01*
X406960Y1223279D01*
X406714Y1223101D01*
X406418Y1223034D01*
X406120Y1223087D01*
X405866Y1223253D01*
X405696Y1223504D01*
X404492Y1226411D01*
X400911Y1229992D01*
X396232Y1231930D01*
X391168Y1231930D01*
X386489Y1229992D01*
X382908Y1226411D01*
X381704Y1223504D01*
X381560Y1223279D01*
X381314Y1223101D01*
X381018Y1223034D01*
X380720Y1223087D01*
X380466Y1223253D01*
X380296Y1223504D01*
X379092Y1226411D01*
X375511Y1229992D01*
X370832Y1231930D01*
X365768Y1231930D01*
X361089Y1229992D01*
X357508Y1226411D01*
X356304Y1223504D01*
X356160Y1223279D01*
X355914Y1223101D01*
X355618Y1223034D01*
X355320Y1223087D01*
X355066Y1223253D01*
X354896Y1223504D01*
X353692Y1226411D01*
X350111Y1229992D01*
X345432Y1231930D01*
X340368Y1231930D01*
X335689Y1229992D01*
X332108Y1226411D01*
X330170Y1221732D01*
X330170Y1216668D01*
X332108Y1211989D01*
X335689Y1208408D01*
X338596Y1207204D01*
X338821Y1207060D01*
X338999Y1206814D01*
X339066Y1206518D01*
X339013Y1206220D01*
X338847Y1205966D01*
X338596Y1205796D01*
X335689Y1204592D01*
X332108Y1201011D01*
X331696Y1200016D01*
X331556Y1199795D01*
X331311Y1199616D01*
X331016Y1199546D01*
X330717Y1199597D01*
X330462Y1199761D01*
X330290Y1200011D01*
X330230Y1200308D01*
X330230Y1203554D01*
X327254Y1206530D01*
X307746Y1206530D01*
X304770Y1203554D01*
X304770Y1184046D01*
X307746Y1181070D01*
G37*
G36*
X53746Y1181070D02*
X73254Y1181070D01*
X76230Y1184046D01*
X76230Y1187292D01*
X76275Y1187550D01*
X76432Y1187809D01*
X76678Y1187987D01*
X76974Y1188054D01*
X77272Y1188001D01*
X77527Y1187835D01*
X77696Y1187584D01*
X78108Y1186589D01*
X81689Y1183008D01*
X86368Y1181070D01*
X91432Y1181070D01*
X96111Y1183008D01*
X99692Y1186589D01*
X100896Y1189496D01*
X101040Y1189721D01*
X101286Y1189899D01*
X101582Y1189966D01*
X101880Y1189913D01*
X102135Y1189747D01*
X102304Y1189496D01*
X103508Y1186589D01*
X107089Y1183008D01*
X111768Y1181070D01*
X116832Y1181070D01*
X121511Y1183008D01*
X125092Y1186589D01*
X126296Y1189496D01*
X126440Y1189721D01*
X126686Y1189899D01*
X126982Y1189966D01*
X127280Y1189913D01*
X127535Y1189747D01*
X127704Y1189496D01*
X128908Y1186589D01*
X132489Y1183008D01*
X137168Y1181070D01*
X142232Y1181070D01*
X146911Y1183008D01*
X150492Y1186589D01*
X151696Y1189496D01*
X151840Y1189721D01*
X152086Y1189899D01*
X152382Y1189966D01*
X152680Y1189913D01*
X152935Y1189747D01*
X153104Y1189496D01*
X154308Y1186589D01*
X157889Y1183008D01*
X162568Y1181070D01*
X167632Y1181070D01*
X172311Y1183008D01*
X175892Y1186589D01*
X177096Y1189496D01*
X177240Y1189721D01*
X177486Y1189899D01*
X177782Y1189966D01*
X178080Y1189913D01*
X178335Y1189747D01*
X178504Y1189496D01*
X179708Y1186589D01*
X183289Y1183008D01*
X187968Y1181070D01*
X193032Y1181070D01*
X197711Y1183008D01*
X201292Y1186589D01*
X203230Y1191268D01*
X203230Y1196332D01*
X201292Y1201011D01*
X197711Y1204592D01*
X194804Y1205796D01*
X194579Y1205940D01*
X194401Y1206186D01*
X194334Y1206482D01*
X194387Y1206780D01*
X194553Y1207035D01*
X194804Y1207204D01*
X197711Y1208408D01*
X201292Y1211989D01*
X203230Y1216668D01*
X203230Y1221732D01*
X201292Y1226411D01*
X197711Y1229992D01*
X193032Y1231930D01*
X187968Y1231930D01*
X183289Y1229992D01*
X179708Y1226411D01*
X178504Y1223504D01*
X178360Y1223279D01*
X178114Y1223101D01*
X177818Y1223034D01*
X177520Y1223087D01*
X177266Y1223253D01*
X177096Y1223504D01*
X175892Y1226411D01*
X172311Y1229992D01*
X167632Y1231930D01*
X162568Y1231930D01*
X157889Y1229992D01*
X154308Y1226411D01*
X153104Y1223504D01*
X152960Y1223279D01*
X152714Y1223101D01*
X152418Y1223034D01*
X152120Y1223087D01*
X151866Y1223253D01*
X151696Y1223504D01*
X150492Y1226411D01*
X146911Y1229992D01*
X142232Y1231930D01*
X137168Y1231930D01*
X132489Y1229992D01*
X128908Y1226411D01*
X127704Y1223504D01*
X127560Y1223279D01*
X127314Y1223101D01*
X127018Y1223034D01*
X126720Y1223087D01*
X126466Y1223253D01*
X126296Y1223504D01*
X125092Y1226411D01*
X121511Y1229992D01*
X116832Y1231930D01*
X111768Y1231930D01*
X107089Y1229992D01*
X103508Y1226411D01*
X102304Y1223504D01*
X102160Y1223279D01*
X101914Y1223101D01*
X101618Y1223034D01*
X101320Y1223087D01*
X101066Y1223253D01*
X100896Y1223504D01*
X99692Y1226411D01*
X96111Y1229992D01*
X91432Y1231930D01*
X86368Y1231930D01*
X81689Y1229992D01*
X78108Y1226411D01*
X76170Y1221732D01*
X76170Y1216668D01*
X78108Y1211989D01*
X81689Y1208408D01*
X84596Y1207204D01*
X84821Y1207060D01*
X84999Y1206814D01*
X85066Y1206518D01*
X85013Y1206220D01*
X84847Y1205966D01*
X84596Y1205796D01*
X81689Y1204592D01*
X78108Y1201011D01*
X77696Y1200016D01*
X77556Y1199795D01*
X77311Y1199616D01*
X77016Y1199546D01*
X76717Y1199597D01*
X76462Y1199761D01*
X76290Y1200011D01*
X76230Y1200308D01*
X76230Y1203554D01*
X73254Y1206530D01*
X53746Y1206530D01*
X50770Y1203554D01*
X50770Y1184046D01*
X53746Y1181070D01*
G37*
G36*
X53733Y1222248D02*
X60452Y1222248D01*
X60452Y1228967D01*
X57728Y1227839D01*
X54861Y1224972D01*
X53733Y1222248D01*
G37*
G36*
X61473Y1209010D02*
X65527Y1209010D01*
X69272Y1210561D01*
X72139Y1213428D01*
X73690Y1217173D01*
X73690Y1221227D01*
X72139Y1224972D01*
X69272Y1227839D01*
X66548Y1228967D01*
X66548Y1216152D01*
X53733Y1216152D01*
X54861Y1213428D01*
X57728Y1210561D01*
X61473Y1209010D01*
G37*
G36*
X307733Y1222248D02*
X314452Y1222248D01*
X314452Y1228967D01*
X311728Y1227839D01*
X308861Y1224972D01*
X307733Y1222248D01*
G37*
G36*
X315473Y1209010D02*
X319527Y1209010D01*
X323272Y1210561D01*
X326139Y1213428D01*
X327690Y1217173D01*
X327690Y1221227D01*
X326139Y1224972D01*
X323272Y1227839D01*
X320548Y1228967D01*
X320548Y1216152D01*
X307733Y1216152D01*
X308861Y1213428D01*
X311728Y1210561D01*
X315473Y1209010D01*
G37*
G36*
X1014237Y1134138D02*
X1017763Y1134138D01*
X1020621Y1135322D01*
X1020913Y1135380D01*
X1620687Y1135380D01*
X1620979Y1135322D01*
X1623837Y1134138D01*
X1627363Y1134138D01*
X1630620Y1135487D01*
X1633113Y1137980D01*
X1634462Y1141237D01*
X1634462Y1144763D01*
X1633113Y1148020D01*
X1632322Y1148811D01*
X1632164Y1149042D01*
X1632099Y1149338D01*
X1632154Y1149636D01*
X1632322Y1149889D01*
X1633113Y1150680D01*
X1634462Y1153937D01*
X1634462Y1157463D01*
X1633113Y1160720D01*
X1632322Y1161511D01*
X1632164Y1161742D01*
X1632099Y1162038D01*
X1632154Y1162336D01*
X1632322Y1162589D01*
X1633113Y1163380D01*
X1634462Y1166637D01*
X1634462Y1170163D01*
X1633113Y1173420D01*
X1631701Y1174832D01*
X1631543Y1175063D01*
X1631478Y1175359D01*
X1631533Y1175657D01*
X1631701Y1175910D01*
X1633113Y1177322D01*
X1634462Y1180579D01*
X1634462Y1184105D01*
X1633113Y1187362D01*
X1630620Y1189855D01*
X1627363Y1191204D01*
X1623837Y1191204D01*
X1620979Y1190020D01*
X1620687Y1189962D01*
X1026748Y1189962D01*
X1026462Y1190018D01*
X1026209Y1190185D01*
X1024401Y1191994D01*
X1021144Y1193343D01*
X1017618Y1193343D01*
X1014361Y1191994D01*
X1011868Y1189501D01*
X1010519Y1186244D01*
X1010519Y1182718D01*
X1011868Y1179461D01*
X1012659Y1178670D01*
X1012817Y1178439D01*
X1012882Y1178143D01*
X1012827Y1177845D01*
X1012659Y1177592D01*
X1011034Y1175967D01*
X1009685Y1172709D01*
X1009685Y1169184D01*
X1011034Y1165927D01*
X1011825Y1165136D01*
X1011983Y1164905D01*
X1012048Y1164609D01*
X1011993Y1164311D01*
X1011825Y1164058D01*
X1010200Y1162432D01*
X1008850Y1159175D01*
X1008850Y1155650D01*
X1010200Y1152393D01*
X1010991Y1151601D01*
X1011149Y1151371D01*
X1011214Y1151075D01*
X1011158Y1150776D01*
X1010991Y1150524D01*
X1008487Y1148020D01*
X1007138Y1144763D01*
X1007138Y1141237D01*
X1008487Y1137980D01*
X1010980Y1135487D01*
X1014237Y1134138D01*
G37*
G36*
X87137Y1032538D02*
X90663Y1032538D01*
X93920Y1033887D01*
X96413Y1036380D01*
X97762Y1039637D01*
X97762Y1043163D01*
X96578Y1046021D01*
X96520Y1046313D01*
X96520Y1150787D01*
X96578Y1151079D01*
X97762Y1153937D01*
X97762Y1157463D01*
X96413Y1160720D01*
X93920Y1163213D01*
X90663Y1164562D01*
X87137Y1164562D01*
X83880Y1163213D01*
X81387Y1160720D01*
X80038Y1157463D01*
X80038Y1153937D01*
X81222Y1151079D01*
X81280Y1150787D01*
X81280Y1046313D01*
X81222Y1046021D01*
X80038Y1043163D01*
X80038Y1039637D01*
X81387Y1036380D01*
X83880Y1033887D01*
X87137Y1032538D01*
G37*
G36*
X815848Y1146048D02*
X815848Y1133233D01*
X818572Y1134361D01*
X821439Y1137228D01*
X822990Y1140973D01*
X822990Y1145027D01*
X821439Y1148772D01*
X818572Y1151639D01*
X814827Y1153190D01*
X810773Y1153190D01*
X807028Y1151639D01*
X804161Y1148772D01*
X803033Y1146048D01*
X815848Y1146048D01*
G37*
G36*
X807028Y1134361D02*
X809752Y1133233D01*
X809752Y1139952D01*
X803033Y1139952D01*
X804161Y1137228D01*
X807028Y1134361D01*
G37*
G36*
X351291Y979191D02*
X354816Y979191D01*
X358073Y980540D01*
X360566Y983033D01*
X361750Y985892D01*
X361915Y986139D01*
X362060Y986284D01*
X363220Y989084D01*
X363220Y1087287D01*
X363278Y1087579D01*
X364462Y1090437D01*
X364462Y1093963D01*
X363113Y1097220D01*
X360620Y1099713D01*
X357363Y1101062D01*
X353837Y1101062D01*
X350580Y1099713D01*
X348087Y1097220D01*
X346738Y1093963D01*
X346738Y1090437D01*
X347922Y1087579D01*
X347980Y1087287D01*
X347980Y995828D01*
X347924Y995542D01*
X347757Y995290D01*
X345540Y993073D01*
X344191Y989816D01*
X344191Y986291D01*
X345540Y983033D01*
X348033Y980540D01*
X351291Y979191D01*
G37*
G36*
X1293637Y600738D02*
X1297163Y600738D01*
X1300420Y602087D01*
X1302913Y604580D01*
X1304262Y607837D01*
X1304262Y611363D01*
X1303078Y614221D01*
X1303020Y614513D01*
X1303020Y680887D01*
X1303078Y681179D01*
X1304262Y684037D01*
X1304262Y687563D01*
X1303324Y689826D01*
X1303267Y690094D01*
X1303318Y690393D01*
X1303481Y690648D01*
X1303731Y690820D01*
X1304028Y690880D01*
X1406228Y690880D01*
X1406514Y690824D01*
X1406767Y690657D01*
X1443484Y653940D01*
X1446284Y652780D01*
X1912787Y652780D01*
X1913079Y652722D01*
X1915937Y651538D01*
X1919463Y651538D01*
X1922720Y652887D01*
X1925213Y655380D01*
X1926562Y658637D01*
X1926562Y662163D01*
X1925213Y665420D01*
X1922720Y667913D01*
X1919463Y669262D01*
X1915937Y669262D01*
X1913079Y668078D01*
X1912787Y668020D01*
X1646928Y668020D01*
X1646659Y668069D01*
X1646403Y668230D01*
X1646229Y668479D01*
X1646166Y668776D01*
X1646224Y669074D01*
X1647162Y671337D01*
X1647162Y674863D01*
X1645813Y678120D01*
X1645022Y678911D01*
X1644864Y679142D01*
X1644799Y679438D01*
X1644854Y679736D01*
X1645022Y679989D01*
X1645813Y680780D01*
X1647162Y684037D01*
X1647162Y687563D01*
X1645813Y690820D01*
X1643320Y693313D01*
X1640063Y694662D01*
X1636537Y694662D01*
X1633679Y693478D01*
X1633387Y693420D01*
X1454609Y693420D01*
X1454323Y693476D01*
X1454070Y693643D01*
X1445434Y702279D01*
X1445281Y702499D01*
X1445211Y702794D01*
X1445262Y703093D01*
X1445425Y703348D01*
X1445676Y703520D01*
X1445973Y703580D01*
X1633387Y703580D01*
X1633679Y703522D01*
X1636537Y702338D01*
X1640063Y702338D01*
X1643320Y703687D01*
X1645813Y706180D01*
X1647162Y709437D01*
X1647162Y712963D01*
X1645813Y716220D01*
X1643320Y718713D01*
X1640063Y720062D01*
X1636537Y720062D01*
X1633679Y718878D01*
X1633387Y718820D01*
X1443577Y718820D01*
X1443291Y718876D01*
X1443038Y719043D01*
X1426642Y735440D01*
X1423841Y736600D01*
X1146397Y736600D01*
X1146111Y736656D01*
X1145858Y736823D01*
X1041623Y841058D01*
X1041460Y841300D01*
X1041400Y841597D01*
X1041400Y979341D01*
X1040240Y982142D01*
X1023843Y998538D01*
X1023680Y998780D01*
X1023620Y999077D01*
X1023620Y1042916D01*
X1022447Y1045747D01*
X1022390Y1046002D01*
X1022436Y1046302D01*
X1022458Y1046336D01*
X1022220Y1046284D01*
X1021922Y1046340D01*
X1021669Y1046507D01*
X999462Y1068714D01*
X999297Y1068962D01*
X998113Y1071820D01*
X995620Y1074313D01*
X992363Y1075662D01*
X988837Y1075662D01*
X985580Y1074313D01*
X983087Y1071820D01*
X981738Y1068563D01*
X981738Y1065037D01*
X983087Y1061780D01*
X985580Y1059287D01*
X988439Y1058103D01*
X988686Y1057938D01*
X1008157Y1038467D01*
X1008320Y1038225D01*
X1008380Y1037928D01*
X1008380Y1023536D01*
X1008333Y1023273D01*
X1008174Y1023015D01*
X1007926Y1022839D01*
X1007630Y1022774D01*
X1007332Y1022830D01*
X1007079Y1022997D01*
X956816Y1073260D01*
X954016Y1074420D01*
X887484Y1074420D01*
X884684Y1073260D01*
X874386Y1062962D01*
X874139Y1062797D01*
X871280Y1061613D01*
X868787Y1059120D01*
X867438Y1055863D01*
X867438Y1052337D01*
X868376Y1050074D01*
X868433Y1049806D01*
X868382Y1049507D01*
X868219Y1049252D01*
X867969Y1049080D01*
X867672Y1049020D01*
X859282Y1049020D01*
X859007Y1049071D01*
X858752Y1049235D01*
X858580Y1049485D01*
X858520Y1049782D01*
X858520Y1074587D01*
X858578Y1074879D01*
X859762Y1077737D01*
X859762Y1081263D01*
X858413Y1084520D01*
X855920Y1087013D01*
X852663Y1088362D01*
X849137Y1088362D01*
X845880Y1087013D01*
X843387Y1084520D01*
X842038Y1081263D01*
X842038Y1077737D01*
X843222Y1074879D01*
X843280Y1074587D01*
X843280Y1039884D01*
X844440Y1037084D01*
X846584Y1034940D01*
X849384Y1033780D01*
X923628Y1033780D01*
X923914Y1033724D01*
X924167Y1033557D01*
X995457Y962267D01*
X995620Y962025D01*
X995680Y961728D01*
X995680Y823984D01*
X996840Y821184D01*
X1125984Y692040D01*
X1128784Y690880D01*
X1286772Y690880D01*
X1287041Y690831D01*
X1287297Y690670D01*
X1287471Y690421D01*
X1287534Y690124D01*
X1287476Y689826D01*
X1286538Y687563D01*
X1286538Y684037D01*
X1287722Y681179D01*
X1287780Y680887D01*
X1287780Y614513D01*
X1287722Y614221D01*
X1286538Y611363D01*
X1286538Y607837D01*
X1287887Y604580D01*
X1290380Y602087D01*
X1293637Y600738D01*
G37*
G36*
X1028650Y1043526D02*
X1032175Y1043526D01*
X1035432Y1044875D01*
X1036814Y1046257D01*
X1037056Y1046420D01*
X1037353Y1046480D01*
X1620687Y1046480D01*
X1620979Y1046422D01*
X1623837Y1045238D01*
X1627363Y1045238D01*
X1630620Y1046587D01*
X1633113Y1049080D01*
X1634462Y1052337D01*
X1634462Y1055863D01*
X1633113Y1059120D01*
X1632322Y1059911D01*
X1632164Y1060142D01*
X1632099Y1060438D01*
X1632154Y1060736D01*
X1632322Y1060989D01*
X1633113Y1061780D01*
X1634462Y1065037D01*
X1634462Y1068563D01*
X1633113Y1071820D01*
X1630620Y1074313D01*
X1627363Y1075662D01*
X1623837Y1075662D01*
X1620979Y1074478D01*
X1620687Y1074420D01*
X1033613Y1074420D01*
X1033321Y1074478D01*
X1030463Y1075662D01*
X1026937Y1075662D01*
X1023680Y1074313D01*
X1021187Y1071820D01*
X1019838Y1068563D01*
X1019838Y1065037D01*
X1021187Y1061780D01*
X1023691Y1059276D01*
X1023849Y1059046D01*
X1023914Y1058750D01*
X1023858Y1058452D01*
X1023691Y1058199D01*
X1022900Y1057408D01*
X1021550Y1054150D01*
X1021550Y1050625D01*
X1022912Y1047337D01*
X1022969Y1047082D01*
X1022923Y1046783D01*
X1022902Y1046748D01*
X1023139Y1046800D01*
X1023437Y1046745D01*
X1023690Y1046577D01*
X1025393Y1044875D01*
X1028650Y1043526D01*
G37*
G36*
X1812548Y999748D02*
X1823975Y999748D01*
X1821826Y1004936D01*
X1817736Y1009026D01*
X1812548Y1011175D01*
X1812548Y999748D01*
G37*
G36*
X1986025Y999748D02*
X1997452Y999748D01*
X1997452Y1011175D01*
X1992264Y1009026D01*
X1988174Y1004936D01*
X1986025Y999748D01*
G37*
G36*
X2003548Y999748D02*
X2014975Y999748D01*
X2012826Y1004936D01*
X2008736Y1009026D01*
X2003548Y1011175D01*
X2003548Y999748D01*
G37*
G36*
X2049025Y999748D02*
X2060452Y999748D01*
X2060452Y1011175D01*
X2055264Y1009026D01*
X2051174Y1004936D01*
X2049025Y999748D01*
G37*
G36*
X2066548Y999748D02*
X2077975Y999748D01*
X2075826Y1004936D01*
X2071736Y1009026D01*
X2066548Y1011175D01*
X2066548Y999748D01*
G37*
G36*
X1160525Y999748D02*
X1171952Y999748D01*
X1171952Y1011175D01*
X1166764Y1009026D01*
X1162674Y1004936D01*
X1160525Y999748D01*
G37*
G36*
X1178048Y999748D02*
X1189475Y999748D01*
X1187326Y1004936D01*
X1183236Y1009026D01*
X1178048Y1011175D01*
X1178048Y999748D01*
G37*
G36*
X1223525Y999748D02*
X1234952Y999748D01*
X1234952Y1011175D01*
X1229764Y1009026D01*
X1225674Y1004936D01*
X1223525Y999748D01*
G37*
G36*
X1241048Y999748D02*
X1252475Y999748D01*
X1250326Y1004936D01*
X1246236Y1009026D01*
X1241048Y1011175D01*
X1241048Y999748D01*
G37*
G36*
X1414525Y999748D02*
X1425952Y999748D01*
X1425952Y1011175D01*
X1420764Y1009026D01*
X1416674Y1004936D01*
X1414525Y999748D01*
G37*
G36*
X1432048Y999748D02*
X1443475Y999748D01*
X1441326Y1004936D01*
X1437236Y1009026D01*
X1432048Y1011175D01*
X1432048Y999748D01*
G37*
G36*
X1477525Y999748D02*
X1488952Y999748D01*
X1488952Y1011175D01*
X1483764Y1009026D01*
X1479674Y1004936D01*
X1477525Y999748D01*
G37*
G36*
X1495048Y999748D02*
X1506475Y999748D01*
X1504326Y1004936D01*
X1500236Y1009026D01*
X1495048Y1011175D01*
X1495048Y999748D01*
G37*
G36*
X1732025Y999748D02*
X1743452Y999748D01*
X1743452Y1011175D01*
X1738264Y1009026D01*
X1734174Y1004936D01*
X1732025Y999748D01*
G37*
G36*
X1749548Y999748D02*
X1760975Y999748D01*
X1758826Y1004936D01*
X1754736Y1009026D01*
X1749548Y1011175D01*
X1749548Y999748D01*
G37*
G36*
X1795025Y999748D02*
X1806452Y999748D01*
X1806452Y1011175D01*
X1801264Y1009026D01*
X1797174Y1004936D01*
X1795025Y999748D01*
G37*
G36*
X1166764Y984374D02*
X1171952Y982225D01*
X1171952Y993652D01*
X1160525Y993652D01*
X1162674Y988464D01*
X1166764Y984374D01*
G37*
G36*
X2066548Y993652D02*
X2066548Y982225D01*
X2071736Y984374D01*
X2075826Y988464D01*
X2077975Y993652D01*
X2066548Y993652D01*
G37*
G36*
X2055264Y984374D02*
X2060452Y982225D01*
X2060452Y993652D01*
X2049025Y993652D01*
X2051174Y988464D01*
X2055264Y984374D01*
G37*
G36*
X2003548Y993652D02*
X2003548Y982225D01*
X2008736Y984374D01*
X2012826Y988464D01*
X2014975Y993652D01*
X2003548Y993652D01*
G37*
G36*
X1992264Y984374D02*
X1997452Y982225D01*
X1997452Y993652D01*
X1986025Y993652D01*
X1988174Y988464D01*
X1992264Y984374D01*
G37*
G36*
X1812548Y993652D02*
X1812548Y982225D01*
X1817736Y984374D01*
X1821826Y988464D01*
X1823975Y993652D01*
X1812548Y993652D01*
G37*
G36*
X1801264Y984374D02*
X1806452Y982225D01*
X1806452Y993652D01*
X1795025Y993652D01*
X1797174Y988464D01*
X1801264Y984374D01*
G37*
G36*
X1749548Y993652D02*
X1749548Y982225D01*
X1754736Y984374D01*
X1758826Y988464D01*
X1760975Y993652D01*
X1749548Y993652D01*
G37*
G36*
X1738264Y984374D02*
X1743452Y982225D01*
X1743452Y993652D01*
X1732025Y993652D01*
X1734174Y988464D01*
X1738264Y984374D01*
G37*
G36*
X1495048Y993652D02*
X1495048Y982225D01*
X1500236Y984374D01*
X1504326Y988464D01*
X1506475Y993652D01*
X1495048Y993652D01*
G37*
G36*
X1483764Y984374D02*
X1488952Y982225D01*
X1488952Y993652D01*
X1477525Y993652D01*
X1479674Y988464D01*
X1483764Y984374D01*
G37*
G36*
X1432048Y993652D02*
X1432048Y982225D01*
X1437236Y984374D01*
X1441326Y988464D01*
X1443475Y993652D01*
X1432048Y993652D01*
G37*
G36*
X1420764Y984374D02*
X1425952Y982225D01*
X1425952Y993652D01*
X1414525Y993652D01*
X1416674Y988464D01*
X1420764Y984374D01*
G37*
G36*
X1241048Y993652D02*
X1241048Y982225D01*
X1246236Y984374D01*
X1250326Y988464D01*
X1252475Y993652D01*
X1241048Y993652D01*
G37*
G36*
X1229764Y984374D02*
X1234952Y982225D01*
X1234952Y993652D01*
X1223525Y993652D01*
X1225674Y988464D01*
X1229764Y984374D01*
G37*
G36*
X1178048Y993652D02*
X1178048Y982225D01*
X1183236Y984374D01*
X1187326Y988464D01*
X1189475Y993652D01*
X1178048Y993652D01*
G37*
G36*
X1775199Y951120D02*
X1780801Y951120D01*
X1785976Y953264D01*
X1789936Y957224D01*
X1792080Y962399D01*
X1792080Y968001D01*
X1789936Y973176D01*
X1785976Y977136D01*
X1780801Y979280D01*
X1775199Y979280D01*
X1770024Y977136D01*
X1766064Y973176D01*
X1763920Y968001D01*
X1763920Y962399D01*
X1766064Y957224D01*
X1770024Y953264D01*
X1775199Y951120D01*
G37*
G36*
X1203699Y951120D02*
X1209301Y951120D01*
X1214476Y953264D01*
X1218436Y957224D01*
X1220580Y962399D01*
X1220580Y968001D01*
X1218436Y973176D01*
X1214476Y977136D01*
X1209301Y979280D01*
X1203699Y979280D01*
X1198524Y977136D01*
X1194564Y973176D01*
X1192420Y968001D01*
X1192420Y962399D01*
X1194564Y957224D01*
X1198524Y953264D01*
X1203699Y951120D01*
G37*
G36*
X2029199Y951120D02*
X2034801Y951120D01*
X2039976Y953264D01*
X2043936Y957224D01*
X2046080Y962399D01*
X2046080Y968001D01*
X2043936Y973176D01*
X2039976Y977136D01*
X2034801Y979280D01*
X2029199Y979280D01*
X2024024Y977136D01*
X2020064Y973176D01*
X2017920Y968001D01*
X2017920Y962399D01*
X2020064Y957224D01*
X2024024Y953264D01*
X2029199Y951120D01*
G37*
G36*
X1457699Y951120D02*
X1463301Y951120D01*
X1468476Y953264D01*
X1472436Y957224D01*
X1474580Y962399D01*
X1474580Y968001D01*
X1472436Y973176D01*
X1468476Y977136D01*
X1463301Y979280D01*
X1457699Y979280D01*
X1452524Y977136D01*
X1448564Y973176D01*
X1446420Y968001D01*
X1446420Y962399D01*
X1448564Y957224D01*
X1452524Y953264D01*
X1457699Y951120D01*
G37*
G36*
X1812548Y936748D02*
X1823975Y936748D01*
X1821826Y941936D01*
X1817736Y946026D01*
X1812548Y948175D01*
X1812548Y936748D01*
G37*
G36*
X1986025Y936748D02*
X1997452Y936748D01*
X1997452Y948175D01*
X1992264Y946026D01*
X1988174Y941936D01*
X1986025Y936748D01*
G37*
G36*
X2003548Y936748D02*
X2014975Y936748D01*
X2012826Y941936D01*
X2008736Y946026D01*
X2003548Y948175D01*
X2003548Y936748D01*
G37*
G36*
X2049025Y936748D02*
X2060452Y936748D01*
X2060452Y948175D01*
X2055264Y946026D01*
X2051174Y941936D01*
X2049025Y936748D01*
G37*
G36*
X2066548Y936748D02*
X2077975Y936748D01*
X2075826Y941936D01*
X2071736Y946026D01*
X2066548Y948175D01*
X2066548Y936748D01*
G37*
G36*
X1160525Y936748D02*
X1171952Y936748D01*
X1171952Y948175D01*
X1166764Y946026D01*
X1162674Y941936D01*
X1160525Y936748D01*
G37*
G36*
X1178048Y936748D02*
X1189475Y936748D01*
X1187326Y941936D01*
X1183236Y946026D01*
X1178048Y948175D01*
X1178048Y936748D01*
G37*
G36*
X1223525Y936748D02*
X1234952Y936748D01*
X1234952Y948175D01*
X1229764Y946026D01*
X1225674Y941936D01*
X1223525Y936748D01*
G37*
G36*
X1241048Y936748D02*
X1252475Y936748D01*
X1250326Y941936D01*
X1246236Y946026D01*
X1241048Y948175D01*
X1241048Y936748D01*
G37*
G36*
X1414525Y936748D02*
X1425952Y936748D01*
X1425952Y948175D01*
X1420764Y946026D01*
X1416674Y941936D01*
X1414525Y936748D01*
G37*
G36*
X1432048Y936748D02*
X1443475Y936748D01*
X1441326Y941936D01*
X1437236Y946026D01*
X1432048Y948175D01*
X1432048Y936748D01*
G37*
G36*
X1477525Y936748D02*
X1488952Y936748D01*
X1488952Y948175D01*
X1483764Y946026D01*
X1479674Y941936D01*
X1477525Y936748D01*
G37*
G36*
X1495048Y936748D02*
X1506475Y936748D01*
X1504326Y941936D01*
X1500236Y946026D01*
X1495048Y948175D01*
X1495048Y936748D01*
G37*
G36*
X1732025Y936748D02*
X1743452Y936748D01*
X1743452Y948175D01*
X1738264Y946026D01*
X1734174Y941936D01*
X1732025Y936748D01*
G37*
G36*
X1749548Y936748D02*
X1760975Y936748D01*
X1758826Y941936D01*
X1754736Y946026D01*
X1749548Y948175D01*
X1749548Y936748D01*
G37*
G36*
X1795025Y936748D02*
X1806452Y936748D01*
X1806452Y948175D01*
X1801264Y946026D01*
X1797174Y941936D01*
X1795025Y936748D01*
G37*
G36*
X843025Y923548D02*
X854452Y923548D01*
X854452Y934975D01*
X849264Y932826D01*
X845174Y928736D01*
X843025Y923548D01*
G37*
G36*
X208025Y923548D02*
X219452Y923548D01*
X219452Y934975D01*
X214264Y932826D01*
X210174Y928736D01*
X208025Y923548D01*
G37*
G36*
X225548Y923548D02*
X236975Y923548D01*
X234826Y928736D01*
X230736Y932826D01*
X225548Y934975D01*
X225548Y923548D01*
G37*
G36*
X271025Y923548D02*
X282452Y923548D01*
X282452Y934975D01*
X277264Y932826D01*
X273174Y928736D01*
X271025Y923548D01*
G37*
G36*
X288548Y923548D02*
X299975Y923548D01*
X297826Y928736D01*
X293736Y932826D01*
X288548Y934975D01*
X288548Y923548D01*
G37*
G36*
X860548Y923548D02*
X871975Y923548D01*
X869826Y928736D01*
X865736Y932826D01*
X860548Y934975D01*
X860548Y923548D01*
G37*
G36*
X906025Y923548D02*
X917452Y923548D01*
X917452Y934975D01*
X912264Y932826D01*
X908174Y928736D01*
X906025Y923548D01*
G37*
G36*
X923548Y923548D02*
X934975Y923548D01*
X932826Y928736D01*
X928736Y932826D01*
X923548Y934975D01*
X923548Y923548D01*
G37*
G36*
X1801264Y921374D02*
X1806452Y919225D01*
X1806452Y930652D01*
X1795025Y930652D01*
X1797174Y925464D01*
X1801264Y921374D01*
G37*
G36*
X2066548Y930652D02*
X2066548Y919225D01*
X2071736Y921374D01*
X2075826Y925464D01*
X2077975Y930652D01*
X2066548Y930652D01*
G37*
G36*
X2055264Y921374D02*
X2060452Y919225D01*
X2060452Y930652D01*
X2049025Y930652D01*
X2051174Y925464D01*
X2055264Y921374D01*
G37*
G36*
X2003548Y930652D02*
X2003548Y919225D01*
X2008736Y921374D01*
X2012826Y925464D01*
X2014975Y930652D01*
X2003548Y930652D01*
G37*
G36*
X1992264Y921374D02*
X1997452Y919225D01*
X1997452Y930652D01*
X1986025Y930652D01*
X1988174Y925464D01*
X1992264Y921374D01*
G37*
G36*
X1812548Y930652D02*
X1812548Y919225D01*
X1817736Y921374D01*
X1821826Y925464D01*
X1823975Y930652D01*
X1812548Y930652D01*
G37*
G36*
X1749548Y930652D02*
X1749548Y919225D01*
X1754736Y921374D01*
X1758826Y925464D01*
X1760975Y930652D01*
X1749548Y930652D01*
G37*
G36*
X1738264Y921374D02*
X1743452Y919225D01*
X1743452Y930652D01*
X1732025Y930652D01*
X1734174Y925464D01*
X1738264Y921374D01*
G37*
G36*
X1495048Y930652D02*
X1495048Y919225D01*
X1500236Y921374D01*
X1504326Y925464D01*
X1506475Y930652D01*
X1495048Y930652D01*
G37*
G36*
X1483764Y921374D02*
X1488952Y919225D01*
X1488952Y930652D01*
X1477525Y930652D01*
X1479674Y925464D01*
X1483764Y921374D01*
G37*
G36*
X1432048Y930652D02*
X1432048Y919225D01*
X1437236Y921374D01*
X1441326Y925464D01*
X1443475Y930652D01*
X1432048Y930652D01*
G37*
G36*
X1420764Y921374D02*
X1425952Y919225D01*
X1425952Y930652D01*
X1414525Y930652D01*
X1416674Y925464D01*
X1420764Y921374D01*
G37*
G36*
X1241048Y930652D02*
X1241048Y919225D01*
X1246236Y921374D01*
X1250326Y925464D01*
X1252475Y930652D01*
X1241048Y930652D01*
G37*
G36*
X1229764Y921374D02*
X1234952Y919225D01*
X1234952Y930652D01*
X1223525Y930652D01*
X1225674Y925464D01*
X1229764Y921374D01*
G37*
G36*
X1178048Y930652D02*
X1178048Y919225D01*
X1183236Y921374D01*
X1187326Y925464D01*
X1189475Y930652D01*
X1178048Y930652D01*
G37*
G36*
X1166764Y921374D02*
X1171952Y919225D01*
X1171952Y930652D01*
X1160525Y930652D01*
X1162674Y925464D01*
X1166764Y921374D01*
G37*
G36*
X849264Y908174D02*
X854452Y906025D01*
X854452Y917452D01*
X843025Y917452D01*
X845174Y912264D01*
X849264Y908174D01*
G37*
G36*
X288548Y917452D02*
X288548Y906025D01*
X293736Y908174D01*
X297826Y912264D01*
X299975Y917452D01*
X288548Y917452D01*
G37*
G36*
X277264Y908174D02*
X282452Y906025D01*
X282452Y917452D01*
X271025Y917452D01*
X273174Y912264D01*
X277264Y908174D01*
G37*
G36*
X225548Y917452D02*
X225548Y906025D01*
X230736Y908174D01*
X234826Y912264D01*
X236975Y917452D01*
X225548Y917452D01*
G37*
G36*
X214264Y908174D02*
X219452Y906025D01*
X219452Y917452D01*
X208025Y917452D01*
X210174Y912264D01*
X214264Y908174D01*
G37*
G36*
X923548Y917452D02*
X923548Y906025D01*
X928736Y908174D01*
X932826Y912264D01*
X934975Y917452D01*
X923548Y917452D01*
G37*
G36*
X912264Y908174D02*
X917452Y906025D01*
X917452Y917452D01*
X906025Y917452D01*
X908174Y912264D01*
X912264Y908174D01*
G37*
G36*
X860548Y917452D02*
X860548Y906025D01*
X865736Y908174D01*
X869826Y912264D01*
X871975Y917452D01*
X860548Y917452D01*
G37*
G36*
X251199Y874920D02*
X256801Y874920D01*
X261976Y877064D01*
X265936Y881024D01*
X268080Y886199D01*
X268080Y891801D01*
X265936Y896976D01*
X261976Y900936D01*
X256801Y903080D01*
X251199Y903080D01*
X246024Y900936D01*
X242064Y896976D01*
X239920Y891801D01*
X239920Y886199D01*
X242064Y881024D01*
X246024Y877064D01*
X251199Y874920D01*
G37*
G36*
X886199Y874920D02*
X891801Y874920D01*
X896976Y877064D01*
X900936Y881024D01*
X903080Y886199D01*
X903080Y891801D01*
X900936Y896976D01*
X896976Y900936D01*
X891801Y903080D01*
X886199Y903080D01*
X881024Y900936D01*
X877064Y896976D01*
X874920Y891801D01*
X874920Y886199D01*
X877064Y881024D01*
X881024Y877064D01*
X886199Y874920D01*
G37*
G36*
X328437Y651538D02*
X331963Y651538D01*
X335220Y652887D01*
X337713Y655380D01*
X338897Y658239D01*
X339062Y658486D01*
X535314Y854738D01*
X535562Y854903D01*
X538420Y856087D01*
X540913Y858580D01*
X542262Y861837D01*
X542262Y865363D01*
X540913Y868620D01*
X538420Y871113D01*
X535163Y872462D01*
X531637Y872462D01*
X528380Y871113D01*
X525887Y868620D01*
X524703Y865762D01*
X524538Y865514D01*
X328286Y669262D01*
X328039Y669097D01*
X325180Y667913D01*
X322687Y665420D01*
X321338Y662163D01*
X321338Y658637D01*
X322687Y655380D01*
X325180Y652887D01*
X328437Y651538D01*
G37*
G36*
X288548Y860548D02*
X299975Y860548D01*
X297826Y865736D01*
X293736Y869826D01*
X288548Y871975D01*
X288548Y860548D01*
G37*
G36*
X843025Y860548D02*
X854452Y860548D01*
X854452Y871975D01*
X849264Y869826D01*
X845174Y865736D01*
X843025Y860548D01*
G37*
G36*
X860548Y860548D02*
X871975Y860548D01*
X869826Y865736D01*
X865736Y869826D01*
X860548Y871975D01*
X860548Y860548D01*
G37*
G36*
X906025Y860548D02*
X917452Y860548D01*
X917452Y871975D01*
X912264Y869826D01*
X908174Y865736D01*
X906025Y860548D01*
G37*
G36*
X923548Y860548D02*
X934975Y860548D01*
X932826Y865736D01*
X928736Y869826D01*
X923548Y871975D01*
X923548Y860548D01*
G37*
G36*
X208025Y860548D02*
X219452Y860548D01*
X219452Y871975D01*
X214264Y869826D01*
X210174Y865736D01*
X208025Y860548D01*
G37*
G36*
X225548Y860548D02*
X236975Y860548D01*
X234826Y865736D01*
X230736Y869826D01*
X225548Y871975D01*
X225548Y860548D01*
G37*
G36*
X271025Y860548D02*
X282452Y860548D01*
X282452Y871975D01*
X277264Y869826D01*
X273174Y865736D01*
X271025Y860548D01*
G37*
G36*
X225548Y854452D02*
X225548Y843025D01*
X230736Y845174D01*
X234826Y849264D01*
X236975Y854452D01*
X225548Y854452D01*
G37*
G36*
X849264Y845174D02*
X854452Y843025D01*
X854452Y854452D01*
X843025Y854452D01*
X845174Y849264D01*
X849264Y845174D01*
G37*
G36*
X288548Y854452D02*
X288548Y843025D01*
X293736Y845174D01*
X297826Y849264D01*
X299975Y854452D01*
X288548Y854452D01*
G37*
G36*
X214264Y845174D02*
X219452Y843025D01*
X219452Y854452D01*
X208025Y854452D01*
X210174Y849264D01*
X214264Y845174D01*
G37*
G36*
X277264Y845174D02*
X282452Y843025D01*
X282452Y854452D01*
X271025Y854452D01*
X273174Y849264D01*
X277264Y845174D01*
G37*
G36*
X923548Y854452D02*
X923548Y843025D01*
X928736Y845174D01*
X932826Y849264D01*
X934975Y854452D01*
X923548Y854452D01*
G37*
G36*
X912264Y845174D02*
X917452Y843025D01*
X917452Y854452D01*
X906025Y854452D01*
X908174Y849264D01*
X912264Y845174D01*
G37*
G36*
X860548Y854452D02*
X860548Y843025D01*
X865736Y845174D01*
X869826Y849264D01*
X871975Y854452D01*
X860548Y854452D01*
G37*
G36*
X1425376Y787400D02*
X1444824Y787400D01*
X1447800Y790376D01*
X1447800Y793743D01*
X1447845Y794001D01*
X1448002Y794260D01*
X1448248Y794437D01*
X1448544Y794505D01*
X1448842Y794452D01*
X1449097Y794286D01*
X1449266Y794035D01*
X1449733Y792906D01*
X1453306Y789333D01*
X1457974Y787400D01*
X1463026Y787400D01*
X1467694Y789333D01*
X1471267Y792906D01*
X1472496Y795874D01*
X1472640Y796100D01*
X1472886Y796277D01*
X1473182Y796344D01*
X1473480Y796291D01*
X1473735Y796126D01*
X1473904Y795874D01*
X1475133Y792906D01*
X1478706Y789333D01*
X1483374Y787400D01*
X1488426Y787400D01*
X1493094Y789333D01*
X1496667Y792906D01*
X1498600Y797574D01*
X1498600Y802626D01*
X1496667Y807294D01*
X1493094Y810867D01*
X1488426Y812800D01*
X1483374Y812800D01*
X1478706Y810867D01*
X1475133Y807294D01*
X1473904Y804326D01*
X1473760Y804100D01*
X1473514Y803923D01*
X1473218Y803856D01*
X1472920Y803909D01*
X1472666Y804074D01*
X1472496Y804326D01*
X1471267Y807294D01*
X1467694Y810867D01*
X1463026Y812800D01*
X1457974Y812800D01*
X1453306Y810867D01*
X1449733Y807294D01*
X1449266Y806165D01*
X1449126Y805945D01*
X1448881Y805765D01*
X1448586Y805695D01*
X1448287Y805746D01*
X1448032Y805910D01*
X1447860Y806160D01*
X1447800Y806457D01*
X1447800Y809824D01*
X1444824Y812800D01*
X1425376Y812800D01*
X1422400Y809824D01*
X1422400Y790376D01*
X1425376Y787400D01*
G37*
G36*
X1171376Y787400D02*
X1190824Y787400D01*
X1193800Y790376D01*
X1193800Y793743D01*
X1193845Y794001D01*
X1194002Y794260D01*
X1194248Y794437D01*
X1194544Y794505D01*
X1194842Y794452D01*
X1195097Y794286D01*
X1195266Y794035D01*
X1195733Y792906D01*
X1199306Y789333D01*
X1203974Y787400D01*
X1209026Y787400D01*
X1213694Y789333D01*
X1217267Y792906D01*
X1218496Y795874D01*
X1218640Y796100D01*
X1218886Y796277D01*
X1219182Y796344D01*
X1219480Y796291D01*
X1219735Y796126D01*
X1219904Y795874D01*
X1221133Y792906D01*
X1224706Y789333D01*
X1229374Y787400D01*
X1234426Y787400D01*
X1239094Y789333D01*
X1242667Y792906D01*
X1244600Y797574D01*
X1244600Y802626D01*
X1242667Y807294D01*
X1239094Y810867D01*
X1234426Y812800D01*
X1229374Y812800D01*
X1224706Y810867D01*
X1221133Y807294D01*
X1219904Y804326D01*
X1219760Y804100D01*
X1219514Y803923D01*
X1219218Y803856D01*
X1218920Y803909D01*
X1218666Y804074D01*
X1218496Y804326D01*
X1217267Y807294D01*
X1213694Y810867D01*
X1209026Y812800D01*
X1203974Y812800D01*
X1199306Y810867D01*
X1195733Y807294D01*
X1195266Y806165D01*
X1195126Y805945D01*
X1194881Y805765D01*
X1194586Y805695D01*
X1194287Y805746D01*
X1194032Y805910D01*
X1193860Y806160D01*
X1193800Y806457D01*
X1193800Y809824D01*
X1190824Y812800D01*
X1171376Y812800D01*
X1168400Y809824D01*
X1168400Y790376D01*
X1171376Y787400D01*
G37*
G36*
X218876Y698500D02*
X238324Y698500D01*
X241300Y701476D01*
X241300Y704843D01*
X241345Y705101D01*
X241502Y705360D01*
X241748Y705537D01*
X242044Y705605D01*
X242342Y705552D01*
X242597Y705386D01*
X242766Y705135D01*
X243233Y704006D01*
X246806Y700433D01*
X251474Y698500D01*
X256526Y698500D01*
X261194Y700433D01*
X264767Y704006D01*
X265996Y706974D01*
X266140Y707200D01*
X266386Y707377D01*
X266682Y707444D01*
X266980Y707391D01*
X267235Y707226D01*
X267404Y706974D01*
X268633Y704006D01*
X272206Y700433D01*
X276874Y698500D01*
X281926Y698500D01*
X286594Y700433D01*
X290167Y704006D01*
X292100Y708674D01*
X292100Y713726D01*
X290167Y718394D01*
X286594Y721967D01*
X281926Y723900D01*
X276874Y723900D01*
X272206Y721967D01*
X268633Y718394D01*
X267404Y715426D01*
X267260Y715200D01*
X267014Y715023D01*
X266718Y714956D01*
X266420Y715009D01*
X266166Y715174D01*
X265996Y715426D01*
X264767Y718394D01*
X261194Y721967D01*
X256526Y723900D01*
X251474Y723900D01*
X246806Y721967D01*
X243233Y718394D01*
X242766Y717265D01*
X242626Y717045D01*
X242381Y716865D01*
X242086Y716795D01*
X241787Y716846D01*
X241532Y717010D01*
X241360Y717260D01*
X241300Y717557D01*
X241300Y720924D01*
X238324Y723900D01*
X218876Y723900D01*
X215900Y720924D01*
X215900Y701476D01*
X218876Y698500D01*
G37*
G36*
X853876Y698500D02*
X873324Y698500D01*
X876300Y701476D01*
X876300Y704843D01*
X876345Y705101D01*
X876502Y705360D01*
X876748Y705537D01*
X877044Y705605D01*
X877342Y705552D01*
X877597Y705386D01*
X877766Y705135D01*
X878233Y704006D01*
X881806Y700433D01*
X886474Y698500D01*
X891526Y698500D01*
X896194Y700433D01*
X899767Y704006D01*
X900996Y706974D01*
X901140Y707200D01*
X901386Y707377D01*
X901682Y707444D01*
X901980Y707391D01*
X902235Y707226D01*
X902404Y706974D01*
X903633Y704006D01*
X907206Y700433D01*
X911874Y698500D01*
X916926Y698500D01*
X921594Y700433D01*
X925167Y704006D01*
X927100Y708674D01*
X927100Y713726D01*
X925167Y718394D01*
X921594Y721967D01*
X916926Y723900D01*
X911874Y723900D01*
X907206Y721967D01*
X903633Y718394D01*
X902404Y715426D01*
X902260Y715200D01*
X902014Y715023D01*
X901718Y714956D01*
X901420Y715009D01*
X901166Y715174D01*
X900996Y715426D01*
X899767Y718394D01*
X896194Y721967D01*
X891526Y723900D01*
X886474Y723900D01*
X881806Y721967D01*
X878233Y718394D01*
X877766Y717265D01*
X877626Y717045D01*
X877381Y716865D01*
X877086Y716795D01*
X876787Y716846D01*
X876532Y717010D01*
X876360Y717260D01*
X876300Y717557D01*
X876300Y720924D01*
X873324Y723900D01*
X853876Y723900D01*
X850900Y720924D01*
X850900Y701476D01*
X853876Y698500D01*
G37*
G36*
X1305415Y537238D02*
X1308941Y537238D01*
X1312198Y538587D01*
X1314691Y541080D01*
X1315875Y543939D01*
X1316040Y544186D01*
X1344118Y572264D01*
X1345278Y575064D01*
X1345278Y655487D01*
X1345336Y655779D01*
X1346520Y658637D01*
X1346520Y662163D01*
X1345171Y665420D01*
X1342678Y667913D01*
X1339421Y669262D01*
X1335895Y669262D01*
X1332638Y667913D01*
X1330145Y665420D01*
X1329933Y664908D01*
X1329789Y664682D01*
X1329543Y664505D01*
X1329247Y664438D01*
X1328949Y664491D01*
X1328695Y664656D01*
X1328525Y664908D01*
X1328313Y665420D01*
X1325820Y667913D01*
X1322563Y669262D01*
X1319037Y669262D01*
X1315780Y667913D01*
X1313287Y665420D01*
X1311938Y662163D01*
X1311938Y658637D01*
X1313122Y655779D01*
X1313180Y655487D01*
X1313180Y614513D01*
X1313122Y614221D01*
X1311938Y611363D01*
X1311938Y607837D01*
X1313287Y604580D01*
X1315780Y602087D01*
X1319037Y600738D01*
X1322563Y600738D01*
X1325820Y602087D01*
X1328313Y604580D01*
X1328572Y605206D01*
X1328712Y605427D01*
X1328957Y605606D01*
X1329252Y605676D01*
X1329551Y605625D01*
X1329806Y605461D01*
X1329978Y605211D01*
X1330038Y604914D01*
X1330038Y580052D01*
X1329982Y579766D01*
X1329815Y579513D01*
X1305264Y554962D01*
X1305017Y554797D01*
X1302158Y553613D01*
X1299665Y551120D01*
X1298316Y547863D01*
X1298316Y544337D01*
X1299665Y541080D01*
X1302158Y538587D01*
X1305415Y537238D01*
G37*
G36*
X525525Y606048D02*
X536952Y606048D01*
X536952Y617475D01*
X531764Y615326D01*
X527674Y611236D01*
X525525Y606048D01*
G37*
G36*
X543048Y606048D02*
X554475Y606048D01*
X552326Y611236D01*
X548236Y615326D01*
X543048Y617475D01*
X543048Y606048D01*
G37*
G36*
X588525Y606048D02*
X599952Y606048D01*
X599952Y617475D01*
X594764Y615326D01*
X590674Y611236D01*
X588525Y606048D01*
G37*
G36*
X606048Y606048D02*
X617475Y606048D01*
X615326Y611236D01*
X611236Y615326D01*
X606048Y617475D01*
X606048Y606048D01*
G37*
G36*
X606048Y599952D02*
X606048Y588525D01*
X611236Y590674D01*
X615326Y594764D01*
X617475Y599952D01*
X606048Y599952D01*
G37*
G36*
X594764Y590674D02*
X599952Y588525D01*
X599952Y599952D01*
X588525Y599952D01*
X590674Y594764D01*
X594764Y590674D01*
G37*
G36*
X543048Y599952D02*
X543048Y588525D01*
X548236Y590674D01*
X552326Y594764D01*
X554475Y599952D01*
X543048Y599952D01*
G37*
G36*
X531764Y590674D02*
X536952Y588525D01*
X536952Y599952D01*
X525525Y599952D01*
X527674Y594764D01*
X531764Y590674D01*
G37*
G36*
X568699Y557420D02*
X574301Y557420D01*
X579476Y559564D01*
X583436Y563524D01*
X585580Y568699D01*
X585580Y574301D01*
X583436Y579476D01*
X579476Y583436D01*
X574301Y585580D01*
X568699Y585580D01*
X563524Y583436D01*
X559564Y579476D01*
X557420Y574301D01*
X557420Y568699D01*
X559564Y563524D01*
X563524Y559564D01*
X568699Y557420D01*
G37*
G36*
X2060103Y522420D02*
X2066897Y522420D01*
X2073175Y525020D01*
X2077980Y529825D01*
X2080580Y536103D01*
X2080580Y542897D01*
X2077980Y549175D01*
X2073175Y553980D01*
X2066897Y556580D01*
X2060103Y556580D01*
X2053825Y553980D01*
X2049020Y549175D01*
X2046420Y542897D01*
X2046420Y536103D01*
X2049020Y529825D01*
X2053825Y525020D01*
X2060103Y522420D01*
G37*
G36*
X1997103Y522420D02*
X2003897Y522420D01*
X2010175Y525020D01*
X2014980Y529825D01*
X2017580Y536103D01*
X2017580Y542897D01*
X2014980Y549175D01*
X2010175Y553980D01*
X2003897Y556580D01*
X1997103Y556580D01*
X1990825Y553980D01*
X1986020Y549175D01*
X1983420Y542897D01*
X1983420Y536103D01*
X1986020Y529825D01*
X1990825Y525020D01*
X1997103Y522420D01*
G37*
G36*
X1806103Y522420D02*
X1812897Y522420D01*
X1819175Y525020D01*
X1823980Y529825D01*
X1826580Y536103D01*
X1826580Y542897D01*
X1823980Y549175D01*
X1819175Y553980D01*
X1812897Y556580D01*
X1806103Y556580D01*
X1799825Y553980D01*
X1795020Y549175D01*
X1792420Y542897D01*
X1792420Y536103D01*
X1795020Y529825D01*
X1799825Y525020D01*
X1806103Y522420D01*
G37*
G36*
X1743103Y522420D02*
X1749897Y522420D01*
X1756175Y525020D01*
X1760980Y529825D01*
X1763580Y536103D01*
X1763580Y542897D01*
X1760980Y549175D01*
X1756175Y553980D01*
X1749897Y556580D01*
X1743103Y556580D01*
X1736825Y553980D01*
X1732020Y549175D01*
X1729420Y542897D01*
X1729420Y536103D01*
X1732020Y529825D01*
X1736825Y525020D01*
X1743103Y522420D01*
G37*
G36*
X525525Y543048D02*
X536952Y543048D01*
X536952Y554475D01*
X531764Y552326D01*
X527674Y548236D01*
X525525Y543048D01*
G37*
G36*
X543048Y543048D02*
X554475Y543048D01*
X552326Y548236D01*
X548236Y552326D01*
X543048Y554475D01*
X543048Y543048D01*
G37*
G36*
X588525Y543048D02*
X599952Y543048D01*
X599952Y554475D01*
X594764Y552326D01*
X590674Y548236D01*
X588525Y543048D01*
G37*
G36*
X606048Y543048D02*
X617475Y543048D01*
X615326Y548236D01*
X611236Y552326D01*
X606048Y554475D01*
X606048Y543048D01*
G37*
G36*
X1160525Y542548D02*
X1171952Y542548D01*
X1171952Y553975D01*
X1166764Y551826D01*
X1162674Y547736D01*
X1160525Y542548D01*
G37*
G36*
X1178048Y542548D02*
X1189475Y542548D01*
X1187326Y547736D01*
X1183236Y551826D01*
X1178048Y553975D01*
X1178048Y542548D01*
G37*
G36*
X1223525Y542548D02*
X1234952Y542548D01*
X1234952Y553975D01*
X1229764Y551826D01*
X1225674Y547736D01*
X1223525Y542548D01*
G37*
G36*
X1241048Y542548D02*
X1252475Y542548D01*
X1250326Y547736D01*
X1246236Y551826D01*
X1241048Y553975D01*
X1241048Y542548D01*
G37*
G36*
X1414525Y542548D02*
X1425952Y542548D01*
X1425952Y553975D01*
X1420764Y551826D01*
X1416674Y547736D01*
X1414525Y542548D01*
G37*
G36*
X1432048Y542548D02*
X1443475Y542548D01*
X1441326Y547736D01*
X1437236Y551826D01*
X1432048Y553975D01*
X1432048Y542548D01*
G37*
G36*
X1477525Y542548D02*
X1488952Y542548D01*
X1488952Y553975D01*
X1483764Y551826D01*
X1479674Y547736D01*
X1477525Y542548D01*
G37*
G36*
X1495048Y542548D02*
X1506475Y542548D01*
X1504326Y547736D01*
X1500236Y551826D01*
X1495048Y553975D01*
X1495048Y542548D01*
G37*
G36*
X606048Y536952D02*
X606048Y525525D01*
X611236Y527674D01*
X615326Y531764D01*
X617475Y536952D01*
X606048Y536952D01*
G37*
G36*
X594764Y527674D02*
X599952Y525525D01*
X599952Y536952D01*
X588525Y536952D01*
X590674Y531764D01*
X594764Y527674D01*
G37*
G36*
X543048Y536952D02*
X543048Y525525D01*
X548236Y527674D01*
X552326Y531764D01*
X554475Y536952D01*
X543048Y536952D01*
G37*
G36*
X531764Y527674D02*
X536952Y525525D01*
X536952Y536952D01*
X525525Y536952D01*
X527674Y531764D01*
X531764Y527674D01*
G37*
G36*
X1495048Y536452D02*
X1495048Y525025D01*
X1500236Y527174D01*
X1504326Y531264D01*
X1506475Y536452D01*
X1495048Y536452D01*
G37*
G36*
X1483764Y527174D02*
X1488952Y525025D01*
X1488952Y536452D01*
X1477525Y536452D01*
X1479674Y531264D01*
X1483764Y527174D01*
G37*
G36*
X1432048Y536452D02*
X1432048Y525025D01*
X1437236Y527174D01*
X1441326Y531264D01*
X1443475Y536452D01*
X1432048Y536452D01*
G37*
G36*
X1420764Y527174D02*
X1425952Y525025D01*
X1425952Y536452D01*
X1414525Y536452D01*
X1416674Y531264D01*
X1420764Y527174D01*
G37*
G36*
X1241048Y536452D02*
X1241048Y525025D01*
X1246236Y527174D01*
X1250326Y531264D01*
X1252475Y536452D01*
X1241048Y536452D01*
G37*
G36*
X1229764Y527174D02*
X1234952Y525025D01*
X1234952Y536452D01*
X1223525Y536452D01*
X1225674Y531264D01*
X1229764Y527174D01*
G37*
G36*
X1178048Y536452D02*
X1178048Y525025D01*
X1183236Y527174D01*
X1187326Y531264D01*
X1189475Y536452D01*
X1178048Y536452D01*
G37*
G36*
X1166764Y527174D02*
X1171952Y525025D01*
X1171952Y536452D01*
X1160525Y536452D01*
X1162674Y531264D01*
X1166764Y527174D01*
G37*
G36*
X2029199Y493920D02*
X2034801Y493920D01*
X2039976Y496064D01*
X2043936Y500024D01*
X2046080Y505199D01*
X2046080Y510801D01*
X2043936Y515976D01*
X2039976Y519936D01*
X2034801Y522080D01*
X2029199Y522080D01*
X2024024Y519936D01*
X2020064Y515976D01*
X2017920Y510801D01*
X2017920Y505199D01*
X2020064Y500024D01*
X2024024Y496064D01*
X2029199Y493920D01*
G37*
G36*
X1775199Y493920D02*
X1780801Y493920D01*
X1785976Y496064D01*
X1789936Y500024D01*
X1792080Y505199D01*
X1792080Y510801D01*
X1789936Y515976D01*
X1785976Y519936D01*
X1780801Y522080D01*
X1775199Y522080D01*
X1770024Y519936D01*
X1766064Y515976D01*
X1763920Y510801D01*
X1763920Y505199D01*
X1766064Y500024D01*
X1770024Y496064D01*
X1775199Y493920D01*
G37*
G36*
X1457699Y493920D02*
X1463301Y493920D01*
X1468476Y496064D01*
X1472436Y500024D01*
X1474580Y505199D01*
X1474580Y510801D01*
X1472436Y515976D01*
X1468476Y519936D01*
X1463301Y522080D01*
X1457699Y522080D01*
X1452524Y519936D01*
X1448564Y515976D01*
X1446420Y510801D01*
X1446420Y505199D01*
X1448564Y500024D01*
X1452524Y496064D01*
X1457699Y493920D01*
G37*
G36*
X1203699Y493920D02*
X1209301Y493920D01*
X1214476Y496064D01*
X1218436Y500024D01*
X1220580Y505199D01*
X1220580Y510801D01*
X1218436Y515976D01*
X1214476Y519936D01*
X1209301Y522080D01*
X1203699Y522080D01*
X1198524Y519936D01*
X1194564Y515976D01*
X1192420Y510801D01*
X1192420Y505199D01*
X1194564Y500024D01*
X1198524Y496064D01*
X1203699Y493920D01*
G37*
G36*
X1997103Y459420D02*
X2003897Y459420D01*
X2010175Y462020D01*
X2014980Y466825D01*
X2017580Y473103D01*
X2017580Y479897D01*
X2014980Y486175D01*
X2010175Y490980D01*
X2003897Y493580D01*
X1997103Y493580D01*
X1990825Y490980D01*
X1986020Y486175D01*
X1983420Y479897D01*
X1983420Y473103D01*
X1986020Y466825D01*
X1990825Y462020D01*
X1997103Y459420D01*
G37*
G36*
X2060103Y459420D02*
X2066897Y459420D01*
X2073175Y462020D01*
X2077980Y466825D01*
X2080580Y473103D01*
X2080580Y479897D01*
X2077980Y486175D01*
X2073175Y490980D01*
X2066897Y493580D01*
X2060103Y493580D01*
X2053825Y490980D01*
X2049020Y486175D01*
X2046420Y479897D01*
X2046420Y473103D01*
X2049020Y466825D01*
X2053825Y462020D01*
X2060103Y459420D01*
G37*
G36*
X1806103Y459420D02*
X1812897Y459420D01*
X1819175Y462020D01*
X1823980Y466825D01*
X1826580Y473103D01*
X1826580Y479897D01*
X1823980Y486175D01*
X1819175Y490980D01*
X1812897Y493580D01*
X1806103Y493580D01*
X1799825Y490980D01*
X1795020Y486175D01*
X1792420Y479897D01*
X1792420Y473103D01*
X1795020Y466825D01*
X1799825Y462020D01*
X1806103Y459420D01*
G37*
G36*
X1743103Y459420D02*
X1749897Y459420D01*
X1756175Y462020D01*
X1760980Y466825D01*
X1763580Y473103D01*
X1763580Y479897D01*
X1760980Y486175D01*
X1756175Y490980D01*
X1749897Y493580D01*
X1743103Y493580D01*
X1736825Y490980D01*
X1732020Y486175D01*
X1729420Y479897D01*
X1729420Y473103D01*
X1732020Y466825D01*
X1736825Y462020D01*
X1743103Y459420D01*
G37*
G36*
X1160525Y479548D02*
X1171952Y479548D01*
X1171952Y490975D01*
X1166764Y488826D01*
X1162674Y484736D01*
X1160525Y479548D01*
G37*
G36*
X1178048Y479548D02*
X1189475Y479548D01*
X1187326Y484736D01*
X1183236Y488826D01*
X1178048Y490975D01*
X1178048Y479548D01*
G37*
G36*
X1223525Y479548D02*
X1234952Y479548D01*
X1234952Y490975D01*
X1229764Y488826D01*
X1225674Y484736D01*
X1223525Y479548D01*
G37*
G36*
X1241048Y479548D02*
X1252475Y479548D01*
X1250326Y484736D01*
X1246236Y488826D01*
X1241048Y490975D01*
X1241048Y479548D01*
G37*
G36*
X1414525Y479548D02*
X1425952Y479548D01*
X1425952Y490975D01*
X1420764Y488826D01*
X1416674Y484736D01*
X1414525Y479548D01*
G37*
G36*
X1432048Y479548D02*
X1443475Y479548D01*
X1441326Y484736D01*
X1437236Y488826D01*
X1432048Y490975D01*
X1432048Y479548D01*
G37*
G36*
X1477525Y479548D02*
X1488952Y479548D01*
X1488952Y490975D01*
X1483764Y488826D01*
X1479674Y484736D01*
X1477525Y479548D01*
G37*
G36*
X1495048Y479548D02*
X1506475Y479548D01*
X1504326Y484736D01*
X1500236Y488826D01*
X1495048Y490975D01*
X1495048Y479548D01*
G37*
G36*
X1495048Y473452D02*
X1495048Y462025D01*
X1500236Y464174D01*
X1504326Y468264D01*
X1506475Y473452D01*
X1495048Y473452D01*
G37*
G36*
X1483764Y464174D02*
X1488952Y462025D01*
X1488952Y473452D01*
X1477525Y473452D01*
X1479674Y468264D01*
X1483764Y464174D01*
G37*
G36*
X1432048Y473452D02*
X1432048Y462025D01*
X1437236Y464174D01*
X1441326Y468264D01*
X1443475Y473452D01*
X1432048Y473452D01*
G37*
G36*
X1420764Y464174D02*
X1425952Y462025D01*
X1425952Y473452D01*
X1414525Y473452D01*
X1416674Y468264D01*
X1420764Y464174D01*
G37*
G36*
X1241048Y473452D02*
X1241048Y462025D01*
X1246236Y464174D01*
X1250326Y468264D01*
X1252475Y473452D01*
X1241048Y473452D01*
G37*
G36*
X1229764Y464174D02*
X1234952Y462025D01*
X1234952Y473452D01*
X1223525Y473452D01*
X1225674Y468264D01*
X1229764Y464174D01*
G37*
G36*
X1178048Y473452D02*
X1178048Y462025D01*
X1183236Y464174D01*
X1187326Y468264D01*
X1189475Y473452D01*
X1178048Y473452D01*
G37*
G36*
X1166764Y464174D02*
X1171952Y462025D01*
X1171952Y473452D01*
X1160525Y473452D01*
X1162674Y468264D01*
X1166764Y464174D01*
G37*
G36*
X536376Y393700D02*
X555824Y393700D01*
X558800Y396676D01*
X558800Y400043D01*
X558845Y400301D01*
X559002Y400560D01*
X559248Y400737D01*
X559544Y400805D01*
X559842Y400752D01*
X560097Y400586D01*
X560266Y400335D01*
X560733Y399206D01*
X564306Y395633D01*
X568974Y393700D01*
X574026Y393700D01*
X578694Y395633D01*
X582267Y399206D01*
X583496Y402174D01*
X583640Y402400D01*
X583886Y402577D01*
X584182Y402644D01*
X584480Y402591D01*
X584735Y402426D01*
X584904Y402174D01*
X586133Y399206D01*
X589706Y395633D01*
X594374Y393700D01*
X599426Y393700D01*
X604094Y395633D01*
X607667Y399206D01*
X609600Y403874D01*
X609600Y408926D01*
X607667Y413594D01*
X604094Y417167D01*
X599426Y419100D01*
X594374Y419100D01*
X589706Y417167D01*
X586133Y413594D01*
X584904Y410626D01*
X584760Y410400D01*
X584514Y410223D01*
X584218Y410156D01*
X583920Y410209D01*
X583666Y410374D01*
X583496Y410626D01*
X582267Y413594D01*
X578694Y417167D01*
X574026Y419100D01*
X568974Y419100D01*
X564306Y417167D01*
X560733Y413594D01*
X560266Y412465D01*
X560126Y412245D01*
X559881Y412065D01*
X559586Y411995D01*
X559287Y412046D01*
X559032Y412210D01*
X558860Y412460D01*
X558800Y412757D01*
X558800Y416124D01*
X555824Y419100D01*
X536376Y419100D01*
X533400Y416124D01*
X533400Y396676D01*
X536376Y393700D01*
G37*
G36*
X1171376Y330200D02*
X1190824Y330200D01*
X1193800Y333176D01*
X1193800Y336543D01*
X1193845Y336801D01*
X1194002Y337060D01*
X1194248Y337237D01*
X1194544Y337305D01*
X1194842Y337252D01*
X1195097Y337086D01*
X1195266Y336835D01*
X1195733Y335706D01*
X1199306Y332133D01*
X1203974Y330200D01*
X1209026Y330200D01*
X1213694Y332133D01*
X1217267Y335706D01*
X1218496Y338674D01*
X1218640Y338900D01*
X1218886Y339077D01*
X1219182Y339144D01*
X1219480Y339091D01*
X1219735Y338926D01*
X1219904Y338674D01*
X1221133Y335706D01*
X1224706Y332133D01*
X1229374Y330200D01*
X1234426Y330200D01*
X1239094Y332133D01*
X1242667Y335706D01*
X1244600Y340374D01*
X1244600Y345426D01*
X1242667Y350094D01*
X1239094Y353667D01*
X1234426Y355600D01*
X1229374Y355600D01*
X1224706Y353667D01*
X1221133Y350094D01*
X1219904Y347126D01*
X1219760Y346900D01*
X1219514Y346723D01*
X1219218Y346656D01*
X1218920Y346709D01*
X1218666Y346874D01*
X1218496Y347126D01*
X1217267Y350094D01*
X1213694Y353667D01*
X1209026Y355600D01*
X1203974Y355600D01*
X1199306Y353667D01*
X1195733Y350094D01*
X1195266Y348965D01*
X1195126Y348745D01*
X1194881Y348565D01*
X1194586Y348495D01*
X1194287Y348546D01*
X1194032Y348710D01*
X1193860Y348960D01*
X1193800Y349257D01*
X1193800Y352624D01*
X1190824Y355600D01*
X1171376Y355600D01*
X1168400Y352624D01*
X1168400Y333176D01*
X1171376Y330200D01*
G37*
G36*
X1425376Y330200D02*
X1444824Y330200D01*
X1447800Y333176D01*
X1447800Y336543D01*
X1447845Y336801D01*
X1448002Y337060D01*
X1448248Y337237D01*
X1448544Y337305D01*
X1448842Y337252D01*
X1449097Y337086D01*
X1449266Y336835D01*
X1449733Y335706D01*
X1453306Y332133D01*
X1457974Y330200D01*
X1463026Y330200D01*
X1467694Y332133D01*
X1471267Y335706D01*
X1472496Y338674D01*
X1472640Y338900D01*
X1472886Y339077D01*
X1473182Y339144D01*
X1473480Y339091D01*
X1473735Y338926D01*
X1473904Y338674D01*
X1475133Y335706D01*
X1478706Y332133D01*
X1483374Y330200D01*
X1488426Y330200D01*
X1493094Y332133D01*
X1496667Y335706D01*
X1498600Y340374D01*
X1498600Y345426D01*
X1496667Y350094D01*
X1493094Y353667D01*
X1488426Y355600D01*
X1483374Y355600D01*
X1478706Y353667D01*
X1475133Y350094D01*
X1473904Y347126D01*
X1473760Y346900D01*
X1473514Y346723D01*
X1473218Y346656D01*
X1472920Y346709D01*
X1472666Y346874D01*
X1472496Y347126D01*
X1471267Y350094D01*
X1467694Y353667D01*
X1463026Y355600D01*
X1457974Y355600D01*
X1453306Y353667D01*
X1449733Y350094D01*
X1449266Y348965D01*
X1449126Y348745D01*
X1448881Y348565D01*
X1448586Y348495D01*
X1448287Y348546D01*
X1448032Y348710D01*
X1447860Y348960D01*
X1447800Y349257D01*
X1447800Y352624D01*
X1444824Y355600D01*
X1425376Y355600D01*
X1422400Y352624D01*
X1422400Y333176D01*
X1425376Y330200D01*
G37*
G36*
X1065037Y16538D02*
X1068563Y16538D01*
X1071820Y17887D01*
X1074313Y20380D01*
X1075497Y23239D01*
X1075662Y23486D01*
X1136760Y84584D01*
X1137920Y87384D01*
X1137920Y337987D01*
X1137978Y338279D01*
X1139162Y341137D01*
X1139162Y344663D01*
X1137813Y347920D01*
X1135320Y350413D01*
X1132063Y351762D01*
X1128537Y351762D01*
X1125280Y350413D01*
X1122787Y347920D01*
X1121438Y344663D01*
X1121438Y341137D01*
X1122622Y338279D01*
X1122680Y337987D01*
X1122680Y92372D01*
X1122624Y92086D01*
X1122457Y91833D01*
X1064886Y34262D01*
X1064639Y34097D01*
X1061780Y32913D01*
X1059287Y30420D01*
X1057938Y27163D01*
X1057938Y23637D01*
X1059287Y20380D01*
X1061780Y17887D01*
X1065037Y16538D01*
G37*
G36*
X1344437Y270538D02*
X1347963Y270538D01*
X1351220Y271887D01*
X1353713Y274380D01*
X1355062Y277637D01*
X1355062Y281163D01*
X1354299Y283006D01*
X1354241Y283267D01*
X1354290Y283566D01*
X1354451Y283823D01*
X1354700Y283997D01*
X1354997Y284059D01*
X1355294Y284001D01*
X1357137Y283238D01*
X1360663Y283238D01*
X1363920Y284587D01*
X1366413Y287080D01*
X1367762Y290337D01*
X1367762Y293863D01*
X1366578Y296721D01*
X1366520Y297013D01*
X1366520Y337987D01*
X1366578Y338279D01*
X1367762Y341137D01*
X1367762Y344663D01*
X1366413Y347920D01*
X1363920Y350413D01*
X1360663Y351762D01*
X1357137Y351762D01*
X1353880Y350413D01*
X1351387Y347920D01*
X1350038Y344663D01*
X1350038Y341137D01*
X1351222Y338279D01*
X1351280Y337987D01*
X1351280Y297013D01*
X1351222Y296721D01*
X1350038Y293863D01*
X1350038Y290337D01*
X1350801Y288494D01*
X1350859Y288233D01*
X1350810Y287934D01*
X1350649Y287677D01*
X1350400Y287503D01*
X1350103Y287441D01*
X1349806Y287499D01*
X1348362Y288097D01*
X1348114Y288262D01*
X1341343Y295033D01*
X1341180Y295275D01*
X1341120Y295572D01*
X1341120Y312587D01*
X1341178Y312879D01*
X1342362Y315737D01*
X1342362Y319263D01*
X1341013Y322520D01*
X1338520Y325013D01*
X1335263Y326362D01*
X1331737Y326362D01*
X1328480Y325013D01*
X1325987Y322520D01*
X1324638Y319263D01*
X1324638Y315737D01*
X1325822Y312879D01*
X1325880Y312587D01*
X1325880Y290584D01*
X1327040Y287784D01*
X1337338Y277486D01*
X1337503Y277239D01*
X1338687Y274380D01*
X1341180Y271887D01*
X1344437Y270538D01*
G37*
G36*
X684037Y334038D02*
X687563Y334038D01*
X690421Y335222D01*
X690713Y335280D01*
X757087Y335280D01*
X757379Y335222D01*
X760237Y334038D01*
X763763Y334038D01*
X767020Y335387D01*
X769513Y337880D01*
X770862Y341137D01*
X770862Y344663D01*
X769513Y347920D01*
X767020Y350413D01*
X763763Y351762D01*
X760237Y351762D01*
X757379Y350578D01*
X757087Y350520D01*
X690713Y350520D01*
X690421Y350578D01*
X687563Y351762D01*
X684037Y351762D01*
X680780Y350413D01*
X678287Y347920D01*
X676938Y344663D01*
X676938Y341137D01*
X678287Y337880D01*
X680780Y335387D01*
X684037Y334038D01*
G37*
G36*
X1382537Y271810D02*
X1386063Y271810D01*
X1389320Y273159D01*
X1391813Y275652D01*
X1393162Y278909D01*
X1393162Y282435D01*
X1391978Y285293D01*
X1391920Y285585D01*
X1391920Y325287D01*
X1391978Y325579D01*
X1393162Y328437D01*
X1393162Y331963D01*
X1391813Y335220D01*
X1389320Y337713D01*
X1386063Y339062D01*
X1382537Y339062D01*
X1379280Y337713D01*
X1376787Y335220D01*
X1375438Y331963D01*
X1375438Y328437D01*
X1376622Y325579D01*
X1376680Y325287D01*
X1376680Y285585D01*
X1376622Y285293D01*
X1375438Y282435D01*
X1375438Y278909D01*
X1376787Y275652D01*
X1379280Y273159D01*
X1382537Y271810D01*
G37*
G36*
X843025Y288548D02*
X854452Y288548D01*
X854452Y299975D01*
X849264Y297826D01*
X845174Y293736D01*
X843025Y288548D01*
G37*
G36*
X208025Y288548D02*
X219452Y288548D01*
X219452Y299975D01*
X214264Y297826D01*
X210174Y293736D01*
X208025Y288548D01*
G37*
G36*
X225548Y288548D02*
X236975Y288548D01*
X234826Y293736D01*
X230736Y297826D01*
X225548Y299975D01*
X225548Y288548D01*
G37*
G36*
X271025Y288548D02*
X282452Y288548D01*
X282452Y299975D01*
X277264Y297826D01*
X273174Y293736D01*
X271025Y288548D01*
G37*
G36*
X288548Y288548D02*
X299975Y288548D01*
X297826Y293736D01*
X293736Y297826D01*
X288548Y299975D01*
X288548Y288548D01*
G37*
G36*
X860548Y288548D02*
X871975Y288548D01*
X869826Y293736D01*
X865736Y297826D01*
X860548Y299975D01*
X860548Y288548D01*
G37*
G36*
X906025Y288548D02*
X917452Y288548D01*
X917452Y299975D01*
X912264Y297826D01*
X908174Y293736D01*
X906025Y288548D01*
G37*
G36*
X923548Y288548D02*
X934975Y288548D01*
X932826Y293736D01*
X928736Y297826D01*
X923548Y299975D01*
X923548Y288548D01*
G37*
G36*
X923548Y282452D02*
X923548Y271025D01*
X928736Y273174D01*
X932826Y277264D01*
X934975Y282452D01*
X923548Y282452D01*
G37*
G36*
X912264Y273174D02*
X917452Y271025D01*
X917452Y282452D01*
X906025Y282452D01*
X908174Y277264D01*
X912264Y273174D01*
G37*
G36*
X860548Y282452D02*
X860548Y271025D01*
X865736Y273174D01*
X869826Y277264D01*
X871975Y282452D01*
X860548Y282452D01*
G37*
G36*
X849264Y273174D02*
X854452Y271025D01*
X854452Y282452D01*
X843025Y282452D01*
X845174Y277264D01*
X849264Y273174D01*
G37*
G36*
X288548Y282452D02*
X288548Y271025D01*
X293736Y273174D01*
X297826Y277264D01*
X299975Y282452D01*
X288548Y282452D01*
G37*
G36*
X277264Y273174D02*
X282452Y271025D01*
X282452Y282452D01*
X271025Y282452D01*
X273174Y277264D01*
X277264Y273174D01*
G37*
G36*
X225548Y282452D02*
X225548Y271025D01*
X230736Y273174D01*
X234826Y277264D01*
X236975Y282452D01*
X225548Y282452D01*
G37*
G36*
X214264Y273174D02*
X219452Y271025D01*
X219452Y282452D01*
X208025Y282452D01*
X210174Y277264D01*
X214264Y273174D01*
G37*
G36*
X1331737Y245138D02*
X1335263Y245138D01*
X1338520Y246487D01*
X1341013Y248980D01*
X1342362Y252237D01*
X1342362Y255763D01*
X1341013Y259020D01*
X1338520Y261513D01*
X1335662Y262697D01*
X1335414Y262862D01*
X1325116Y273160D01*
X1322316Y274320D01*
X1313013Y274320D01*
X1312721Y274378D01*
X1309863Y275562D01*
X1306337Y275562D01*
X1303080Y274213D01*
X1300587Y271720D01*
X1299238Y268463D01*
X1299238Y264937D01*
X1300587Y261680D01*
X1303080Y259187D01*
X1306337Y257838D01*
X1309863Y257838D01*
X1312721Y259022D01*
X1313013Y259080D01*
X1317328Y259080D01*
X1317614Y259024D01*
X1317867Y258857D01*
X1324638Y252086D01*
X1324803Y251839D01*
X1325987Y248980D01*
X1328480Y246487D01*
X1331737Y245138D01*
G37*
G36*
X886199Y239920D02*
X891801Y239920D01*
X896976Y242064D01*
X900936Y246024D01*
X903080Y251199D01*
X903080Y256801D01*
X900936Y261976D01*
X896976Y265936D01*
X891801Y268080D01*
X886199Y268080D01*
X881024Y265936D01*
X877064Y261976D01*
X874920Y256801D01*
X874920Y251199D01*
X877064Y246024D01*
X881024Y242064D01*
X886199Y239920D01*
G37*
G36*
X251199Y239920D02*
X256801Y239920D01*
X261976Y242064D01*
X265936Y246024D01*
X268080Y251199D01*
X268080Y256801D01*
X265936Y261976D01*
X261976Y265936D01*
X256801Y268080D01*
X251199Y268080D01*
X246024Y265936D01*
X242064Y261976D01*
X239920Y256801D01*
X239920Y251199D01*
X242064Y246024D01*
X246024Y242064D01*
X251199Y239920D01*
G37*
G36*
X1399946Y114270D02*
X1419454Y114270D01*
X1422430Y117246D01*
X1422430Y136754D01*
X1419454Y139730D01*
X1416208Y139730D01*
X1415950Y139775D01*
X1415691Y139932D01*
X1415514Y140178D01*
X1415446Y140474D01*
X1415499Y140772D01*
X1415665Y141027D01*
X1415916Y141196D01*
X1416911Y141608D01*
X1420492Y145189D01*
X1422430Y149868D01*
X1422430Y154932D01*
X1420492Y159611D01*
X1416911Y163192D01*
X1414004Y164396D01*
X1413779Y164540D01*
X1413601Y164786D01*
X1413534Y165082D01*
X1413587Y165380D01*
X1413753Y165635D01*
X1414004Y165804D01*
X1416911Y167008D01*
X1420492Y170589D01*
X1422430Y175268D01*
X1422430Y180332D01*
X1420492Y185011D01*
X1416911Y188592D01*
X1414004Y189796D01*
X1413779Y189940D01*
X1413601Y190186D01*
X1413534Y190482D01*
X1413587Y190780D01*
X1413753Y191035D01*
X1414004Y191204D01*
X1416911Y192408D01*
X1420492Y195989D01*
X1422430Y200668D01*
X1422430Y205732D01*
X1420492Y210411D01*
X1416911Y213992D01*
X1414004Y215196D01*
X1413779Y215340D01*
X1413601Y215586D01*
X1413534Y215882D01*
X1413587Y216180D01*
X1413753Y216435D01*
X1414004Y216604D01*
X1416911Y217808D01*
X1420492Y221389D01*
X1422430Y226068D01*
X1422430Y231132D01*
X1420492Y235811D01*
X1416911Y239392D01*
X1414004Y240596D01*
X1413779Y240740D01*
X1413601Y240986D01*
X1413534Y241282D01*
X1413587Y241580D01*
X1413753Y241835D01*
X1414004Y242004D01*
X1416911Y243208D01*
X1420492Y246789D01*
X1422430Y251468D01*
X1422430Y256532D01*
X1420492Y261211D01*
X1416911Y264792D01*
X1412232Y266730D01*
X1407168Y266730D01*
X1402489Y264792D01*
X1398908Y261211D01*
X1397704Y258304D01*
X1397560Y258079D01*
X1397314Y257901D01*
X1397018Y257834D01*
X1396720Y257887D01*
X1396466Y258053D01*
X1396296Y258304D01*
X1395092Y261211D01*
X1391511Y264792D01*
X1386832Y266730D01*
X1381768Y266730D01*
X1377089Y264792D01*
X1373508Y261211D01*
X1371570Y256532D01*
X1371570Y251468D01*
X1373508Y246789D01*
X1377089Y243208D01*
X1379996Y242004D01*
X1380221Y241860D01*
X1380399Y241614D01*
X1380466Y241318D01*
X1380413Y241020D01*
X1380247Y240766D01*
X1379996Y240596D01*
X1377089Y239392D01*
X1373508Y235811D01*
X1371570Y231132D01*
X1371570Y226068D01*
X1373508Y221389D01*
X1377089Y217808D01*
X1379996Y216604D01*
X1380221Y216460D01*
X1380399Y216214D01*
X1380466Y215918D01*
X1380413Y215620D01*
X1380247Y215366D01*
X1379996Y215196D01*
X1377089Y213992D01*
X1373508Y210411D01*
X1371570Y205732D01*
X1371570Y200668D01*
X1373508Y195989D01*
X1377089Y192408D01*
X1379996Y191204D01*
X1380221Y191060D01*
X1380399Y190814D01*
X1380466Y190518D01*
X1380413Y190220D01*
X1380247Y189966D01*
X1379996Y189796D01*
X1377089Y188592D01*
X1373508Y185011D01*
X1371570Y180332D01*
X1371570Y175268D01*
X1373508Y170589D01*
X1377089Y167008D01*
X1379996Y165804D01*
X1380221Y165660D01*
X1380399Y165414D01*
X1380466Y165118D01*
X1380413Y164820D01*
X1380247Y164566D01*
X1379996Y164396D01*
X1377089Y163192D01*
X1373508Y159611D01*
X1371570Y154932D01*
X1371570Y149868D01*
X1373508Y145189D01*
X1377089Y141608D01*
X1381768Y139670D01*
X1386832Y139670D01*
X1391511Y141608D01*
X1395092Y145189D01*
X1396296Y148096D01*
X1396440Y148321D01*
X1396686Y148499D01*
X1396982Y148566D01*
X1397280Y148513D01*
X1397535Y148347D01*
X1397704Y148096D01*
X1398908Y145189D01*
X1402489Y141608D01*
X1403484Y141196D01*
X1403705Y141056D01*
X1403884Y140811D01*
X1403954Y140516D01*
X1403903Y140217D01*
X1403740Y139962D01*
X1403489Y139790D01*
X1403192Y139730D01*
X1399946Y139730D01*
X1396970Y136754D01*
X1396970Y117246D01*
X1399946Y114270D01*
G37*
G36*
X1242837Y219738D02*
X1246363Y219738D01*
X1249620Y221087D01*
X1252113Y223580D01*
X1253462Y226837D01*
X1253462Y230363D01*
X1252278Y233221D01*
X1252220Y233513D01*
X1252220Y242816D01*
X1251060Y245616D01*
X1240762Y255914D01*
X1240597Y256162D01*
X1239413Y259020D01*
X1236920Y261513D01*
X1233663Y262862D01*
X1230137Y262862D01*
X1226880Y261513D01*
X1224387Y259020D01*
X1223038Y255763D01*
X1223038Y252237D01*
X1224387Y248980D01*
X1226880Y246487D01*
X1229739Y245303D01*
X1229986Y245138D01*
X1236757Y238367D01*
X1236920Y238125D01*
X1236980Y237828D01*
X1236980Y233513D01*
X1236922Y233221D01*
X1235738Y230363D01*
X1235738Y226837D01*
X1237087Y223580D01*
X1239580Y221087D01*
X1242837Y219738D01*
G37*
G36*
X271025Y225548D02*
X282452Y225548D01*
X282452Y236975D01*
X277264Y234826D01*
X273174Y230736D01*
X271025Y225548D01*
G37*
G36*
X208025Y225548D02*
X219452Y225548D01*
X219452Y236975D01*
X214264Y234826D01*
X210174Y230736D01*
X208025Y225548D01*
G37*
G36*
X225548Y225548D02*
X236975Y225548D01*
X234826Y230736D01*
X230736Y234826D01*
X225548Y236975D01*
X225548Y225548D01*
G37*
G36*
X288548Y225548D02*
X299975Y225548D01*
X297826Y230736D01*
X293736Y234826D01*
X288548Y236975D01*
X288548Y225548D01*
G37*
G36*
X843025Y225548D02*
X854452Y225548D01*
X854452Y236975D01*
X849264Y234826D01*
X845174Y230736D01*
X843025Y225548D01*
G37*
G36*
X860548Y225548D02*
X871975Y225548D01*
X869826Y230736D01*
X865736Y234826D01*
X860548Y236975D01*
X860548Y225548D01*
G37*
G36*
X906025Y225548D02*
X917452Y225548D01*
X917452Y236975D01*
X912264Y234826D01*
X908174Y230736D01*
X906025Y225548D01*
G37*
G36*
X923548Y225548D02*
X934975Y225548D01*
X932826Y230736D01*
X928736Y234826D01*
X923548Y236975D01*
X923548Y225548D01*
G37*
G36*
X923548Y219452D02*
X923548Y208025D01*
X928736Y210174D01*
X932826Y214264D01*
X934975Y219452D01*
X923548Y219452D01*
G37*
G36*
X912264Y210174D02*
X917452Y208025D01*
X917452Y219452D01*
X906025Y219452D01*
X908174Y214264D01*
X912264Y210174D01*
G37*
G36*
X860548Y219452D02*
X860548Y208025D01*
X865736Y210174D01*
X869826Y214264D01*
X871975Y219452D01*
X860548Y219452D01*
G37*
G36*
X849264Y210174D02*
X854452Y208025D01*
X854452Y219452D01*
X843025Y219452D01*
X845174Y214264D01*
X849264Y210174D01*
G37*
G36*
X288548Y219452D02*
X288548Y208025D01*
X293736Y210174D01*
X297826Y214264D01*
X299975Y219452D01*
X288548Y219452D01*
G37*
G36*
X277264Y210174D02*
X282452Y208025D01*
X282452Y219452D01*
X271025Y219452D01*
X273174Y214264D01*
X277264Y210174D01*
G37*
G36*
X225548Y219452D02*
X225548Y208025D01*
X230736Y210174D01*
X234826Y214264D01*
X236975Y219452D01*
X225548Y219452D01*
G37*
G36*
X214264Y210174D02*
X219452Y208025D01*
X219452Y219452D01*
X208025Y219452D01*
X210174Y214264D01*
X214264Y210174D01*
G37*
G36*
X1387348Y130048D02*
X1387348Y117233D01*
X1390072Y118361D01*
X1392939Y121228D01*
X1394490Y124973D01*
X1394490Y129027D01*
X1392939Y132772D01*
X1390072Y135639D01*
X1386327Y137190D01*
X1382273Y137190D01*
X1378528Y135639D01*
X1375661Y132772D01*
X1374533Y130048D01*
X1387348Y130048D01*
G37*
G36*
X1378528Y118361D02*
X1381252Y117233D01*
X1381252Y123952D01*
X1374533Y123952D01*
X1375661Y121228D01*
X1378528Y118361D01*
G37*
G36*
X853876Y76200D02*
X873324Y76200D01*
X876300Y79176D01*
X876300Y82543D01*
X876345Y82801D01*
X876502Y83060D01*
X876748Y83237D01*
X877044Y83305D01*
X877342Y83252D01*
X877597Y83086D01*
X877766Y82835D01*
X878233Y81706D01*
X881806Y78133D01*
X886474Y76200D01*
X891526Y76200D01*
X896194Y78133D01*
X899767Y81706D01*
X900996Y84674D01*
X901140Y84900D01*
X901386Y85077D01*
X901682Y85144D01*
X901980Y85091D01*
X902235Y84926D01*
X902404Y84674D01*
X903633Y81706D01*
X907206Y78133D01*
X911874Y76200D01*
X916926Y76200D01*
X921594Y78133D01*
X925167Y81706D01*
X927100Y86374D01*
X927100Y91426D01*
X925167Y96094D01*
X921594Y99667D01*
X916926Y101600D01*
X911874Y101600D01*
X907206Y99667D01*
X903633Y96094D01*
X902404Y93126D01*
X902260Y92900D01*
X902014Y92723D01*
X901718Y92656D01*
X901420Y92709D01*
X901166Y92874D01*
X900996Y93126D01*
X899767Y96094D01*
X896194Y99667D01*
X891526Y101600D01*
X886474Y101600D01*
X881806Y99667D01*
X878233Y96094D01*
X877766Y94965D01*
X877626Y94745D01*
X877381Y94565D01*
X877086Y94495D01*
X876787Y94546D01*
X876532Y94710D01*
X876360Y94960D01*
X876300Y95257D01*
X876300Y98624D01*
X873324Y101600D01*
X853876Y101600D01*
X850900Y98624D01*
X850900Y79176D01*
X853876Y76200D01*
G37*
G36*
X218876Y76200D02*
X238324Y76200D01*
X241300Y79176D01*
X241300Y82543D01*
X241345Y82801D01*
X241502Y83060D01*
X241748Y83237D01*
X242044Y83305D01*
X242342Y83252D01*
X242597Y83086D01*
X242766Y82835D01*
X243233Y81706D01*
X246806Y78133D01*
X251474Y76200D01*
X256526Y76200D01*
X261194Y78133D01*
X264767Y81706D01*
X265996Y84674D01*
X266140Y84900D01*
X266386Y85077D01*
X266682Y85144D01*
X266980Y85091D01*
X267235Y84926D01*
X267404Y84674D01*
X268633Y81706D01*
X272206Y78133D01*
X276874Y76200D01*
X281926Y76200D01*
X286594Y78133D01*
X290167Y81706D01*
X292100Y86374D01*
X292100Y91426D01*
X290167Y96094D01*
X286594Y99667D01*
X281926Y101600D01*
X276874Y101600D01*
X272206Y99667D01*
X268633Y96094D01*
X267404Y93126D01*
X267260Y92900D01*
X267014Y92723D01*
X266718Y92656D01*
X266420Y92709D01*
X266166Y92874D01*
X265996Y93126D01*
X264767Y96094D01*
X261194Y99667D01*
X256526Y101600D01*
X251474Y101600D01*
X246806Y99667D01*
X243233Y96094D01*
X242766Y94965D01*
X242626Y94745D01*
X242381Y94565D01*
X242086Y94495D01*
X241787Y94546D01*
X241532Y94710D01*
X241360Y94960D01*
X241300Y95257D01*
X241300Y98624D01*
X238324Y101600D01*
X218876Y101600D01*
X215900Y98624D01*
X215900Y79176D01*
X218876Y76200D01*
G37*
G36*
X47456Y25400D02*
X54144Y25400D01*
X60604Y27131D01*
X66396Y30475D01*
X71125Y35204D01*
X74469Y40996D01*
X76200Y47456D01*
X76200Y54144D01*
X74469Y60604D01*
X71125Y66396D01*
X66396Y71125D01*
X60604Y74469D01*
X54144Y76200D01*
X47456Y76200D01*
X40996Y74469D01*
X35204Y71125D01*
X30475Y66396D01*
X27131Y60604D01*
X25400Y54144D01*
X25400Y47456D01*
X27131Y40996D01*
X30475Y35204D01*
X35204Y30475D01*
X40996Y27131D01*
X47456Y25400D01*
G37*
G36*
X2104856Y25400D02*
X2111544Y25400D01*
X2118004Y27131D01*
X2123796Y30475D01*
X2128525Y35204D01*
X2131869Y40996D01*
X2133600Y47456D01*
X2133600Y54144D01*
X2131869Y60604D01*
X2128525Y66396D01*
X2123796Y71125D01*
X2118004Y74469D01*
X2111544Y76200D01*
X2104856Y76200D01*
X2098396Y74469D01*
X2092604Y71125D01*
X2087875Y66396D01*
X2084531Y60604D01*
X2082800Y54144D01*
X2082800Y47456D01*
X2084531Y40996D01*
X2087875Y35204D01*
X2092604Y30475D01*
X2098396Y27131D01*
X2104856Y25400D01*
G37*
%LPD*%
D10*
X63500Y1193800D03*
D11*
X63500Y1219200D03*
X88900Y1193800D03*
X88900Y1219200D03*
X114300Y1193800D03*
X114300Y1219200D03*
X139700Y1193800D03*
X139700Y1219200D03*
X165100Y1193800D03*
X165100Y1219200D03*
X190500Y1193800D03*
X190500Y1219200D03*
D12*
X2032000Y965200D03*
D13*
X2063500Y996700D03*
X2063500Y933700D03*
X2000500Y933700D03*
X2000500Y996700D03*
D12*
X2032000Y1447800D03*
D13*
X2063500Y1479300D03*
X2063500Y1416300D03*
X2000500Y1416300D03*
X2000500Y1479300D03*
D12*
X2032000Y1905000D03*
D13*
X2063500Y1936500D03*
X2063500Y1873500D03*
X2000500Y1873500D03*
X2000500Y1936500D03*
D12*
X254000Y1524000D03*
D13*
X285500Y1555500D03*
X285500Y1492500D03*
X222500Y1492500D03*
X222500Y1555500D03*
D12*
X571500Y1841500D03*
D13*
X603000Y1873000D03*
X603000Y1810000D03*
X540000Y1810000D03*
X540000Y1873000D03*
D12*
X254000Y2159000D03*
D13*
X285500Y2190500D03*
X285500Y2127500D03*
X222500Y2127500D03*
X222500Y2190500D03*
D12*
X2032000Y508000D03*
D13*
X2063500Y539500D03*
X2063500Y476500D03*
X2000500Y476500D03*
X2000500Y539500D03*
D12*
X254000Y254000D03*
D13*
X285500Y285500D03*
X285500Y222500D03*
X222500Y222500D03*
X222500Y285500D03*
D12*
X254000Y889000D03*
D13*
X285500Y920500D03*
X285500Y857500D03*
X222500Y857500D03*
X222500Y920500D03*
D12*
X889000Y2159000D03*
D13*
X920500Y2190500D03*
X920500Y2127500D03*
X857500Y2127500D03*
X857500Y2190500D03*
D12*
X571500Y571500D03*
D13*
X603000Y603000D03*
X603000Y540000D03*
X540000Y540000D03*
X540000Y603000D03*
D12*
X889000Y254000D03*
D13*
X920500Y285500D03*
X920500Y222500D03*
X857500Y222500D03*
X857500Y285500D03*
D12*
X889000Y889000D03*
D13*
X920500Y920500D03*
X920500Y857500D03*
X857500Y857500D03*
X857500Y920500D03*
D12*
X889000Y1524000D03*
D13*
X920500Y1555500D03*
X920500Y1492500D03*
X857500Y1492500D03*
X857500Y1555500D03*
D12*
X1206500Y508000D03*
D13*
X1238000Y539500D03*
X1238000Y476500D03*
X1175000Y476500D03*
X1175000Y539500D03*
D12*
X1206500Y965200D03*
D13*
X1238000Y996700D03*
X1238000Y933700D03*
X1175000Y933700D03*
X1175000Y996700D03*
D12*
X1206500Y1447800D03*
D13*
X1238000Y1479300D03*
X1238000Y1416300D03*
X1175000Y1416300D03*
X1175000Y1479300D03*
D12*
X1206500Y1905000D03*
D13*
X1238000Y1936500D03*
X1238000Y1873500D03*
X1175000Y1873500D03*
X1175000Y1936500D03*
D12*
X1460500Y1905000D03*
D13*
X1492000Y1936500D03*
X1492000Y1873500D03*
X1429000Y1873500D03*
X1429000Y1936500D03*
D12*
X1460500Y1447800D03*
D13*
X1492000Y1479300D03*
X1492000Y1416300D03*
X1429000Y1416300D03*
X1429000Y1479300D03*
D12*
X1460500Y965200D03*
D13*
X1492000Y996700D03*
X1492000Y933700D03*
X1429000Y933700D03*
X1429000Y996700D03*
D12*
X1460500Y508000D03*
D13*
X1492000Y539500D03*
X1492000Y476500D03*
X1429000Y476500D03*
X1429000Y539500D03*
D12*
X1778000Y1905000D03*
D13*
X1809500Y1936500D03*
X1809500Y1873500D03*
X1746500Y1873500D03*
X1746500Y1936500D03*
D12*
X1778000Y1447800D03*
D13*
X1809500Y1479300D03*
X1809500Y1416300D03*
X1746500Y1416300D03*
X1746500Y1479300D03*
D12*
X1778000Y965200D03*
D13*
X1809500Y996700D03*
X1809500Y933700D03*
X1746500Y933700D03*
X1746500Y996700D03*
D12*
X1778000Y508000D03*
D13*
X1809500Y539500D03*
X1809500Y476500D03*
X1746500Y476500D03*
X1746500Y539500D03*
D10*
X317500Y1193800D03*
D11*
X317500Y1219200D03*
X342900Y1193800D03*
X342900Y1219200D03*
X368300Y1193800D03*
X368300Y1219200D03*
X393700Y1193800D03*
X393700Y1219200D03*
X419100Y1193800D03*
X419100Y1219200D03*
X444500Y1193800D03*
X444500Y1219200D03*
D10*
X812800Y1270000D03*
D11*
X838200Y1270000D03*
X812800Y1244600D03*
X838200Y1244600D03*
X812800Y1219200D03*
X838200Y1219200D03*
X812800Y1193800D03*
X838200Y1193800D03*
X812800Y1168400D03*
X838200Y1168400D03*
X812800Y1143000D03*
X838200Y1143000D03*
D10*
X1409700Y2159000D03*
D11*
X1384300Y2159000D03*
X1409700Y2184400D03*
X1384300Y2184400D03*
X1409700Y2209800D03*
X1384300Y2209800D03*
X1409700Y2235200D03*
X1384300Y2235200D03*
X1409700Y2260600D03*
X1384300Y2260600D03*
X1409700Y2286000D03*
X1384300Y2286000D03*
D10*
X1409700Y127000D03*
D11*
X1384300Y127000D03*
X1409700Y152400D03*
X1384300Y152400D03*
X1409700Y177800D03*
X1384300Y177800D03*
X1409700Y203200D03*
X1384300Y203200D03*
X1409700Y228600D03*
X1384300Y228600D03*
X1409700Y254000D03*
X1384300Y254000D03*
D14*
X228600Y1993900D03*
D15*
X254000Y1993900D03*
X279400Y1993900D03*
D14*
X546100Y1676400D03*
D15*
X571500Y1676400D03*
X596900Y1676400D03*
D14*
X863600Y1993900D03*
D15*
X889000Y1993900D03*
X914400Y1993900D03*
D14*
X228600Y1346200D03*
D15*
X254000Y1346200D03*
X279400Y1346200D03*
D14*
X863600Y1358900D03*
D15*
X889000Y1358900D03*
X914400Y1358900D03*
D14*
X228600Y711200D03*
D15*
X254000Y711200D03*
X279400Y711200D03*
D14*
X546100Y406400D03*
D15*
X571500Y406400D03*
X596900Y406400D03*
D14*
X228600Y88900D03*
D15*
X254000Y88900D03*
X279400Y88900D03*
D14*
X863600Y88900D03*
D15*
X889000Y88900D03*
X914400Y88900D03*
D14*
X1181100Y1739900D03*
D15*
X1206500Y1739900D03*
X1231900Y1739900D03*
D14*
X1435100Y1739900D03*
D15*
X1460500Y1739900D03*
X1485900Y1739900D03*
D14*
X1181100Y1270000D03*
D15*
X1206500Y1270000D03*
X1231900Y1270000D03*
D14*
X1435100Y1270000D03*
D15*
X1460500Y1270000D03*
X1485900Y1270000D03*
D14*
X1181100Y800100D03*
D15*
X1206500Y800100D03*
X1231900Y800100D03*
D14*
X1435100Y800100D03*
D15*
X1460500Y800100D03*
X1485900Y800100D03*
D14*
X1181100Y342900D03*
D15*
X1206500Y342900D03*
X1231900Y342900D03*
D14*
X1435100Y342900D03*
D15*
X1460500Y342900D03*
X1485900Y342900D03*
D14*
X863600Y711200D03*
D15*
X889000Y711200D03*
X914400Y711200D03*
D16*
X1955800Y2235200D03*
X457200Y2209800D03*
X1892300Y165100D03*
X457200Y165100D03*
D17*
X1130300Y342900D03*
D18*
X1130300Y88900D01*
X1066800Y25400D01*
D17*
X1066800Y25400D03*
X88900Y1155700D03*
D18*
X88900Y1041400D01*
D17*
X88900Y1041400D03*
X122362Y1392362D03*
D18*
X122362Y1403306D01*
X103268Y1422400D01*
D17*
X57122Y1422400D03*
D18*
X103268Y1422400D01*
D17*
X139700Y1371600D03*
D18*
X130340Y1380960D01*
X117640Y1380960D01*
X88900Y1409700D01*
D17*
X46962Y1409700D03*
D18*
X88900Y1409700D01*
D17*
X152400Y1358900D03*
D18*
X141368Y1358900D02*
X140569Y1358100D01*
X141368Y1358900D02*
X152400Y1358900D01*
D17*
X36802Y1397000D03*
D18*
X75702Y1358100D01*
X140569Y1358100D01*
D17*
X26642Y1384300D03*
D18*
X64742Y1346200D01*
X177800Y1346200D01*
D17*
X177800Y1346200D03*
D18*
X355600Y1092200D02*
X355600Y990600D01*
D17*
X355600Y1092200D03*
X353053Y988053D03*
D18*
X355600Y990600D01*
D17*
X596900Y1384300D03*
D18*
X444500Y1384300D01*
D17*
X444500Y1384300D03*
X1625600Y1054100D03*
X1030412Y1052388D03*
D18*
X1032125Y1054100D02*
X1625600Y1054100D01*
X1032125Y1054100D02*
X1030412Y1052388D01*
D17*
X1625600Y1066800D03*
D18*
X1028700Y1066800D01*
D17*
X1028700Y1066800D03*
X1638300Y685800D03*
D18*
X1003300Y1016000D02*
X952500Y1066800D01*
X889000Y1066800D01*
X876300Y1054100D01*
D17*
X876300Y1054100D03*
D18*
X1451137Y685800D02*
X1638300Y685800D01*
X1451137Y685800D02*
X1418117Y718820D01*
X1138717Y718820D01*
X1023620Y833917D01*
X1023620Y973617D02*
X1003300Y993937D01*
X1003300Y1016000D01*
X1023620Y973617D02*
X1023620Y833917D01*
D17*
X1638300Y673100D03*
X927100Y1054100D03*
D18*
X1449468Y673100D02*
X1638300Y673100D01*
X1449468Y673100D02*
X1413908Y708660D01*
X1134508Y708660D01*
X1013460Y829708D01*
X1013460Y969408D01*
X931308Y1051560D02*
X929640Y1051560D01*
X927100Y1054100D01*
X931308Y1051560D02*
X1013460Y969408D01*
D17*
X1917700Y660400D03*
D18*
X1447800Y660400D01*
X1409700Y698500D01*
X1130300Y698500D01*
X1003300Y825500D01*
X1003300Y965200D01*
X927100Y1041400D01*
X850900Y1041400D01*
X850900Y1079500D01*
D17*
X850900Y1079500D03*
X1625600Y1182342D03*
X1019381Y1184481D03*
D18*
X1023276Y1182342D02*
X1625600Y1182342D01*
X1023276Y1182342D02*
X1023270Y1182349D01*
X1021513Y1182349D01*
X1019381Y1184481D01*
D17*
X1930400Y1295400D03*
D18*
X1866900Y1295400D01*
D17*
X1866900Y1295400D03*
X1625600Y1168400D03*
D18*
X1022850Y1168400D01*
X1022435Y1168814D01*
D17*
X1018547Y1170947D03*
D18*
X1020679Y1168814D02*
X1022435Y1168814D01*
X1020679Y1168814D02*
X1018547Y1170947D01*
D17*
X1625600Y1155700D03*
X1017712Y1157412D03*
D18*
X1019425Y1155700D02*
X1625600Y1155700D01*
X1019425Y1155700D02*
X1017712Y1157412D01*
D17*
X1625600Y1143000D03*
D18*
X1016000Y1143000D01*
D17*
X1016000Y1143000D03*
X1638300Y711200D03*
D18*
X1016000Y1041400D02*
X990600Y1066800D01*
D17*
X990600Y1066800D03*
D18*
X1440105Y711200D02*
X1638300Y711200D01*
X1440105Y711200D02*
X1422325Y728980D01*
X1142925Y728980D01*
X1033780Y838125D01*
X1033780Y977825D02*
X1016000Y995605D01*
X1016000Y1041400D01*
X1033780Y977825D02*
X1033780Y838125D01*
X1248438Y2035838D02*
X1333500Y2120900D01*
X1248438Y2035838D02*
X1248438Y2032000D01*
D17*
X1333500Y2120900D03*
X1248438Y2032000D03*
X1308100Y2133600D03*
D18*
X1270000Y2095500D01*
D17*
X1253041Y2056566D03*
D18*
X1270000Y2073525D02*
X1270000Y2095500D01*
X1270000Y2073525D02*
X1253041Y2056566D01*
D17*
X1295400Y2146300D03*
X1249238Y2074738D03*
D18*
X1249238Y2100138D02*
X1295400Y2146300D01*
X1249238Y2100138D02*
X1249238Y2074738D01*
D17*
X1295400Y609600D03*
D18*
X1295400Y685800D01*
D17*
X1295400Y685800D03*
X1282700Y2159000D03*
X1237836Y2095500D03*
D18*
X1239078Y2096742D01*
X1239078Y2115378D02*
X1282700Y2159000D01*
X1239078Y2115378D02*
X1239078Y2096742D01*
D17*
X1358900Y342900D03*
D18*
X1358900Y292100D01*
D17*
X1358900Y292100D03*
X647700Y1625600D03*
D18*
X711200Y1625600D01*
D17*
X711200Y1625600D03*
X1384300Y330200D03*
X1384300Y280672D03*
D18*
X1384300Y330200D01*
D17*
X723900Y1917700D03*
D18*
X787400Y1854200D01*
D17*
X787400Y1854200D03*
X1320800Y660400D03*
D18*
X1320800Y609600D01*
D17*
X1320800Y609600D03*
X1333500Y317500D03*
D18*
X1333500Y292100D01*
X1346200Y279400D01*
D17*
X1346200Y279400D03*
X685800Y342900D03*
D18*
X762000Y342900D01*
D17*
X762000Y342900D03*
X330200Y660400D03*
D18*
X533400Y863600D01*
D17*
X533400Y863600D03*
X406400Y1333500D03*
D18*
X546100Y1333500D01*
X609600Y1270000D01*
D17*
X609600Y1270000D03*
X1231900Y254000D03*
D18*
X1244600Y241300D01*
X1244600Y228600D01*
D17*
X1244600Y228600D03*
X1308100Y266700D03*
D18*
X1320800Y266700D02*
X1333500Y254000D01*
X1320800Y266700D02*
X1308100Y266700D01*
D17*
X1333500Y254000D03*
X1307178Y546100D03*
X1337658Y660400D03*
D18*
X1337658Y576580D01*
X1307178Y546100D01*
M02*
