G04 EAGLE Gerber RS-274X export*
G75*
%MOMM*%
%FSLAX34Y34*%
%LPD*%
%INSoldermask Bottom*%
%IPPOS*%
%AMOC8*
5,1,8,0,0,1.08239X$1,22.5*%
G01*
G04 Define Apertures*
%ADD10C,3.251200*%
%ADD11R,1.733200X1.733200*%
%ADD12C,1.733200*%
%ADD13C,2.003200*%
%ADD14C,2.603200*%
%ADD15R,1.727200X1.727200*%
%ADD16C,1.727200*%
%ADD17C,2.387600*%
%ADD18C,0.959600*%
D10*
X50800Y2362200D03*
X50800Y50800D03*
X2108200Y50800D03*
X2108200Y2362200D03*
D11*
X63500Y1193800D03*
D12*
X63500Y1219200D03*
X88900Y1193800D03*
X88900Y1219200D03*
X114300Y1193800D03*
X114300Y1219200D03*
X139700Y1193800D03*
X139700Y1219200D03*
X165100Y1193800D03*
X165100Y1219200D03*
X190500Y1193800D03*
X190500Y1219200D03*
D13*
X2032000Y965200D03*
D14*
X2063500Y996700D03*
X2063500Y933700D03*
X2000500Y933700D03*
X2000500Y996700D03*
D13*
X2032000Y1447800D03*
D14*
X2063500Y1479300D03*
X2063500Y1416300D03*
X2000500Y1416300D03*
X2000500Y1479300D03*
D13*
X2032000Y1905000D03*
D14*
X2063500Y1936500D03*
X2063500Y1873500D03*
X2000500Y1873500D03*
X2000500Y1936500D03*
D13*
X254000Y1524000D03*
D14*
X285500Y1555500D03*
X285500Y1492500D03*
X222500Y1492500D03*
X222500Y1555500D03*
D13*
X571500Y1841500D03*
D14*
X603000Y1873000D03*
X603000Y1810000D03*
X540000Y1810000D03*
X540000Y1873000D03*
D13*
X254000Y2159000D03*
D14*
X285500Y2190500D03*
X285500Y2127500D03*
X222500Y2127500D03*
X222500Y2190500D03*
D13*
X2032000Y508000D03*
D14*
X2063500Y539500D03*
X2063500Y476500D03*
X2000500Y476500D03*
X2000500Y539500D03*
D13*
X254000Y254000D03*
D14*
X285500Y285500D03*
X285500Y222500D03*
X222500Y222500D03*
X222500Y285500D03*
D13*
X254000Y889000D03*
D14*
X285500Y920500D03*
X285500Y857500D03*
X222500Y857500D03*
X222500Y920500D03*
D13*
X889000Y2159000D03*
D14*
X920500Y2190500D03*
X920500Y2127500D03*
X857500Y2127500D03*
X857500Y2190500D03*
D13*
X571500Y571500D03*
D14*
X603000Y603000D03*
X603000Y540000D03*
X540000Y540000D03*
X540000Y603000D03*
D13*
X889000Y254000D03*
D14*
X920500Y285500D03*
X920500Y222500D03*
X857500Y222500D03*
X857500Y285500D03*
D13*
X889000Y889000D03*
D14*
X920500Y920500D03*
X920500Y857500D03*
X857500Y857500D03*
X857500Y920500D03*
D13*
X889000Y1524000D03*
D14*
X920500Y1555500D03*
X920500Y1492500D03*
X857500Y1492500D03*
X857500Y1555500D03*
D13*
X1206500Y508000D03*
D14*
X1238000Y539500D03*
X1238000Y476500D03*
X1175000Y476500D03*
X1175000Y539500D03*
D13*
X1206500Y965200D03*
D14*
X1238000Y996700D03*
X1238000Y933700D03*
X1175000Y933700D03*
X1175000Y996700D03*
D13*
X1206500Y1447800D03*
D14*
X1238000Y1479300D03*
X1238000Y1416300D03*
X1175000Y1416300D03*
X1175000Y1479300D03*
D13*
X1206500Y1905000D03*
D14*
X1238000Y1936500D03*
X1238000Y1873500D03*
X1175000Y1873500D03*
X1175000Y1936500D03*
D13*
X1460500Y1905000D03*
D14*
X1492000Y1936500D03*
X1492000Y1873500D03*
X1429000Y1873500D03*
X1429000Y1936500D03*
D13*
X1460500Y1447800D03*
D14*
X1492000Y1479300D03*
X1492000Y1416300D03*
X1429000Y1416300D03*
X1429000Y1479300D03*
D13*
X1460500Y965200D03*
D14*
X1492000Y996700D03*
X1492000Y933700D03*
X1429000Y933700D03*
X1429000Y996700D03*
D13*
X1460500Y508000D03*
D14*
X1492000Y539500D03*
X1492000Y476500D03*
X1429000Y476500D03*
X1429000Y539500D03*
D13*
X1778000Y1905000D03*
D14*
X1809500Y1936500D03*
X1809500Y1873500D03*
X1746500Y1873500D03*
X1746500Y1936500D03*
D13*
X1778000Y1447800D03*
D14*
X1809500Y1479300D03*
X1809500Y1416300D03*
X1746500Y1416300D03*
X1746500Y1479300D03*
D13*
X1778000Y965200D03*
D14*
X1809500Y996700D03*
X1809500Y933700D03*
X1746500Y933700D03*
X1746500Y996700D03*
D13*
X1778000Y508000D03*
D14*
X1809500Y539500D03*
X1809500Y476500D03*
X1746500Y476500D03*
X1746500Y539500D03*
D11*
X317500Y1193800D03*
D12*
X317500Y1219200D03*
X342900Y1193800D03*
X342900Y1219200D03*
X368300Y1193800D03*
X368300Y1219200D03*
X393700Y1193800D03*
X393700Y1219200D03*
X419100Y1193800D03*
X419100Y1219200D03*
X444500Y1193800D03*
X444500Y1219200D03*
D11*
X812800Y1270000D03*
D12*
X838200Y1270000D03*
X812800Y1244600D03*
X838200Y1244600D03*
X812800Y1219200D03*
X838200Y1219200D03*
X812800Y1193800D03*
X838200Y1193800D03*
X812800Y1168400D03*
X838200Y1168400D03*
X812800Y1143000D03*
X838200Y1143000D03*
D11*
X1409700Y2159000D03*
D12*
X1384300Y2159000D03*
X1409700Y2184400D03*
X1384300Y2184400D03*
X1409700Y2209800D03*
X1384300Y2209800D03*
X1409700Y2235200D03*
X1384300Y2235200D03*
X1409700Y2260600D03*
X1384300Y2260600D03*
X1409700Y2286000D03*
X1384300Y2286000D03*
D11*
X1409700Y127000D03*
D12*
X1384300Y127000D03*
X1409700Y152400D03*
X1384300Y152400D03*
X1409700Y177800D03*
X1384300Y177800D03*
X1409700Y203200D03*
X1384300Y203200D03*
X1409700Y228600D03*
X1384300Y228600D03*
X1409700Y254000D03*
X1384300Y254000D03*
D15*
X228600Y1993900D03*
D16*
X254000Y1993900D03*
X279400Y1993900D03*
D15*
X546100Y1676400D03*
D16*
X571500Y1676400D03*
X596900Y1676400D03*
D15*
X863600Y1993900D03*
D16*
X889000Y1993900D03*
X914400Y1993900D03*
D15*
X228600Y1346200D03*
D16*
X254000Y1346200D03*
X279400Y1346200D03*
D15*
X863600Y1358900D03*
D16*
X889000Y1358900D03*
X914400Y1358900D03*
D15*
X228600Y711200D03*
D16*
X254000Y711200D03*
X279400Y711200D03*
D15*
X546100Y406400D03*
D16*
X571500Y406400D03*
X596900Y406400D03*
D15*
X228600Y88900D03*
D16*
X254000Y88900D03*
X279400Y88900D03*
D15*
X863600Y88900D03*
D16*
X889000Y88900D03*
X914400Y88900D03*
D15*
X1181100Y1739900D03*
D16*
X1206500Y1739900D03*
X1231900Y1739900D03*
D15*
X1435100Y1739900D03*
D16*
X1460500Y1739900D03*
X1485900Y1739900D03*
D15*
X1181100Y1270000D03*
D16*
X1206500Y1270000D03*
X1231900Y1270000D03*
D15*
X1435100Y1270000D03*
D16*
X1460500Y1270000D03*
X1485900Y1270000D03*
D15*
X1181100Y800100D03*
D16*
X1206500Y800100D03*
X1231900Y800100D03*
D15*
X1435100Y800100D03*
D16*
X1460500Y800100D03*
X1485900Y800100D03*
D15*
X1181100Y342900D03*
D16*
X1206500Y342900D03*
X1231900Y342900D03*
D15*
X1435100Y342900D03*
D16*
X1460500Y342900D03*
X1485900Y342900D03*
D15*
X863600Y711200D03*
D16*
X889000Y711200D03*
X914400Y711200D03*
D17*
X1955800Y2235200D03*
X457200Y2209800D03*
X1892300Y165100D03*
X457200Y165100D03*
D18*
X1130300Y342900D03*
X1066800Y25400D03*
X88900Y1155700D03*
X88900Y1041400D03*
X122362Y1392362D03*
X57122Y1422400D03*
X139700Y1371600D03*
X46962Y1409700D03*
X152400Y1358900D03*
X36802Y1397000D03*
X26642Y1384300D03*
X177800Y1346200D03*
X355600Y1092200D03*
X353053Y988053D03*
X596900Y1384300D03*
X444500Y1384300D03*
X1625600Y1054100D03*
X1030412Y1052388D03*
X1625600Y1066800D03*
X1028700Y1066800D03*
X1638300Y685800D03*
X876300Y1054100D03*
X1638300Y673100D03*
X927100Y1054100D03*
X1917700Y660400D03*
X850900Y1079500D03*
X1625600Y1182342D03*
X1019381Y1184481D03*
X1930400Y1295400D03*
X1866900Y1295400D03*
X1625600Y1168400D03*
X1018547Y1170947D03*
X1625600Y1155700D03*
X1017712Y1157412D03*
X1625600Y1143000D03*
X1016000Y1143000D03*
X1638300Y711200D03*
X990600Y1066800D03*
X1333500Y2120900D03*
X1248438Y2032000D03*
X1308100Y2133600D03*
X1253041Y2056566D03*
X1295400Y2146300D03*
X1249238Y2074738D03*
X1295400Y609600D03*
X1295400Y685800D03*
X1282700Y2159000D03*
X1237836Y2095500D03*
X1358900Y342900D03*
X1358900Y292100D03*
X647700Y1625600D03*
X711200Y1625600D03*
X1384300Y330200D03*
X1384300Y280672D03*
X723900Y1917700D03*
X787400Y1854200D03*
X1320800Y660400D03*
X1320800Y609600D03*
X1333500Y317500D03*
X1346200Y279400D03*
X685800Y342900D03*
X762000Y342900D03*
X330200Y660400D03*
X533400Y863600D03*
X406400Y1333500D03*
X609600Y1270000D03*
X1231900Y254000D03*
X1244600Y228600D03*
X1308100Y266700D03*
X1333500Y254000D03*
X1307178Y546100D03*
X1337658Y660400D03*
M02*
