G04 EAGLE Gerber RS-274X export*
G75*
%MOMM*%
%FSLAX34Y34*%
%LPD*%
%INSoldermask Bottom*%
%IPPOS*%
%AMOC8*
5,1,8,0,0,1.08239X$1,22.5*%
G01*
G04 Define Apertures*
%ADD10C,3.251200*%
%ADD11R,1.481200X1.481200*%
%ADD12C,1.481200*%
%ADD13C,4.013200*%
%ADD14C,0.959600*%
%ADD15C,1.503200*%
%ADD16C,1.727200*%
%ADD17C,1.009600*%
D10*
X38100Y2374900D03*
X38100Y38100D03*
X2120900Y38100D03*
X2120900Y2374900D03*
D11*
X1305560Y2110700D03*
D12*
X1280160Y2110700D03*
X1254760Y2110700D03*
X1229360Y2110700D03*
X1203960Y2110700D03*
X1178560Y2110700D03*
X1153160Y2110700D03*
X1153160Y2031300D03*
X1178560Y2031300D03*
X1203960Y2031300D03*
X1229360Y2031300D03*
X1254760Y2031300D03*
X1280160Y2031300D03*
X1305560Y2031300D03*
D11*
X1656080Y2114880D03*
D12*
X1630680Y2114880D03*
X1605280Y2114880D03*
X1579880Y2114880D03*
X1554480Y2114880D03*
X1529080Y2114880D03*
X1503680Y2114880D03*
X1503680Y2035480D03*
X1529080Y2035480D03*
X1554480Y2035480D03*
X1579880Y2035480D03*
X1605280Y2035480D03*
X1630680Y2035480D03*
X1656080Y2035480D03*
D11*
X862660Y2105660D03*
D12*
X862660Y2131060D03*
X862660Y2156460D03*
X862660Y2181860D03*
X862660Y2207260D03*
X862660Y2232660D03*
X862660Y2258060D03*
X783260Y2258060D03*
X783260Y2232660D03*
X783260Y2207260D03*
X783260Y2181860D03*
X783260Y2156460D03*
X783260Y2131060D03*
X783260Y2105660D03*
D11*
X1928800Y2235160D03*
D12*
X1928800Y2209760D03*
X1928800Y2184360D03*
X1928800Y2158960D03*
X1928800Y2133560D03*
X1928800Y2108160D03*
X1928800Y2082760D03*
X2008200Y2082760D03*
X2008200Y2108160D03*
X2008200Y2133560D03*
X2008200Y2158960D03*
X2008200Y2184360D03*
X2008200Y2209760D03*
X2008200Y2235160D03*
D11*
X287350Y1739900D03*
D12*
X287350Y1765300D03*
X287350Y1790700D03*
X287350Y1816100D03*
X287350Y1841500D03*
X287350Y1866900D03*
X287350Y1892300D03*
X207950Y1892300D03*
X207950Y1866900D03*
X207950Y1841500D03*
X207950Y1816100D03*
X207950Y1790700D03*
X207950Y1765300D03*
X207950Y1739900D03*
D11*
X301320Y502920D03*
D12*
X301320Y528320D03*
X301320Y553720D03*
X301320Y579120D03*
X301320Y604520D03*
X301320Y629920D03*
X301320Y655320D03*
X221920Y655320D03*
X221920Y629920D03*
X221920Y604520D03*
X221920Y579120D03*
X221920Y553720D03*
X221920Y528320D03*
X221920Y502920D03*
D11*
X288620Y1383030D03*
D12*
X288620Y1408430D03*
X288620Y1433830D03*
X288620Y1459230D03*
X288620Y1484630D03*
X288620Y1510030D03*
X288620Y1535430D03*
X209220Y1535430D03*
X209220Y1510030D03*
X209220Y1484630D03*
X209220Y1459230D03*
X209220Y1433830D03*
X209220Y1408430D03*
X209220Y1383030D03*
D11*
X293700Y876300D03*
D12*
X293700Y901700D03*
X293700Y927100D03*
X293700Y952500D03*
X293700Y977900D03*
X293700Y1003300D03*
X293700Y1028700D03*
X214300Y1028700D03*
X214300Y1003300D03*
X214300Y977900D03*
X214300Y952500D03*
X214300Y927100D03*
X214300Y901700D03*
X214300Y876300D03*
D11*
X292430Y152400D03*
D12*
X292430Y177800D03*
X292430Y203200D03*
X292430Y228600D03*
X292430Y254000D03*
X292430Y279400D03*
X292430Y304800D03*
X213030Y304800D03*
X213030Y279400D03*
X213030Y254000D03*
X213030Y228600D03*
X213030Y203200D03*
X213030Y177800D03*
X213030Y152400D03*
D11*
X284810Y2104390D03*
D12*
X284810Y2129790D03*
X284810Y2155190D03*
X284810Y2180590D03*
X284810Y2205990D03*
X284810Y2231390D03*
X284810Y2256790D03*
X205410Y2256790D03*
X205410Y2231390D03*
X205410Y2205990D03*
X205410Y2180590D03*
X205410Y2155190D03*
X205410Y2129790D03*
X205410Y2104390D03*
D11*
X604850Y149860D03*
D12*
X604850Y175260D03*
X604850Y200660D03*
X604850Y226060D03*
X604850Y251460D03*
X604850Y276860D03*
X604850Y302260D03*
X525450Y302260D03*
X525450Y276860D03*
X525450Y251460D03*
X525450Y226060D03*
X525450Y200660D03*
X525450Y175260D03*
X525450Y149860D03*
D11*
X590880Y2087880D03*
D12*
X590880Y2113280D03*
X590880Y2138680D03*
X590880Y2164080D03*
X590880Y2189480D03*
X590880Y2214880D03*
X590880Y2240280D03*
X511480Y2240280D03*
X511480Y2214880D03*
X511480Y2189480D03*
X511480Y2164080D03*
X511480Y2138680D03*
X511480Y2113280D03*
X511480Y2087880D03*
D11*
X1334770Y320980D03*
D12*
X1360170Y320980D03*
X1385570Y320980D03*
X1410970Y320980D03*
X1436370Y320980D03*
X1461770Y320980D03*
X1487170Y320980D03*
X1487170Y400380D03*
X1461770Y400380D03*
X1436370Y400380D03*
X1410970Y400380D03*
X1385570Y400380D03*
X1360170Y400380D03*
X1334770Y400380D03*
D11*
X1004570Y314630D03*
D12*
X1029970Y314630D03*
X1055370Y314630D03*
X1080770Y314630D03*
X1106170Y314630D03*
X1131570Y314630D03*
X1156970Y314630D03*
X1156970Y394030D03*
X1131570Y394030D03*
X1106170Y394030D03*
X1080770Y394030D03*
X1055370Y394030D03*
X1029970Y394030D03*
X1004570Y394030D03*
D11*
X1659890Y307010D03*
D12*
X1685290Y307010D03*
X1710690Y307010D03*
X1736090Y307010D03*
X1761490Y307010D03*
X1786890Y307010D03*
X1812290Y307010D03*
X1812290Y386410D03*
X1786890Y386410D03*
X1761490Y386410D03*
X1736090Y386410D03*
X1710690Y386410D03*
X1685290Y386410D03*
X1659890Y386410D03*
D11*
X1593850Y1878660D03*
D12*
X1568450Y1878660D03*
X1543050Y1878660D03*
X1517650Y1878660D03*
X1492250Y1878660D03*
X1466850Y1878660D03*
X1441450Y1878660D03*
X1441450Y1799260D03*
X1466850Y1799260D03*
X1492250Y1799260D03*
X1517650Y1799260D03*
X1543050Y1799260D03*
X1568450Y1799260D03*
X1593850Y1799260D03*
D11*
X1384300Y531800D03*
D12*
X1409700Y531800D03*
X1435100Y531800D03*
X1460500Y531800D03*
X1485900Y531800D03*
X1511300Y531800D03*
X1536700Y531800D03*
X1536700Y611200D03*
X1511300Y611200D03*
X1485900Y611200D03*
X1460500Y611200D03*
X1435100Y611200D03*
X1409700Y611200D03*
X1384300Y611200D03*
D11*
X1882140Y1878660D03*
D12*
X1856740Y1878660D03*
X1831340Y1878660D03*
X1805940Y1878660D03*
X1780540Y1878660D03*
X1755140Y1878660D03*
X1729740Y1878660D03*
X1729740Y1799260D03*
X1755140Y1799260D03*
X1780540Y1799260D03*
X1805940Y1799260D03*
X1831340Y1799260D03*
X1856740Y1799260D03*
X1882140Y1799260D03*
D11*
X1691640Y547040D03*
D12*
X1717040Y547040D03*
X1742440Y547040D03*
X1767840Y547040D03*
X1793240Y547040D03*
X1818640Y547040D03*
X1844040Y547040D03*
X1844040Y626440D03*
X1818640Y626440D03*
X1793240Y626440D03*
X1767840Y626440D03*
X1742440Y626440D03*
X1717040Y626440D03*
X1691640Y626440D03*
D11*
X457200Y526720D03*
D12*
X482600Y526720D03*
X508000Y526720D03*
X533400Y526720D03*
X558800Y526720D03*
X584200Y526720D03*
X609600Y526720D03*
X609600Y606120D03*
X584200Y606120D03*
X558800Y606120D03*
X533400Y606120D03*
X508000Y606120D03*
X482600Y606120D03*
X457200Y606120D03*
D11*
X681990Y1874850D03*
D12*
X656590Y1874850D03*
X631190Y1874850D03*
X605790Y1874850D03*
X580390Y1874850D03*
X554990Y1874850D03*
X529590Y1874850D03*
X529590Y1795450D03*
X554990Y1795450D03*
X580390Y1795450D03*
X605790Y1795450D03*
X631190Y1795450D03*
X656590Y1795450D03*
X681990Y1795450D03*
D11*
X762000Y534340D03*
D12*
X787400Y534340D03*
X812800Y534340D03*
X838200Y534340D03*
X863600Y534340D03*
X889000Y534340D03*
X914400Y534340D03*
X914400Y613740D03*
X889000Y613740D03*
X863600Y613740D03*
X838200Y613740D03*
X812800Y613740D03*
X787400Y613740D03*
X762000Y613740D03*
D11*
X1281430Y1874850D03*
D12*
X1256030Y1874850D03*
X1230630Y1874850D03*
X1205230Y1874850D03*
X1179830Y1874850D03*
X1154430Y1874850D03*
X1129030Y1874850D03*
X1129030Y1795450D03*
X1154430Y1795450D03*
X1179830Y1795450D03*
X1205230Y1795450D03*
X1230630Y1795450D03*
X1256030Y1795450D03*
X1281430Y1795450D03*
D11*
X982980Y1873580D03*
D12*
X957580Y1873580D03*
X932180Y1873580D03*
X906780Y1873580D03*
X881380Y1873580D03*
X855980Y1873580D03*
X830580Y1873580D03*
X830580Y1794180D03*
X855980Y1794180D03*
X881380Y1794180D03*
X906780Y1794180D03*
X932180Y1794180D03*
X957580Y1794180D03*
X982980Y1794180D03*
D11*
X1076960Y549580D03*
D12*
X1102360Y549580D03*
X1127760Y549580D03*
X1153160Y549580D03*
X1178560Y549580D03*
X1203960Y549580D03*
X1229360Y549580D03*
X1229360Y628980D03*
X1203960Y628980D03*
X1178560Y628980D03*
X1153160Y628980D03*
X1127760Y628980D03*
X1102360Y628980D03*
X1076960Y628980D03*
D11*
X721360Y1420800D03*
D12*
X746760Y1420800D03*
X772160Y1420800D03*
X797560Y1420800D03*
X822960Y1420800D03*
X848360Y1420800D03*
X873760Y1420800D03*
X873760Y1500200D03*
X848360Y1500200D03*
X822960Y1500200D03*
X797560Y1500200D03*
X772160Y1500200D03*
X746760Y1500200D03*
X721360Y1500200D03*
D11*
X725170Y926770D03*
D12*
X750570Y926770D03*
X775970Y926770D03*
X801370Y926770D03*
X826770Y926770D03*
X852170Y926770D03*
X877570Y926770D03*
X877570Y1006170D03*
X852170Y1006170D03*
X826770Y1006170D03*
X801370Y1006170D03*
X775970Y1006170D03*
X750570Y1006170D03*
X725170Y1006170D03*
D13*
X2095500Y1905000D03*
D14*
X179070Y125730D03*
X252730Y227330D03*
X172720Y2070100D03*
X243840Y2183130D03*
X180340Y2296160D03*
X1432560Y2312670D03*
X1474470Y2184400D03*
X1212850Y2183130D03*
X1168400Y2156460D03*
X345440Y151130D03*
X411480Y69850D03*
X519430Y941070D03*
X443230Y890270D03*
X1308850Y2239760D03*
X957580Y2325370D03*
X915724Y2058670D03*
X797334Y2065020D03*
X1424940Y2352012D03*
X1485872Y2259761D03*
X1338687Y2222607D03*
X1389380Y2330478D03*
X1350089Y2237212D03*
X1397731Y2320948D03*
X1393190Y2239010D03*
X1412433Y2329208D03*
X1746135Y2289695D03*
X1954756Y2047629D03*
X1422966Y2132896D03*
X1318763Y2080309D03*
X1075690Y2147570D03*
X1388336Y2103772D03*
X1465580Y2167890D03*
X1262340Y2151352D03*
D15*
X524510Y1186180D03*
X524510Y1262380D03*
X403860Y199390D03*
X1755140Y753110D03*
X1422400Y732790D03*
X1127760Y750570D03*
X816610Y735330D03*
X528320Y730250D03*
X1832610Y1675130D03*
X1531620Y1670050D03*
X1225550Y1670050D03*
X928370Y1668780D03*
X627380Y1671320D03*
X99210Y199390D03*
X101600Y567690D03*
X95250Y930910D03*
X101600Y1433830D03*
X97790Y1800860D03*
X81280Y2155190D03*
X303377Y1161897D03*
X356082Y1159992D03*
D13*
X2095500Y1816100D03*
D15*
X396644Y2141220D03*
D16*
X1983740Y1316990D03*
D15*
X223520Y1234440D03*
X406400Y628650D03*
X406400Y539750D03*
D13*
X2095500Y1727200D03*
D15*
X382120Y1847850D03*
X382120Y1783080D03*
X271630Y1234440D03*
D14*
X303530Y1894840D03*
X326334Y1894840D03*
X303530Y1866900D03*
X326390Y1866900D03*
X317500Y662940D03*
X340304Y662940D03*
X317500Y632460D03*
X340304Y632460D03*
X304800Y1540510D03*
X327604Y1540510D03*
X304800Y1510030D03*
X327660Y1510030D03*
X308694Y1031240D03*
X331498Y1031240D03*
X308694Y1000760D03*
X331498Y1000760D03*
X336550Y309880D03*
X311150Y309880D03*
X336550Y279400D03*
X311150Y279400D03*
X328930Y2259330D03*
X303530Y2259330D03*
X328930Y2228850D03*
X303530Y2228850D03*
X654050Y309880D03*
X623570Y309880D03*
X651510Y279400D03*
X623570Y279400D03*
X635000Y2242820D03*
X609600Y2240280D03*
X635000Y2212340D03*
X609600Y2212340D03*
X1785620Y246380D03*
X1055370Y245166D03*
X1055370Y271780D03*
X1921510Y267970D03*
X1113587Y405333D03*
X1203049Y418189D03*
X1271854Y330784D03*
X918210Y359410D03*
X1764030Y275590D03*
X1441450Y1894840D03*
X1441450Y1922780D03*
X1466850Y1897380D03*
X1466850Y1922780D03*
X1549400Y515564D03*
X1529080Y494030D03*
X1503680Y500380D03*
X1521460Y516834D03*
X1729740Y1922780D03*
X1729740Y1897380D03*
X1760220Y1920240D03*
X1760220Y1897380D03*
X1841500Y505460D03*
X1841500Y528320D03*
X1816100Y528320D03*
X1813560Y505516D03*
X609600Y485140D03*
X609600Y508000D03*
X579120Y485140D03*
X579120Y508000D03*
X528320Y1925320D03*
X528320Y1894840D03*
X557530Y1926590D03*
X557530Y1896110D03*
X911860Y518160D03*
X911860Y492816D03*
X883920Y518160D03*
X883920Y492816D03*
X1126490Y1918970D03*
X1126490Y1896110D03*
X1156970Y1896110D03*
X1159510Y1918914D03*
X375920Y1137920D03*
X459712Y1088390D03*
X622300Y1637002D03*
X578076Y1636494D03*
X828040Y1912620D03*
X828040Y1889816D03*
X855980Y1910080D03*
X855980Y1887276D03*
X1234440Y505460D03*
X1234440Y528320D03*
X1206500Y528320D03*
X1206500Y505516D03*
X570230Y1651000D03*
X622300Y1652270D03*
X1101090Y750570D03*
X1040074Y791569D03*
X167640Y932180D03*
X144780Y909320D03*
X156210Y958850D03*
X97790Y957580D03*
X153670Y1459998D03*
X101600Y1456690D03*
X162560Y1436370D03*
X142240Y1421130D03*
X165100Y567690D03*
X139756Y565150D03*
X86360Y595630D03*
X181483Y598043D03*
X158750Y1799590D03*
X137884Y1777454D03*
X158750Y1824990D03*
X87592Y1824952D03*
X161290Y210820D03*
X134889Y186959D03*
X106680Y229870D03*
X159893Y231013D03*
X156210Y2155190D03*
X130810Y2134870D03*
X146050Y2180590D03*
X77442Y2114550D03*
X466090Y208280D03*
X440732Y185420D03*
X502793Y227203D03*
X389862Y225562D03*
X455930Y2145030D03*
X436880Y2128520D03*
X463550Y2170430D03*
X391122Y2160232D03*
X1958340Y1584960D03*
X1916430Y1179830D03*
X2013712Y1620580D03*
X1518920Y300990D03*
X1581150Y326390D03*
X1762760Y1639570D03*
X1784350Y1620520D03*
X1841500Y1088390D03*
X1854200Y1573530D03*
X1375410Y1598930D03*
X367058Y1827685D03*
X367058Y1790700D03*
X357740Y1603663D03*
X414917Y1590836D03*
X1369060Y1446530D03*
X1369060Y1417094D03*
X1332230Y1643154D03*
X1393190Y2021868D03*
X1393190Y1999064D03*
X261578Y1978688D03*
X787400Y1971040D03*
X805101Y1996519D03*
X275590Y1057966D03*
X338594Y1061776D03*
X428266Y1051836D03*
X1153795Y1352467D03*
X1499870Y1380490D03*
X1727200Y1586230D03*
X567253Y1546253D03*
X462557Y1567739D03*
X1218720Y1349901D03*
X1447908Y1350010D03*
X1705610Y1239520D03*
X867410Y1634490D03*
X1701800Y1595120D03*
X1705610Y1574348D03*
X1629410Y1588770D03*
X234950Y1064260D03*
X274320Y1070610D03*
X336550Y1074420D03*
X421640Y1073150D03*
X1289296Y1320328D03*
X1628366Y1638836D03*
X1414554Y2021868D03*
X1417320Y1999064D03*
X1152795Y1235666D03*
X817166Y1990702D03*
X798471Y1963779D03*
X265430Y1568450D03*
X367030Y1568450D03*
X414020Y1569720D03*
X741321Y1598256D03*
X714844Y1658564D03*
X1651000Y1567180D03*
X1218238Y1362853D03*
X1133705Y1376544D03*
X1960880Y1993900D03*
X1969030Y2062292D03*
X377190Y67310D03*
X400050Y55880D03*
X1624330Y1568450D03*
X1934210Y1178560D03*
X1633121Y1436126D03*
X1951387Y1334036D03*
X1014786Y795020D03*
X887730Y689610D03*
X933450Y793750D03*
X934720Y825500D03*
X1016254Y838200D03*
X1209040Y989330D03*
X1306830Y1145540D03*
X1601470Y1570990D03*
X1036774Y737968D03*
X1529572Y1429794D03*
X2013309Y1956159D03*
X2020570Y1978963D03*
X304800Y2056130D03*
X304800Y2018030D03*
X429260Y1540510D03*
X1601470Y1434874D03*
X1352550Y1579880D03*
X1385570Y1582420D03*
X1577340Y1606776D03*
X1563370Y1569748D03*
X1304290Y1457960D03*
X1152846Y1248417D03*
X1169670Y1094740D03*
X1427480Y1572034D03*
X1416783Y1438037D03*
X1170914Y1154404D03*
X838426Y1989404D03*
X812228Y1948160D03*
X308610Y1709420D03*
X365534Y1651000D03*
X405976Y1599776D03*
X770834Y1598256D03*
X1402080Y1446530D03*
X1168374Y1400538D03*
X1404620Y1572034D03*
X744370Y1661700D03*
X1401927Y1423517D03*
X991286Y1420546D03*
X1182370Y1441450D03*
X1121410Y1573530D03*
X1068296Y1371343D03*
X1279426Y1429794D03*
X1309596Y1429060D03*
X1145136Y1161646D03*
X1156604Y1139338D03*
X1217930Y1454150D03*
X967819Y1475125D03*
X1068296Y1383987D03*
X1182835Y1426166D03*
X1283970Y336550D03*
X1299460Y319790D03*
X1328420Y829536D03*
X1345565Y809625D03*
X1357667Y767489D03*
X1159510Y969010D03*
X1212850Y1153160D03*
X1318204Y1454150D03*
X1251176Y1454150D03*
X1130300Y1162050D03*
X1143960Y1139330D03*
X981710Y1412240D03*
X1068296Y1358699D03*
X1220109Y1275441D03*
X1152642Y1278372D03*
X1130185Y1296785D03*
X1330601Y1186539D03*
X1458327Y1437557D03*
X1464536Y1458329D03*
X828040Y1997710D03*
X811530Y1962150D03*
X363220Y718820D03*
X391160Y750570D03*
X286524Y682046D03*
X758190Y1598256D03*
X1395730Y1386840D03*
X1148306Y1376506D03*
X1324610Y1388844D03*
X1445486Y1396970D03*
X729186Y1661450D03*
X1194230Y1388950D03*
X1153342Y1263601D03*
X1145115Y1206766D03*
X1883410Y349250D03*
X1877060Y400050D03*
X1202690Y711200D03*
X1207770Y788670D03*
X1974850Y819150D03*
X2043204Y819150D03*
X1084580Y1995170D03*
X1032510Y1652270D03*
X1086735Y2032885D03*
X223520Y692150D03*
X254000Y690880D03*
X284480Y694690D03*
X351790Y727710D03*
X379730Y760730D03*
X1347470Y1371600D03*
X1386840Y1371600D03*
X1551940Y1431290D03*
X1031240Y1590266D03*
X1459441Y1381549D03*
X1165883Y1370981D03*
X1217992Y1376987D03*
X1602740Y1455646D03*
X1088390Y2106930D03*
X1064260Y2120900D03*
X1066800Y2061210D03*
X1066800Y2020570D03*
X1014730Y1652270D03*
X208280Y1570990D03*
X360922Y1633373D03*
X388164Y1606094D03*
X1013460Y1590266D03*
X276860Y1626870D03*
X233680Y1626870D03*
X1165479Y1414145D03*
X1633220Y1456898D03*
X1464490Y1422029D03*
X1501518Y1410970D03*
X557530Y2057400D03*
X521970Y2056130D03*
X449580Y1910080D03*
X520700Y2013176D03*
X1459564Y1366136D03*
X479524Y1583408D03*
X1706428Y1426543D03*
X1489484Y1370330D03*
X1819910Y2106930D03*
X1833880Y2048510D03*
X237490Y307340D03*
X243840Y339090D03*
X278130Y340360D03*
X387350Y556260D03*
X487680Y819150D03*
X563880Y884456D03*
X1233170Y1093470D03*
X1611630Y1334770D03*
X1701996Y1455616D03*
X1283059Y1140819D03*
X1446530Y2019244D03*
X525780Y340360D03*
X709930Y396240D03*
X748030Y736600D03*
X858798Y835156D03*
X777240Y793270D03*
X811530Y811050D03*
X1452880Y1996440D03*
X1248410Y1079500D03*
X1624330Y1318260D03*
X1727200Y1427480D03*
X1295174Y1124309D03*
X537210Y2275840D03*
X575310Y2275840D03*
X680720Y2037080D03*
X1844040Y1362936D03*
X1759486Y1452880D03*
X1551664Y1451334D03*
X1582696Y1446254D03*
X453390Y1559024D03*
X1186539Y1321100D03*
X1149511Y1319757D03*
X1844726Y1390066D03*
X1684881Y1443355D03*
X1483423Y1433637D03*
X1430020Y2112010D03*
X1424940Y2081530D03*
X232410Y2289810D03*
X256540Y2291080D03*
X373380Y2228850D03*
X1219398Y1288139D03*
X1346476Y1227814D03*
X1318504Y1200394D03*
X1428750Y2021868D03*
X1431647Y1999064D03*
X441909Y1550896D03*
X1796825Y1452655D03*
X1172210Y1274319D03*
X1052830Y737870D03*
X1027430Y795020D03*
X428625Y1495425D03*
X575310Y1470660D03*
X1115060Y1109980D03*
X1149350Y979396D03*
X961390Y406400D03*
X960120Y383596D03*
X989498Y795020D03*
X596900Y678180D03*
X701332Y795340D03*
X1747520Y1009650D03*
X1748790Y967514D03*
X1011486Y737955D03*
X1002142Y795020D03*
X1545590Y999490D03*
X1546860Y967514D03*
X1156970Y1625600D03*
X1240790Y1430020D03*
X1250950Y1320800D03*
X1024130Y737968D03*
X1473200Y965200D03*
X959223Y1484411D03*
X1068296Y1396631D03*
X1124895Y1353697D03*
X1182370Y1282447D03*
X1219200Y1300935D03*
D17*
X1799590Y1205230D03*
X1717040Y1143000D03*
X1375410Y1050290D03*
X1375410Y965200D03*
D14*
X806450Y958850D03*
X844550Y958850D03*
X1856740Y1018540D03*
X1856740Y842010D03*
X1347470Y1041400D03*
X1346200Y847090D03*
X1219200Y849630D03*
X1233170Y988286D03*
X1454150Y1570990D03*
X1454150Y1591762D03*
X1449070Y1632854D03*
X1325880Y1082040D03*
X1437555Y1437555D03*
X1539240Y402590D03*
X1579880Y405130D03*
X1510030Y767080D03*
X1445260Y830580D03*
X1673860Y1028926D03*
M02*
