G04 EAGLE Gerber RS-274X export*
G75*
%MOMM*%
%FSLAX34Y34*%
%LPD*%
%INSolderpaste Top*%
%IPPOS*%
%AMOC8*
5,1,8,0,0,1.08239X$1,22.5*%
G01*
G04 Define Apertures*
%ADD10R,1.020000X2.220000*%
%ADD11R,1.570000X1.270000*%
%ADD12R,1.330000X3.460000*%
%ADD13R,0.930000X0.890000*%
%ADD14C,0.387500*%
%ADD15R,1.270000X1.570000*%
%ADD16R,3.270000X1.070000*%
%ADD17R,1.730000X0.970000*%
%ADD18R,3.460000X1.330000*%
%ADD19R,0.558800X1.320800*%
%ADD20R,0.508000X1.320800*%
%ADD21R,0.870000X0.930000*%
%ADD22R,1.380000X0.920000*%
%ADD23R,0.920000X1.380000*%
%ADD24R,0.890000X0.930000*%
%ADD25R,1.070000X3.270000*%
%ADD26R,0.970000X1.730000*%
%ADD27R,1.320800X0.558800*%
%ADD28R,1.320800X0.508000*%
%ADD29R,0.930000X0.870000*%
%ADD30R,1.800000X1.340000*%
%ADD31R,1.420000X0.920000*%
%ADD32R,1.010000X1.380000*%
%ADD33R,1.340000X1.800000*%
%ADD34R,1.580000X1.580000*%
%ADD35R,3.000000X1.600000*%
D10*
X1092200Y1539550D03*
X1092200Y1483050D03*
X1117600Y1539550D03*
X1117600Y1483050D03*
X1143000Y1539550D03*
X1143000Y1483050D03*
X1168400Y1539550D03*
X1168400Y1483050D03*
X1193800Y1539550D03*
X1193800Y1483050D03*
X1219200Y1539550D03*
X1219200Y1483050D03*
X1244600Y1539550D03*
X1244600Y1483050D03*
X1270000Y1539550D03*
X1270000Y1483050D03*
X1295400Y1539550D03*
X1295400Y1483050D03*
X1320800Y1539550D03*
X1320800Y1483050D03*
X1346200Y1539550D03*
X1346200Y1483050D03*
X1371600Y1539550D03*
X1371600Y1483050D03*
X1397000Y1539550D03*
X1397000Y1483050D03*
X1422400Y1539550D03*
X1422400Y1483050D03*
X1447800Y1539550D03*
X1447800Y1483050D03*
X1473200Y1539550D03*
X1473200Y1483050D03*
X1498600Y1539550D03*
X1498600Y1483050D03*
X1524000Y1539550D03*
X1524000Y1483050D03*
X1549400Y1539550D03*
X1549400Y1483050D03*
X1574800Y1539550D03*
X1574800Y1483050D03*
X1600200Y1539550D03*
X1600200Y1483050D03*
X1625600Y1539550D03*
X1625600Y1483050D03*
X1651000Y1539550D03*
X1651000Y1483050D03*
X1676400Y1539550D03*
X1676400Y1483050D03*
X1701800Y1539550D03*
X1701800Y1483050D03*
X1727200Y1539550D03*
X1727200Y1483050D03*
X1752600Y1539550D03*
X1752600Y1483050D03*
X1778000Y1539550D03*
X1778000Y1483050D03*
X1803400Y1539550D03*
X1803400Y1483050D03*
X1828800Y1539550D03*
X1828800Y1483050D03*
X1854200Y1539550D03*
X1854200Y1483050D03*
X1879600Y1539550D03*
X1879600Y1483050D03*
X1905000Y1539550D03*
X1905000Y1483050D03*
X1930400Y1539550D03*
X1930400Y1483050D03*
X1955800Y1539550D03*
X1955800Y1483050D03*
X1092200Y929950D03*
X1092200Y873450D03*
X1117600Y929950D03*
X1117600Y873450D03*
X1143000Y929950D03*
X1143000Y873450D03*
X1168400Y929950D03*
X1168400Y873450D03*
X1193800Y929950D03*
X1193800Y873450D03*
X1219200Y929950D03*
X1219200Y873450D03*
X1244600Y929950D03*
X1244600Y873450D03*
X1270000Y929950D03*
X1270000Y873450D03*
X1295400Y929950D03*
X1295400Y873450D03*
X1320800Y929950D03*
X1320800Y873450D03*
X1346200Y929950D03*
X1346200Y873450D03*
X1371600Y929950D03*
X1371600Y873450D03*
X1397000Y929950D03*
X1397000Y873450D03*
X1422400Y929950D03*
X1422400Y873450D03*
X1447800Y929950D03*
X1447800Y873450D03*
X1473200Y929950D03*
X1473200Y873450D03*
X1498600Y929950D03*
X1498600Y873450D03*
X1524000Y929950D03*
X1524000Y873450D03*
X1549400Y929950D03*
X1549400Y873450D03*
X1574800Y929950D03*
X1574800Y873450D03*
X1600200Y929950D03*
X1600200Y873450D03*
X1625600Y929950D03*
X1625600Y873450D03*
X1651000Y929950D03*
X1651000Y873450D03*
X1676400Y929950D03*
X1676400Y873450D03*
X1701800Y929950D03*
X1701800Y873450D03*
X1727200Y929950D03*
X1727200Y873450D03*
X1752600Y929950D03*
X1752600Y873450D03*
X1778000Y929950D03*
X1778000Y873450D03*
X1803400Y929950D03*
X1803400Y873450D03*
X1828800Y929950D03*
X1828800Y873450D03*
X1854200Y929950D03*
X1854200Y873450D03*
X1879600Y929950D03*
X1879600Y873450D03*
X1905000Y929950D03*
X1905000Y873450D03*
X1930400Y929950D03*
X1930400Y873450D03*
X1955800Y929950D03*
X1955800Y873450D03*
D11*
X1368850Y2159000D03*
X1425150Y2159000D03*
X1368850Y2184400D03*
X1425150Y2184400D03*
X1368850Y2209800D03*
X1425150Y2209800D03*
X1368850Y2235200D03*
X1425150Y2235200D03*
X1368850Y2260600D03*
X1425150Y2260600D03*
X1368850Y2286000D03*
X1425150Y2286000D03*
D12*
X1290550Y2258060D03*
X1231670Y2258060D03*
D13*
X1206500Y2220040D03*
X1206500Y2204640D03*
D14*
X1293397Y2207467D02*
X1293397Y2226893D01*
X1305023Y2226893D01*
X1305023Y2207467D01*
X1293397Y2207467D01*
X1293397Y2211148D02*
X1305023Y2211148D01*
X1305023Y2214829D02*
X1293397Y2214829D01*
X1293397Y2218510D02*
X1305023Y2218510D01*
X1305023Y2222191D02*
X1293397Y2222191D01*
X1293397Y2225872D02*
X1305023Y2225872D01*
X1293397Y2184193D02*
X1293397Y2164767D01*
X1293397Y2184193D02*
X1305023Y2184193D01*
X1305023Y2164767D01*
X1293397Y2164767D01*
X1293397Y2168448D02*
X1305023Y2168448D01*
X1305023Y2172129D02*
X1293397Y2172129D01*
X1293397Y2175810D02*
X1305023Y2175810D01*
X1305023Y2179491D02*
X1293397Y2179491D01*
X1293397Y2183172D02*
X1305023Y2183172D01*
D12*
X1513610Y2265680D03*
X1572490Y2265680D03*
D13*
X1598930Y2232740D03*
X1598930Y2217340D03*
D14*
X1490247Y2213817D02*
X1490247Y2233243D01*
X1501873Y2233243D01*
X1501873Y2213817D01*
X1490247Y2213817D01*
X1490247Y2217498D02*
X1501873Y2217498D01*
X1501873Y2221179D02*
X1490247Y2221179D01*
X1490247Y2224860D02*
X1501873Y2224860D01*
X1501873Y2228541D02*
X1490247Y2228541D01*
X1490247Y2232222D02*
X1501873Y2232222D01*
X1490247Y2190543D02*
X1490247Y2171117D01*
X1490247Y2190543D02*
X1501873Y2190543D01*
X1501873Y2171117D01*
X1490247Y2171117D01*
X1490247Y2174798D02*
X1501873Y2174798D01*
X1501873Y2178479D02*
X1490247Y2178479D01*
X1490247Y2182160D02*
X1501873Y2182160D01*
X1501873Y2185841D02*
X1490247Y2185841D01*
X1490247Y2189522D02*
X1501873Y2189522D01*
D12*
X1166090Y2261870D03*
X1107210Y2261870D03*
D13*
X1075690Y2228930D03*
X1075690Y2213530D03*
D14*
X1163857Y2212547D02*
X1163857Y2231973D01*
X1175483Y2231973D01*
X1175483Y2212547D01*
X1163857Y2212547D01*
X1163857Y2216228D02*
X1175483Y2216228D01*
X1175483Y2219909D02*
X1163857Y2219909D01*
X1163857Y2223590D02*
X1175483Y2223590D01*
X1175483Y2227271D02*
X1163857Y2227271D01*
X1163857Y2230952D02*
X1175483Y2230952D01*
X1163857Y2189273D02*
X1163857Y2169847D01*
X1163857Y2189273D02*
X1175483Y2189273D01*
X1175483Y2169847D01*
X1163857Y2169847D01*
X1163857Y2173528D02*
X1175483Y2173528D01*
X1175483Y2177209D02*
X1163857Y2177209D01*
X1163857Y2180890D02*
X1175483Y2180890D01*
X1175483Y2184571D02*
X1163857Y2184571D01*
X1163857Y2188252D02*
X1175483Y2188252D01*
D12*
X1645690Y2265680D03*
X1704570Y2265680D03*
D13*
X1723390Y2228930D03*
X1723390Y2213530D03*
D14*
X1622327Y2213817D02*
X1622327Y2233243D01*
X1633953Y2233243D01*
X1633953Y2213817D01*
X1622327Y2213817D01*
X1622327Y2217498D02*
X1633953Y2217498D01*
X1633953Y2221179D02*
X1622327Y2221179D01*
X1622327Y2224860D02*
X1633953Y2224860D01*
X1633953Y2228541D02*
X1622327Y2228541D01*
X1622327Y2232222D02*
X1633953Y2232222D01*
X1622327Y2190543D02*
X1622327Y2171117D01*
X1622327Y2190543D02*
X1633953Y2190543D01*
X1633953Y2171117D01*
X1622327Y2171117D01*
X1622327Y2174798D02*
X1633953Y2174798D01*
X1633953Y2178479D02*
X1622327Y2178479D01*
X1622327Y2182160D02*
X1633953Y2182160D01*
X1633953Y2185841D02*
X1622327Y2185841D01*
X1622327Y2189522D02*
X1633953Y2189522D01*
D12*
X1022580Y2259330D03*
X963700Y2259330D03*
D13*
X961390Y2222580D03*
X961390Y2207180D03*
D14*
X1034317Y2211277D02*
X1034317Y2230703D01*
X1045943Y2230703D01*
X1045943Y2211277D01*
X1034317Y2211277D01*
X1034317Y2214958D02*
X1045943Y2214958D01*
X1045943Y2218639D02*
X1034317Y2218639D01*
X1034317Y2222320D02*
X1045943Y2222320D01*
X1045943Y2226001D02*
X1034317Y2226001D01*
X1034317Y2229682D02*
X1045943Y2229682D01*
X1034317Y2188003D02*
X1034317Y2168577D01*
X1034317Y2188003D02*
X1045943Y2188003D01*
X1045943Y2168577D01*
X1034317Y2168577D01*
X1034317Y2172258D02*
X1045943Y2172258D01*
X1045943Y2175939D02*
X1034317Y2175939D01*
X1034317Y2179620D02*
X1045943Y2179620D01*
X1045943Y2183301D02*
X1034317Y2183301D01*
X1034317Y2186982D02*
X1045943Y2186982D01*
D12*
X1770150Y2265680D03*
X1829030Y2265680D03*
D13*
X1850390Y2230200D03*
X1850390Y2214800D03*
D14*
X1749327Y2212547D02*
X1749327Y2231973D01*
X1760953Y2231973D01*
X1760953Y2212547D01*
X1749327Y2212547D01*
X1749327Y2216228D02*
X1760953Y2216228D01*
X1760953Y2219909D02*
X1749327Y2219909D01*
X1749327Y2223590D02*
X1760953Y2223590D01*
X1760953Y2227271D02*
X1749327Y2227271D01*
X1749327Y2230952D02*
X1760953Y2230952D01*
X1749327Y2189273D02*
X1749327Y2169847D01*
X1749327Y2189273D02*
X1760953Y2189273D01*
X1760953Y2169847D01*
X1749327Y2169847D01*
X1749327Y2173528D02*
X1760953Y2173528D01*
X1760953Y2177209D02*
X1749327Y2177209D01*
X1749327Y2180890D02*
X1760953Y2180890D01*
X1760953Y2184571D02*
X1749327Y2184571D01*
X1749327Y2188252D02*
X1760953Y2188252D01*
D12*
X1023850Y2125980D03*
X964970Y2125980D03*
D13*
X948690Y2089230D03*
X948690Y2073830D03*
D14*
X1025427Y2072847D02*
X1025427Y2092273D01*
X1037053Y2092273D01*
X1037053Y2072847D01*
X1025427Y2072847D01*
X1025427Y2076528D02*
X1037053Y2076528D01*
X1037053Y2080209D02*
X1025427Y2080209D01*
X1025427Y2083890D02*
X1037053Y2083890D01*
X1037053Y2087571D02*
X1025427Y2087571D01*
X1025427Y2091252D02*
X1037053Y2091252D01*
X1025427Y2049573D02*
X1025427Y2030147D01*
X1025427Y2049573D02*
X1037053Y2049573D01*
X1037053Y2030147D01*
X1025427Y2030147D01*
X1025427Y2033828D02*
X1037053Y2033828D01*
X1037053Y2037509D02*
X1025427Y2037509D01*
X1025427Y2041190D02*
X1037053Y2041190D01*
X1037053Y2044871D02*
X1025427Y2044871D01*
X1025427Y2048552D02*
X1037053Y2048552D01*
D12*
X1752370Y2133600D03*
X1811250Y2133600D03*
D13*
X1836420Y2093040D03*
X1836420Y2077640D03*
D14*
X1731547Y2079197D02*
X1731547Y2098623D01*
X1743173Y2098623D01*
X1743173Y2079197D01*
X1731547Y2079197D01*
X1731547Y2082878D02*
X1743173Y2082878D01*
X1743173Y2086559D02*
X1731547Y2086559D01*
X1731547Y2090240D02*
X1743173Y2090240D01*
X1743173Y2093921D02*
X1731547Y2093921D01*
X1731547Y2097602D02*
X1743173Y2097602D01*
X1731547Y2055923D02*
X1731547Y2036497D01*
X1731547Y2055923D02*
X1743173Y2055923D01*
X1743173Y2036497D01*
X1731547Y2036497D01*
X1731547Y2040178D02*
X1743173Y2040178D01*
X1743173Y2043859D02*
X1731547Y2043859D01*
X1731547Y2047540D02*
X1743173Y2047540D01*
X1743173Y2051221D02*
X1731547Y2051221D01*
X1731547Y2054902D02*
X1743173Y2054902D01*
D15*
X190500Y1178350D03*
X190500Y1234650D03*
X165100Y1178350D03*
X165100Y1234650D03*
X139700Y1178350D03*
X139700Y1234650D03*
X114300Y1178350D03*
X114300Y1234650D03*
X88900Y1178350D03*
X88900Y1234650D03*
X63500Y1178350D03*
X63500Y1234650D03*
D16*
X114300Y1850320D03*
X114300Y1911420D03*
D14*
X99597Y1977597D02*
X99597Y1997023D01*
X111223Y1997023D01*
X111223Y1977597D01*
X99597Y1977597D01*
X99597Y1981278D02*
X111223Y1981278D01*
X111223Y1984959D02*
X99597Y1984959D01*
X99597Y1988640D02*
X111223Y1988640D01*
X111223Y1992321D02*
X99597Y1992321D01*
X99597Y1996002D02*
X111223Y1996002D01*
X99597Y1954323D02*
X99597Y1934897D01*
X99597Y1954323D02*
X111223Y1954323D01*
X111223Y1934897D01*
X99597Y1934897D01*
X99597Y1938578D02*
X111223Y1938578D01*
X111223Y1942259D02*
X99597Y1942259D01*
X99597Y1945940D02*
X111223Y1945940D01*
X111223Y1949621D02*
X99597Y1949621D01*
X99597Y1953302D02*
X111223Y1953302D01*
X140237Y1977597D02*
X140237Y1997023D01*
X151863Y1997023D01*
X151863Y1977597D01*
X140237Y1977597D01*
X140237Y1981278D02*
X151863Y1981278D01*
X151863Y1984959D02*
X140237Y1984959D01*
X140237Y1988640D02*
X151863Y1988640D01*
X151863Y1992321D02*
X140237Y1992321D01*
X140237Y1996002D02*
X151863Y1996002D01*
X140237Y1954323D02*
X140237Y1934897D01*
X140237Y1954323D02*
X151863Y1954323D01*
X151863Y1934897D01*
X140237Y1934897D01*
X140237Y1938578D02*
X151863Y1938578D01*
X151863Y1942259D02*
X140237Y1942259D01*
X140237Y1945940D02*
X151863Y1945940D01*
X151863Y1949621D02*
X140237Y1949621D01*
X140237Y1953302D02*
X151863Y1953302D01*
D16*
X344170Y1777930D03*
X344170Y1839030D03*
D17*
X344170Y1864800D03*
X344170Y1894400D03*
D12*
X218210Y1958340D03*
X277090Y1958340D03*
D18*
X166370Y1850160D03*
X166370Y1909040D03*
D12*
X176760Y1799590D03*
X117880Y1799590D03*
D19*
X150368Y1738122D03*
X131572Y1738122D03*
D20*
X140970Y1716278D03*
D21*
X147250Y1762760D03*
X132150Y1762760D03*
D22*
X175260Y1718920D03*
X175260Y1738020D03*
D16*
X129540Y614610D03*
X129540Y675710D03*
D14*
X118647Y745697D02*
X118647Y765123D01*
X130273Y765123D01*
X130273Y745697D01*
X118647Y745697D01*
X118647Y749378D02*
X130273Y749378D01*
X130273Y753059D02*
X118647Y753059D01*
X118647Y756740D02*
X130273Y756740D01*
X130273Y760421D02*
X118647Y760421D01*
X118647Y764102D02*
X130273Y764102D01*
X118647Y722423D02*
X118647Y702997D01*
X118647Y722423D02*
X130273Y722423D01*
X130273Y702997D01*
X118647Y702997D01*
X118647Y706678D02*
X130273Y706678D01*
X130273Y710359D02*
X118647Y710359D01*
X118647Y714040D02*
X130273Y714040D01*
X130273Y717721D02*
X118647Y717721D01*
X118647Y721402D02*
X130273Y721402D01*
X160882Y747292D02*
X160882Y766718D01*
X172508Y766718D01*
X172508Y747292D01*
X160882Y747292D01*
X160882Y750973D02*
X172508Y750973D01*
X172508Y754654D02*
X160882Y754654D01*
X160882Y758335D02*
X172508Y758335D01*
X172508Y762016D02*
X160882Y762016D01*
X160882Y765697D02*
X172508Y765697D01*
X160882Y724018D02*
X160882Y704592D01*
X160882Y724018D02*
X172508Y724018D01*
X172508Y704592D01*
X160882Y704592D01*
X160882Y708273D02*
X172508Y708273D01*
X172508Y711954D02*
X160882Y711954D01*
X160882Y715635D02*
X172508Y715635D01*
X172508Y719316D02*
X160882Y719316D01*
X160882Y722997D02*
X172508Y722997D01*
D16*
X355600Y533330D03*
X355600Y594430D03*
D17*
X363220Y632900D03*
X363220Y662500D03*
D12*
X232180Y726440D03*
X291060Y726440D03*
D18*
X175260Y615720D03*
X175260Y674600D03*
D12*
X181840Y568960D03*
X122960Y568960D03*
D19*
X136398Y503682D03*
X117602Y503682D03*
D20*
X127000Y481838D03*
D21*
X135820Y529590D03*
X120720Y529590D03*
D22*
X175260Y483210D03*
X175260Y502310D03*
D16*
X121920Y1474400D03*
X121920Y1535500D03*
D14*
X103407Y1605487D02*
X103407Y1624913D01*
X115033Y1624913D01*
X115033Y1605487D01*
X103407Y1605487D01*
X103407Y1609168D02*
X115033Y1609168D01*
X115033Y1612849D02*
X103407Y1612849D01*
X103407Y1616530D02*
X115033Y1616530D01*
X115033Y1620211D02*
X103407Y1620211D01*
X103407Y1623892D02*
X115033Y1623892D01*
X103407Y1582213D02*
X103407Y1562787D01*
X103407Y1582213D02*
X115033Y1582213D01*
X115033Y1562787D01*
X103407Y1562787D01*
X103407Y1566468D02*
X115033Y1566468D01*
X115033Y1570149D02*
X103407Y1570149D01*
X103407Y1573830D02*
X115033Y1573830D01*
X115033Y1577511D02*
X103407Y1577511D01*
X103407Y1581192D02*
X115033Y1581192D01*
X141507Y1605487D02*
X141507Y1624913D01*
X153133Y1624913D01*
X153133Y1605487D01*
X141507Y1605487D01*
X141507Y1609168D02*
X153133Y1609168D01*
X153133Y1612849D02*
X141507Y1612849D01*
X141507Y1616530D02*
X153133Y1616530D01*
X153133Y1620211D02*
X141507Y1620211D01*
X141507Y1623892D02*
X153133Y1623892D01*
X141507Y1582213D02*
X141507Y1562787D01*
X141507Y1582213D02*
X153133Y1582213D01*
X153133Y1562787D01*
X141507Y1562787D01*
X141507Y1566468D02*
X153133Y1566468D01*
X153133Y1570149D02*
X141507Y1570149D01*
X141507Y1573830D02*
X153133Y1573830D01*
X153133Y1577511D02*
X141507Y1577511D01*
X141507Y1581192D02*
X153133Y1581192D01*
D16*
X345440Y1405820D03*
X345440Y1466920D03*
D17*
X350520Y1510470D03*
X350520Y1540070D03*
D12*
X222020Y1598930D03*
X280900Y1598930D03*
D18*
X167640Y1475510D03*
X167640Y1534390D03*
D12*
X183110Y1435100D03*
X124230Y1435100D03*
D19*
X146558Y1371092D03*
X127762Y1371092D03*
D20*
X137160Y1349248D03*
D21*
X142440Y1400810D03*
X127340Y1400810D03*
D22*
X173990Y1358240D03*
X173990Y1377340D03*
D16*
X124460Y975290D03*
X124460Y1036390D03*
D14*
X119917Y1100027D02*
X119917Y1119453D01*
X131543Y1119453D01*
X131543Y1100027D01*
X119917Y1100027D01*
X119917Y1103708D02*
X131543Y1103708D01*
X131543Y1107389D02*
X119917Y1107389D01*
X119917Y1111070D02*
X131543Y1111070D01*
X131543Y1114751D02*
X119917Y1114751D01*
X119917Y1118432D02*
X131543Y1118432D01*
X119917Y1076753D02*
X119917Y1057327D01*
X119917Y1076753D02*
X131543Y1076753D01*
X131543Y1057327D01*
X119917Y1057327D01*
X119917Y1061008D02*
X131543Y1061008D01*
X131543Y1064689D02*
X119917Y1064689D01*
X119917Y1068370D02*
X131543Y1068370D01*
X131543Y1072051D02*
X119917Y1072051D01*
X119917Y1075732D02*
X131543Y1075732D01*
X159287Y1111457D02*
X159287Y1130883D01*
X170913Y1130883D01*
X170913Y1111457D01*
X159287Y1111457D01*
X159287Y1115138D02*
X170913Y1115138D01*
X170913Y1118819D02*
X159287Y1118819D01*
X159287Y1122500D02*
X170913Y1122500D01*
X170913Y1126181D02*
X159287Y1126181D01*
X159287Y1129862D02*
X170913Y1129862D01*
X159287Y1088183D02*
X159287Y1068757D01*
X159287Y1088183D02*
X170913Y1088183D01*
X170913Y1068757D01*
X159287Y1068757D01*
X159287Y1072438D02*
X170913Y1072438D01*
X170913Y1076119D02*
X159287Y1076119D01*
X159287Y1079800D02*
X170913Y1079800D01*
X170913Y1083481D02*
X159287Y1083481D01*
X159287Y1087162D02*
X170913Y1087162D01*
D16*
X350520Y906710D03*
X350520Y967810D03*
D17*
X355600Y1001200D03*
X355600Y1030800D03*
D12*
X229640Y1099820D03*
X288520Y1099820D03*
D18*
X172720Y976400D03*
X172720Y1035280D03*
D12*
X184380Y932180D03*
X125500Y932180D03*
D19*
X141478Y871982D03*
X122682Y871982D03*
D20*
X132080Y850138D03*
D21*
X139630Y894080D03*
X124530Y894080D03*
D23*
X179730Y871220D03*
X160630Y871220D03*
D16*
X120650Y246310D03*
X120650Y307410D03*
D14*
X112297Y379937D02*
X112297Y399363D01*
X123923Y399363D01*
X123923Y379937D01*
X112297Y379937D01*
X112297Y383618D02*
X123923Y383618D01*
X123923Y387299D02*
X112297Y387299D01*
X112297Y390980D02*
X123923Y390980D01*
X123923Y394661D02*
X112297Y394661D01*
X112297Y398342D02*
X123923Y398342D01*
X112297Y356663D02*
X112297Y337237D01*
X112297Y356663D02*
X123923Y356663D01*
X123923Y337237D01*
X112297Y337237D01*
X112297Y340918D02*
X123923Y340918D01*
X123923Y344599D02*
X112297Y344599D01*
X112297Y348280D02*
X123923Y348280D01*
X123923Y351961D02*
X112297Y351961D01*
X112297Y355642D02*
X123923Y355642D01*
X150397Y379937D02*
X150397Y399363D01*
X162023Y399363D01*
X162023Y379937D01*
X150397Y379937D01*
X150397Y383618D02*
X162023Y383618D01*
X162023Y387299D02*
X150397Y387299D01*
X150397Y390980D02*
X162023Y390980D01*
X162023Y394661D02*
X150397Y394661D01*
X150397Y398342D02*
X162023Y398342D01*
X150397Y356663D02*
X150397Y337237D01*
X150397Y356663D02*
X162023Y356663D01*
X162023Y337237D01*
X150397Y337237D01*
X150397Y340918D02*
X162023Y340918D01*
X162023Y344599D02*
X150397Y344599D01*
X150397Y348280D02*
X162023Y348280D01*
X162023Y351961D02*
X150397Y351961D01*
X150397Y355642D02*
X162023Y355642D01*
D16*
X353090Y177330D03*
X353090Y238430D03*
D17*
X359410Y279840D03*
X359410Y309440D03*
D12*
X220750Y373380D03*
X279630Y373380D03*
D18*
X168910Y247420D03*
X168910Y306300D03*
D12*
X178030Y203560D03*
X119150Y203560D03*
D19*
X142748Y145542D03*
X123952Y145542D03*
D20*
X133350Y123698D03*
D21*
X140900Y168910D03*
X125800Y168910D03*
D23*
X179730Y144780D03*
X160630Y144780D03*
D16*
X118110Y2195760D03*
X118110Y2256860D03*
D14*
X109757Y2326847D02*
X109757Y2346273D01*
X121383Y2346273D01*
X121383Y2326847D01*
X109757Y2326847D01*
X109757Y2330528D02*
X121383Y2330528D01*
X121383Y2334209D02*
X109757Y2334209D01*
X109757Y2337890D02*
X121383Y2337890D01*
X121383Y2341571D02*
X109757Y2341571D01*
X109757Y2345252D02*
X121383Y2345252D01*
X109757Y2303573D02*
X109757Y2284147D01*
X109757Y2303573D02*
X121383Y2303573D01*
X121383Y2284147D01*
X109757Y2284147D01*
X109757Y2287828D02*
X121383Y2287828D01*
X121383Y2291509D02*
X109757Y2291509D01*
X109757Y2295190D02*
X121383Y2295190D01*
X121383Y2298871D02*
X109757Y2298871D01*
X109757Y2302552D02*
X121383Y2302552D01*
X147857Y2326847D02*
X147857Y2346273D01*
X159483Y2346273D01*
X159483Y2326847D01*
X147857Y2326847D01*
X147857Y2330528D02*
X159483Y2330528D01*
X159483Y2334209D02*
X147857Y2334209D01*
X147857Y2337890D02*
X159483Y2337890D01*
X159483Y2341571D02*
X147857Y2341571D01*
X147857Y2345252D02*
X159483Y2345252D01*
X147857Y2303573D02*
X147857Y2284147D01*
X147857Y2303573D02*
X159483Y2303573D01*
X159483Y2284147D01*
X147857Y2284147D01*
X147857Y2287828D02*
X159483Y2287828D01*
X159483Y2291509D02*
X147857Y2291509D01*
X147857Y2295190D02*
X159483Y2295190D01*
X159483Y2298871D02*
X147857Y2298871D01*
X147857Y2302552D02*
X159483Y2302552D01*
D16*
X344170Y2129720D03*
X344170Y2190820D03*
D17*
X351790Y2229290D03*
X351790Y2258890D03*
D12*
X213130Y2322830D03*
X272010Y2322830D03*
D18*
X163830Y2196870D03*
X163830Y2255750D03*
D12*
X172950Y2155190D03*
X114070Y2155190D03*
D19*
X135128Y2094992D03*
X116332Y2094992D03*
D20*
X125730Y2073148D03*
D21*
X133280Y2118000D03*
X118180Y2118000D03*
D23*
X173380Y2092960D03*
X154280Y2092960D03*
D16*
X433070Y246310D03*
X433070Y307410D03*
D14*
X419637Y387557D02*
X419637Y406983D01*
X431263Y406983D01*
X431263Y387557D01*
X419637Y387557D01*
X419637Y391238D02*
X431263Y391238D01*
X431263Y394919D02*
X419637Y394919D01*
X419637Y398600D02*
X431263Y398600D01*
X431263Y402281D02*
X419637Y402281D01*
X419637Y405962D02*
X431263Y405962D01*
X419637Y364283D02*
X419637Y344857D01*
X419637Y364283D02*
X431263Y364283D01*
X431263Y344857D01*
X419637Y344857D01*
X419637Y348538D02*
X431263Y348538D01*
X431263Y352219D02*
X419637Y352219D01*
X419637Y355900D02*
X431263Y355900D01*
X431263Y359581D02*
X419637Y359581D01*
X419637Y363262D02*
X431263Y363262D01*
X457737Y387557D02*
X457737Y406983D01*
X469363Y406983D01*
X469363Y387557D01*
X457737Y387557D01*
X457737Y391238D02*
X469363Y391238D01*
X469363Y394919D02*
X457737Y394919D01*
X457737Y398600D02*
X469363Y398600D01*
X469363Y402281D02*
X457737Y402281D01*
X457737Y405962D02*
X469363Y405962D01*
X457737Y364283D02*
X457737Y344857D01*
X457737Y364283D02*
X469363Y364283D01*
X469363Y344857D01*
X457737Y344857D01*
X457737Y348538D02*
X469363Y348538D01*
X469363Y352219D02*
X457737Y352219D01*
X457737Y355900D02*
X469363Y355900D01*
X469363Y359581D02*
X457737Y359581D01*
X457737Y363262D02*
X469363Y363262D01*
D16*
X666750Y175190D03*
X666750Y236290D03*
D17*
X674370Y279840D03*
X674370Y309440D03*
D12*
X545870Y375920D03*
X604750Y375920D03*
D18*
X478790Y247420D03*
X478790Y306300D03*
D12*
X484100Y201930D03*
X425220Y201930D03*
D19*
X447548Y145542D03*
X428752Y145542D03*
D20*
X438150Y123698D03*
D21*
X445700Y168550D03*
X430600Y168550D03*
D23*
X485800Y149860D03*
X466700Y149860D03*
D16*
X419100Y2186870D03*
X419100Y2247970D03*
D14*
X410747Y2323037D02*
X410747Y2342463D01*
X422373Y2342463D01*
X422373Y2323037D01*
X410747Y2323037D01*
X410747Y2326718D02*
X422373Y2326718D01*
X422373Y2330399D02*
X410747Y2330399D01*
X410747Y2334080D02*
X422373Y2334080D01*
X422373Y2337761D02*
X410747Y2337761D01*
X410747Y2341442D02*
X422373Y2341442D01*
X410747Y2299763D02*
X410747Y2280337D01*
X410747Y2299763D02*
X422373Y2299763D01*
X422373Y2280337D01*
X410747Y2280337D01*
X410747Y2284018D02*
X422373Y2284018D01*
X422373Y2287699D02*
X410747Y2287699D01*
X410747Y2291380D02*
X422373Y2291380D01*
X422373Y2295061D02*
X410747Y2295061D01*
X410747Y2298742D02*
X422373Y2298742D01*
X448847Y2323037D02*
X448847Y2342463D01*
X460473Y2342463D01*
X460473Y2323037D01*
X448847Y2323037D01*
X448847Y2326718D02*
X460473Y2326718D01*
X460473Y2330399D02*
X448847Y2330399D01*
X448847Y2334080D02*
X460473Y2334080D01*
X460473Y2337761D02*
X448847Y2337761D01*
X448847Y2341442D02*
X460473Y2341442D01*
X448847Y2299763D02*
X448847Y2280337D01*
X448847Y2299763D02*
X460473Y2299763D01*
X460473Y2280337D01*
X448847Y2280337D01*
X448847Y2284018D02*
X460473Y2284018D01*
X460473Y2287699D02*
X448847Y2287699D01*
X448847Y2291380D02*
X460473Y2291380D01*
X460473Y2295061D02*
X448847Y2295061D01*
X448847Y2298742D02*
X460473Y2298742D01*
D16*
X652780Y2120830D03*
X652780Y2181930D03*
D17*
X657860Y2212780D03*
X657860Y2242380D03*
D12*
X524280Y2308860D03*
X583160Y2308860D03*
D18*
X467360Y2190010D03*
X467360Y2248890D03*
D12*
X475210Y2143760D03*
X416330Y2143760D03*
D19*
X441198Y2086102D03*
X422402Y2086102D03*
D20*
X431800Y2064258D03*
D21*
X441890Y2113280D03*
X426790Y2113280D03*
D23*
X479450Y2084070D03*
X460350Y2084070D03*
D24*
X208360Y1135380D03*
X192960Y1135380D03*
X204550Y1634490D03*
X189150Y1634490D03*
X215980Y764540D03*
X200580Y764540D03*
X191850Y1988820D03*
X176450Y1988820D03*
X199470Y397510D03*
X184070Y397510D03*
X195660Y2353310D03*
X180260Y2353310D03*
X524590Y414020D03*
X509190Y414020D03*
X505540Y2352040D03*
X490140Y2352040D03*
D11*
X1425150Y254000D03*
X1368850Y254000D03*
X1425150Y228600D03*
X1368850Y228600D03*
X1425150Y203200D03*
X1368850Y203200D03*
X1425150Y177800D03*
X1368850Y177800D03*
X1425150Y152400D03*
X1368850Y152400D03*
X1425150Y127000D03*
X1368850Y127000D03*
D12*
X1528850Y151130D03*
X1587730Y151130D03*
D24*
X1565830Y261620D03*
X1581230Y261620D03*
D14*
X1529617Y245693D02*
X1529617Y226267D01*
X1529617Y245693D02*
X1541243Y245693D01*
X1541243Y226267D01*
X1529617Y226267D01*
X1529617Y229948D02*
X1541243Y229948D01*
X1541243Y233629D02*
X1529617Y233629D01*
X1529617Y237310D02*
X1541243Y237310D01*
X1541243Y240991D02*
X1529617Y240991D01*
X1529617Y244672D02*
X1541243Y244672D01*
X1529617Y202993D02*
X1529617Y183567D01*
X1529617Y202993D02*
X1541243Y202993D01*
X1541243Y183567D01*
X1529617Y183567D01*
X1529617Y187248D02*
X1541243Y187248D01*
X1541243Y190929D02*
X1529617Y190929D01*
X1529617Y194610D02*
X1541243Y194610D01*
X1541243Y198291D02*
X1529617Y198291D01*
X1529617Y201972D02*
X1541243Y201972D01*
D12*
X1293090Y148590D03*
X1234210Y148590D03*
D24*
X1262460Y265430D03*
X1247060Y265430D03*
D14*
X1278157Y243153D02*
X1278157Y223727D01*
X1278157Y243153D02*
X1289783Y243153D01*
X1289783Y223727D01*
X1278157Y223727D01*
X1278157Y227408D02*
X1289783Y227408D01*
X1289783Y231089D02*
X1278157Y231089D01*
X1278157Y234770D02*
X1289783Y234770D01*
X1289783Y238451D02*
X1278157Y238451D01*
X1278157Y242132D02*
X1289783Y242132D01*
X1278157Y200453D02*
X1278157Y181027D01*
X1278157Y200453D02*
X1289783Y200453D01*
X1289783Y181027D01*
X1278157Y181027D01*
X1278157Y184708D02*
X1289783Y184708D01*
X1289783Y188389D02*
X1278157Y188389D01*
X1278157Y192070D02*
X1289783Y192070D01*
X1289783Y195751D02*
X1278157Y195751D01*
X1278157Y199432D02*
X1289783Y199432D01*
D12*
X1671090Y151130D03*
X1729970Y151130D03*
D24*
X1709340Y261620D03*
X1724740Y261620D03*
D14*
X1671857Y245693D02*
X1671857Y226267D01*
X1671857Y245693D02*
X1683483Y245693D01*
X1683483Y226267D01*
X1671857Y226267D01*
X1671857Y229948D02*
X1683483Y229948D01*
X1683483Y233629D02*
X1671857Y233629D01*
X1671857Y237310D02*
X1683483Y237310D01*
X1683483Y240991D02*
X1671857Y240991D01*
X1671857Y244672D02*
X1683483Y244672D01*
X1671857Y202993D02*
X1671857Y183567D01*
X1671857Y202993D02*
X1683483Y202993D01*
X1683483Y183567D01*
X1671857Y183567D01*
X1671857Y187248D02*
X1683483Y187248D01*
X1683483Y190929D02*
X1671857Y190929D01*
X1671857Y194610D02*
X1683483Y194610D01*
X1683483Y198291D02*
X1671857Y198291D01*
X1671857Y201972D02*
X1683483Y201972D01*
D12*
X1145770Y151130D03*
X1086890Y151130D03*
D24*
X1116410Y262890D03*
X1101010Y262890D03*
D14*
X1133377Y245693D02*
X1133377Y226267D01*
X1133377Y245693D02*
X1145003Y245693D01*
X1145003Y226267D01*
X1133377Y226267D01*
X1133377Y229948D02*
X1145003Y229948D01*
X1145003Y233629D02*
X1133377Y233629D01*
X1133377Y237310D02*
X1145003Y237310D01*
X1145003Y240991D02*
X1133377Y240991D01*
X1133377Y244672D02*
X1145003Y244672D01*
X1133377Y202993D02*
X1133377Y183567D01*
X1133377Y202993D02*
X1145003Y202993D01*
X1145003Y183567D01*
X1133377Y183567D01*
X1133377Y187248D02*
X1145003Y187248D01*
X1145003Y190929D02*
X1133377Y190929D01*
X1133377Y194610D02*
X1145003Y194610D01*
X1145003Y198291D02*
X1133377Y198291D01*
X1133377Y201972D02*
X1145003Y201972D01*
D12*
X1813330Y146050D03*
X1872210Y146050D03*
D24*
X1857930Y256540D03*
X1873330Y256540D03*
D14*
X1814097Y240613D02*
X1814097Y221187D01*
X1814097Y240613D02*
X1825723Y240613D01*
X1825723Y221187D01*
X1814097Y221187D01*
X1814097Y224868D02*
X1825723Y224868D01*
X1825723Y228549D02*
X1814097Y228549D01*
X1814097Y232230D02*
X1825723Y232230D01*
X1825723Y235911D02*
X1814097Y235911D01*
X1814097Y239592D02*
X1825723Y239592D01*
X1814097Y197913D02*
X1814097Y178487D01*
X1814097Y197913D02*
X1825723Y197913D01*
X1825723Y178487D01*
X1814097Y178487D01*
X1814097Y182168D02*
X1825723Y182168D01*
X1825723Y185849D02*
X1814097Y185849D01*
X1814097Y189530D02*
X1825723Y189530D01*
X1825723Y193211D02*
X1814097Y193211D01*
X1814097Y196892D02*
X1825723Y196892D01*
D12*
X1006070Y156210D03*
X947190Y156210D03*
D24*
X971630Y271780D03*
X956230Y271780D03*
D14*
X993677Y250773D02*
X993677Y231347D01*
X993677Y250773D02*
X1005303Y250773D01*
X1005303Y231347D01*
X993677Y231347D01*
X993677Y235028D02*
X1005303Y235028D01*
X1005303Y238709D02*
X993677Y238709D01*
X993677Y242390D02*
X1005303Y242390D01*
X1005303Y246071D02*
X993677Y246071D01*
X993677Y249752D02*
X1005303Y249752D01*
X993677Y208073D02*
X993677Y188647D01*
X993677Y208073D02*
X1005303Y208073D01*
X1005303Y188647D01*
X993677Y188647D01*
X993677Y192328D02*
X1005303Y192328D01*
X1005303Y196009D02*
X993677Y196009D01*
X993677Y199690D02*
X1005303Y199690D01*
X1005303Y203371D02*
X993677Y203371D01*
X993677Y207052D02*
X1005303Y207052D01*
D12*
X1942870Y151130D03*
X2001750Y151130D03*
D24*
X1976040Y260350D03*
X1991440Y260350D03*
D14*
X1943637Y245693D02*
X1943637Y226267D01*
X1943637Y245693D02*
X1955263Y245693D01*
X1955263Y226267D01*
X1943637Y226267D01*
X1943637Y229948D02*
X1955263Y229948D01*
X1955263Y233629D02*
X1943637Y233629D01*
X1943637Y237310D02*
X1955263Y237310D01*
X1955263Y240991D02*
X1943637Y240991D01*
X1943637Y244672D02*
X1955263Y244672D01*
X1943637Y202993D02*
X1943637Y183567D01*
X1943637Y202993D02*
X1955263Y202993D01*
X1955263Y183567D01*
X1943637Y183567D01*
X1943637Y187248D02*
X1955263Y187248D01*
X1955263Y190929D02*
X1943637Y190929D01*
X1943637Y194610D02*
X1955263Y194610D01*
X1955263Y198291D02*
X1943637Y198291D01*
X1943637Y201972D02*
X1955263Y201972D01*
D12*
X858750Y148590D03*
X799870Y148590D03*
D24*
X831930Y266700D03*
X816530Y266700D03*
D14*
X846357Y245693D02*
X846357Y226267D01*
X846357Y245693D02*
X857983Y245693D01*
X857983Y226267D01*
X846357Y226267D01*
X846357Y229948D02*
X857983Y229948D01*
X857983Y233629D02*
X846357Y233629D01*
X846357Y237310D02*
X857983Y237310D01*
X857983Y240991D02*
X846357Y240991D01*
X846357Y244672D02*
X857983Y244672D01*
X846357Y202993D02*
X846357Y183567D01*
X846357Y202993D02*
X857983Y202993D01*
X857983Y183567D01*
X846357Y183567D01*
X846357Y187248D02*
X857983Y187248D01*
X857983Y190929D02*
X846357Y190929D01*
X846357Y194610D02*
X857983Y194610D01*
X857983Y198291D02*
X846357Y198291D01*
X846357Y201972D02*
X857983Y201972D01*
D12*
X1935250Y308610D03*
X1994130Y308610D03*
D24*
X1970960Y422910D03*
X1986360Y422910D03*
D14*
X1936017Y403173D02*
X1936017Y383747D01*
X1936017Y403173D02*
X1947643Y403173D01*
X1947643Y383747D01*
X1936017Y383747D01*
X1936017Y387428D02*
X1947643Y387428D01*
X1947643Y391109D02*
X1936017Y391109D01*
X1936017Y394790D02*
X1947643Y394790D01*
X1947643Y398471D02*
X1936017Y398471D01*
X1936017Y402152D02*
X1947643Y402152D01*
X1936017Y360473D02*
X1936017Y341047D01*
X1936017Y360473D02*
X1947643Y360473D01*
X1947643Y341047D01*
X1936017Y341047D01*
X1936017Y344728D02*
X1947643Y344728D01*
X1947643Y348409D02*
X1936017Y348409D01*
X1936017Y352090D02*
X1947643Y352090D01*
X1947643Y355771D02*
X1936017Y355771D01*
X1936017Y359452D02*
X1947643Y359452D01*
D12*
X852400Y306070D03*
X793520Y306070D03*
D24*
X824310Y421640D03*
X808910Y421640D03*
D14*
X841277Y401903D02*
X841277Y382477D01*
X841277Y401903D02*
X852903Y401903D01*
X852903Y382477D01*
X841277Y382477D01*
X841277Y386158D02*
X852903Y386158D01*
X852903Y389839D02*
X841277Y389839D01*
X841277Y393520D02*
X852903Y393520D01*
X852903Y397201D02*
X841277Y397201D01*
X841277Y400882D02*
X852903Y400882D01*
X841277Y359203D02*
X841277Y339777D01*
X841277Y359203D02*
X852903Y359203D01*
X852903Y339777D01*
X841277Y339777D01*
X841277Y343458D02*
X852903Y343458D01*
X852903Y347139D02*
X841277Y347139D01*
X841277Y350820D02*
X852903Y350820D01*
X852903Y354501D02*
X841277Y354501D01*
X841277Y358182D02*
X852903Y358182D01*
D15*
X444500Y1178350D03*
X444500Y1234650D03*
X419100Y1178350D03*
X419100Y1234650D03*
X393700Y1178350D03*
X393700Y1234650D03*
X368300Y1178350D03*
X368300Y1234650D03*
X342900Y1178350D03*
X342900Y1234650D03*
X317500Y1178350D03*
X317500Y1234650D03*
D25*
X1492320Y1706880D03*
X1431220Y1706880D03*
D14*
X1366313Y1713767D02*
X1346887Y1713767D01*
X1346887Y1725393D01*
X1366313Y1725393D01*
X1366313Y1713767D01*
X1366313Y1717448D02*
X1346887Y1717448D01*
X1346887Y1721129D02*
X1366313Y1721129D01*
X1366313Y1724810D02*
X1346887Y1724810D01*
X1389587Y1713767D02*
X1409013Y1713767D01*
X1389587Y1713767D02*
X1389587Y1725393D01*
X1409013Y1725393D01*
X1409013Y1713767D01*
X1409013Y1717448D02*
X1389587Y1717448D01*
X1389587Y1721129D02*
X1409013Y1721129D01*
X1409013Y1724810D02*
X1389587Y1724810D01*
X1363773Y1751867D02*
X1344347Y1751867D01*
X1344347Y1763493D01*
X1363773Y1763493D01*
X1363773Y1751867D01*
X1363773Y1755548D02*
X1344347Y1755548D01*
X1344347Y1759229D02*
X1363773Y1759229D01*
X1363773Y1762910D02*
X1344347Y1762910D01*
X1387047Y1751867D02*
X1406473Y1751867D01*
X1387047Y1751867D02*
X1387047Y1763493D01*
X1406473Y1763493D01*
X1406473Y1751867D01*
X1406473Y1755548D02*
X1387047Y1755548D01*
X1387047Y1759229D02*
X1406473Y1759229D01*
X1406473Y1762910D02*
X1387047Y1762910D01*
D25*
X1568520Y1943100D03*
X1507420Y1943100D03*
D26*
X1471490Y1943100D03*
X1441890Y1943100D03*
D18*
X1370330Y1817140D03*
X1370330Y1876020D03*
D12*
X1491210Y1755140D03*
X1432330Y1755140D03*
D18*
X1530350Y1761720D03*
X1530350Y1702840D03*
D27*
X1590548Y1718818D03*
X1590548Y1700022D03*
D28*
X1612392Y1709420D03*
D29*
X1565910Y1720240D03*
X1565910Y1705140D03*
D23*
X1610078Y1742440D03*
X1590978Y1742440D03*
D25*
X1476940Y720090D03*
X1538040Y720090D03*
D14*
X1609297Y717273D02*
X1628723Y717273D01*
X1628723Y705647D01*
X1609297Y705647D01*
X1609297Y717273D01*
X1609297Y709328D02*
X1628723Y709328D01*
X1628723Y713009D02*
X1609297Y713009D01*
X1609297Y716690D02*
X1628723Y716690D01*
X1586023Y717273D02*
X1566597Y717273D01*
X1586023Y717273D02*
X1586023Y705647D01*
X1566597Y705647D01*
X1566597Y717273D01*
X1566597Y709328D02*
X1586023Y709328D01*
X1586023Y713009D02*
X1566597Y713009D01*
X1566597Y716690D02*
X1586023Y716690D01*
X1619457Y677643D02*
X1638883Y677643D01*
X1638883Y666017D01*
X1619457Y666017D01*
X1619457Y677643D01*
X1619457Y669698D02*
X1638883Y669698D01*
X1638883Y673379D02*
X1619457Y673379D01*
X1619457Y677060D02*
X1638883Y677060D01*
X1596183Y677643D02*
X1576757Y677643D01*
X1596183Y677643D02*
X1596183Y666017D01*
X1576757Y666017D01*
X1576757Y677643D01*
X1576757Y669698D02*
X1596183Y669698D01*
X1596183Y673379D02*
X1576757Y673379D01*
X1576757Y677060D02*
X1596183Y677060D01*
D25*
X1409630Y482600D03*
X1470730Y482600D03*
D26*
X1500310Y476250D03*
X1529910Y476250D03*
D18*
X1602740Y593320D03*
X1602740Y534440D03*
D12*
X1479320Y660400D03*
X1538200Y660400D03*
D18*
X1437640Y646200D03*
X1437640Y705080D03*
D27*
X1378712Y685292D03*
X1378712Y704088D03*
D28*
X1356868Y694690D03*
D29*
X1401720Y688814D03*
X1401720Y703914D03*
D23*
X1349350Y661670D03*
X1368450Y661670D03*
D25*
X1790770Y1704340D03*
X1729670Y1704340D03*
D14*
X1662223Y1698527D02*
X1642797Y1698527D01*
X1642797Y1710153D01*
X1662223Y1710153D01*
X1662223Y1698527D01*
X1662223Y1702208D02*
X1642797Y1702208D01*
X1642797Y1705889D02*
X1662223Y1705889D01*
X1662223Y1709570D02*
X1642797Y1709570D01*
X1685497Y1698527D02*
X1704923Y1698527D01*
X1685497Y1698527D02*
X1685497Y1710153D01*
X1704923Y1710153D01*
X1704923Y1698527D01*
X1704923Y1702208D02*
X1685497Y1702208D01*
X1685497Y1705889D02*
X1704923Y1705889D01*
X1704923Y1709570D02*
X1685497Y1709570D01*
X1662223Y1736627D02*
X1642797Y1736627D01*
X1642797Y1748253D01*
X1662223Y1748253D01*
X1662223Y1736627D01*
X1662223Y1740308D02*
X1642797Y1740308D01*
X1642797Y1743989D02*
X1662223Y1743989D01*
X1662223Y1747670D02*
X1642797Y1747670D01*
X1685497Y1736627D02*
X1704923Y1736627D01*
X1685497Y1736627D02*
X1685497Y1748253D01*
X1704923Y1748253D01*
X1704923Y1736627D01*
X1704923Y1740308D02*
X1685497Y1740308D01*
X1685497Y1743989D02*
X1704923Y1743989D01*
X1704923Y1747670D02*
X1685497Y1747670D01*
D25*
X1856810Y1940560D03*
X1795710Y1940560D03*
D26*
X1759780Y1943100D03*
X1730180Y1943100D03*
D18*
X1671320Y1814600D03*
X1671320Y1873480D03*
D12*
X1789660Y1755140D03*
X1730780Y1755140D03*
D18*
X1828800Y1766800D03*
X1828800Y1707920D03*
D27*
X1888998Y1718818D03*
X1888998Y1700022D03*
D28*
X1910842Y1709420D03*
D29*
X1868530Y1722406D03*
X1868530Y1707306D03*
D23*
X1914550Y1742440D03*
X1895450Y1742440D03*
D25*
X1789360Y735330D03*
X1850460Y735330D03*
D14*
X1926797Y732253D02*
X1946223Y732253D01*
X1946223Y720627D01*
X1926797Y720627D01*
X1926797Y732253D01*
X1926797Y724308D02*
X1946223Y724308D01*
X1946223Y727989D02*
X1926797Y727989D01*
X1926797Y731670D02*
X1946223Y731670D01*
X1903523Y732253D02*
X1884097Y732253D01*
X1903523Y732253D02*
X1903523Y720627D01*
X1884097Y720627D01*
X1884097Y732253D01*
X1884097Y724308D02*
X1903523Y724308D01*
X1903523Y727989D02*
X1884097Y727989D01*
X1884097Y731670D02*
X1903523Y731670D01*
X1926797Y693653D02*
X1946223Y693653D01*
X1946223Y682027D01*
X1926797Y682027D01*
X1926797Y693653D01*
X1926797Y685708D02*
X1946223Y685708D01*
X1946223Y689389D02*
X1926797Y689389D01*
X1926797Y693070D02*
X1946223Y693070D01*
X1903523Y693653D02*
X1884097Y693653D01*
X1903523Y693653D02*
X1903523Y682027D01*
X1884097Y682027D01*
X1884097Y693653D01*
X1884097Y685708D02*
X1903523Y685708D01*
X1903523Y689389D02*
X1884097Y689389D01*
X1884097Y693070D02*
X1903523Y693070D01*
D25*
X1724590Y477520D03*
X1785690Y477520D03*
D26*
X1814000Y487680D03*
X1843600Y487680D03*
D18*
X1907540Y608560D03*
X1907540Y549680D03*
D12*
X1786660Y670560D03*
X1845540Y670560D03*
D18*
X1752600Y670330D03*
X1752600Y729210D03*
D27*
X1694942Y704342D03*
X1694942Y723138D03*
D28*
X1673098Y713740D03*
D29*
X1719580Y706190D03*
X1719580Y721290D03*
D23*
X1673200Y679450D03*
X1692300Y679450D03*
D25*
X565080Y707390D03*
X626180Y707390D03*
D14*
X697437Y704313D02*
X716863Y704313D01*
X716863Y692687D01*
X697437Y692687D01*
X697437Y704313D01*
X697437Y696368D02*
X716863Y696368D01*
X716863Y700049D02*
X697437Y700049D01*
X697437Y703730D02*
X716863Y703730D01*
X674163Y704313D02*
X654737Y704313D01*
X674163Y704313D02*
X674163Y692687D01*
X654737Y692687D01*
X654737Y704313D01*
X654737Y696368D02*
X674163Y696368D01*
X674163Y700049D02*
X654737Y700049D01*
X654737Y703730D02*
X674163Y703730D01*
X697437Y666213D02*
X716863Y666213D01*
X716863Y654587D01*
X697437Y654587D01*
X697437Y666213D01*
X697437Y658268D02*
X716863Y658268D01*
X716863Y661949D02*
X697437Y661949D01*
X697437Y665630D02*
X716863Y665630D01*
X674163Y666213D02*
X654737Y666213D01*
X674163Y666213D02*
X674163Y654587D01*
X654737Y654587D01*
X654737Y666213D01*
X654737Y658268D02*
X674163Y658268D01*
X674163Y661949D02*
X654737Y661949D01*
X654737Y665630D02*
X674163Y665630D01*
D25*
X444430Y480060D03*
X505530Y480060D03*
D26*
X579560Y462280D03*
X609160Y462280D03*
D18*
X675640Y588240D03*
X675640Y529360D03*
D12*
X564920Y647700D03*
X623800Y647700D03*
D18*
X527586Y644930D03*
X527586Y703810D03*
D27*
X463042Y689102D03*
X463042Y707898D03*
D28*
X441198Y698500D03*
D29*
X487504Y692118D03*
X487504Y707218D03*
D23*
X441300Y660400D03*
X460400Y660400D03*
D25*
X590620Y1700530D03*
X529520Y1700530D03*
D14*
X456993Y1692177D02*
X437567Y1692177D01*
X437567Y1703803D01*
X456993Y1703803D01*
X456993Y1692177D01*
X456993Y1695858D02*
X437567Y1695858D01*
X437567Y1699539D02*
X456993Y1699539D01*
X456993Y1703220D02*
X437567Y1703220D01*
X480267Y1692177D02*
X499693Y1692177D01*
X480267Y1692177D02*
X480267Y1703803D01*
X499693Y1703803D01*
X499693Y1692177D01*
X499693Y1695858D02*
X480267Y1695858D01*
X480267Y1699539D02*
X499693Y1699539D01*
X499693Y1703220D02*
X480267Y1703220D01*
X456993Y1730277D02*
X437567Y1730277D01*
X437567Y1741903D01*
X456993Y1741903D01*
X456993Y1730277D01*
X456993Y1733958D02*
X437567Y1733958D01*
X437567Y1737639D02*
X456993Y1737639D01*
X456993Y1741320D02*
X437567Y1741320D01*
X480267Y1730277D02*
X499693Y1730277D01*
X480267Y1730277D02*
X480267Y1741903D01*
X499693Y1741903D01*
X499693Y1730277D01*
X499693Y1733958D02*
X480267Y1733958D01*
X480267Y1737639D02*
X499693Y1737639D01*
X499693Y1741320D02*
X480267Y1741320D01*
D25*
X656660Y1936750D03*
X595560Y1936750D03*
D26*
X558360Y1948180D03*
X528760Y1948180D03*
D18*
X471170Y1808250D03*
X471170Y1867130D03*
D12*
X589510Y1748790D03*
X530630Y1748790D03*
D18*
X625644Y1754566D03*
X625644Y1695686D03*
D27*
X682498Y1711198D03*
X682498Y1692402D03*
D28*
X704342Y1701800D03*
D29*
X662940Y1711890D03*
X662940Y1696790D03*
D23*
X704240Y1737360D03*
X685140Y1737360D03*
D25*
X857180Y720090D03*
X918280Y720090D03*
D14*
X986997Y717013D02*
X1006423Y717013D01*
X1006423Y705387D01*
X986997Y705387D01*
X986997Y717013D01*
X986997Y709068D02*
X1006423Y709068D01*
X1006423Y712749D02*
X986997Y712749D01*
X986997Y716430D02*
X1006423Y716430D01*
X963723Y717013D02*
X944297Y717013D01*
X963723Y717013D02*
X963723Y705387D01*
X944297Y705387D01*
X944297Y717013D01*
X944297Y709068D02*
X963723Y709068D01*
X963723Y712749D02*
X944297Y712749D01*
X944297Y716430D02*
X963723Y716430D01*
X985727Y677643D02*
X1005153Y677643D01*
X1005153Y666017D01*
X985727Y666017D01*
X985727Y677643D01*
X985727Y669698D02*
X1005153Y669698D01*
X1005153Y673379D02*
X985727Y673379D01*
X985727Y677060D02*
X1005153Y677060D01*
X962453Y677643D02*
X943027Y677643D01*
X962453Y677643D02*
X962453Y666017D01*
X943027Y666017D01*
X943027Y677643D01*
X943027Y669698D02*
X962453Y669698D01*
X962453Y673379D02*
X943027Y673379D01*
X943027Y677060D02*
X962453Y677060D01*
D25*
X784790Y477520D03*
X845890Y477520D03*
D26*
X884360Y469900D03*
X913960Y469900D03*
D18*
X975360Y600940D03*
X975360Y542060D03*
D12*
X857020Y657860D03*
X915900Y657860D03*
D18*
X819150Y653820D03*
X819150Y712700D03*
D27*
X762762Y689102D03*
X762762Y707898D03*
D28*
X740918Y698500D03*
D29*
X784274Y689680D03*
X784274Y704780D03*
D23*
X739750Y664210D03*
X758850Y664210D03*
D25*
X1190060Y1703070D03*
X1128960Y1703070D03*
D14*
X1064053Y1689637D02*
X1044627Y1689637D01*
X1044627Y1701263D01*
X1064053Y1701263D01*
X1064053Y1689637D01*
X1064053Y1693318D02*
X1044627Y1693318D01*
X1044627Y1696999D02*
X1064053Y1696999D01*
X1064053Y1700680D02*
X1044627Y1700680D01*
X1087327Y1689637D02*
X1106753Y1689637D01*
X1087327Y1689637D02*
X1087327Y1701263D01*
X1106753Y1701263D01*
X1106753Y1689637D01*
X1106753Y1693318D02*
X1087327Y1693318D01*
X1087327Y1696999D02*
X1106753Y1696999D01*
X1106753Y1700680D02*
X1087327Y1700680D01*
X1064053Y1725197D02*
X1044627Y1725197D01*
X1044627Y1736823D01*
X1064053Y1736823D01*
X1064053Y1725197D01*
X1064053Y1728878D02*
X1044627Y1728878D01*
X1044627Y1732559D02*
X1064053Y1732559D01*
X1064053Y1736240D02*
X1044627Y1736240D01*
X1087327Y1725197D02*
X1106753Y1725197D01*
X1087327Y1725197D02*
X1087327Y1736823D01*
X1106753Y1736823D01*
X1106753Y1725197D01*
X1106753Y1728878D02*
X1087327Y1728878D01*
X1087327Y1732559D02*
X1106753Y1732559D01*
X1106753Y1736240D02*
X1087327Y1736240D01*
D25*
X1253560Y1941830D03*
X1192460Y1941830D03*
D26*
X1159070Y1951990D03*
X1129470Y1951990D03*
D18*
X1062990Y1810790D03*
X1062990Y1869670D03*
D12*
X1189460Y1751330D03*
X1130580Y1751330D03*
D18*
X1224280Y1756640D03*
X1224280Y1697760D03*
D27*
X1284478Y1714804D03*
X1284478Y1696008D03*
D28*
X1306322Y1705406D03*
D29*
X1262380Y1714532D03*
X1262380Y1699432D03*
D23*
X1307490Y1739900D03*
X1288390Y1739900D03*
D13*
X1943100Y629840D03*
X1943100Y645240D03*
X1633220Y1793320D03*
X1633220Y1777920D03*
X1638300Y614600D03*
X1638300Y630000D03*
X1332230Y1803480D03*
X1332230Y1788080D03*
X713740Y599360D03*
X713740Y614760D03*
X454660Y1786970D03*
X454660Y1771570D03*
X1010920Y619680D03*
X1010920Y635080D03*
X1042670Y1776810D03*
X1042670Y1761410D03*
D25*
X891610Y1706880D03*
X830510Y1706880D03*
D14*
X764333Y1699797D02*
X744907Y1699797D01*
X744907Y1711423D01*
X764333Y1711423D01*
X764333Y1699797D01*
X764333Y1703478D02*
X744907Y1703478D01*
X744907Y1707159D02*
X764333Y1707159D01*
X764333Y1710840D02*
X744907Y1710840D01*
X787607Y1699797D02*
X807033Y1699797D01*
X787607Y1699797D02*
X787607Y1711423D01*
X807033Y1711423D01*
X807033Y1699797D01*
X807033Y1703478D02*
X787607Y1703478D01*
X787607Y1707159D02*
X807033Y1707159D01*
X807033Y1710840D02*
X787607Y1710840D01*
X764333Y1736627D02*
X744907Y1736627D01*
X744907Y1748253D01*
X764333Y1748253D01*
X764333Y1736627D01*
X764333Y1740308D02*
X744907Y1740308D01*
X744907Y1743989D02*
X764333Y1743989D01*
X764333Y1747670D02*
X744907Y1747670D01*
X787607Y1736627D02*
X807033Y1736627D01*
X787607Y1736627D02*
X787607Y1748253D01*
X807033Y1748253D01*
X807033Y1736627D01*
X807033Y1740308D02*
X787607Y1740308D01*
X787607Y1743989D02*
X807033Y1743989D01*
X807033Y1747670D02*
X787607Y1747670D01*
D25*
X957650Y1930400D03*
X896550Y1930400D03*
D26*
X855540Y1938020D03*
X825940Y1938020D03*
D18*
X764540Y1814600D03*
X764540Y1873480D03*
D12*
X890500Y1752600D03*
X831620Y1752600D03*
D18*
X925830Y1761720D03*
X925830Y1702840D03*
D27*
X988568Y1716278D03*
X988568Y1697482D03*
D28*
X1010412Y1706880D03*
D29*
X966470Y1714430D03*
X966470Y1699330D03*
D23*
X1009040Y1743710D03*
X989940Y1743710D03*
D25*
X1173410Y737870D03*
X1234510Y737870D03*
D14*
X1307037Y734793D02*
X1326463Y734793D01*
X1326463Y723167D01*
X1307037Y723167D01*
X1307037Y734793D01*
X1307037Y726848D02*
X1326463Y726848D01*
X1326463Y730529D02*
X1307037Y730529D01*
X1307037Y734210D02*
X1326463Y734210D01*
X1283763Y734793D02*
X1264337Y734793D01*
X1283763Y734793D02*
X1283763Y723167D01*
X1264337Y723167D01*
X1264337Y734793D01*
X1264337Y726848D02*
X1283763Y726848D01*
X1283763Y730529D02*
X1264337Y730529D01*
X1264337Y734210D02*
X1283763Y734210D01*
X1307037Y696693D02*
X1326463Y696693D01*
X1326463Y685067D01*
X1307037Y685067D01*
X1307037Y696693D01*
X1307037Y688748D02*
X1326463Y688748D01*
X1326463Y692429D02*
X1307037Y692429D01*
X1307037Y696110D02*
X1326463Y696110D01*
X1283763Y696693D02*
X1264337Y696693D01*
X1283763Y696693D02*
X1283763Y685067D01*
X1264337Y685067D01*
X1264337Y696693D01*
X1264337Y688748D02*
X1283763Y688748D01*
X1283763Y692429D02*
X1264337Y692429D01*
X1264337Y696110D02*
X1283763Y696110D01*
D25*
X1104830Y482600D03*
X1165930Y482600D03*
D26*
X1206940Y480060D03*
X1236540Y480060D03*
D18*
X1292860Y618720D03*
X1292860Y559840D03*
D12*
X1174520Y680720D03*
X1233400Y680720D03*
D18*
X1135380Y669060D03*
X1135380Y727940D03*
D27*
X1077722Y714502D03*
X1077722Y733298D03*
D28*
X1055878Y723900D03*
D29*
X1099820Y716080D03*
X1099820Y731180D03*
D23*
X1054710Y688340D03*
X1073810Y688340D03*
D13*
X755650Y1793320D03*
X755650Y1777920D03*
X1320800Y640000D03*
X1320800Y655400D03*
D11*
X853650Y1270000D03*
X797350Y1270000D03*
X853650Y1244600D03*
X797350Y1244600D03*
X853650Y1219200D03*
X797350Y1219200D03*
X853650Y1193800D03*
X797350Y1193800D03*
X853650Y1168400D03*
X797350Y1168400D03*
X853650Y1143000D03*
X797350Y1143000D03*
D12*
X743180Y1310640D03*
X684300Y1310640D03*
D24*
X591740Y1322070D03*
X607140Y1322070D03*
D14*
X656053Y1344347D02*
X656053Y1363773D01*
X656053Y1344347D02*
X644427Y1344347D01*
X644427Y1363773D01*
X656053Y1363773D01*
X656053Y1348028D02*
X644427Y1348028D01*
X644427Y1351709D02*
X656053Y1351709D01*
X656053Y1355390D02*
X644427Y1355390D01*
X644427Y1359071D02*
X656053Y1359071D01*
X656053Y1362752D02*
X644427Y1362752D01*
X656053Y1387047D02*
X656053Y1406473D01*
X656053Y1387047D02*
X644427Y1387047D01*
X644427Y1406473D01*
X656053Y1406473D01*
X656053Y1390728D02*
X644427Y1390728D01*
X644427Y1394409D02*
X656053Y1394409D01*
X656053Y1398090D02*
X644427Y1398090D01*
X644427Y1401771D02*
X656053Y1401771D01*
X656053Y1405452D02*
X644427Y1405452D01*
D12*
X743180Y1261110D03*
X684300Y1261110D03*
D24*
X591900Y1221740D03*
X576500Y1221740D03*
D14*
X658593Y1242747D02*
X658593Y1262173D01*
X658593Y1242747D02*
X646967Y1242747D01*
X646967Y1262173D01*
X658593Y1262173D01*
X658593Y1246428D02*
X646967Y1246428D01*
X646967Y1250109D02*
X658593Y1250109D01*
X658593Y1253790D02*
X646967Y1253790D01*
X646967Y1257471D02*
X658593Y1257471D01*
X658593Y1261152D02*
X646967Y1261152D01*
X658593Y1285447D02*
X658593Y1304873D01*
X658593Y1285447D02*
X646967Y1285447D01*
X646967Y1304873D01*
X658593Y1304873D01*
X658593Y1289128D02*
X646967Y1289128D01*
X646967Y1292809D02*
X658593Y1292809D01*
X658593Y1296490D02*
X646967Y1296490D01*
X646967Y1300171D02*
X658593Y1300171D01*
X658593Y1303852D02*
X646967Y1303852D01*
X1245137Y2206197D02*
X1245137Y2225623D01*
X1256763Y2225623D01*
X1256763Y2206197D01*
X1245137Y2206197D01*
X1245137Y2209878D02*
X1256763Y2209878D01*
X1256763Y2213559D02*
X1245137Y2213559D01*
X1245137Y2217240D02*
X1256763Y2217240D01*
X1256763Y2220921D02*
X1245137Y2220921D01*
X1245137Y2224602D02*
X1256763Y2224602D01*
X1245137Y2182923D02*
X1245137Y2163497D01*
X1245137Y2182923D02*
X1256763Y2182923D01*
X1256763Y2163497D01*
X1245137Y2163497D01*
X1245137Y2167178D02*
X1256763Y2167178D01*
X1256763Y2170859D02*
X1245137Y2170859D01*
X1245137Y2174540D02*
X1256763Y2174540D01*
X1256763Y2178221D02*
X1245137Y2178221D01*
X1245137Y2181902D02*
X1256763Y2181902D01*
X1541897Y2213817D02*
X1541897Y2233243D01*
X1553523Y2233243D01*
X1553523Y2213817D01*
X1541897Y2213817D01*
X1541897Y2217498D02*
X1553523Y2217498D01*
X1553523Y2221179D02*
X1541897Y2221179D01*
X1541897Y2224860D02*
X1553523Y2224860D01*
X1553523Y2228541D02*
X1541897Y2228541D01*
X1541897Y2232222D02*
X1553523Y2232222D01*
X1541897Y2190543D02*
X1541897Y2171117D01*
X1541897Y2190543D02*
X1553523Y2190543D01*
X1553523Y2171117D01*
X1541897Y2171117D01*
X1541897Y2174798D02*
X1553523Y2174798D01*
X1553523Y2178479D02*
X1541897Y2178479D01*
X1541897Y2182160D02*
X1553523Y2182160D01*
X1553523Y2185841D02*
X1541897Y2185841D01*
X1541897Y2189522D02*
X1553523Y2189522D01*
X1115597Y2212547D02*
X1115597Y2231973D01*
X1127223Y2231973D01*
X1127223Y2212547D01*
X1115597Y2212547D01*
X1115597Y2216228D02*
X1127223Y2216228D01*
X1127223Y2219909D02*
X1115597Y2219909D01*
X1115597Y2223590D02*
X1127223Y2223590D01*
X1127223Y2227271D02*
X1115597Y2227271D01*
X1115597Y2230952D02*
X1127223Y2230952D01*
X1115597Y2189273D02*
X1115597Y2169847D01*
X1115597Y2189273D02*
X1127223Y2189273D01*
X1127223Y2169847D01*
X1115597Y2169847D01*
X1115597Y2173528D02*
X1127223Y2173528D01*
X1127223Y2177209D02*
X1115597Y2177209D01*
X1115597Y2180890D02*
X1127223Y2180890D01*
X1127223Y2184571D02*
X1115597Y2184571D01*
X1115597Y2188252D02*
X1127223Y2188252D01*
X980977Y2207467D02*
X980977Y2226893D01*
X992603Y2226893D01*
X992603Y2207467D01*
X980977Y2207467D01*
X980977Y2211148D02*
X992603Y2211148D01*
X992603Y2214829D02*
X980977Y2214829D01*
X980977Y2218510D02*
X992603Y2218510D01*
X992603Y2222191D02*
X980977Y2222191D01*
X980977Y2225872D02*
X992603Y2225872D01*
X980977Y2184193D02*
X980977Y2164767D01*
X980977Y2184193D02*
X992603Y2184193D01*
X992603Y2164767D01*
X980977Y2164767D01*
X980977Y2168448D02*
X992603Y2168448D01*
X992603Y2172129D02*
X980977Y2172129D01*
X980977Y2175810D02*
X992603Y2175810D01*
X992603Y2179491D02*
X980977Y2179491D01*
X980977Y2183172D02*
X992603Y2183172D01*
X1804907Y2212437D02*
X1804907Y2231863D01*
X1816533Y2231863D01*
X1816533Y2212437D01*
X1804907Y2212437D01*
X1804907Y2216118D02*
X1816533Y2216118D01*
X1816533Y2219799D02*
X1804907Y2219799D01*
X1804907Y2223480D02*
X1816533Y2223480D01*
X1816533Y2227161D02*
X1804907Y2227161D01*
X1804907Y2230842D02*
X1816533Y2230842D01*
X1804907Y2189163D02*
X1804907Y2169737D01*
X1804907Y2189163D02*
X1816533Y2189163D01*
X1816533Y2169737D01*
X1804907Y2169737D01*
X1804907Y2173418D02*
X1816533Y2173418D01*
X1816533Y2177099D02*
X1804907Y2177099D01*
X1804907Y2180780D02*
X1816533Y2180780D01*
X1816533Y2184461D02*
X1804907Y2184461D01*
X1804907Y2188142D02*
X1816533Y2188142D01*
X975897Y2092273D02*
X975897Y2072847D01*
X975897Y2092273D02*
X987523Y2092273D01*
X987523Y2072847D01*
X975897Y2072847D01*
X975897Y2076528D02*
X987523Y2076528D01*
X987523Y2080209D02*
X975897Y2080209D01*
X975897Y2083890D02*
X987523Y2083890D01*
X987523Y2087571D02*
X975897Y2087571D01*
X975897Y2091252D02*
X987523Y2091252D01*
X975897Y2049573D02*
X975897Y2030147D01*
X975897Y2049573D02*
X987523Y2049573D01*
X987523Y2030147D01*
X975897Y2030147D01*
X975897Y2033828D02*
X987523Y2033828D01*
X987523Y2037509D02*
X975897Y2037509D01*
X975897Y2041190D02*
X987523Y2041190D01*
X987523Y2044871D02*
X975897Y2044871D01*
X975897Y2048552D02*
X987523Y2048552D01*
X1787427Y2079197D02*
X1787427Y2098623D01*
X1799053Y2098623D01*
X1799053Y2079197D01*
X1787427Y2079197D01*
X1787427Y2082878D02*
X1799053Y2082878D01*
X1799053Y2086559D02*
X1787427Y2086559D01*
X1787427Y2090240D02*
X1799053Y2090240D01*
X1799053Y2093921D02*
X1787427Y2093921D01*
X1787427Y2097602D02*
X1799053Y2097602D01*
X1787427Y2055923D02*
X1787427Y2036497D01*
X1787427Y2055923D02*
X1799053Y2055923D01*
X1799053Y2036497D01*
X1787427Y2036497D01*
X1787427Y2040178D02*
X1799053Y2040178D01*
X1799053Y2043859D02*
X1787427Y2043859D01*
X1787427Y2047540D02*
X1799053Y2047540D01*
X1799053Y2051221D02*
X1787427Y2051221D01*
X1787427Y2054902D02*
X1799053Y2054902D01*
X1676937Y2213817D02*
X1676937Y2233243D01*
X1688563Y2233243D01*
X1688563Y2213817D01*
X1676937Y2213817D01*
X1676937Y2217498D02*
X1688563Y2217498D01*
X1688563Y2221179D02*
X1676937Y2221179D01*
X1676937Y2224860D02*
X1688563Y2224860D01*
X1688563Y2228541D02*
X1676937Y2228541D01*
X1676937Y2232222D02*
X1688563Y2232222D01*
X1676937Y2190543D02*
X1676937Y2171117D01*
X1676937Y2190543D02*
X1688563Y2190543D01*
X1688563Y2171117D01*
X1676937Y2171117D01*
X1676937Y2174798D02*
X1688563Y2174798D01*
X1688563Y2178479D02*
X1676937Y2178479D01*
X1676937Y2182160D02*
X1688563Y2182160D01*
X1688563Y2185841D02*
X1676937Y2185841D01*
X1676937Y2189522D02*
X1688563Y2189522D01*
D30*
X1109980Y2119370D03*
X1109980Y2090770D03*
X1111250Y2031670D03*
X1111250Y2060270D03*
X1352550Y2030400D03*
X1352550Y2059000D03*
X1704340Y2125040D03*
X1704340Y2096440D03*
X1454150Y2123770D03*
X1454150Y2095170D03*
X1704340Y2038020D03*
X1704340Y2066620D03*
X1454150Y2035480D03*
X1454150Y2064080D03*
D14*
X742413Y2108887D02*
X742413Y2128313D01*
X742413Y2108887D02*
X730787Y2108887D01*
X730787Y2128313D01*
X742413Y2128313D01*
X742413Y2112568D02*
X730787Y2112568D01*
X730787Y2116249D02*
X742413Y2116249D01*
X742413Y2119930D02*
X730787Y2119930D01*
X730787Y2123611D02*
X742413Y2123611D01*
X742413Y2127292D02*
X730787Y2127292D01*
X742413Y2151587D02*
X742413Y2171013D01*
X742413Y2151587D02*
X730787Y2151587D01*
X730787Y2171013D01*
X742413Y2171013D01*
X742413Y2155268D02*
X730787Y2155268D01*
X730787Y2158949D02*
X742413Y2158949D01*
X742413Y2162630D02*
X730787Y2162630D01*
X730787Y2166311D02*
X742413Y2166311D01*
X742413Y2169992D02*
X730787Y2169992D01*
X730787Y2227787D02*
X730787Y2247213D01*
X742413Y2247213D01*
X742413Y2227787D01*
X730787Y2227787D01*
X730787Y2231468D02*
X742413Y2231468D01*
X742413Y2235149D02*
X730787Y2235149D01*
X730787Y2238830D02*
X742413Y2238830D01*
X742413Y2242511D02*
X730787Y2242511D01*
X730787Y2246192D02*
X742413Y2246192D01*
X730787Y2204513D02*
X730787Y2185087D01*
X730787Y2204513D02*
X742413Y2204513D01*
X742413Y2185087D01*
X730787Y2185087D01*
X730787Y2188768D02*
X742413Y2188768D01*
X742413Y2192449D02*
X730787Y2192449D01*
X730787Y2196130D02*
X742413Y2196130D01*
X742413Y2199811D02*
X730787Y2199811D01*
X730787Y2203492D02*
X742413Y2203492D01*
X888267Y2264617D02*
X888267Y2284043D01*
X899893Y2284043D01*
X899893Y2264617D01*
X888267Y2264617D01*
X888267Y2268298D02*
X899893Y2268298D01*
X899893Y2271979D02*
X888267Y2271979D01*
X888267Y2275660D02*
X899893Y2275660D01*
X899893Y2279341D02*
X888267Y2279341D01*
X888267Y2283022D02*
X899893Y2283022D01*
X888267Y2241343D02*
X888267Y2221917D01*
X888267Y2241343D02*
X899893Y2241343D01*
X899893Y2221917D01*
X888267Y2221917D01*
X888267Y2225598D02*
X899893Y2225598D01*
X899893Y2229279D02*
X888267Y2229279D01*
X888267Y2232960D02*
X899893Y2232960D01*
X899893Y2236641D02*
X888267Y2236641D01*
X888267Y2240322D02*
X899893Y2240322D01*
X901163Y2097833D02*
X901163Y2078407D01*
X889537Y2078407D01*
X889537Y2097833D01*
X901163Y2097833D01*
X901163Y2082088D02*
X889537Y2082088D01*
X889537Y2085769D02*
X901163Y2085769D01*
X901163Y2089450D02*
X889537Y2089450D01*
X889537Y2093131D02*
X901163Y2093131D01*
X901163Y2096812D02*
X889537Y2096812D01*
X901163Y2121107D02*
X901163Y2140533D01*
X901163Y2121107D02*
X889537Y2121107D01*
X889537Y2140533D01*
X901163Y2140533D01*
X901163Y2124788D02*
X889537Y2124788D01*
X889537Y2128469D02*
X901163Y2128469D01*
X901163Y2132150D02*
X889537Y2132150D01*
X889537Y2135831D02*
X901163Y2135831D01*
X901163Y2139512D02*
X889537Y2139512D01*
X723693Y2068097D02*
X704267Y2068097D01*
X704267Y2079723D01*
X723693Y2079723D01*
X723693Y2068097D01*
X723693Y2071778D02*
X704267Y2071778D01*
X704267Y2075459D02*
X723693Y2075459D01*
X723693Y2079140D02*
X704267Y2079140D01*
X746967Y2068097D02*
X766393Y2068097D01*
X746967Y2068097D02*
X746967Y2079723D01*
X766393Y2079723D01*
X766393Y2068097D01*
X766393Y2071778D02*
X746967Y2071778D01*
X746967Y2075459D02*
X766393Y2075459D01*
X766393Y2079140D02*
X746967Y2079140D01*
X721153Y2270027D02*
X701727Y2270027D01*
X701727Y2281653D01*
X721153Y2281653D01*
X721153Y2270027D01*
X721153Y2273708D02*
X701727Y2273708D01*
X701727Y2277389D02*
X721153Y2277389D01*
X721153Y2281070D02*
X701727Y2281070D01*
X744427Y2270027D02*
X763853Y2270027D01*
X744427Y2270027D02*
X744427Y2281653D01*
X763853Y2281653D01*
X763853Y2270027D01*
X763853Y2273708D02*
X744427Y2273708D01*
X744427Y2277389D02*
X763853Y2277389D01*
X763853Y2281070D02*
X744427Y2281070D01*
X869367Y2304317D02*
X888793Y2304317D01*
X869367Y2304317D02*
X869367Y2315943D01*
X888793Y2315943D01*
X888793Y2304317D01*
X888793Y2307998D02*
X869367Y2307998D01*
X869367Y2311679D02*
X888793Y2311679D01*
X888793Y2315360D02*
X869367Y2315360D01*
X912067Y2304317D02*
X931493Y2304317D01*
X912067Y2304317D02*
X912067Y2315943D01*
X931493Y2315943D01*
X931493Y2304317D01*
X931493Y2307998D02*
X912067Y2307998D01*
X912067Y2311679D02*
X931493Y2311679D01*
X931493Y2315360D02*
X912067Y2315360D01*
X887523Y2024917D02*
X868097Y2024917D01*
X868097Y2036543D01*
X887523Y2036543D01*
X887523Y2024917D01*
X887523Y2028598D02*
X868097Y2028598D01*
X868097Y2032279D02*
X887523Y2032279D01*
X887523Y2035960D02*
X868097Y2035960D01*
X910797Y2024917D02*
X930223Y2024917D01*
X910797Y2024917D02*
X910797Y2036543D01*
X930223Y2036543D01*
X930223Y2024917D01*
X930223Y2028598D02*
X910797Y2028598D01*
X910797Y2032279D02*
X930223Y2032279D01*
X930223Y2035960D02*
X910797Y2035960D01*
D25*
X764610Y2030730D03*
X703510Y2030730D03*
X767150Y2319020D03*
X706050Y2319020D03*
X788600Y2310130D03*
X849700Y2310130D03*
X784790Y2030730D03*
X845890Y2030730D03*
D14*
X2045237Y2199847D02*
X2045237Y2219273D01*
X2056863Y2219273D01*
X2056863Y2199847D01*
X2045237Y2199847D01*
X2045237Y2203528D02*
X2056863Y2203528D01*
X2056863Y2207209D02*
X2045237Y2207209D01*
X2045237Y2210890D02*
X2056863Y2210890D01*
X2056863Y2214571D02*
X2045237Y2214571D01*
X2045237Y2218252D02*
X2056863Y2218252D01*
X2045237Y2176573D02*
X2045237Y2157147D01*
X2045237Y2176573D02*
X2056863Y2176573D01*
X2056863Y2157147D01*
X2045237Y2157147D01*
X2045237Y2160828D02*
X2056863Y2160828D01*
X2056863Y2164509D02*
X2045237Y2164509D01*
X2045237Y2168190D02*
X2056863Y2168190D01*
X2056863Y2171871D02*
X2045237Y2171871D01*
X2045237Y2175552D02*
X2056863Y2175552D01*
X2056863Y2100373D02*
X2056863Y2080947D01*
X2045237Y2080947D01*
X2045237Y2100373D01*
X2056863Y2100373D01*
X2056863Y2084628D02*
X2045237Y2084628D01*
X2045237Y2088309D02*
X2056863Y2088309D01*
X2056863Y2091990D02*
X2045237Y2091990D01*
X2045237Y2095671D02*
X2056863Y2095671D01*
X2056863Y2099352D02*
X2045237Y2099352D01*
X2056863Y2123647D02*
X2056863Y2143073D01*
X2056863Y2123647D02*
X2045237Y2123647D01*
X2045237Y2143073D01*
X2056863Y2143073D01*
X2056863Y2127328D02*
X2045237Y2127328D01*
X2045237Y2131009D02*
X2056863Y2131009D01*
X2056863Y2134690D02*
X2045237Y2134690D01*
X2045237Y2138371D02*
X2056863Y2138371D01*
X2056863Y2142052D02*
X2045237Y2142052D01*
X1894303Y2135933D02*
X1894303Y2116507D01*
X1882677Y2116507D01*
X1882677Y2135933D01*
X1894303Y2135933D01*
X1894303Y2120188D02*
X1882677Y2120188D01*
X1882677Y2123869D02*
X1894303Y2123869D01*
X1894303Y2127550D02*
X1882677Y2127550D01*
X1882677Y2131231D02*
X1894303Y2131231D01*
X1894303Y2134912D02*
X1882677Y2134912D01*
X1894303Y2159207D02*
X1894303Y2178633D01*
X1894303Y2159207D02*
X1882677Y2159207D01*
X1882677Y2178633D01*
X1894303Y2178633D01*
X1894303Y2162888D02*
X1882677Y2162888D01*
X1882677Y2166569D02*
X1894303Y2166569D01*
X1894303Y2170250D02*
X1882677Y2170250D01*
X1882677Y2173931D02*
X1894303Y2173931D01*
X1894303Y2177612D02*
X1882677Y2177612D01*
X1883947Y2241757D02*
X1883947Y2261183D01*
X1895573Y2261183D01*
X1895573Y2241757D01*
X1883947Y2241757D01*
X1883947Y2245438D02*
X1895573Y2245438D01*
X1895573Y2249119D02*
X1883947Y2249119D01*
X1883947Y2252800D02*
X1895573Y2252800D01*
X1895573Y2256481D02*
X1883947Y2256481D01*
X1883947Y2260162D02*
X1895573Y2260162D01*
X1883947Y2218483D02*
X1883947Y2199057D01*
X1883947Y2218483D02*
X1895573Y2218483D01*
X1895573Y2199057D01*
X1883947Y2199057D01*
X1883947Y2202738D02*
X1895573Y2202738D01*
X1895573Y2206419D02*
X1883947Y2206419D01*
X1883947Y2210100D02*
X1895573Y2210100D01*
X1895573Y2213781D02*
X1883947Y2213781D01*
X1883947Y2217462D02*
X1895573Y2217462D01*
X2031417Y2239547D02*
X2050843Y2239547D01*
X2031417Y2239547D02*
X2031417Y2251173D01*
X2050843Y2251173D01*
X2050843Y2239547D01*
X2050843Y2243228D02*
X2031417Y2243228D01*
X2031417Y2246909D02*
X2050843Y2246909D01*
X2050843Y2250590D02*
X2031417Y2250590D01*
X2074117Y2239547D02*
X2093543Y2239547D01*
X2074117Y2239547D02*
X2074117Y2251173D01*
X2093543Y2251173D01*
X2093543Y2239547D01*
X2093543Y2243228D02*
X2074117Y2243228D01*
X2074117Y2246909D02*
X2093543Y2246909D01*
X2093543Y2250590D02*
X2074117Y2250590D01*
X2058463Y2050317D02*
X2039037Y2050317D01*
X2039037Y2061943D01*
X2058463Y2061943D01*
X2058463Y2050317D01*
X2058463Y2053998D02*
X2039037Y2053998D01*
X2039037Y2057679D02*
X2058463Y2057679D01*
X2058463Y2061360D02*
X2039037Y2061360D01*
X2081737Y2050317D02*
X2101163Y2050317D01*
X2081737Y2050317D02*
X2081737Y2061943D01*
X2101163Y2061943D01*
X2101163Y2050317D01*
X2101163Y2053998D02*
X2081737Y2053998D01*
X2081737Y2057679D02*
X2101163Y2057679D01*
X2101163Y2061360D02*
X2081737Y2061360D01*
X1864897Y2077927D02*
X1864897Y2097353D01*
X1876523Y2097353D01*
X1876523Y2077927D01*
X1864897Y2077927D01*
X1864897Y2081608D02*
X1876523Y2081608D01*
X1876523Y2085289D02*
X1864897Y2085289D01*
X1864897Y2088970D02*
X1876523Y2088970D01*
X1876523Y2092651D02*
X1864897Y2092651D01*
X1864897Y2096332D02*
X1876523Y2096332D01*
X1864897Y2054653D02*
X1864897Y2035227D01*
X1864897Y2054653D02*
X1876523Y2054653D01*
X1876523Y2035227D01*
X1864897Y2035227D01*
X1864897Y2038908D02*
X1876523Y2038908D01*
X1876523Y2042589D02*
X1864897Y2042589D01*
X1864897Y2046270D02*
X1876523Y2046270D01*
X1876523Y2049951D02*
X1864897Y2049951D01*
X1864897Y2053632D02*
X1876523Y2053632D01*
X1919177Y2305783D02*
X1938603Y2305783D01*
X1938603Y2294157D01*
X1919177Y2294157D01*
X1919177Y2305783D01*
X1919177Y2297838D02*
X1938603Y2297838D01*
X1938603Y2301519D02*
X1919177Y2301519D01*
X1919177Y2305200D02*
X1938603Y2305200D01*
X1895903Y2305783D02*
X1876477Y2305783D01*
X1895903Y2305783D02*
X1895903Y2294157D01*
X1876477Y2294157D01*
X1876477Y2305783D01*
X1876477Y2297838D02*
X1895903Y2297838D01*
X1895903Y2301519D02*
X1876477Y2301519D01*
X1876477Y2305200D02*
X1895903Y2305200D01*
D25*
X2047170Y2297430D03*
X2108270Y2297430D03*
X2009070Y2015490D03*
X2070170Y2015490D03*
X1974920Y2026920D03*
X1913820Y2026920D03*
X2023180Y2297430D03*
X1962080Y2297430D03*
D31*
X97790Y852330D03*
X97790Y872330D03*
D32*
X98450Y826770D03*
X117450Y826770D03*
D14*
X277067Y823693D02*
X296493Y823693D01*
X296493Y812067D01*
X277067Y812067D01*
X277067Y823693D01*
X277067Y815748D02*
X296493Y815748D01*
X296493Y819429D02*
X277067Y819429D01*
X277067Y823110D02*
X296493Y823110D01*
X253793Y823693D02*
X234367Y823693D01*
X253793Y823693D02*
X253793Y812067D01*
X234367Y812067D01*
X234367Y823693D01*
X234367Y815748D02*
X253793Y815748D01*
X253793Y819429D02*
X234367Y819429D01*
X234367Y823110D02*
X253793Y823110D01*
D25*
X208350Y814070D03*
X147250Y814070D03*
D14*
X353793Y805867D02*
X353793Y825293D01*
X353793Y805867D02*
X342167Y805867D01*
X342167Y825293D01*
X353793Y825293D01*
X353793Y809548D02*
X342167Y809548D01*
X342167Y813229D02*
X353793Y813229D01*
X353793Y816910D02*
X342167Y816910D01*
X342167Y820591D02*
X353793Y820591D01*
X353793Y824272D02*
X342167Y824272D01*
X353793Y848567D02*
X353793Y867993D01*
X353793Y848567D02*
X342167Y848567D01*
X342167Y867993D01*
X353793Y867993D01*
X353793Y852248D02*
X342167Y852248D01*
X342167Y855929D02*
X353793Y855929D01*
X353793Y859610D02*
X342167Y859610D01*
X342167Y863291D02*
X353793Y863291D01*
X353793Y866972D02*
X342167Y866972D01*
D31*
X101600Y1345090D03*
X101600Y1365090D03*
D32*
X108610Y1316990D03*
X127610Y1316990D03*
D31*
X91440Y481490D03*
X91440Y501490D03*
D32*
X90830Y457200D03*
X109830Y457200D03*
D31*
X107950Y1721010D03*
X107950Y1741010D03*
D32*
X106070Y1695450D03*
X125070Y1695450D03*
D31*
X96520Y124620D03*
X96520Y144620D03*
D32*
X95910Y96520D03*
X114910Y96520D03*
D31*
X92710Y2074070D03*
X92710Y2094070D03*
D32*
X92100Y2045970D03*
X111100Y2045970D03*
D31*
X405130Y124620D03*
X405130Y144620D03*
D32*
X405790Y91440D03*
X424790Y91440D03*
D31*
X391160Y2065180D03*
X391160Y2085180D03*
D32*
X391820Y2037080D03*
X410820Y2037080D03*
D31*
X1715770Y665640D03*
X1715770Y685640D03*
D32*
X1692250Y657510D03*
X1673250Y657510D03*
D31*
X1866900Y1762600D03*
X1866900Y1742600D03*
D32*
X1895500Y1765300D03*
X1914500Y1765300D03*
D31*
X1399540Y647860D03*
X1399540Y667860D03*
D32*
X1368400Y640080D03*
X1349400Y640080D03*
D31*
X1567180Y1760060D03*
X1567180Y1740060D03*
D32*
X1590700Y1765300D03*
X1609700Y1765300D03*
D31*
X487680Y637700D03*
X487680Y657700D03*
D32*
X460350Y637540D03*
X441350Y637540D03*
D31*
X662940Y1752440D03*
X662940Y1732440D03*
D32*
X685190Y1758950D03*
X704190Y1758950D03*
D31*
X783590Y645320D03*
X783590Y665320D03*
D32*
X758800Y641350D03*
X739800Y641350D03*
D31*
X1264920Y1754980D03*
X1264920Y1734980D03*
D32*
X1288440Y1762760D03*
X1307440Y1762760D03*
D31*
X965200Y1754980D03*
X965200Y1734980D03*
D32*
X989990Y1765300D03*
X1008990Y1765300D03*
D31*
X1098550Y666910D03*
X1098550Y686910D03*
D32*
X1073760Y665480D03*
X1054760Y665480D03*
D14*
X311733Y1330423D02*
X292307Y1330423D01*
X311733Y1330423D02*
X311733Y1318797D01*
X292307Y1318797D01*
X292307Y1330423D01*
X292307Y1322478D02*
X311733Y1322478D01*
X311733Y1326159D02*
X292307Y1326159D01*
X292307Y1329840D02*
X311733Y1329840D01*
X269033Y1330423D02*
X249607Y1330423D01*
X269033Y1330423D02*
X269033Y1318797D01*
X249607Y1318797D01*
X249607Y1330423D01*
X249607Y1322478D02*
X269033Y1322478D01*
X269033Y1326159D02*
X249607Y1326159D01*
X249607Y1329840D02*
X269033Y1329840D01*
D25*
X223590Y1322070D03*
X162490Y1322070D03*
D14*
X356333Y1317677D02*
X356333Y1337103D01*
X356333Y1317677D02*
X344707Y1317677D01*
X344707Y1337103D01*
X356333Y1337103D01*
X356333Y1321358D02*
X344707Y1321358D01*
X344707Y1325039D02*
X356333Y1325039D01*
X356333Y1328720D02*
X344707Y1328720D01*
X344707Y1332401D02*
X356333Y1332401D01*
X356333Y1336082D02*
X344707Y1336082D01*
X356333Y1360377D02*
X356333Y1379803D01*
X356333Y1360377D02*
X344707Y1360377D01*
X344707Y1379803D01*
X356333Y1379803D01*
X356333Y1364058D02*
X344707Y1364058D01*
X344707Y1367739D02*
X356333Y1367739D01*
X356333Y1371420D02*
X344707Y1371420D01*
X344707Y1375101D02*
X356333Y1375101D01*
X356333Y1378782D02*
X344707Y1378782D01*
X306653Y447773D02*
X287227Y447773D01*
X306653Y447773D02*
X306653Y436147D01*
X287227Y436147D01*
X287227Y447773D01*
X287227Y439828D02*
X306653Y439828D01*
X306653Y443509D02*
X287227Y443509D01*
X287227Y447190D02*
X306653Y447190D01*
X263953Y447773D02*
X244527Y447773D01*
X263953Y447773D02*
X263953Y436147D01*
X244527Y436147D01*
X244527Y447773D01*
X244527Y439828D02*
X263953Y439828D01*
X263953Y443509D02*
X244527Y443509D01*
X244527Y447190D02*
X263953Y447190D01*
D25*
X210890Y444500D03*
X149790Y444500D03*
D14*
X358873Y440107D02*
X358873Y459533D01*
X358873Y440107D02*
X347247Y440107D01*
X347247Y459533D01*
X358873Y459533D01*
X358873Y443788D02*
X347247Y443788D01*
X347247Y447469D02*
X358873Y447469D01*
X358873Y451150D02*
X347247Y451150D01*
X347247Y454831D02*
X358873Y454831D01*
X358873Y458512D02*
X347247Y458512D01*
X358873Y482807D02*
X358873Y502233D01*
X358873Y482807D02*
X347247Y482807D01*
X347247Y502233D01*
X358873Y502233D01*
X358873Y486488D02*
X347247Y486488D01*
X347247Y490169D02*
X358873Y490169D01*
X358873Y493850D02*
X347247Y493850D01*
X347247Y497531D02*
X358873Y497531D01*
X358873Y501212D02*
X347247Y501212D01*
X301573Y1688563D02*
X282147Y1688563D01*
X301573Y1688563D02*
X301573Y1676937D01*
X282147Y1676937D01*
X282147Y1688563D01*
X282147Y1680618D02*
X301573Y1680618D01*
X301573Y1684299D02*
X282147Y1684299D01*
X282147Y1687980D02*
X301573Y1687980D01*
X258873Y1688563D02*
X239447Y1688563D01*
X258873Y1688563D02*
X258873Y1676937D01*
X239447Y1676937D01*
X239447Y1688563D01*
X239447Y1680618D02*
X258873Y1680618D01*
X258873Y1684299D02*
X239447Y1684299D01*
X239447Y1687980D02*
X258873Y1687980D01*
D25*
X213430Y1680210D03*
X152330Y1680210D03*
D14*
X347443Y1683437D02*
X347443Y1702863D01*
X347443Y1683437D02*
X335817Y1683437D01*
X335817Y1702863D01*
X347443Y1702863D01*
X347443Y1687118D02*
X335817Y1687118D01*
X335817Y1690799D02*
X347443Y1690799D01*
X347443Y1694480D02*
X335817Y1694480D01*
X335817Y1698161D02*
X347443Y1698161D01*
X347443Y1701842D02*
X335817Y1701842D01*
X347443Y1726137D02*
X347443Y1745563D01*
X347443Y1726137D02*
X335817Y1726137D01*
X335817Y1745563D01*
X347443Y1745563D01*
X347443Y1729818D02*
X335817Y1729818D01*
X335817Y1733499D02*
X347443Y1733499D01*
X347443Y1737180D02*
X335817Y1737180D01*
X335817Y1740861D02*
X347443Y1740861D01*
X347443Y1744542D02*
X335817Y1744542D01*
X297763Y92173D02*
X278337Y92173D01*
X297763Y92173D02*
X297763Y80547D01*
X278337Y80547D01*
X278337Y92173D01*
X278337Y84228D02*
X297763Y84228D01*
X297763Y87909D02*
X278337Y87909D01*
X278337Y91590D02*
X297763Y91590D01*
X255063Y92173D02*
X235637Y92173D01*
X255063Y92173D02*
X255063Y80547D01*
X235637Y80547D01*
X235637Y92173D01*
X235637Y84228D02*
X255063Y84228D01*
X255063Y87909D02*
X235637Y87909D01*
X235637Y91590D02*
X255063Y91590D01*
D25*
X212160Y86360D03*
X151060Y86360D03*
D14*
X351253Y95043D02*
X351253Y75617D01*
X339627Y75617D01*
X339627Y95043D01*
X351253Y95043D01*
X351253Y79298D02*
X339627Y79298D01*
X339627Y82979D02*
X351253Y82979D01*
X351253Y86660D02*
X339627Y86660D01*
X339627Y90341D02*
X351253Y90341D01*
X351253Y94022D02*
X339627Y94022D01*
X351253Y118317D02*
X351253Y137743D01*
X351253Y118317D02*
X339627Y118317D01*
X339627Y137743D01*
X351253Y137743D01*
X351253Y121998D02*
X339627Y121998D01*
X339627Y125679D02*
X351253Y125679D01*
X351253Y129360D02*
X339627Y129360D01*
X339627Y133041D02*
X351253Y133041D01*
X351253Y136722D02*
X339627Y136722D01*
X286333Y2045173D02*
X266907Y2045173D01*
X286333Y2045173D02*
X286333Y2033547D01*
X266907Y2033547D01*
X266907Y2045173D01*
X266907Y2037228D02*
X286333Y2037228D01*
X286333Y2040909D02*
X266907Y2040909D01*
X266907Y2044590D02*
X286333Y2044590D01*
X243633Y2045173D02*
X224207Y2045173D01*
X243633Y2045173D02*
X243633Y2033547D01*
X224207Y2033547D01*
X224207Y2045173D01*
X224207Y2037228D02*
X243633Y2037228D01*
X243633Y2040909D02*
X224207Y2040909D01*
X224207Y2044590D02*
X243633Y2044590D01*
D25*
X198190Y2035810D03*
X137090Y2035810D03*
D14*
X346173Y2037767D02*
X346173Y2057193D01*
X346173Y2037767D02*
X334547Y2037767D01*
X334547Y2057193D01*
X346173Y2057193D01*
X346173Y2041448D02*
X334547Y2041448D01*
X334547Y2045129D02*
X346173Y2045129D01*
X346173Y2048810D02*
X334547Y2048810D01*
X334547Y2052491D02*
X346173Y2052491D01*
X346173Y2056172D02*
X334547Y2056172D01*
X346173Y2080467D02*
X346173Y2099893D01*
X346173Y2080467D02*
X334547Y2080467D01*
X334547Y2099893D01*
X346173Y2099893D01*
X346173Y2084148D02*
X334547Y2084148D01*
X334547Y2087829D02*
X346173Y2087829D01*
X346173Y2091510D02*
X334547Y2091510D01*
X334547Y2095191D02*
X346173Y2095191D01*
X346173Y2098872D02*
X334547Y2098872D01*
X597107Y98523D02*
X616533Y98523D01*
X616533Y86897D01*
X597107Y86897D01*
X597107Y98523D01*
X597107Y90578D02*
X616533Y90578D01*
X616533Y94259D02*
X597107Y94259D01*
X597107Y97940D02*
X616533Y97940D01*
X573833Y98523D02*
X554407Y98523D01*
X573833Y98523D02*
X573833Y86897D01*
X554407Y86897D01*
X554407Y98523D01*
X554407Y90578D02*
X573833Y90578D01*
X573833Y94259D02*
X554407Y94259D01*
X554407Y97940D02*
X573833Y97940D01*
D25*
X524580Y90170D03*
X463480Y90170D03*
D14*
X666213Y81967D02*
X666213Y101393D01*
X666213Y81967D02*
X654587Y81967D01*
X654587Y101393D01*
X666213Y101393D01*
X666213Y85648D02*
X654587Y85648D01*
X654587Y89329D02*
X666213Y89329D01*
X666213Y93010D02*
X654587Y93010D01*
X654587Y96691D02*
X666213Y96691D01*
X666213Y100372D02*
X654587Y100372D01*
X666213Y124667D02*
X666213Y144093D01*
X666213Y124667D02*
X654587Y124667D01*
X654587Y144093D01*
X666213Y144093D01*
X666213Y128348D02*
X654587Y128348D01*
X654587Y132029D02*
X666213Y132029D01*
X666213Y135710D02*
X654587Y135710D01*
X654587Y139391D02*
X666213Y139391D01*
X666213Y143072D02*
X654587Y143072D01*
X593673Y2036543D02*
X574247Y2036543D01*
X593673Y2036543D02*
X593673Y2024917D01*
X574247Y2024917D01*
X574247Y2036543D01*
X574247Y2028598D02*
X593673Y2028598D01*
X593673Y2032279D02*
X574247Y2032279D01*
X574247Y2035960D02*
X593673Y2035960D01*
X550973Y2036543D02*
X531547Y2036543D01*
X550973Y2036543D02*
X550973Y2024917D01*
X531547Y2024917D01*
X531547Y2036543D01*
X531547Y2028598D02*
X550973Y2028598D01*
X550973Y2032279D02*
X531547Y2032279D01*
X531547Y2035960D02*
X550973Y2035960D01*
D25*
X502990Y2028190D03*
X441890Y2028190D03*
D14*
X656053Y2036497D02*
X656053Y2055923D01*
X656053Y2036497D02*
X644427Y2036497D01*
X644427Y2055923D01*
X656053Y2055923D01*
X656053Y2040178D02*
X644427Y2040178D01*
X644427Y2043859D02*
X656053Y2043859D01*
X656053Y2047540D02*
X644427Y2047540D01*
X644427Y2051221D02*
X656053Y2051221D01*
X656053Y2054902D02*
X644427Y2054902D01*
X656053Y2079197D02*
X656053Y2098623D01*
X656053Y2079197D02*
X644427Y2079197D01*
X644427Y2098623D01*
X656053Y2098623D01*
X656053Y2082878D02*
X644427Y2082878D01*
X644427Y2086559D02*
X656053Y2086559D01*
X656053Y2090240D02*
X644427Y2090240D01*
X644427Y2093921D02*
X656053Y2093921D01*
X656053Y2097602D02*
X644427Y2097602D01*
X1587653Y202993D02*
X1587653Y183567D01*
X1576027Y183567D01*
X1576027Y202993D01*
X1587653Y202993D01*
X1587653Y187248D02*
X1576027Y187248D01*
X1576027Y190929D02*
X1587653Y190929D01*
X1587653Y194610D02*
X1576027Y194610D01*
X1576027Y198291D02*
X1587653Y198291D01*
X1587653Y201972D02*
X1576027Y201972D01*
X1587653Y226267D02*
X1587653Y245693D01*
X1587653Y226267D02*
X1576027Y226267D01*
X1576027Y245693D01*
X1587653Y245693D01*
X1587653Y229948D02*
X1576027Y229948D01*
X1576027Y233629D02*
X1587653Y233629D01*
X1587653Y237310D02*
X1576027Y237310D01*
X1576027Y240991D02*
X1587653Y240991D01*
X1587653Y244672D02*
X1576027Y244672D01*
X1247873Y199633D02*
X1247873Y180207D01*
X1236247Y180207D01*
X1236247Y199633D01*
X1247873Y199633D01*
X1247873Y183888D02*
X1236247Y183888D01*
X1236247Y187569D02*
X1247873Y187569D01*
X1247873Y191250D02*
X1236247Y191250D01*
X1236247Y194931D02*
X1247873Y194931D01*
X1247873Y198612D02*
X1236247Y198612D01*
X1247873Y222907D02*
X1247873Y242333D01*
X1247873Y222907D02*
X1236247Y222907D01*
X1236247Y242333D01*
X1247873Y242333D01*
X1247873Y226588D02*
X1236247Y226588D01*
X1236247Y230269D02*
X1247873Y230269D01*
X1247873Y233950D02*
X1236247Y233950D01*
X1236247Y237631D02*
X1247873Y237631D01*
X1247873Y241312D02*
X1236247Y241312D01*
X1731163Y202993D02*
X1731163Y183567D01*
X1719537Y183567D01*
X1719537Y202993D01*
X1731163Y202993D01*
X1731163Y187248D02*
X1719537Y187248D01*
X1719537Y190929D02*
X1731163Y190929D01*
X1731163Y194610D02*
X1719537Y194610D01*
X1719537Y198291D02*
X1731163Y198291D01*
X1731163Y201972D02*
X1719537Y201972D01*
X1731163Y226267D02*
X1731163Y245693D01*
X1731163Y226267D02*
X1719537Y226267D01*
X1719537Y245693D01*
X1731163Y245693D01*
X1731163Y229948D02*
X1719537Y229948D01*
X1719537Y233629D02*
X1731163Y233629D01*
X1731163Y237310D02*
X1719537Y237310D01*
X1719537Y240991D02*
X1731163Y240991D01*
X1731163Y244672D02*
X1719537Y244672D01*
X1099283Y203443D02*
X1099283Y184017D01*
X1087657Y184017D01*
X1087657Y203443D01*
X1099283Y203443D01*
X1099283Y187698D02*
X1087657Y187698D01*
X1087657Y191379D02*
X1099283Y191379D01*
X1099283Y195060D02*
X1087657Y195060D01*
X1087657Y198741D02*
X1099283Y198741D01*
X1099283Y202422D02*
X1087657Y202422D01*
X1099283Y226717D02*
X1099283Y246143D01*
X1099283Y226717D02*
X1087657Y226717D01*
X1087657Y246143D01*
X1099283Y246143D01*
X1099283Y230398D02*
X1087657Y230398D01*
X1087657Y234079D02*
X1099283Y234079D01*
X1099283Y237760D02*
X1087657Y237760D01*
X1087657Y241441D02*
X1099283Y241441D01*
X1099283Y245122D02*
X1087657Y245122D01*
X1872713Y195823D02*
X1872713Y176397D01*
X1861087Y176397D01*
X1861087Y195823D01*
X1872713Y195823D01*
X1872713Y180078D02*
X1861087Y180078D01*
X1861087Y183759D02*
X1872713Y183759D01*
X1872713Y187440D02*
X1861087Y187440D01*
X1861087Y191121D02*
X1872713Y191121D01*
X1872713Y194802D02*
X1861087Y194802D01*
X1872713Y219097D02*
X1872713Y238523D01*
X1872713Y219097D02*
X1861087Y219097D01*
X1861087Y238523D01*
X1872713Y238523D01*
X1872713Y222778D02*
X1861087Y222778D01*
X1861087Y226459D02*
X1872713Y226459D01*
X1872713Y230140D02*
X1861087Y230140D01*
X1861087Y233821D02*
X1872713Y233821D01*
X1872713Y237502D02*
X1861087Y237502D01*
X959583Y208073D02*
X959583Y188647D01*
X947957Y188647D01*
X947957Y208073D01*
X959583Y208073D01*
X959583Y192328D02*
X947957Y192328D01*
X947957Y196009D02*
X959583Y196009D01*
X959583Y199690D02*
X947957Y199690D01*
X947957Y203371D02*
X959583Y203371D01*
X959583Y207052D02*
X947957Y207052D01*
X959583Y231347D02*
X959583Y250773D01*
X959583Y231347D02*
X947957Y231347D01*
X947957Y250773D01*
X959583Y250773D01*
X959583Y235028D02*
X947957Y235028D01*
X947957Y238709D02*
X959583Y238709D01*
X959583Y242390D02*
X947957Y242390D01*
X947957Y246071D02*
X959583Y246071D01*
X959583Y249752D02*
X947957Y249752D01*
X2004793Y202993D02*
X2004793Y183567D01*
X1993167Y183567D01*
X1993167Y202993D01*
X2004793Y202993D01*
X2004793Y187248D02*
X1993167Y187248D01*
X1993167Y190929D02*
X2004793Y190929D01*
X2004793Y194610D02*
X1993167Y194610D01*
X1993167Y198291D02*
X2004793Y198291D01*
X2004793Y201972D02*
X1993167Y201972D01*
X2004793Y226267D02*
X2004793Y245693D01*
X2004793Y226267D02*
X1993167Y226267D01*
X1993167Y245693D01*
X2004793Y245693D01*
X2004793Y229948D02*
X1993167Y229948D01*
X1993167Y233629D02*
X2004793Y233629D01*
X2004793Y237310D02*
X1993167Y237310D01*
X1993167Y240991D02*
X2004793Y240991D01*
X2004793Y244672D02*
X1993167Y244672D01*
X812263Y202993D02*
X812263Y183567D01*
X800637Y183567D01*
X800637Y202993D01*
X812263Y202993D01*
X812263Y187248D02*
X800637Y187248D01*
X800637Y190929D02*
X812263Y190929D01*
X812263Y194610D02*
X800637Y194610D01*
X800637Y198291D02*
X812263Y198291D01*
X812263Y201972D02*
X800637Y201972D01*
X812263Y226267D02*
X812263Y245693D01*
X812263Y226267D02*
X800637Y226267D01*
X800637Y245693D01*
X812263Y245693D01*
X812263Y229948D02*
X800637Y229948D01*
X800637Y233629D02*
X812263Y233629D01*
X812263Y237310D02*
X800637Y237310D01*
X800637Y240991D02*
X812263Y240991D01*
X812263Y244672D02*
X800637Y244672D01*
X1995903Y342317D02*
X1995903Y361743D01*
X1995903Y342317D02*
X1984277Y342317D01*
X1984277Y361743D01*
X1995903Y361743D01*
X1995903Y345998D02*
X1984277Y345998D01*
X1984277Y349679D02*
X1995903Y349679D01*
X1995903Y353360D02*
X1984277Y353360D01*
X1984277Y357041D02*
X1995903Y357041D01*
X1995903Y360722D02*
X1984277Y360722D01*
X1995903Y385017D02*
X1995903Y404443D01*
X1995903Y385017D02*
X1984277Y385017D01*
X1984277Y404443D01*
X1995903Y404443D01*
X1995903Y388698D02*
X1984277Y388698D01*
X1984277Y392379D02*
X1995903Y392379D01*
X1995903Y396060D02*
X1984277Y396060D01*
X1984277Y399741D02*
X1995903Y399741D01*
X1995903Y403422D02*
X1984277Y403422D01*
X807183Y360473D02*
X807183Y341047D01*
X795557Y341047D01*
X795557Y360473D01*
X807183Y360473D01*
X807183Y344728D02*
X795557Y344728D01*
X795557Y348409D02*
X807183Y348409D01*
X807183Y352090D02*
X795557Y352090D01*
X795557Y355771D02*
X807183Y355771D01*
X807183Y359452D02*
X795557Y359452D01*
X807183Y383747D02*
X807183Y403173D01*
X807183Y383747D02*
X795557Y383747D01*
X795557Y403173D01*
X807183Y403173D01*
X807183Y387428D02*
X795557Y387428D01*
X795557Y391109D02*
X807183Y391109D01*
X807183Y394790D02*
X795557Y394790D01*
X795557Y398471D02*
X807183Y398471D01*
X807183Y402152D02*
X795557Y402152D01*
D33*
X1333170Y295910D03*
X1361770Y295910D03*
X1484960Y289560D03*
X1456360Y289560D03*
X1486230Y426720D03*
X1457630Y426720D03*
X1359230Y427990D03*
X1330630Y427990D03*
X1004240Y280670D03*
X1032840Y280670D03*
X1157300Y287020D03*
X1128700Y287020D03*
X1156030Y424180D03*
X1127430Y424180D03*
X1030300Y429260D03*
X1001700Y429260D03*
X1684350Y282730D03*
X1655750Y282730D03*
D14*
X967533Y1184177D02*
X948107Y1184177D01*
X948107Y1195803D01*
X967533Y1195803D01*
X967533Y1184177D01*
X967533Y1187858D02*
X948107Y1187858D01*
X948107Y1191539D02*
X967533Y1191539D01*
X967533Y1195220D02*
X948107Y1195220D01*
X990807Y1184177D02*
X1010233Y1184177D01*
X990807Y1184177D02*
X990807Y1195803D01*
X1010233Y1195803D01*
X1010233Y1184177D01*
X1010233Y1187858D02*
X990807Y1187858D01*
X990807Y1191539D02*
X1010233Y1191539D01*
X1010233Y1195220D02*
X990807Y1195220D01*
X967423Y1236247D02*
X947997Y1236247D01*
X947997Y1247873D01*
X967423Y1247873D01*
X967423Y1236247D01*
X967423Y1239928D02*
X947997Y1239928D01*
X947997Y1243609D02*
X967423Y1243609D01*
X967423Y1247290D02*
X947997Y1247290D01*
X990697Y1236247D02*
X1010123Y1236247D01*
X990697Y1236247D02*
X990697Y1247873D01*
X1010123Y1247873D01*
X1010123Y1236247D01*
X1010123Y1239928D02*
X990697Y1239928D01*
X990697Y1243609D02*
X1010123Y1243609D01*
X1010123Y1247290D02*
X990697Y1247290D01*
D16*
X909320Y1248480D03*
X909320Y1187380D03*
D14*
X949377Y1081307D02*
X968803Y1081307D01*
X949377Y1081307D02*
X949377Y1092933D01*
X968803Y1092933D01*
X968803Y1081307D01*
X968803Y1084988D02*
X949377Y1084988D01*
X949377Y1088669D02*
X968803Y1088669D01*
X968803Y1092350D02*
X949377Y1092350D01*
X992077Y1081307D02*
X1011503Y1081307D01*
X992077Y1081307D02*
X992077Y1092933D01*
X1011503Y1092933D01*
X1011503Y1081307D01*
X1011503Y1084988D02*
X992077Y1084988D01*
X992077Y1088669D02*
X1011503Y1088669D01*
X1011503Y1092350D02*
X992077Y1092350D01*
X968803Y1130727D02*
X949377Y1130727D01*
X949377Y1142353D01*
X968803Y1142353D01*
X968803Y1130727D01*
X968803Y1134408D02*
X949377Y1134408D01*
X949377Y1138089D02*
X968803Y1138089D01*
X968803Y1141770D02*
X949377Y1141770D01*
X992077Y1130727D02*
X1011503Y1130727D01*
X992077Y1130727D02*
X992077Y1142353D01*
X1011503Y1142353D01*
X1011503Y1130727D01*
X1011503Y1134408D02*
X992077Y1134408D01*
X992077Y1138089D02*
X1011503Y1138089D01*
X1011503Y1141770D02*
X992077Y1141770D01*
D16*
X913130Y1140530D03*
X913130Y1079430D03*
D14*
X826083Y1384773D02*
X806657Y1384773D01*
X826083Y1384773D02*
X826083Y1373147D01*
X806657Y1373147D01*
X806657Y1384773D01*
X806657Y1376828D02*
X826083Y1376828D01*
X826083Y1380509D02*
X806657Y1380509D01*
X806657Y1384190D02*
X826083Y1384190D01*
X783383Y1384773D02*
X763957Y1384773D01*
X783383Y1384773D02*
X783383Y1373147D01*
X763957Y1373147D01*
X763957Y1384773D01*
X763957Y1376828D02*
X783383Y1376828D01*
X783383Y1380509D02*
X763957Y1380509D01*
X763957Y1384190D02*
X783383Y1384190D01*
X806767Y1339313D02*
X826193Y1339313D01*
X826193Y1327687D01*
X806767Y1327687D01*
X806767Y1339313D01*
X806767Y1331368D02*
X826193Y1331368D01*
X826193Y1335049D02*
X806767Y1335049D01*
X806767Y1338730D02*
X826193Y1338730D01*
X783493Y1339313D02*
X764067Y1339313D01*
X783493Y1339313D02*
X783493Y1327687D01*
X764067Y1327687D01*
X764067Y1339313D01*
X764067Y1331368D02*
X783493Y1331368D01*
X783493Y1335049D02*
X764067Y1335049D01*
X764067Y1338730D02*
X783493Y1338730D01*
D16*
X859790Y1327080D03*
X859790Y1388180D03*
D14*
X944297Y1292127D02*
X963723Y1292127D01*
X944297Y1292127D02*
X944297Y1303753D01*
X963723Y1303753D01*
X963723Y1292127D01*
X963723Y1295808D02*
X944297Y1295808D01*
X944297Y1299489D02*
X963723Y1299489D01*
X963723Y1303170D02*
X944297Y1303170D01*
X986997Y1292127D02*
X1006423Y1292127D01*
X986997Y1292127D02*
X986997Y1303753D01*
X1006423Y1303753D01*
X1006423Y1292127D01*
X1006423Y1295808D02*
X986997Y1295808D01*
X986997Y1299489D02*
X1006423Y1299489D01*
X1006423Y1303170D02*
X986997Y1303170D01*
X963613Y1342927D02*
X944187Y1342927D01*
X944187Y1354553D01*
X963613Y1354553D01*
X963613Y1342927D01*
X963613Y1346608D02*
X944187Y1346608D01*
X944187Y1350289D02*
X963613Y1350289D01*
X963613Y1353970D02*
X944187Y1353970D01*
X986887Y1342927D02*
X1006313Y1342927D01*
X986887Y1342927D02*
X986887Y1354553D01*
X1006313Y1354553D01*
X1006313Y1342927D01*
X1006313Y1346608D02*
X986887Y1346608D01*
X986887Y1350289D02*
X1006313Y1350289D01*
X1006313Y1353970D02*
X986887Y1353970D01*
D16*
X909340Y1291540D03*
X909340Y1352640D03*
D14*
X606523Y1344347D02*
X606523Y1363773D01*
X606523Y1344347D02*
X594897Y1344347D01*
X594897Y1363773D01*
X606523Y1363773D01*
X606523Y1348028D02*
X594897Y1348028D01*
X594897Y1351709D02*
X606523Y1351709D01*
X606523Y1355390D02*
X594897Y1355390D01*
X594897Y1359071D02*
X606523Y1359071D01*
X606523Y1362752D02*
X594897Y1362752D01*
X606523Y1387047D02*
X606523Y1406473D01*
X606523Y1387047D02*
X594897Y1387047D01*
X594897Y1406473D01*
X606523Y1406473D01*
X606523Y1390728D02*
X594897Y1390728D01*
X594897Y1394409D02*
X606523Y1394409D01*
X606523Y1398090D02*
X594897Y1398090D01*
X594897Y1401771D02*
X606523Y1401771D01*
X606523Y1405452D02*
X594897Y1405452D01*
X607793Y1259633D02*
X607793Y1240207D01*
X596167Y1240207D01*
X596167Y1259633D01*
X607793Y1259633D01*
X607793Y1243888D02*
X596167Y1243888D01*
X596167Y1247569D02*
X607793Y1247569D01*
X607793Y1251250D02*
X596167Y1251250D01*
X596167Y1254931D02*
X607793Y1254931D01*
X607793Y1258612D02*
X596167Y1258612D01*
X607793Y1282907D02*
X607793Y1302333D01*
X607793Y1282907D02*
X596167Y1282907D01*
X596167Y1302333D01*
X607793Y1302333D01*
X607793Y1286588D02*
X596167Y1286588D01*
X596167Y1290269D02*
X607793Y1290269D01*
X607793Y1293950D02*
X596167Y1293950D01*
X596167Y1297631D02*
X607793Y1297631D01*
X607793Y1301312D02*
X596167Y1301312D01*
X612677Y1130903D02*
X612677Y1111477D01*
X612677Y1130903D02*
X624303Y1130903D01*
X624303Y1111477D01*
X612677Y1111477D01*
X612677Y1115158D02*
X624303Y1115158D01*
X624303Y1118839D02*
X612677Y1118839D01*
X612677Y1122520D02*
X624303Y1122520D01*
X624303Y1126201D02*
X612677Y1126201D01*
X612677Y1129882D02*
X624303Y1129882D01*
X612677Y1088203D02*
X612677Y1068777D01*
X612677Y1088203D02*
X624303Y1088203D01*
X624303Y1068777D01*
X612677Y1068777D01*
X612677Y1072458D02*
X624303Y1072458D01*
X624303Y1076139D02*
X612677Y1076139D01*
X612677Y1079820D02*
X624303Y1079820D01*
X624303Y1083501D02*
X612677Y1083501D01*
X612677Y1087182D02*
X624303Y1087182D01*
D33*
X748360Y899160D03*
X719760Y899160D03*
X877240Y892810D03*
X905840Y892810D03*
D30*
X649190Y1125550D03*
X649190Y1096950D03*
D14*
X611407Y1194007D02*
X611407Y1213433D01*
X623033Y1213433D01*
X623033Y1194007D01*
X611407Y1194007D01*
X611407Y1197688D02*
X623033Y1197688D01*
X623033Y1201369D02*
X611407Y1201369D01*
X611407Y1205050D02*
X623033Y1205050D01*
X623033Y1208731D02*
X611407Y1208731D01*
X611407Y1212412D02*
X623033Y1212412D01*
X611407Y1170733D02*
X611407Y1151307D01*
X611407Y1170733D02*
X623033Y1170733D01*
X623033Y1151307D01*
X611407Y1151307D01*
X611407Y1154988D02*
X623033Y1154988D01*
X623033Y1158669D02*
X611407Y1158669D01*
X611407Y1162350D02*
X623033Y1162350D01*
X623033Y1166031D02*
X611407Y1166031D01*
X611407Y1169712D02*
X623033Y1169712D01*
D30*
X649600Y1187780D03*
X649600Y1159180D03*
D14*
X816817Y1073883D02*
X836243Y1073883D01*
X836243Y1062257D01*
X816817Y1062257D01*
X816817Y1073883D01*
X816817Y1065938D02*
X836243Y1065938D01*
X836243Y1069619D02*
X816817Y1069619D01*
X816817Y1073300D02*
X836243Y1073300D01*
X793543Y1073883D02*
X774117Y1073883D01*
X793543Y1073883D02*
X793543Y1062257D01*
X774117Y1062257D01*
X774117Y1073883D01*
X774117Y1065938D02*
X793543Y1065938D01*
X793543Y1069619D02*
X774117Y1069619D01*
X774117Y1073300D02*
X793543Y1073300D01*
D33*
X827100Y1108710D03*
X798500Y1108710D03*
D14*
X699563Y1033047D02*
X680137Y1033047D01*
X680137Y1044673D01*
X699563Y1044673D01*
X699563Y1033047D01*
X699563Y1036728D02*
X680137Y1036728D01*
X680137Y1040409D02*
X699563Y1040409D01*
X699563Y1044090D02*
X680137Y1044090D01*
X722837Y1033047D02*
X742263Y1033047D01*
X722837Y1033047D02*
X722837Y1044673D01*
X742263Y1044673D01*
X742263Y1033047D01*
X742263Y1036728D02*
X722837Y1036728D01*
X722837Y1040409D02*
X742263Y1040409D01*
X742263Y1044090D02*
X722837Y1044090D01*
D33*
X651840Y1042670D03*
X623240Y1042670D03*
X1787830Y279400D03*
X1816430Y279400D03*
D12*
X746990Y1155700D03*
X688110Y1155700D03*
X744450Y1209040D03*
X685570Y1209040D03*
D18*
X866140Y1115290D03*
X866140Y1056410D03*
D12*
X748260Y1102360D03*
X689380Y1102360D03*
D30*
X1352660Y2123770D03*
X1352660Y2095170D03*
D34*
X2043300Y1249680D03*
X2043300Y1271980D03*
X2043300Y1227380D03*
X2021000Y1249680D03*
X2021000Y1271980D03*
X2021000Y1227380D03*
X2065600Y1249680D03*
X2065600Y1271980D03*
X2065600Y1227380D03*
D35*
X1976800Y1272680D03*
X1976800Y1226680D03*
M02*
