M48
;GenerationSoftware,Autodesk,EAGLE,9.7.0*%
;CreationDate,2025-04-24T15:44:51Z*%
FMAT,2
ICI,OFF
METRIC,TZ,000.000
T6C0.350
T5C0.400
T4C0.770
T3C0.800
T2C1.778
T1C3.048
%
G90
M71
T1
X212090Y237490
X3810Y237490
X3810Y3810
X212090Y3810
T2
X209550Y190500
X209550Y181610
X209550Y172720
T3
X198374Y131699
T4
X115316Y62898
X112776Y62898
X110236Y62898
X107696Y62898
X72136Y142080
X74676Y142080
X77216Y142080
X79756Y142080
X82296Y142080
X84836Y142080
X87376Y142080
X87376Y150020
X84836Y150020
X82296Y150020
X79756Y150020
X77216Y150020
X74676Y150020
X72136Y150020
X72517Y92677
X75057Y92677
X77597Y92677
X80137Y92677
X82677Y92677
X85217Y92677
X87757Y92677
X87757Y100617
X85217Y100617
X82677Y100617
X55880Y52672
X28735Y173990
X80137Y100617
X77597Y100617
X75057Y100617
X72517Y100617
X130556Y211070
X128016Y211070
X125476Y211070
X122936Y211070
X120396Y211070
X117856Y211070
X115316Y211070
X115316Y203130
X117856Y203130
X120396Y203130
X122936Y203130
X125476Y203130
X128016Y203130
X130556Y203130
X165608Y211488
X163068Y211488
X160528Y211488
X157988Y211488
X155448Y211488
X152908Y211488
X150368Y211488
X150368Y203548
X152908Y203548
X155448Y203548
X157988Y203548
X160528Y203548
X163068Y203548
X165608Y203548
X86266Y210566
X86266Y213106
X86266Y215646
X86266Y218186
X86266Y220726
X86266Y223266
X86266Y225806
X78326Y225806
X78326Y223266
X78326Y220726
X78326Y218186
X78326Y215646
X78326Y213106
X78326Y210566
X192880Y223516
X192880Y220976
X192880Y218436
X192880Y215896
X192880Y213356
X192880Y210816
X192880Y208276
X200820Y208276
X200820Y210816
X200820Y213356
X200820Y215896
X200820Y218436
X200820Y220976
X200820Y223516
X28735Y176530
X28735Y179070
X28735Y181610
X28735Y184150
X28735Y186690
X28735Y189230
X20795Y189230
X20795Y186690
X20795Y184150
X20795Y181610
X20795Y179070
X20795Y176530
X20795Y173990
X30132Y50292
X30132Y52832
X30132Y55372
X30132Y57912
X30132Y60452
X30132Y62992
X30132Y65532
X22192Y65532
X22192Y62992
X22192Y60452
X22192Y57912
X22192Y55372
X22192Y52832
X22192Y50292
X28862Y138303
X28862Y140843
X28862Y143383
X28862Y145923
X28862Y148463
X28862Y151003
X28862Y153543
X20922Y153543
X20922Y151003
X20922Y148463
X20922Y145923
X20922Y143383
X20922Y140843
X20922Y138303
X29370Y87630
X29370Y90170
X29370Y92710
X29370Y95250
X29370Y97790
X29370Y100330
X29370Y102870
X21430Y102870
X21430Y100330
X21430Y97790
X21430Y95250
X21430Y92710
X21430Y90170
X21430Y87630
X29243Y15240
X29243Y17780
X29243Y20320
X29243Y22860
X29243Y25400
X29243Y27940
X29243Y30480
X21303Y30480
X21303Y27940
X21303Y25400
X21303Y22860
X21303Y20320
X21303Y17780
X21303Y15240
X28481Y210439
X28481Y212979
X28481Y215519
X28481Y218059
X28481Y220599
X28481Y223139
X28481Y225679
X20541Y225679
X20541Y223139
X20541Y220599
X20541Y218059
X20541Y215519
X20541Y212979
X20541Y210439
X60485Y14986
X60485Y17526
X60485Y20066
X60485Y22606
X60485Y25146
X60485Y27686
X60485Y30226
X52545Y30226
X52545Y27686
X52545Y25146
X52545Y22606
X52545Y20066
X52545Y17526
X52545Y14986
X59088Y208788
X59088Y211328
X59088Y213868
X59088Y216408
X59088Y218948
X59088Y221488
X59088Y224028
X51148Y224028
X51148Y221488
X51148Y218948
X51148Y216408
X51148Y213868
X51148Y211328
X51148Y208788
X133477Y32098
X136017Y32098
X138557Y32098
X141097Y32098
X143637Y32098
X146177Y32098
X148717Y32098
X148717Y40038
X146177Y40038
X143637Y40038
X141097Y40038
X138557Y40038
X136017Y40038
X133477Y40038
X100457Y31463
X102997Y31463
X105537Y31463
X108077Y31463
X110617Y31463
X113157Y31463
X115697Y31463
X115697Y39403
X113157Y39403
X110617Y39403
X108077Y39403
X105537Y39403
X102997Y39403
X100457Y39403
X165989Y30701
X168529Y30701
X171069Y30701
X173609Y30701
X176149Y30701
X178689Y30701
X181229Y30701
X181229Y38641
X178689Y38641
X176149Y38641
X173609Y38641
X171069Y38641
X168529Y38641
X165989Y38641
X159385Y187866
X156845Y187866
X154305Y187866
X151765Y187866
X149225Y187866
X146685Y187866
X144145Y187866
X144145Y179926
X146685Y179926
X149225Y179926
X151765Y179926
X154305Y179926
X156845Y179926
X159385Y179926
X138430Y53180
X140970Y53180
X143510Y53180
X146050Y53180
X148590Y53180
X151130Y53180
X153670Y53180
X153670Y61120
X151130Y61120
X148590Y61120
X146050Y61120
X143510Y61120
X140970Y61120
X138430Y61120
X188214Y187866
X185674Y187866
X183134Y187866
X180594Y187866
X178054Y187866
X175514Y187866
X172974Y187866
X172974Y179926
X175514Y179926
X178054Y179926
X180594Y179926
X183134Y179926
X185674Y179926
X188214Y179926
X169164Y54704
X171704Y54704
X174244Y54704
X176784Y54704
X179324Y54704
X181864Y54704
X184404Y54704
X184404Y62644
X181864Y62644
X179324Y62644
X176784Y62644
X174244Y62644
X171704Y62644
X169164Y62644
X45720Y52672
X48260Y52672
X50800Y52672
X53340Y52672
X58420Y52672
X60960Y52672
X60960Y60612
X58420Y60612
X55880Y60612
X53340Y60612
X50800Y60612
X48260Y60612
X45720Y60612
X68199Y187485
X65659Y187485
X63119Y187485
X60579Y187485
X58039Y187485
X55499Y187485
X52959Y187485
X52959Y179545
X55499Y179545
X58039Y179545
X60579Y179545
X63119Y179545
X65659Y179545
X68199Y179545
X76200Y53434
X78740Y53434
X81280Y53434
X83820Y53434
X86360Y53434
X88900Y53434
X91440Y53434
X91440Y61374
X88900Y61374
X86360Y61374
X83820Y61374
X81280Y61374
X78740Y61374
X76200Y61374
X128143Y187485
X125603Y187485
X123063Y187485
X120523Y187485
X117983Y187485
X115443Y187485
X112903Y187485
X112903Y179545
X115443Y179545
X117983Y179545
X120523Y179545
X123063Y179545
X125603Y179545
X128143Y179545
X98298Y187358
X95758Y187358
X93218Y187358
X90678Y187358
X88138Y187358
X85598Y187358
X83058Y187358
X83058Y179418
X85598Y179418
X88138Y179418
X90678Y179418
X93218Y179418
X95758Y179418
X98298Y179418
X107696Y54958
X110236Y54958
X112776Y54958
X115316Y54958
X117856Y54958
X120396Y54958
X122936Y54958
X122936Y62898
X120396Y62898
X117856Y62898
T5
X52451Y118618
X52451Y126238
X40386Y19939
X175514Y75311
X142240Y73279
X112776Y75057
X81661Y73533
X52832Y73025
X183261Y167513
X153162Y167005
X122555Y167005
X92837Y166878
X62738Y167132
X9921Y19939
X10160Y56769
X9525Y93091
X10160Y143383
X9779Y180086
X8128Y215519
X30338Y116190
X35608Y115999
X39664Y214122
X22352Y123444
X40640Y62865
X40640Y53975
X38212Y184785
X38212Y178308
X27163Y123444
X179959Y120523
X171704Y114300
X137541Y105029
X137541Y96520
T6
X37338Y222885
X121940Y128814
X134648Y122781
X131850Y120039
X142875Y202187
X143165Y199906
X44191Y155090
X179683Y145266
X117221Y127432
X105283Y73787
X102743Y79502
X144145Y192278
X57531Y147066
X111506Y110998
X114935Y97940
X96139Y40640
X96012Y38360
X98950Y79502
X59690Y67818
X70133Y79534
X174752Y100965
X174879Y96751
X101149Y73795
X100214Y79502
X154559Y99949
X154686Y96751
X115697Y162560
X124079Y143002
X125095Y132080
X102413Y73797
X147320Y96520
X95922Y148441
X106830Y139663
X112489Y135370
X118237Y128245
X121920Y130093
X17907Y12573
X25273Y22733
X17272Y207010
X24384Y218313
X80645Y95885
X84455Y95885
X185674Y101854
X185674Y84201
X134747Y104140
X134620Y84709
X121920Y84963
X123317Y98829
X145415Y157099
X145415Y159176
X144907Y163285
X132588Y108204
X143755Y143755
X153924Y40259
X157988Y40513
X151003Y76708
X144526Y83058
X167386Y102893
X18034Y229616
X143256Y231267
X147447Y218440
X121285Y218313
X116840Y215646
X34544Y15113
X41148Y6985
X51943Y94107
X44323Y89027
X130885Y223976
X95758Y232537
X91572Y205867
X79733Y206502
X142494Y235201
X148587Y225976
X133869Y222261
X138938Y233048
X135009Y223721
X139773Y232095
X139319Y223901
X141243Y232921
X174614Y228969
X195476Y204763
X142297Y213290
X131876Y208031
X107569Y214757
X138834Y210377
X146558Y216789
X126234Y215135
X30353Y189484
X32633Y189484
X30353Y186690
X32639Y186690
X31750Y66294
X34030Y66294
X31750Y63246
X34030Y63246
X30480Y154051
X32760Y154051
X30480Y151003
X32766Y151003
X30869Y103124
X33150Y103124
X30869Y100076
X33150Y100076
X33655Y30988
X31115Y30988
X33655Y27940
X31115Y27940
X32893Y225933
X30353Y225933
X32893Y222885
X30353Y222885
X65405Y30988
X62357Y30988
X65151Y27940
X62357Y27940
X63500Y224282
X60960Y224028
X63500Y221234
X42863Y149543
X60960Y221234
X178562Y24638
X105537Y24517
X105537Y27178
X192151Y26797
X111359Y40533
X120305Y41819
X127185Y33078
X91821Y35941
X176403Y27559
X144145Y189484
X146685Y189738
X146685Y192278
X154940Y51556
X152908Y49403
X150368Y50038
X152146Y51683
X172974Y192278
X172974Y189738
X176022Y192024
X176022Y189738
X184150Y50546
X184150Y52832
X181610Y52832
X181356Y50552
X60960Y48514
X60960Y50800
X57912Y48514
X57912Y50800
X52832Y192532
X52832Y189484
X55753Y192659
X55753Y189611
X91186Y51816
X91186Y49282
X88392Y51816
X88392Y49282
X112649Y191897
X112649Y189611
X115697Y189611
X115951Y191891
X37592Y113792
X45971Y108839
X62230Y163700
X57808Y163649
X82804Y191262
X82804Y188982
X85598Y191008
X85598Y188728
X123444Y50546
X123444Y52832
X120650Y52832
X120650Y50552
X57023Y165100
X62230Y165227
X110109Y75057
X104007Y79157
X16764Y93218
X14478Y90932
X15621Y95885
X9779Y95758
X15367Y146000
X10160Y145669
X16256Y143637
X14224Y142113
X16510Y56769
X13976Y56515
X8636Y59563
X18148Y59804
X15875Y179959
X13788Y177745
X15875Y182499
X8759Y182495
X16129Y21082
X13489Y18696
X10668Y22987
X15989Y23101
X15621Y215519
X13081Y213487
X14605Y218059
X7744Y211455
X46609Y20828
X44073Y18542
X50279Y22720
X38986Y22556
X45593Y214503
X43688Y212852
X46355Y217043
X39112Y216023
X195834Y158496
X191643Y117983
X201371Y162058
X151892Y30099
X158115Y32639
X176276Y163957
X178435Y162052
X184150Y108839
X185420Y157353
X137541Y159893
X36706Y182769
X36706Y179070
X35774Y160366
X41492Y159084
X136906Y144653
X136906Y141709
X133223Y164315
X139319Y202187
X139319Y199906
X26158Y197869
X78740Y197104
X80510Y199652
X27559Y105797
X33859Y106178
X42827Y105184
X115379Y135247
X149987Y138049
X172720Y158623
X56725Y154625
X46256Y156774
X121872Y134990
X144791Y135001
X170561Y123952
X86741Y163449
X170180Y159512
X170561Y157435
X162941Y158877
X23495Y106426
X27432Y107061
X33655Y107442
X42164Y107315
X128930Y132033
X162837Y163884
X141455Y202187
X141732Y199906
X115280Y123567
X81717Y199070
X79847Y196378
X26543Y156845
X36703Y156845
X41402Y156972
X74132Y159826
X71484Y165856
X165100Y156718
X121824Y136285
X113370Y137654
X196088Y199390
X196903Y206229
X37719Y6731
X40005Y5588
X162433Y156845
X193421Y117856
X163312Y143613
X195139Y133404
X101479Y79502
X88773Y68961
X93345Y79375
X93472Y82550
X101625Y83820
X120904Y98933
X130683Y114554
X160147Y157099
X103677Y73797
X152957Y142979
X201331Y195616
X202057Y197896
X30480Y205613
X30480Y201803
X42926Y154051
X160147Y143487
X135255Y157988
X138557Y158242
X157734Y160678
X156337Y156975
X130429Y145796
X115285Y124842
X116967Y109474
X142748Y157203
X141678Y143804
X117091Y115440
X83843Y198940
X81223Y194816
X30861Y170942
X36553Y165100
X40598Y159978
X77083Y159826
X140208Y144653
X116837Y140054
X140462Y157203
X74437Y166170
X140193Y142352
X99129Y142055
X118237Y144145
X112141Y157353
X106830Y137134
X127943Y142979
X130960Y142906
X114514Y116165
X115660Y113934
X121793Y145415
X96782Y147513
X106830Y138399
X118283Y142617
X128397Y33655
X129946Y31979
X132842Y82954
X134557Y80963
X135767Y76749
X115951Y96901
X121285Y115316
X131820Y145415
X125118Y145415
X113030Y116205
X114396Y113933
X28652Y68205
X98171Y141224
X106830Y135870
X122011Y127544
X115264Y127837
X113018Y129679
X133060Y118654
X145833Y143756
X146454Y145833
X82804Y199771
X81153Y196215
X36322Y71882
X39116Y75057
X75819Y159826
X139573Y138684
X114831Y137651
X132461Y138884
X144549Y139697
X72919Y166145
X119423Y138895
X115334Y126360
X114512Y120677
X188341Y34925
X187706Y40005
X120269Y71120
X120777Y78867
X197485Y81915
X204320Y81915
X108458Y199517
X103251Y165227
X108673Y203288
X22352Y69215
X25400Y69088
X28448Y69469
X35179Y72771
X37973Y76073
X134747Y137160
X138684Y137160
X155194Y143129
X103124Y159027
X145944Y138155
X116588Y137098
X121799Y137699
X160274Y145565
X108839Y210693
X106426Y212090
X106680Y206121
X106680Y202057
X101473Y165227
X20828Y157099
X36092Y163337
X38816Y160609
X101346Y159027
X27686Y162687
X23368Y162687
X116548Y141415
X163322Y145690
X146449Y142203
X150152Y141097
X55753Y205740
X52197Y205613
X44958Y191008
X52070Y201318
X145956Y136614
X47952Y158341
X170643Y142654
X148948Y137033
X181991Y210693
X183388Y204851
X23749Y30734
X24384Y33909
X27813Y34036
X38735Y55626
X48768Y81915
X56388Y88446
X123317Y109347
X161163Y133477
X170200Y145562
X128306Y114082
X144653Y201924
X52578Y34036
X70993Y39624
X74803Y73660
X85880Y83516
X77724Y79327
X81153Y81105
X145288Y199644
X124841Y107950
X162433Y131826
X172720Y142748
X129517Y112431
X53721Y227584
X57531Y227584
X68072Y203708
X184404Y136294
X175949Y145288
X155166Y145133
X158270Y144625
X45339Y155902
X118654Y132110
X114951Y131976
X184473Y139007
X168488Y144336
X148342Y143364
X143002Y211201
X142494Y208153
X23241Y228981
X25654Y229108
M30